<svg xmlns="http://www.w3.org/2000/svg" xmlns:xlink="http://www.w3.org/1999/xlink" width="500" zoomAndPan="magnify" viewBox="0 0 375 374.999991" height="500" preserveAspectRatio="xMidYMid meet" version="1.0"><defs><filter x="0%" y="0%" width="100%" height="100%" id="e936af97f6"><feColorMatrix values="0 0 0 0 1 0 0 0 0 1 0 0 0 0 1 0 0 0 1 0" color-interpolation-filters="sRGB"/></filter><mask id="81d8342619"><g filter="url(#e936af97f6)"><rect x="-37.5" width="450" fill="#000000" y="-37.499999" height="449.999989" fill-opacity="0.2"/></g></mask><clipPath id="47b5bb0fe4"><path d="M 0.160156 1 L 27 1 L 27 65 L 0.160156 65 Z M 0.160156 1 " clip-rule="nonzero"/></clipPath><clipPath id="f04b16e630"><rect x="0" width="28" y="0" height="66"/></clipPath><clipPath id="35511f1acd"><path d="M 9.625 327 L 351 327 L 351 331 L 9.625 331 Z M 9.625 327 " clip-rule="nonzero"/></clipPath><clipPath id="5216396bc8"><path d="M 269.488281 204.324219 L 319.128906 204.324219 L 319.128906 253.964844 L 269.488281 253.964844 Z M 269.488281 204.324219 " clip-rule="nonzero"/></clipPath><clipPath id="09600fbe31"><path d="M 294.308594 204.324219 C 280.601562 204.324219 269.488281 215.4375 269.488281 229.144531 C 269.488281 242.851562 280.601562 253.964844 294.308594 253.964844 C 308.015625 253.964844 319.128906 242.851562 319.128906 229.144531 C 319.128906 215.4375 308.015625 204.324219 294.308594 204.324219 Z M 294.308594 204.324219 " clip-rule="nonzero"/></clipPath><clipPath id="9727aabb15"><path d="M 262.453125 203.125 L 326.453125 203.125 L 326.453125 246.378906 L 262.453125 246.378906 Z M 262.453125 203.125 " clip-rule="nonzero"/></clipPath></defs><path fill="#f2d6bd" d="M 236.589844 263.648438 C 223.4375 266.394531 209.84375 267.714844 196.027344 268.296875 C 160.953125 269.753906 124.097656 266.664062 90.484375 256.386719 C 45.742188 242.707031 27.085938 188.265625 56.070312 150.777344 C 64.515625 139.859375 75.699219 133.46875 86.539062 125.386719 C 99.292969 115.871094 110.976562 104.910156 119.96875 91.699219 C 127.816406 80.160156 132.992188 66.957031 141.566406 55.910156 C 151.039062 43.707031 165.203125 36.097656 180.351562 33.679688 C 234.722656 25 294.933594 56.375 327.84375 98.761719 C 364.097656 145.457031 333.175781 209.019531 291.296875 239.996094 C 274.484375 252.429688 256.011719 259.597656 236.589844 263.648438 Z M 236.589844 263.648438 " fill-opacity="1" fill-rule="nonzero"/><path fill="#f2d6bd" d="M 30.800781 191.410156 C 29.4375 191.410156 28.28125 190.363281 28.167969 188.980469 C 25.90625 161.425781 39.28125 138.972656 67.925781 122.261719 C 93.894531 107.113281 111.625 78.285156 111.808594 77.992188 C 112.566406 76.75 114.191406 76.34375 115.441406 77.101562 C 116.6875 77.863281 117.082031 79.484375 116.332031 80.738281 C 115.589844 81.964844 97.746094 110.992188 70.605469 126.828125 C 43.867188 142.425781 31.363281 163.1875 33.453125 188.550781 C 33.574219 190.011719 32.484375 191.28125 31.035156 191.398438 C 30.949219 191.410156 30.878906 191.410156 30.800781 191.410156 Z M 30.800781 191.410156 " fill-opacity="1" fill-rule="nonzero"/><path fill="#f29727" d="M 111.4375 316.855469 C 111.4375 316.855469 112.480469 324.628906 113.507812 325.800781 C 116.953125 329.765625 124.71875 328.429688 128.570312 326.035156 C 131.003906 324.523438 128.742188 319.300781 128.742188 319.300781 Z M 111.4375 316.855469 " fill-opacity="1" fill-rule="nonzero"/><path fill="#45424b" d="M 123.683594 308.875 C 123.683594 308.875 126.082031 314.179688 126.460938 314.738281 C 126.851562 315.300781 133.386719 323.324219 124.699219 325.09375 C 116.011719 326.863281 114.050781 325.621094 111.996094 319.75 C 110.8125 316.355469 112.101562 309.765625 112.101562 309.765625 C 112.101562 309.765625 112.574219 311.726562 115.5625 311.769531 C 120.804688 311.839844 123.101562 310.777344 123.683594 308.875 Z M 123.683594 308.875 " fill-opacity="1" fill-rule="nonzero"/><path fill="#ffffff" d="M 122.707031 312.804688 L 116.074219 313.738281 C 115.824219 313.773438 115.597656 313.601562 115.5625 313.347656 C 115.527344 313.097656 115.703125 312.875 115.953125 312.839844 L 122.585938 311.90625 C 122.835938 311.871094 123.058594 312.046875 123.09375 312.296875 C 123.128906 312.546875 122.957031 312.769531 122.707031 312.804688 Z M 122.707031 312.804688 " fill-opacity="1" fill-rule="nonzero"/><path fill="#ffffff" d="M 123.121094 314.601562 L 116.488281 315.535156 C 116.238281 315.570312 116.011719 315.394531 115.976562 315.144531 C 115.945312 314.894531 116.117188 314.671875 116.367188 314.636719 L 123 313.703125 C 123.25 313.667969 123.472656 313.839844 123.507812 314.09375 C 123.542969 314.332031 123.371094 314.566406 123.121094 314.601562 Z M 123.121094 314.601562 " fill-opacity="1" fill-rule="nonzero"/><path fill="#ffffff" d="M 123.578125 316.707031 L 116.945312 317.640625 C 116.695312 317.675781 116.46875 317.503906 116.4375 317.253906 C 116.402344 317.003906 116.574219 316.777344 116.824219 316.742188 L 123.457031 315.8125 C 123.707031 315.777344 123.933594 315.949219 123.964844 316.199219 C 124 316.449219 123.828125 316.675781 123.578125 316.707031 Z M 123.578125 316.707031 " fill-opacity="1" fill-rule="nonzero"/><path fill="#45424b" d="M 111.011719 226.582031 C 107.386719 211.289062 106.28125 195.710938 106.28125 195.710938 L 92.046875 184.585938 L 60.984375 195.933594 C 59.949219 209.796875 60.734375 271.90625 60.691406 280.445312 C 60.648438 288.988281 60.59375 309.210938 60.59375 309.210938 C 60.59375 309.210938 70.847656 311.492188 74.941406 308.039062 C 74.941406 308.039062 77.003906 293.132812 77.503906 286.164062 C 79.199219 262.398438 83.574219 222.316406 83.574219 222.316406 C 83.574219 222.316406 90.25 241.332031 95.96875 256.378906 L 109.433594 307.304688 C 122.082031 308.53125 125.675781 305.273438 125.675781 305.273438 C 125.675781 305.273438 113.457031 236.878906 111.011719 226.582031 Z M 111.011719 226.582031 " fill-opacity="1" fill-rule="nonzero"/><path fill="#f2d6bd" d="M 83.574219 222.523438 C 83.480469 222.523438 83.394531 222.457031 83.378906 222.359375 L 81.519531 212.859375 C 81.503906 212.75 81.574219 212.644531 81.675781 212.628906 C 81.789062 212.609375 81.890625 212.679688 81.910156 212.78125 L 83.765625 222.28125 C 83.785156 222.394531 83.714844 222.5 83.609375 222.515625 C 83.601562 222.523438 83.59375 222.523438 83.574219 222.523438 Z M 83.574219 222.523438 " fill-opacity="1" fill-rule="nonzero"/><path fill="#f2d6bd" d="M 82.652344 217.773438 C 82.625 217.773438 82.601562 217.765625 82.574219 217.757812 C 82.425781 217.695312 79.050781 216.296875 77.617188 215.113281 C 77.53125 215.046875 77.523438 214.917969 77.589844 214.828125 C 77.660156 214.742188 77.789062 214.734375 77.875 214.804688 C 79.265625 215.945312 82.695312 217.367188 82.730469 217.386719 C 82.832031 217.429688 82.875 217.542969 82.84375 217.644531 C 82.808594 217.730469 82.730469 217.773438 82.652344 217.773438 Z M 82.652344 217.773438 " fill-opacity="1" fill-rule="nonzero"/><path fill="#f29727" d="M 43.945312 323.425781 C 43.945312 323.425781 43.132812 328.101562 48.632812 328.660156 C 54.136719 329.222656 57.996094 328.921875 60.835938 328.308594 C 63.679688 327.683594 65.277344 326.796875 68.265625 327.046875 C 71.253906 327.296875 74.308594 328.539062 75.8125 327.019531 C 77.046875 325.777344 75.914062 322.375 75.914062 322.375 L 59.445312 322.453125 Z M 43.945312 323.425781 " fill-opacity="1" fill-rule="nonzero"/><path fill="#45424b" d="M 61.363281 313.382812 C 61.363281 313.382812 54.835938 318.039062 51.621094 319.628906 C 48.410156 321.207031 44.238281 320.113281 43.953125 323.425781 C 43.667969 326.742188 52.738281 326.019531 58.046875 325.527344 C 63.359375 325.035156 67.082031 322.960938 69.863281 323.789062 C 72.644531 324.609375 75.734375 323.289062 75.933594 322.375 C 76.132812 321.457031 74.792969 313.390625 74.085938 312.625 C 74.085938 312.625 73.695312 314.214844 68.464844 314.351562 C 63.230469 314.480469 61.363281 313.382812 61.363281 313.382812 Z M 61.363281 313.382812 " fill-opacity="1" fill-rule="nonzero"/><path fill="#ffffff" d="M 55.277344 320.121094 L 55.199219 320.171875 C 55.042969 320.265625 54.851562 320.214844 54.757812 320.058594 L 53.765625 318.375 C 53.679688 318.21875 53.722656 318.019531 53.875 317.933594 L 53.953125 317.882812 C 54.109375 317.789062 54.300781 317.839844 54.394531 317.996094 L 55.386719 319.679688 C 55.484375 319.828125 55.429688 320.023438 55.277344 320.121094 Z M 55.277344 320.121094 " fill-opacity="1" fill-rule="nonzero"/><path fill="#ffffff" d="M 56.761719 319.066406 L 56.683594 319.117188 C 56.527344 319.214844 56.339844 319.160156 56.242188 319.007812 L 55.25 317.320312 C 55.164062 317.167969 55.207031 316.96875 55.363281 316.882812 L 55.441406 316.828125 C 55.59375 316.734375 55.785156 316.785156 55.878906 316.941406 L 56.875 318.625 C 56.960938 318.78125 56.90625 318.980469 56.761719 319.066406 Z M 56.761719 319.066406 " fill-opacity="1" fill-rule="nonzero"/><path fill="#ffffff" d="M 58.488281 317.953125 L 58.410156 318.003906 C 58.253906 318.097656 58.066406 318.046875 57.96875 317.890625 L 56.976562 316.207031 C 56.890625 316.050781 56.933594 315.855469 57.089844 315.765625 L 57.167969 315.714844 C 57.324219 315.621094 57.511719 315.671875 57.609375 315.828125 L 58.601562 317.511719 C 58.6875 317.667969 58.644531 317.867188 58.488281 317.953125 Z M 58.488281 317.953125 " fill-opacity="1" fill-rule="nonzero"/><path fill="#ffffff" d="M 60.199219 316.855469 L 60.121094 316.90625 C 59.964844 317.003906 59.773438 316.949219 59.679688 316.796875 L 58.6875 315.109375 C 58.601562 314.957031 58.644531 314.757812 58.800781 314.671875 L 58.878906 314.617188 C 59.03125 314.523438 59.222656 314.574219 59.316406 314.730469 L 60.3125 316.414062 C 60.398438 316.5625 60.34375 316.761719 60.199219 316.855469 Z M 60.199219 316.855469 " fill-opacity="1" fill-rule="nonzero"/><path fill="#ffffff" d="M 75.136719 162.453125 C 65.121094 164.023438 47.953125 168.222656 47.953125 168.222656 C 48.625 157.96875 49.859375 149.851562 51.382812 143.4375 C 56.789062 120.585938 67.367188 119.167969 67.367188 119.167969 L 75.199219 123.140625 L 84.277344 126.992188 C 84.277344 126.992188 85.15625 160.878906 75.136719 162.453125 Z M 75.136719 162.453125 " fill-opacity="1" fill-rule="nonzero"/><path fill="#ffffff" d="M 63.894531 164.515625 C 63.894531 164.515625 68.316406 176.917969 59.664062 178.230469 C 56.503906 178.714844 41.46875 166.5625 41.46875 166.5625 L 51.40625 160.285156 Z M 63.894531 164.515625 " fill-opacity="1" fill-rule="nonzero"/><path fill="#f29727" d="M 75.199219 123.140625 C 74.542969 131.707031 72.832031 142.660156 68.394531 143.609375 C 62.882812 144.78125 54.992188 143.9375 51.371094 143.4375 C 56.777344 120.585938 66.269531 118.988281 66.269531 118.988281 Z M 75.199219 123.140625 " fill-opacity="1" fill-rule="nonzero"/><path fill="#45424b" d="M 62.304688 144.289062 C 62.304688 144.289062 62.296875 144.289062 62.304688 144.289062 C 62.238281 144.289062 62.191406 144.238281 62.191406 144.179688 C 62.191406 144.109375 62.617188 137.660156 63.488281 134.167969 C 63.507812 134.109375 63.566406 134.074219 63.617188 134.089844 C 63.679688 134.109375 63.714844 134.167969 63.695312 134.222656 C 62.824219 137.703125 62.410156 144.125 62.410156 144.195312 C 62.410156 144.238281 62.367188 144.289062 62.304688 144.289062 Z M 62.304688 144.289062 " fill-opacity="1" fill-rule="nonzero"/><path fill="#ffffff" d="M 70.335938 125.621094 C 70.371094 125.523438 78.894531 134.558594 84.457031 132.734375 C 90.675781 130.6875 93.457031 118.019531 93.457031 118.019531 L 92.472656 105.300781 L 92.460938 105.09375 L 92.445312 104.332031 L 91.21875 104.78125 L 86.339844 106.558594 L 84.378906 107.277344 L 79.371094 109.097656 C 79.371094 109.097656 79.285156 112.390625 78.664062 115.058594 C 78.59375 115.34375 78.53125 115.601562 78.464844 115.859375 C 78.324219 116.300781 78.117188 116.714844 77.886719 117.0625 C 77.347656 117.898438 76.683594 118.433594 76.683594 118.441406 C 75.421875 121.09375 70.378906 125.621094 70.335938 125.621094 Z M 70.335938 125.621094 " fill-opacity="1" fill-rule="nonzero"/><path fill="#ffffff" d="M 72.226562 101.550781 C 73.800781 108.460938 76.582031 115.378906 83.273438 114.351562 C 87.953125 113.625 92.460938 107.140625 93.472656 101.1875 C 93.992188 98.113281 94.476562 95.4375 94.464844 93.417969 C 94.457031 91.820312 94.378906 90.816406 94.378906 90.816406 L 93.230469 87.34375 L 92.546875 85.316406 C 92.546875 85.316406 91.046875 84.097656 89.363281 82.726562 C 87.261719 81.007812 84.035156 83.492188 83.980469 83.371094 C 83.894531 83.191406 74.492188 81.878906 71.539062 85.644531 C 71.527344 85.652344 71.519531 85.660156 71.519531 85.667969 C 71.253906 86.015625 71.046875 86.359375 70.914062 86.714844 C 70.804688 87.007812 70.75 87.308594 70.75 87.613281 C 70.75 88.191406 70.777344 89.0625 70.8125 90.160156 C 70.839844 90.617188 70.855469 91.117188 70.890625 91.65625 C 70.941406 92.550781 71.019531 93.535156 71.121094 94.574219 C 71.332031 96.742188 71.675781 99.160156 72.226562 101.550781 Z M 72.226562 101.550781 " fill-opacity="1" fill-rule="nonzero"/><path fill="#45424b" d="M 73.039062 104.71875 C 74.480469 111.035156 77.167969 114.964844 83.34375 114.351562 C 89.25 113.769531 92.359375 107.457031 93.28125 102.019531 C 92.78125 100.730469 92.265625 97.542969 92.265625 97.542969 C 92.265625 97.542969 90.753906 95.195312 90.769531 95.28125 C 90.96875 96.257812 90.898438 102.925781 88.03125 103.753906 C 84.914062 104.660156 83.800781 105.464844 82.609375 105.445312 C 81.417969 105.429688 81.0625 105.015625 80.019531 105.273438 C 78.964844 105.53125 78.246094 106.085938 76.832031 105.84375 C 75.5 105.628906 74.035156 106.570312 73.039062 104.71875 Z M 73.039062 104.71875 " fill-opacity="1" fill-rule="nonzero"/><path fill="#45424b" d="M 94.777344 93.339844 C 94.777344 93.339844 95.898438 78.207031 87.082031 78.207031 C 87.082031 78.207031 80.214844 74.996094 72.625 79.375 C 67.632812 82.25 69.4375 88.285156 69.941406 90.375 C 70.25 91.6875 70.785156 92.777344 70.957031 92.707031 C 71.441406 92.507812 71.496094 91.195312 73.265625 91.601562 C 80.441406 93.242188 84.941406 87.863281 86.953125 89.039062 C 88.964844 90.210938 93.292969 102.019531 93.292969 102.019531 C 93.292969 102.019531 93.652344 96.4375 94.777344 93.339844 Z M 94.777344 93.339844 " fill-opacity="1" fill-rule="nonzero"/><path fill="#ffffff" d="M 93.03125 94.652344 C 93.03125 94.652344 97.003906 91.800781 97.058594 95.929688 C 97.109375 100.058594 93.273438 102.027344 93.273438 102.027344 Z M 93.03125 94.652344 " fill-opacity="1" fill-rule="nonzero"/><path fill="#45424b" d="M 94.09375 95.929688 C 94.09375 95.929688 97.253906 94.816406 94.222656 99.390625 Z M 94.09375 95.929688 " fill-opacity="1" fill-rule="nonzero"/><path fill="#45424b" d="M 76.519531 99.523438 C 76.601562 99.820312 76.613281 100.09375 76.550781 100.339844 C 76.488281 100.585938 76.371094 100.734375 76.195312 100.78125 C 76.023438 100.832031 75.84375 100.769531 75.660156 100.59375 C 75.476562 100.417969 75.339844 100.183594 75.257812 99.882812 C 75.171875 99.585938 75.160156 99.316406 75.222656 99.070312 C 75.285156 98.824219 75.402344 98.675781 75.578125 98.625 C 75.75 98.574219 75.929688 98.636719 76.113281 98.8125 C 76.296875 98.988281 76.433594 99.222656 76.519531 99.523438 Z M 76.519531 99.523438 " fill-opacity="1" fill-rule="nonzero"/><path fill="#45424b" d="M 84.144531 98.269531 C 84.226562 98.566406 84.238281 98.839844 84.175781 99.085938 C 84.113281 99.332031 83.996094 99.480469 83.820312 99.53125 C 83.648438 99.578125 83.46875 99.515625 83.285156 99.339844 C 83.101562 99.167969 82.964844 98.929688 82.882812 98.632812 C 82.796875 98.332031 82.785156 98.0625 82.847656 97.816406 C 82.910156 97.570312 83.027344 97.421875 83.203125 97.371094 C 83.375 97.320312 83.554688 97.382812 83.738281 97.558594 C 83.921875 97.734375 84.058594 97.972656 84.144531 98.269531 Z M 84.144531 98.269531 " fill-opacity="1" fill-rule="nonzero"/><path fill="#45424b" d="M 76.832031 97.554688 C 76.832031 97.554688 74.855469 96.265625 73.289062 97.234375 Z M 76.832031 97.554688 " fill-opacity="1" fill-rule="nonzero"/><path fill="#45424b" d="M 85.941406 95.34375 C 85.785156 95.332031 83.34375 95.066406 82.003906 96.714844 Z M 85.941406 95.34375 " fill-opacity="1" fill-rule="nonzero"/><path fill="#45424b" d="M 79.699219 102.847656 C 79.214844 102.847656 79 102.621094 78.902344 102.449219 C 78.617188 101.941406 78.929688 101.144531 79.378906 100.800781 C 79.429688 100.757812 79.5 100.773438 79.542969 100.824219 C 79.578125 100.878906 79.570312 100.945312 79.515625 100.988281 C 79.109375 101.300781 78.902344 101.972656 79.101562 102.335938 C 79.292969 102.683594 79.820312 102.707031 80.578125 102.414062 C 80.640625 102.390625 80.707031 102.421875 80.726562 102.484375 C 80.753906 102.542969 80.71875 102.613281 80.65625 102.628906 C 80.261719 102.785156 79.949219 102.847656 79.699219 102.847656 Z M 79.699219 102.847656 " fill-opacity="1" fill-rule="nonzero"/><path fill="#ffffff" d="M 78.707031 108.804688 C 78.707031 108.804688 78.800781 108.96875 79.015625 109.167969 C 79.386719 109.53125 80.113281 110.023438 81.210938 109.894531 C 82.289062 109.765625 82.972656 109.066406 83.324219 108.582031 C 83.515625 108.304688 83.609375 108.105469 83.609375 108.105469 Z M 78.707031 108.804688 " fill-opacity="1" fill-rule="nonzero"/><path fill="#f29727" d="M 112.992188 123.996094 C 106.574219 136.199219 105.476562 176.441406 107.039062 197.730469 C 92.953125 201.054688 72.710938 202.703125 60.714844 199.386719 C 62.453125 176.648438 59.664062 139.125 66.269531 118.988281 C 66.269531 118.988281 73.792969 116.820312 78.730469 116.621094 C 74.570312 122.261719 90.175781 123.789062 93.472656 116.621094 C 93.472656 116.621094 109.378906 119.929688 112.992188 123.996094 Z M 112.992188 123.996094 " fill-opacity="1" fill-rule="nonzero"/><path fill="#45424b" d="M 62.304688 144.289062 C 62.304688 144.289062 62.296875 144.289062 62.304688 144.289062 C 62.238281 144.289062 62.191406 144.238281 62.191406 144.179688 C 62.191406 144.109375 62.617188 137.660156 63.488281 134.167969 C 63.507812 134.109375 63.566406 134.074219 63.617188 134.089844 C 63.679688 134.109375 63.714844 134.167969 63.695312 134.222656 C 62.824219 137.703125 62.410156 144.125 62.410156 144.195312 C 62.410156 144.238281 62.367188 144.289062 62.304688 144.289062 Z M 62.304688 144.289062 " fill-opacity="1" fill-rule="nonzero"/><path fill="#ffffff" d="M 133.421875 167.652344 C 135.390625 175.5 128.550781 178.757812 113.785156 173.246094 C 106.808594 170.648438 101.773438 169.734375 100.132812 168.253906 L 101.039062 160.15625 C 102.265625 160.527344 109.96875 160.714844 116.894531 161.625 L 110.910156 148.382812 C 112.542969 148.253906 118.820312 146.777344 124.277344 141.71875 C 129.296875 152.667969 131.730469 160.914062 133.421875 167.652344 Z M 133.421875 167.652344 " fill-opacity="1" fill-rule="nonzero"/><path fill="#f29727" d="M 112.136719 123.234375 C 112.136719 123.234375 116.679688 125.507812 120.683594 132.3125 C 124.3125 138.480469 127.964844 146.097656 127.214844 146.96875 C 122.59375 152.390625 111.929688 153.03125 111.929688 153.03125 L 107.082031 143.902344 Z M 112.136719 123.234375 " fill-opacity="1" fill-rule="nonzero"/><path fill="#45424b" d="M 130.375 165.855469 C 130.339844 165.855469 130.304688 165.835938 130.289062 165.8125 C 127.09375 161.398438 116.988281 161.71875 116.894531 161.726562 C 116.832031 161.726562 116.789062 161.683594 116.78125 161.625 C 116.78125 161.5625 116.824219 161.511719 116.886719 161.511719 C 116.910156 161.511719 119.484375 161.425781 122.429688 161.882812 C 125.160156 162.3125 128.757812 163.324219 130.46875 165.683594 C 130.503906 165.734375 130.496094 165.804688 130.445312 165.835938 C 130.425781 165.847656 130.402344 165.855469 130.375 165.855469 Z M 130.375 165.855469 " fill-opacity="1" fill-rule="nonzero"/><path fill="#ffffff" d="M 90.933594 168.695312 C 91.839844 168.101562 92.945312 167.867188 96.703125 168.410156 C 98.964844 168.738281 102.582031 167.910156 103.570312 167.695312 L 103.207031 160.726562 C 101.746094 160.34375 99.371094 158.78125 97.601562 157.945312 C 95.382812 156.898438 92.945312 155.113281 91.082031 155.75 C 87.910156 156.820312 84.144531 158.695312 84.613281 159.878906 C 85.097656 161.0625 88.828125 159.894531 88.828125 159.894531 C 88.828125 159.894531 86.910156 160.949219 87.152344 162.226562 C 87.394531 163.507812 89.078125 163.929688 89.078125 163.929688 C 88.171875 165.257812 89.800781 166.492188 89.800781 166.492188 C 89.058594 167.695312 90.207031 169.164062 90.933594 168.695312 Z M 90.933594 168.695312 " fill-opacity="1" fill-rule="nonzero"/><path fill="#45424b" d="M 89.8125 166.605469 C 89.777344 166.605469 89.75 166.589844 89.726562 166.5625 C 89.691406 166.519531 89.691406 166.449219 89.742188 166.40625 C 89.800781 166.363281 91.160156 165.242188 93.292969 165.113281 C 93.292969 165.113281 93.292969 165.113281 93.300781 165.113281 C 93.359375 165.113281 93.402344 165.15625 93.414062 165.214844 C 93.414062 165.277344 93.371094 165.328125 93.308594 165.328125 C 91.253906 165.457031 89.898438 166.5625 89.890625 166.570312 C 89.863281 166.597656 89.835938 166.605469 89.8125 166.605469 Z M 89.8125 166.605469 " fill-opacity="1" fill-rule="nonzero"/><path fill="#45424b" d="M 89.085938 164.042969 C 89.050781 164.042969 89.023438 164.03125 89.007812 164.007812 C 88.964844 163.964844 88.972656 163.894531 89.015625 163.851562 C 89.085938 163.789062 90.785156 162.304688 92.800781 161.976562 C 92.859375 161.960938 92.910156 162.003906 92.929688 162.0625 C 92.9375 162.125 92.894531 162.175781 92.84375 162.191406 C 90.890625 162.511719 89.179688 164.007812 89.164062 164.015625 C 89.136719 164.03125 89.113281 164.042969 89.085938 164.042969 Z M 89.085938 164.042969 " fill-opacity="1" fill-rule="nonzero"/><path fill="#45424b" d="M 88.835938 160.007812 C 88.800781 160.007812 88.757812 159.992188 88.742188 159.957031 C 88.714844 159.90625 88.730469 159.835938 88.785156 159.808594 C 88.800781 159.800781 90.554688 158.824219 92.652344 158.824219 C 92.722656 158.824219 92.800781 158.859375 92.789062 158.9375 C 92.789062 158.996094 92.738281 159.050781 92.679688 159.050781 C 92.667969 159.050781 92.652344 159.050781 92.644531 159.050781 C 90.605469 159.050781 88.90625 159.992188 88.886719 160 C 88.871094 160 88.851562 160.007812 88.835938 160.007812 Z M 88.835938 160.007812 " fill-opacity="1" fill-rule="nonzero"/><path fill="#45424b" d="M 97.714844 169.421875 L 67.3125 169.421875 L 67.3125 166.953125 L 95.546875 166.953125 C 96.738281 166.953125 97.703125 167.917969 97.703125 169.109375 L 97.703125 169.421875 Z M 97.714844 169.421875 " fill-opacity="1" fill-rule="nonzero"/><path fill="#45424b" d="M 35.765625 169.421875 L 86.640625 169.421875 L 81.519531 136.570312 L 30.644531 136.570312 Z M 35.765625 169.421875 " fill-opacity="1" fill-rule="nonzero"/><path fill="#ffffff" d="M 61.378906 153.664062 C 61.472656 154.167969 61.472656 154.667969 61.378906 155.164062 C 61.285156 155.664062 61.109375 156.121094 60.847656 156.535156 C 60.582031 156.953125 60.253906 157.296875 59.859375 157.566406 C 59.46875 157.835938 59.039062 158.015625 58.574219 158.101562 C 58.109375 158.1875 57.648438 158.171875 57.183594 158.058594 C 56.71875 157.941406 56.289062 157.738281 55.894531 157.441406 C 55.503906 157.144531 55.175781 156.78125 54.914062 156.347656 C 54.648438 155.914062 54.472656 155.449219 54.378906 154.945312 C 54.289062 154.441406 54.289062 153.941406 54.378906 153.441406 C 54.472656 152.945312 54.648438 152.488281 54.914062 152.070312 C 55.175781 151.65625 55.503906 151.3125 55.898438 151.039062 C 56.292969 150.769531 56.71875 150.589844 57.183594 150.507812 C 57.648438 150.421875 58.113281 150.4375 58.578125 150.550781 C 59.039062 150.664062 59.46875 150.871094 59.863281 151.164062 C 60.257812 151.460938 60.585938 151.824219 60.847656 152.257812 C 61.109375 152.691406 61.289062 153.160156 61.378906 153.664062 Z M 61.378906 153.664062 " fill-opacity="1" fill-rule="nonzero"/><path fill="#ffffff" d="M 44.558594 169.394531 C 44.558594 169.394531 44.980469 169.195312 44.78125 167.289062 C 44.585938 165.386719 45.171875 163.523438 47.003906 163.730469 C 47.003906 163.730469 48.566406 161.839844 50.199219 163.714844 C 50.199219 163.714844 52.089844 162.859375 53.332031 164.429688 C 53.332031 164.429688 54.894531 163.558594 55.683594 164.714844 C 56.46875 165.871094 56.855469 169.222656 55.691406 170.050781 C 54.515625 170.882812 51.519531 171.339844 48.773438 171.296875 C 46.027344 171.253906 44.558594 169.394531 44.558594 169.394531 Z M 44.558594 169.394531 " fill-opacity="1" fill-rule="nonzero"/><path fill="#45424b" d="M 47.003906 169.007812 C 46.984375 169.007812 46.96875 169 46.949219 168.988281 C 46.898438 168.957031 46.882812 168.894531 46.90625 168.84375 C 47.996094 166.976562 46.90625 163.789062 46.898438 163.765625 C 46.882812 163.703125 46.90625 163.644531 46.96875 163.625 C 47.027344 163.609375 47.089844 163.636719 47.105469 163.695312 C 47.148438 163.835938 48.238281 167.011719 47.105469 168.957031 C 47.082031 168.988281 47.035156 169.007812 47.003906 169.007812 Z M 47.003906 169.007812 " fill-opacity="1" fill-rule="nonzero"/><path fill="#45424b" d="M 50.199219 169.171875 C 50.179688 169.171875 50.171875 169.171875 50.15625 169.164062 C 50.101562 169.136719 50.078125 169.078125 50.09375 169.015625 C 51.042969 166.839844 50.09375 163.773438 50.085938 163.738281 C 50.066406 163.679688 50.101562 163.617188 50.15625 163.601562 C 50.214844 163.582031 50.277344 163.617188 50.292969 163.671875 C 50.335938 163.800781 51.277344 166.855469 50.292969 169.101562 C 50.285156 169.144531 50.242188 169.171875 50.199219 169.171875 Z M 50.199219 169.171875 " fill-opacity="1" fill-rule="nonzero"/><path fill="#45424b" d="M 52.945312 169.457031 C 52.925781 169.457031 52.902344 169.449219 52.882812 169.4375 C 52.832031 169.40625 52.824219 169.335938 52.847656 169.292969 C 53.988281 167.554688 53.230469 164.480469 53.21875 164.457031 C 53.203125 164.394531 53.238281 164.335938 53.296875 164.328125 C 53.359375 164.308594 53.417969 164.34375 53.425781 164.402344 C 53.460938 164.535156 54.222656 167.597656 53.03125 169.414062 C 53.011719 169.4375 52.980469 169.457031 52.945312 169.457031 Z M 52.945312 169.457031 " fill-opacity="1" fill-rule="nonzero"/><path fill="#45424b" d="M 300.773438 237.285156 L 146.964844 237.285156 C 144.078125 237.285156 142.171875 234.777344 142.707031 231.6875 L 168.925781 78.519531 C 169.402344 75.746094 172.027344 73.285156 174.796875 73 L 321.828125 58.25 C 325.132812 57.921875 327.542969 60.089844 327.1875 63.113281 L 307.792969 231.109375 C 307.394531 234.519531 304.242188 237.285156 300.773438 237.285156 Z M 300.773438 237.285156 " fill-opacity="1" fill-rule="nonzero"/><path fill="#ffffff" d="M 296.703125 233.222656 L 142.898438 233.222656 C 140.011719 233.222656 138.105469 230.71875 138.640625 227.628906 L 164.859375 74.460938 C 165.332031 71.6875 167.957031 69.226562 170.730469 68.941406 L 317.757812 54.191406 C 321.066406 53.863281 323.476562 56.03125 323.121094 59.054688 L 303.726562 227.050781 C 303.335938 230.460938 300.183594 233.222656 296.703125 233.222656 Z M 296.703125 233.222656 " fill-opacity="1" fill-rule="nonzero"/><path fill="#f2d6bd" d="M 295.269531 224.699219 L 146.257812 225.425781 L 168.976562 90.757812 L 312.613281 78.242188 Z M 295.269531 224.699219 " fill-opacity="1" fill-rule="nonzero"/><path fill="#f29727" d="M 176.378906 78.855469 C 176.164062 80.152344 174.9375 81.292969 173.640625 81.410156 C 172.34375 81.53125 171.480469 80.582031 171.699219 79.296875 C 171.914062 78.007812 173.132812 76.871094 174.425781 76.738281 C 175.714844 76.617188 176.585938 77.558594 176.378906 78.855469 Z M 176.378906 78.855469 " fill-opacity="1" fill-rule="nonzero"/><path fill="#f29727" d="M 192.769531 77.308594 C 192.5625 78.613281 191.320312 79.769531 189.996094 79.890625 C 188.675781 80.011719 187.785156 79.054688 187.992188 77.757812 C 188.203125 76.464844 189.445312 75.304688 190.757812 75.175781 C 192.078125 75.054688 192.976562 76.007812 192.769531 77.308594 Z M 192.769531 77.308594 " fill-opacity="1" fill-rule="nonzero"/><path fill="#f29727" d="M 184.53125 78.085938 C 184.316406 79.382812 183.089844 80.539062 181.777344 80.660156 C 180.472656 80.78125 179.589844 79.832031 179.808594 78.535156 C 180.023438 77.242188 181.25 76.09375 182.554688 75.972656 C 183.855469 75.84375 184.746094 76.792969 184.53125 78.085938 Z M 184.53125 78.085938 " fill-opacity="1" fill-rule="nonzero"/><path fill="#f29727" d="M 269.3125 198.042969 L 175.773438 199.933594 L 178.183594 184.871094 L 271.347656 182.132812 Z M 269.3125 198.042969 " fill-opacity="1" fill-rule="nonzero"/><path fill="#ffffff" d="M 212.210938 187.03125 L 211.5625 193.171875 L 213.902344 193.171875 L 213.730469 194.828125 L 209.300781 194.828125 L 210.121094 187.03125 Z M 212.210938 187.03125 " fill-opacity="1" fill-rule="nonzero"/><path fill="#ffffff" d="M 218.140625 194.90625 C 216.007812 194.90625 214.453125 193.25 214.695312 190.898438 C 214.945312 188.550781 216.847656 186.910156 218.980469 186.910156 C 221.121094 186.910156 222.660156 188.558594 222.417969 190.898438 C 222.167969 193.25 220.277344 194.90625 218.140625 194.90625 Z M 218.359375 192.894531 C 219.4375 192.894531 220.171875 192.109375 220.292969 190.90625 C 220.421875 189.683594 219.851562 188.90625 218.773438 188.90625 C 217.683594 188.90625 216.960938 189.683594 216.828125 190.90625 C 216.707031 192.109375 217.261719 192.894531 218.359375 192.894531 Z M 218.359375 192.894531 " fill-opacity="1" fill-rule="nonzero"/><path fill="#ffffff" d="M 230.550781 189.59375 L 228.296875 189.59375 C 228.109375 189.191406 227.703125 188.957031 227.125 188.957031 C 226.070312 188.957031 225.34375 189.714844 225.222656 190.917969 C 225.085938 192.253906 225.671875 192.972656 226.90625 192.972656 C 227.632812 192.972656 228.203125 192.617188 228.582031 191.945312 L 226.484375 191.945312 L 226.648438 190.382812 L 230.550781 190.382812 L 230.328125 192.480469 C 229.757812 193.621094 228.460938 194.878906 226.503906 194.878906 C 224.195312 194.878906 222.847656 193.238281 223.097656 190.90625 C 223.339844 188.585938 225.015625 186.945312 227.324219 186.945312 C 229.230469 186.953125 230.421875 187.972656 230.550781 189.59375 Z M 230.550781 189.59375 " fill-opacity="1" fill-rule="nonzero"/><path fill="#ffffff" d="M 231.847656 187.03125 L 233.9375 187.03125 L 233.117188 194.828125 L 231.027344 194.828125 Z M 231.847656 187.03125 " fill-opacity="1" fill-rule="nonzero"/><path fill="#ffffff" d="M 242.105469 187.03125 L 241.285156 194.828125 L 239.195312 194.828125 L 236.863281 190.46875 L 236.40625 194.828125 L 234.316406 194.828125 L 235.136719 187.03125 L 237.226562 187.03125 L 239.550781 191.445312 L 240.015625 187.03125 Z M 242.105469 187.03125 " fill-opacity="1" fill-rule="nonzero"/><path fill="#ffffff" d="M 251.546875 112.648438 C 250.226562 122.363281 241.019531 130.777344 231.085938 131.371094 C 221.269531 131.957031 214.550781 124.667969 215.957031 115.144531 C 217.355469 105.6875 226.285156 97.441406 236.011719 96.65625 C 245.847656 95.867188 252.851562 103.003906 251.546875 112.648438 Z M 251.546875 112.648438 " fill-opacity="1" fill-rule="nonzero"/><path fill="#45424b" d="M 229.972656 131.726562 C 225.570312 131.726562 221.710938 130.144531 219.015625 127.199219 C 216.148438 124.074219 214.945312 119.773438 215.636719 115.101562 C 217.054688 105.550781 226.171875 97.136719 235.976562 96.351562 C 240.933594 95.957031 245.292969 97.484375 248.308594 100.660156 C 251.226562 103.746094 252.480469 108.011719 251.847656 112.691406 C 250.511719 122.5625 241.199219 131.078125 231.097656 131.691406 C 230.726562 131.707031 230.34375 131.726562 229.972656 131.726562 Z M 237.496094 96.914062 C 237.011719 96.914062 236.527344 96.929688 236.027344 96.972656 C 226.503906 97.742188 217.625 105.914062 216.25 115.195312 C 215.585938 119.679688 216.734375 123.789062 219.472656 126.785156 C 222.261719 129.835938 226.390625 131.355469 231.0625 131.070312 C 240.882812 130.480469 249.929688 122.199219 251.226562 112.613281 C 251.832031 108.132812 250.640625 104.039062 247.851562 101.09375 C 245.285156 98.375 241.640625 96.914062 237.496094 96.914062 Z M 237.496094 96.914062 " fill-opacity="1" fill-rule="nonzero"/><path fill="#45424b" d="M 240.015625 109.132812 C 239.566406 112.269531 236.589844 115.007812 233.367188 115.222656 C 230.164062 115.445312 227.945312 113.089844 228.402344 109.972656 C 228.859375 106.863281 231.8125 104.152344 235.007812 103.910156 C 238.210938 103.667969 240.464844 106.007812 240.015625 109.132812 Z M 240.015625 109.132812 " fill-opacity="1" fill-rule="nonzero"/><path fill="#45424b" d="M 241.726562 123.367188 L 222.582031 124.601562 L 223.289062 119.800781 C 223.523438 118.226562 225 116.871094 226.597656 116.757812 L 239.863281 115.84375 C 241.484375 115.730469 242.625 116.921875 242.402344 118.511719 Z M 241.726562 123.367188 " fill-opacity="1" fill-rule="nonzero"/><path fill="#ffffff" d="M 272.324219 168.84375 L 180.871094 172.226562 L 182.855469 159.765625 L 274.015625 155.707031 Z M 272.324219 168.84375 " fill-opacity="1" fill-rule="nonzero"/><path fill="#45424b" d="M 214.878906 164.371094 L 214.058594 165.628906 L 212.199219 165.628906 L 214.082031 163.03125 L 212.660156 160.621094 L 214.558594 160.621094 L 215.292969 161.882812 L 216.121094 160.621094 L 217.976562 160.621094 L 216.0625 163.179688 L 217.511719 165.640625 L 215.613281 165.640625 Z M 214.878906 164.371094 " fill-opacity="1" fill-rule="nonzero"/><path fill="#45424b" d="M 220.292969 164.371094 L 219.472656 165.628906 L 217.617188 165.628906 L 219.5 163.03125 L 218.074219 160.621094 L 219.972656 160.621094 L 220.707031 161.882812 L 221.535156 160.621094 L 223.394531 160.621094 L 221.476562 163.179688 L 222.925781 165.640625 L 221.027344 165.640625 Z M 220.292969 164.371094 " fill-opacity="1" fill-rule="nonzero"/><path fill="#45424b" d="M 225.707031 164.371094 L 224.886719 165.628906 L 223.03125 165.628906 L 224.914062 163.03125 L 223.488281 160.621094 L 225.386719 160.621094 L 226.121094 161.882812 L 226.949219 160.621094 L 228.808594 160.621094 L 226.890625 163.179688 L 228.339844 165.640625 L 226.441406 165.640625 Z M 225.707031 164.371094 " fill-opacity="1" fill-rule="nonzero"/><path fill="#45424b" d="M 231.121094 164.371094 L 230.300781 165.628906 L 228.445312 165.628906 L 230.328125 163.03125 L 228.902344 160.621094 L 230.800781 160.621094 L 231.535156 161.882812 L 232.367188 160.621094 L 234.222656 160.621094 L 232.304688 163.179688 L 233.757812 165.640625 L 231.855469 165.640625 Z M 231.121094 164.371094 " fill-opacity="1" fill-rule="nonzero"/><path fill="#45424b" d="M 236.535156 164.371094 L 235.714844 165.628906 L 233.859375 165.628906 L 235.742188 163.03125 L 234.316406 160.621094 L 236.21875 160.621094 L 236.953125 161.882812 L 237.78125 160.621094 L 239.636719 160.621094 L 237.71875 163.179688 L 239.171875 165.640625 L 237.269531 165.640625 Z M 236.535156 164.371094 " fill-opacity="1" fill-rule="nonzero"/><path fill="#45424b" d="M 241.953125 164.371094 L 241.132812 165.628906 L 239.273438 165.628906 L 241.15625 163.03125 L 239.730469 160.621094 L 241.632812 160.621094 L 242.367188 161.882812 L 243.195312 160.621094 L 245.050781 160.621094 L 243.136719 163.179688 L 244.585938 165.640625 L 242.6875 165.640625 Z M 241.953125 164.371094 " fill-opacity="1" fill-rule="nonzero"/><path fill="#ffffff" d="M 274.8125 149.472656 L 183.804688 153.851562 L 185.773438 141.554688 L 276.480469 136.519531 Z M 274.8125 149.472656 " fill-opacity="1" fill-rule="nonzero"/><path fill="#f2d6bd" d="M 251.320312 145.128906 L 207.011719 147.398438 L 207.277344 145.664062 L 251.5625 143.347656 Z M 251.320312 145.128906 " fill-opacity="1" fill-rule="nonzero"/><path fill="#45424b" d="M 319.960938 209.203125 C 320.617188 209.878906 321.238281 210.589844 321.824219 211.328125 C 322.410156 212.070312 322.953125 212.839844 323.460938 213.640625 C 323.964844 214.4375 324.429688 215.261719 324.851562 216.113281 C 325.273438 216.960938 325.652344 217.832031 325.984375 218.722656 C 326.320312 219.613281 326.609375 220.519531 326.851562 221.445312 C 327.09375 222.371094 327.289062 223.304688 327.441406 224.253906 C 327.589844 225.203125 327.691406 226.160156 327.746094 227.125 C 327.800781 228.089844 327.808594 229.054688 327.769531 230.023438 C 327.730469 230.996094 327.640625 231.964844 327.503906 232.929688 C 327.371094 233.894531 327.1875 234.855469 326.957031 235.8125 C 326.730469 236.765625 326.457031 237.707031 326.136719 238.640625 C 325.8125 239.570312 325.449219 240.488281 325.039062 241.390625 C 324.632812 242.289062 324.179688 243.171875 323.6875 244.035156 C 323.195312 244.894531 322.660156 245.734375 322.089844 246.546875 C 321.515625 247.359375 320.90625 248.148438 320.257812 248.90625 C 319.613281 249.664062 318.929688 250.390625 318.214844 251.085938 C 317.5 251.78125 316.753906 252.441406 315.980469 253.066406 C 315.203125 253.691406 314.402344 254.28125 313.570312 254.832031 C 312.742188 255.378906 311.890625 255.890625 311.015625 256.359375 C 310.140625 256.828125 309.246094 257.253906 308.332031 257.636719 C 307.421875 258.019531 306.496094 258.359375 305.554688 258.65625 C 304.613281 258.949219 303.664062 259.195312 302.703125 259.398438 C 301.742188 259.601562 300.777344 259.757812 299.808594 259.867188 C 298.839844 259.972656 297.867188 260.035156 296.898438 260.046875 C 295.925781 260.0625 294.960938 260.027344 293.996094 259.945312 C 293.035156 259.863281 292.082031 259.734375 291.136719 259.558594 C 290.195312 259.382812 289.261719 259.160156 288.347656 258.890625 C 287.429688 258.621094 286.53125 258.308594 285.648438 257.949219 C 284.765625 257.589844 283.90625 257.1875 283.070312 256.742188 C 282.234375 256.296875 281.421875 255.8125 280.636719 255.28125 C 279.855469 254.753906 279.097656 254.1875 278.375 253.582031 C 277.648438 252.980469 276.957031 252.339844 276.300781 251.660156 C 275.644531 250.984375 275.019531 250.277344 274.4375 249.535156 C 273.851562 248.792969 273.308594 248.023438 272.800781 247.222656 C 272.296875 246.425781 271.832031 245.601562 271.410156 244.753906 C 270.988281 243.902344 270.609375 243.03125 270.277344 242.140625 C 269.941406 241.25 269.652344 240.34375 269.410156 239.417969 C 269.167969 238.496094 268.96875 237.558594 268.820312 236.609375 C 268.671875 235.660156 268.570312 234.703125 268.511719 233.742188 C 268.457031 232.777344 268.453125 231.808594 268.492188 230.839844 C 268.53125 229.871094 268.621094 228.902344 268.753906 227.933594 C 268.890625 226.96875 269.074219 226.007812 269.300781 225.054688 C 269.53125 224.101562 269.804688 223.15625 270.125 222.226562 C 270.445312 221.292969 270.8125 220.375 271.21875 219.476562 C 271.628906 218.574219 272.078125 217.691406 272.574219 216.832031 C 273.066406 215.96875 273.597656 215.132812 274.171875 214.316406 C 274.746094 213.503906 275.355469 212.71875 276.003906 211.957031 C 276.648438 211.199219 277.328125 210.472656 278.046875 209.777344 C 278.761719 209.082031 279.503906 208.421875 280.28125 207.796875 C 281.058594 207.171875 281.859375 206.582031 282.691406 206.035156 C 283.519531 205.484375 284.371094 204.972656 285.246094 204.503906 C 286.121094 204.035156 287.015625 203.609375 287.929688 203.226562 C 288.839844 202.84375 289.765625 202.503906 290.707031 202.210938 C 291.648438 201.914062 292.597656 201.667969 293.558594 201.464844 C 294.519531 201.261719 295.484375 201.105469 296.453125 201 C 297.421875 200.890625 298.394531 200.828125 299.363281 200.816406 C 300.335938 200.804688 301.300781 200.835938 302.261719 200.917969 C 303.226562 201 304.179688 201.128906 305.121094 201.304688 C 306.066406 201.480469 306.996094 201.703125 307.914062 201.972656 C 308.832031 202.242188 309.730469 202.554688 310.613281 202.914062 C 311.492188 203.273438 312.351562 203.675781 313.191406 204.121094 C 314.027344 204.566406 314.835938 205.054688 315.621094 205.582031 C 316.40625 206.109375 317.160156 206.675781 317.886719 207.28125 C 318.609375 207.886719 319.300781 208.527344 319.960938 209.203125 Z M 319.960938 209.203125 " fill-opacity="1" fill-rule="nonzero"/><path fill="#ffffff" d="M 316.011719 206.980469 C 316.671875 207.660156 317.292969 208.367188 317.875 209.109375 C 318.460938 209.851562 319.007812 210.621094 319.511719 211.417969 C 320.015625 212.21875 320.480469 213.042969 320.902344 213.890625 C 321.324219 214.742188 321.703125 215.609375 322.039062 216.503906 C 322.371094 217.394531 322.660156 218.300781 322.902344 219.226562 C 323.144531 220.148438 323.34375 221.085938 323.492188 222.035156 C 323.640625 222.984375 323.746094 223.941406 323.800781 224.902344 C 323.855469 225.867188 323.863281 226.835938 323.820312 227.804688 C 323.78125 228.773438 323.691406 229.742188 323.558594 230.710938 C 323.421875 231.675781 323.238281 232.636719 323.011719 233.589844 C 322.78125 234.542969 322.507812 235.488281 322.1875 236.417969 C 321.867188 237.351562 321.503906 238.269531 321.09375 239.167969 C 320.683594 240.070312 320.234375 240.953125 319.738281 241.8125 C 319.246094 242.675781 318.714844 243.511719 318.140625 244.328125 C 317.566406 245.140625 316.957031 245.925781 316.3125 246.683594 C 315.664062 247.445312 314.984375 248.171875 314.269531 248.867188 C 313.554688 249.5625 312.808594 250.222656 312.03125 250.847656 C 311.253906 251.472656 310.453125 252.058594 309.625 252.609375 C 308.792969 253.160156 307.941406 253.667969 307.066406 254.140625 C 306.191406 254.609375 305.296875 255.035156 304.386719 255.417969 C 303.472656 255.800781 302.546875 256.140625 301.605469 256.433594 C 300.664062 256.726562 299.714844 256.976562 298.753906 257.179688 C 297.796875 257.382812 296.832031 257.535156 295.859375 257.644531 C 294.890625 257.753906 293.917969 257.8125 292.949219 257.828125 C 291.976562 257.839844 291.011719 257.808594 290.050781 257.726562 C 289.089844 257.644531 288.136719 257.515625 287.191406 257.339844 C 286.246094 257.160156 285.316406 256.9375 284.398438 256.671875 C 283.480469 256.402344 282.582031 256.089844 281.699219 255.730469 C 280.820312 255.371094 279.960938 254.96875 279.125 254.523438 C 278.285156 254.078125 277.476562 253.589844 276.691406 253.0625 C 275.90625 252.535156 275.152344 251.96875 274.425781 251.363281 C 273.703125 250.757812 273.011719 250.117188 272.351562 249.441406 C 271.695312 248.765625 271.074219 248.054688 270.488281 247.316406 C 269.90625 246.574219 269.359375 245.804688 268.855469 245.003906 C 268.347656 244.203125 267.882812 243.378906 267.460938 242.53125 C 267.039062 241.683594 266.664062 240.8125 266.328125 239.921875 C 265.992188 239.03125 265.707031 238.121094 265.460938 237.199219 C 265.21875 236.273438 265.023438 235.335938 264.871094 234.390625 C 264.722656 233.441406 264.621094 232.484375 264.566406 231.519531 C 264.511719 230.554688 264.503906 229.589844 264.542969 228.617188 C 264.585938 227.648438 264.671875 226.679688 264.808594 225.714844 C 264.941406 224.746094 265.125 223.789062 265.355469 222.832031 C 265.582031 221.878906 265.859375 220.9375 266.179688 220.003906 C 266.5 219.074219 266.863281 218.15625 267.273438 217.253906 C 267.679688 216.351562 268.132812 215.472656 268.625 214.609375 C 269.117188 213.75 269.652344 212.910156 270.222656 212.097656 C 270.796875 211.28125 271.40625 210.496094 272.054688 209.738281 C 272.703125 208.980469 273.382812 208.253906 274.097656 207.558594 C 274.8125 206.863281 275.558594 206.203125 276.332031 205.578125 C 277.109375 204.949219 277.914062 204.363281 278.742188 203.8125 C 279.570312 203.261719 280.425781 202.753906 281.300781 202.285156 C 282.175781 201.816406 283.066406 201.390625 283.980469 201.007812 C 284.890625 200.621094 285.820312 200.285156 286.757812 199.988281 C 287.699219 199.695312 288.648438 199.445312 289.609375 199.246094 C 290.570312 199.042969 291.535156 198.886719 292.503906 198.777344 C 293.476562 198.671875 294.445312 198.609375 295.417969 198.597656 C 296.386719 198.582031 297.351562 198.617188 298.316406 198.699219 C 299.277344 198.78125 300.230469 198.910156 301.175781 199.085938 C 302.117188 199.261719 303.050781 199.484375 303.964844 199.753906 C 304.882812 200.023438 305.78125 200.335938 306.664062 200.695312 C 307.546875 201.054688 308.40625 201.457031 309.242188 201.902344 C 310.078125 202.347656 310.890625 202.832031 311.675781 203.359375 C 312.460938 203.890625 313.214844 204.457031 313.9375 205.058594 C 314.664062 205.664062 315.355469 206.304688 316.011719 206.980469 Z M 316.011719 206.980469 " fill-opacity="1" fill-rule="nonzero"/><path fill="#45424b" d="M 292.523438 258.320312 C 284.484375 258.320312 277.089844 255.195312 271.71875 249.503906 C 266.332031 243.804688 263.609375 236.230469 264.058594 228.171875 C 264.984375 211.582031 279.234375 198.085938 295.824219 198.085938 C 303.863281 198.085938 311.253906 201.210938 316.628906 206.902344 C 322.015625 212.601562 324.738281 220.175781 324.289062 228.234375 C 323.363281 244.824219 309.113281 258.320312 292.523438 258.320312 Z M 295.824219 199.078125 C 279.75 199.078125 265.941406 212.152344 265.054688 228.234375 C 264.621094 236.015625 267.246094 243.328125 272.445312 248.820312 C 277.636719 254.304688 284.769531 257.328125 292.53125 257.328125 C 308.605469 257.328125 322.414062 244.253906 323.304688 228.179688 C 323.734375 220.398438 321.109375 213.085938 315.910156 207.59375 C 310.71875 202.101562 303.585938 199.078125 295.824219 199.078125 Z M 295.824219 199.078125 " fill-opacity="1" fill-rule="nonzero"/><path fill="#f29727" d="M 279.648438 222.601562 L 279.300781 221.886719 L 294.976562 213.757812 L 295.160156 213.863281 L 309.746094 221.886719 L 309.320312 222.601562 L 294.925781 214.691406 Z M 279.648438 222.601562 " fill-opacity="1" fill-rule="nonzero"/><path fill="#f29727" d="M 305.574219 222.238281 L 304.441406 242.621094 L 307.964844 242.621094 L 309.097656 222.238281 Z M 308.535156 224.15625 L 307.613281 240.730469 L 307.128906 240.730469 L 308.050781 224.15625 Z M 307.472656 224.15625 L 306.550781 240.730469 L 306.066406 240.730469 L 306.988281 224.15625 Z M 306.410156 224.15625 L 305.488281 240.730469 L 305.003906 240.730469 L 305.925781 224.15625 Z M 306.410156 224.15625 " fill-opacity="1" fill-rule="nonzero"/><path fill="#f29727" d="M 309.476562 223.25 L 305.089844 223.25 L 305.148438 222.238281 L 309.527344 222.238281 Z M 309.476562 223.25 " fill-opacity="1" fill-rule="nonzero"/><path fill="#f29727" d="M 308.398438 242.644531 L 304.011719 242.644531 L 304.070312 241.644531 L 308.449219 241.644531 Z M 308.398438 242.644531 " fill-opacity="1" fill-rule="nonzero"/><path fill="#f29727" d="M 299.863281 222.238281 L 298.734375 242.621094 L 302.257812 242.621094 L 303.386719 222.238281 Z M 302.835938 224.15625 L 301.910156 240.730469 L 301.429688 240.730469 L 302.351562 224.15625 Z M 301.765625 224.15625 L 300.839844 240.730469 L 300.355469 240.730469 L 301.28125 224.15625 Z M 300.703125 224.15625 L 299.777344 240.730469 L 299.292969 240.730469 L 300.21875 224.15625 Z M 300.703125 224.15625 " fill-opacity="1" fill-rule="nonzero"/><path fill="#f29727" d="M 303.769531 223.25 L 299.382812 223.25 L 299.441406 222.238281 L 303.820312 222.238281 Z M 303.769531 223.25 " fill-opacity="1" fill-rule="nonzero"/><path fill="#f29727" d="M 302.6875 242.644531 L 298.300781 242.644531 L 298.363281 241.644531 L 302.742188 241.644531 Z M 302.6875 242.644531 " fill-opacity="1" fill-rule="nonzero"/><path fill="#f29727" d="M 286.410156 222.238281 L 285.277344 242.621094 L 288.800781 242.621094 L 289.933594 222.238281 Z M 289.371094 224.15625 L 288.449219 240.730469 L 287.964844 240.730469 L 288.886719 224.15625 Z M 288.308594 224.15625 L 287.386719 240.730469 L 286.902344 240.730469 L 287.828125 224.15625 Z M 287.246094 224.15625 L 286.324219 240.730469 L 285.839844 240.730469 L 286.765625 224.15625 Z M 287.246094 224.15625 " fill-opacity="1" fill-rule="nonzero"/><path fill="#f29727" d="M 290.304688 223.25 L 285.925781 223.25 L 285.976562 222.238281 L 290.367188 222.238281 Z M 290.304688 223.25 " fill-opacity="1" fill-rule="nonzero"/><path fill="#f29727" d="M 289.226562 242.644531 L 284.847656 242.644531 L 284.898438 241.644531 L 289.285156 241.644531 Z M 289.226562 242.644531 " fill-opacity="1" fill-rule="nonzero"/><path fill="#f29727" d="M 280.703125 222.238281 L 279.570312 242.621094 L 283.09375 242.621094 L 284.226562 222.238281 Z M 282.601562 224.15625 L 281.675781 240.730469 L 281.195312 240.730469 L 282.117188 224.15625 Z M 281.539062 224.15625 L 280.613281 240.730469 L 280.132812 240.730469 L 281.054688 224.15625 Z M 281.539062 224.15625 " fill-opacity="1" fill-rule="nonzero"/><path fill="#f29727" d="M 284.597656 223.25 L 280.21875 223.25 L 280.269531 222.238281 L 284.65625 222.238281 Z M 284.597656 223.25 " fill-opacity="1" fill-rule="nonzero"/><path fill="#f29727" d="M 283.515625 242.644531 L 279.136719 242.644531 L 279.191406 241.644531 L 283.578125 241.644531 Z M 283.515625 242.644531 " fill-opacity="1" fill-rule="nonzero"/><path fill="#f29727" d="M 296.710938 232.835938 L 296.175781 242.480469 C 296.175781 242.558594 296.109375 242.621094 296.03125 242.621094 L 295.519531 242.621094 C 295.582031 242.621094 295.632812 242.570312 295.632812 242.507812 L 296.167969 232.894531 C 296.230469 231.757812 295.355469 230.832031 294.21875 230.832031 C 293.078125 230.832031 292.101562 231.757812 292.03125 232.894531 L 291.496094 242.507812 C 291.496094 242.570312 291.539062 242.621094 291.601562 242.621094 L 291.089844 242.621094 C 291.011719 242.621094 290.960938 242.558594 290.960938 242.480469 L 291.496094 232.835938 C 291.574219 231.402344 292.808594 230.238281 294.242188 230.238281 C 295.675781 230.238281 296.789062 231.402344 296.710938 232.835938 Z M 296.710938 232.835938 " fill-opacity="1" fill-rule="nonzero"/><path fill="#f29727" d="M 294.613281 223.726562 C 293.179688 223.726562 291.945312 224.890625 291.867188 226.324219 L 291.78125 227.894531 C 291.78125 227.972656 291.832031 228.035156 291.910156 228.035156 L 296.84375 228.035156 C 296.921875 228.035156 296.980469 227.972656 296.988281 227.894531 L 297.074219 226.324219 C 297.152344 224.890625 296.046875 223.726562 294.613281 223.726562 Z M 294.613281 223.726562 " fill-opacity="1" fill-rule="nonzero"/><path fill="#f29727" d="M 299.46875 229.441406 L 289.535156 229.441406 L 289.554688 229.042969 L 299.492188 229.042969 Z M 299.46875 229.441406 " fill-opacity="1" fill-rule="nonzero"/><path fill="#f29727" d="M 309.691406 222.707031 L 279.257812 222.707031 C 279.015625 222.707031 278.835938 222.515625 278.851562 222.273438 L 278.851562 222.25 C 278.871094 222.007812 279.070312 221.816406 279.3125 221.816406 L 309.746094 221.816406 C 309.984375 221.816406 310.167969 222.007812 310.148438 222.25 L 310.148438 222.273438 C 310.132812 222.515625 309.933594 222.707031 309.691406 222.707031 Z M 309.691406 222.707031 " fill-opacity="1" fill-rule="nonzero"/><path fill="#f29727" d="M 294.570312 220.183594 C 294.054688 220.132812 293.679688 219.839844 293.699219 219.328125 L 294.398438 219.335938 C 294.40625 219.5 294.476562 219.605469 294.605469 219.648438 L 294.648438 219.019531 C 294.242188 218.90625 293.734375 218.777344 293.777344 218.144531 C 293.8125 217.644531 294.234375 217.351562 294.761719 217.324219 L 294.777344 216.996094 L 295.027344 216.996094 L 295.011719 217.324219 C 295.539062 217.378906 295.859375 217.664062 295.859375 218.164062 L 295.148438 218.15625 C 295.140625 218.007812 295.082031 217.914062 294.96875 217.871094 L 294.925781 218.492188 C 295.332031 218.613281 295.847656 218.734375 295.816406 219.355469 C 295.789062 219.785156 295.425781 220.167969 294.8125 220.183594 L 294.796875 220.511719 L 294.546875 220.511719 Z M 294.683594 218.40625 L 294.71875 217.851562 C 294.570312 217.878906 294.476562 217.964844 294.46875 218.121094 C 294.46875 218.257812 294.554688 218.34375 294.683594 218.40625 Z M 294.890625 219.097656 L 294.855469 219.664062 C 295.011719 219.640625 295.113281 219.535156 295.125 219.382812 C 295.132812 219.234375 295.039062 219.15625 294.890625 219.097656 Z M 294.890625 219.097656 " fill-opacity="1" fill-rule="nonzero"/><path fill="#45424b" d="M 164.695312 47.695312 C 164.695312 47.695312 154.910156 55.667969 136.351562 55.167969 L 136.351562 86.359375 C 136.351562 86.359375 149.019531 115.714844 164.710938 115.714844 C 180.402344 115.714844 193.039062 86.359375 193.039062 86.359375 L 193.039062 55.167969 C 174.480469 55.667969 164.695312 47.695312 164.695312 47.695312 Z M 164.695312 47.695312 " fill-opacity="1" fill-rule="nonzero"/><path fill="#f29727" d="M 190.421875 57.828125 L 190.421875 85.757812 C 189.53125 87.691406 186.621094 93.761719 182.449219 99.730469 C 178.125 105.914062 171.535156 113.277344 164.703125 113.277344 L 164.683594 113.277344 C 157.863281 113.269531 151.265625 105.902344 146.9375 99.71875 C 142.757812 93.761719 139.839844 87.691406 138.957031 85.746094 L 138.957031 57.820312 C 152.171875 57.464844 160.875 53.191406 164.683594 50.847656 C 168.503906 53.199219 177.207031 57.472656 190.421875 57.828125 Z M 190.421875 57.828125 " fill-opacity="1" fill-rule="nonzero"/><g mask="url(#81d8342619)"><g transform="matrix(1, 0, 0, 1, 164, 49)"><g clip-path="url(#f04b16e630)"><g clip-path="url(#47b5bb0fe4)"><path fill="#45424b" d="M 26.421875 8.828125 L 26.421875 36.757812 C 25.53125 38.691406 22.621094 44.761719 18.449219 50.730469 C 14.121094 56.914062 7.535156 64.277344 0.703125 64.277344 L 0.683594 64.277344 L 0.683594 1.847656 C 4.503906 4.199219 13.207031 8.472656 26.421875 8.828125 Z M 26.421875 8.828125 " fill-opacity="1" fill-rule="nonzero"/></g></g></g></g><path fill="#ffffff" d="M 156.136719 88.742188 L 151.542969 78.5625 C 151.074219 77.535156 151.53125 76.324219 152.558594 75.867188 C 153.589844 75.410156 154.796875 75.859375 155.253906 76.886719 L 158.035156 83.0625 L 177.871094 72.25 C 178.855469 71.707031 180.101562 72.078125 180.636719 73.0625 C 181.171875 74.054688 180.808594 75.289062 179.824219 75.824219 Z M 156.136719 88.742188 " fill-opacity="1" fill-rule="nonzero"/><g clip-path="url(#35511f1acd)"><path fill="#45424b" d="M 9.660156 327.246094 L 350.195312 327.246094 L 350.195312 330.628906 L 9.660156 330.628906 Z M 9.660156 327.246094 " fill-opacity="1" fill-rule="nonzero"/></g><path fill="#f29727" d="M 202.726562 278.683594 L 202.726562 288.113281 C 202.726562 288.96875 202.027344 289.660156 201.164062 289.660156 L 153.898438 289.660156 C 153.042969 289.660156 152.34375 288.960938 152.34375 288.113281 L 152.34375 278.683594 C 152.34375 277.828125 153.042969 277.136719 153.898438 277.136719 L 201.164062 277.136719 C 202.027344 277.136719 202.726562 277.839844 202.726562 278.683594 Z M 202.726562 278.683594 " fill-opacity="1" fill-rule="nonzero"/><path fill="#45424b" d="M 202.726562 287.277344 L 202.726562 288.113281 C 202.726562 288.96875 202.027344 289.660156 201.164062 289.660156 L 153.898438 289.660156 C 153.042969 289.660156 152.34375 288.960938 152.34375 288.113281 L 152.34375 287.277344 Z M 202.726562 287.277344 " fill-opacity="1" fill-rule="nonzero"/><path fill="#45424b" d="M 157.726562 286.207031 C 157.542969 286.207031 157.40625 286.058594 157.40625 285.886719 L 157.40625 280.359375 C 157.40625 280.179688 157.550781 280.039062 157.726562 280.039062 C 157.898438 280.039062 158.042969 280.1875 158.042969 280.359375 L 158.042969 285.886719 C 158.054688 286.058594 157.90625 286.207031 157.726562 286.207031 Z M 157.726562 286.207031 " fill-opacity="1" fill-rule="nonzero"/><path fill="#45424b" d="M 164.332031 286.207031 C 164.148438 286.207031 164.011719 286.058594 164.011719 285.886719 L 164.011719 280.359375 C 164.011719 280.179688 164.160156 280.039062 164.332031 280.039062 C 164.503906 280.039062 164.652344 280.1875 164.652344 280.359375 L 164.652344 285.886719 C 164.652344 286.058594 164.511719 286.207031 164.332031 286.207031 Z M 164.332031 286.207031 " fill-opacity="1" fill-rule="nonzero"/><path fill="#45424b" d="M 170.9375 286.207031 C 170.757812 286.207031 170.617188 286.058594 170.617188 285.886719 L 170.617188 280.359375 C 170.617188 280.179688 170.765625 280.039062 170.9375 280.039062 C 171.109375 280.039062 171.257812 280.1875 171.257812 280.359375 L 171.257812 285.886719 C 171.257812 286.058594 171.109375 286.207031 170.9375 286.207031 Z M 170.9375 286.207031 " fill-opacity="1" fill-rule="nonzero"/><path fill="#45424b" d="M 177.535156 286.207031 C 177.355469 286.207031 177.214844 286.058594 177.214844 285.886719 L 177.214844 280.359375 C 177.214844 280.179688 177.363281 280.039062 177.535156 280.039062 C 177.707031 280.039062 177.855469 280.1875 177.855469 280.359375 L 177.855469 285.886719 C 177.863281 286.058594 177.71875 286.207031 177.535156 286.207031 Z M 177.535156 286.207031 " fill-opacity="1" fill-rule="nonzero"/><path fill="#45424b" d="M 184.140625 286.207031 C 183.960938 286.207031 183.824219 286.058594 183.824219 285.886719 L 183.824219 280.359375 C 183.824219 280.179688 183.96875 280.039062 184.140625 280.039062 C 184.316406 280.039062 184.460938 280.1875 184.460938 280.359375 L 184.460938 285.886719 C 184.460938 286.058594 184.324219 286.207031 184.140625 286.207031 Z M 184.140625 286.207031 " fill-opacity="1" fill-rule="nonzero"/><path fill="#45424b" d="M 190.75 286.207031 C 190.566406 286.207031 190.429688 286.058594 190.429688 285.886719 L 190.429688 280.359375 C 190.429688 280.179688 190.578125 280.039062 190.75 280.039062 C 190.921875 280.039062 191.070312 280.1875 191.070312 280.359375 L 191.070312 285.886719 C 191.070312 286.058594 190.921875 286.207031 190.75 286.207031 Z M 190.75 286.207031 " fill-opacity="1" fill-rule="nonzero"/><path fill="#45424b" d="M 197.347656 286.207031 C 197.164062 286.207031 197.027344 286.058594 197.027344 285.886719 L 197.027344 280.359375 C 197.027344 280.179688 197.175781 280.039062 197.347656 280.039062 C 197.519531 280.039062 197.667969 280.1875 197.667969 280.359375 L 197.667969 285.886719 C 197.675781 286.058594 197.527344 286.207031 197.347656 286.207031 Z M 197.347656 286.207031 " fill-opacity="1" fill-rule="nonzero"/><path fill="#f29727" d="M 196.691406 291.214844 L 196.691406 300.644531 C 196.691406 301.5 195.992188 302.191406 195.128906 302.191406 L 147.863281 302.191406 C 147.007812 302.191406 146.308594 301.492188 146.308594 300.644531 L 146.308594 291.214844 C 146.308594 290.359375 147.007812 289.667969 147.863281 289.667969 L 195.128906 289.667969 C 196 289.667969 196.691406 290.359375 196.691406 291.214844 Z M 196.691406 291.214844 " fill-opacity="1" fill-rule="nonzero"/><path fill="#45424b" d="M 196.691406 299.808594 L 196.691406 300.644531 C 196.691406 301.5 195.992188 302.191406 195.128906 302.191406 L 147.863281 302.191406 C 147.007812 302.191406 146.308594 301.492188 146.308594 300.644531 L 146.308594 299.808594 Z M 196.691406 299.808594 " fill-opacity="1" fill-rule="nonzero"/><path fill="#45424b" d="M 151.695312 298.738281 C 151.515625 298.738281 151.378906 298.589844 151.378906 298.417969 L 151.378906 292.890625 C 151.378906 292.710938 151.523438 292.570312 151.695312 292.570312 C 151.871094 292.570312 152.015625 292.71875 152.015625 292.890625 L 152.015625 298.417969 C 152.015625 298.589844 151.871094 298.738281 151.695312 298.738281 Z M 151.695312 298.738281 " fill-opacity="1" fill-rule="nonzero"/><path fill="#45424b" d="M 158.304688 298.738281 C 158.121094 298.738281 157.984375 298.589844 157.984375 298.417969 L 157.984375 292.890625 C 157.984375 292.710938 158.128906 292.570312 158.304688 292.570312 C 158.476562 292.570312 158.621094 292.71875 158.621094 292.890625 L 158.621094 298.417969 C 158.621094 298.589844 158.476562 298.738281 158.304688 298.738281 Z M 158.304688 298.738281 " fill-opacity="1" fill-rule="nonzero"/><path fill="#45424b" d="M 164.902344 298.738281 C 164.71875 298.738281 164.582031 298.589844 164.582031 298.417969 L 164.582031 292.890625 C 164.582031 292.710938 164.730469 292.570312 164.902344 292.570312 C 165.074219 292.570312 165.222656 292.71875 165.222656 292.890625 L 165.222656 298.417969 C 165.230469 298.589844 165.082031 298.738281 164.902344 298.738281 Z M 164.902344 298.738281 " fill-opacity="1" fill-rule="nonzero"/><path fill="#45424b" d="M 171.507812 298.738281 C 171.328125 298.738281 171.1875 298.589844 171.1875 298.417969 L 171.1875 292.890625 C 171.1875 292.710938 171.335938 292.570312 171.507812 292.570312 C 171.679688 292.570312 171.828125 292.71875 171.828125 292.890625 L 171.828125 298.417969 C 171.828125 298.589844 171.6875 298.738281 171.507812 298.738281 Z M 171.507812 298.738281 " fill-opacity="1" fill-rule="nonzero"/><path fill="#45424b" d="M 178.113281 298.738281 C 177.933594 298.738281 177.792969 298.589844 177.792969 298.417969 L 177.792969 292.890625 C 177.792969 292.710938 177.941406 292.570312 178.113281 292.570312 C 178.289062 292.570312 178.433594 292.71875 178.433594 292.890625 L 178.433594 298.417969 C 178.433594 298.589844 178.289062 298.738281 178.113281 298.738281 Z M 178.113281 298.738281 " fill-opacity="1" fill-rule="nonzero"/><path fill="#45424b" d="M 184.710938 298.738281 C 184.53125 298.738281 184.394531 298.589844 184.394531 298.417969 L 184.394531 292.890625 C 184.394531 292.710938 184.539062 292.570312 184.710938 292.570312 C 184.886719 292.570312 185.03125 292.71875 185.03125 292.890625 L 185.03125 298.417969 C 185.039062 298.589844 184.894531 298.738281 184.710938 298.738281 Z M 184.710938 298.738281 " fill-opacity="1" fill-rule="nonzero"/><path fill="#45424b" d="M 191.320312 298.738281 C 191.136719 298.738281 191 298.589844 191 298.417969 L 191 292.890625 C 191 292.710938 191.144531 292.570312 191.320312 292.570312 C 191.492188 292.570312 191.636719 292.71875 191.636719 292.890625 L 191.636719 298.417969 C 191.636719 298.589844 191.5 298.738281 191.320312 298.738281 Z M 191.320312 298.738281 " fill-opacity="1" fill-rule="nonzero"/><path fill="#f29727" d="M 200.90625 303.746094 L 200.90625 313.175781 C 200.90625 314.03125 200.207031 314.722656 199.339844 314.722656 L 152.078125 314.722656 C 151.222656 314.722656 150.523438 314.023438 150.523438 313.175781 L 150.523438 303.746094 C 150.523438 302.890625 151.222656 302.199219 152.078125 302.199219 L 199.339844 302.199219 C 200.207031 302.191406 200.90625 302.890625 200.90625 303.746094 Z M 200.90625 303.746094 " fill-opacity="1" fill-rule="nonzero"/><path fill="#45424b" d="M 200.90625 312.339844 L 200.90625 313.175781 C 200.90625 314.03125 200.207031 314.722656 199.339844 314.722656 L 152.078125 314.722656 C 151.222656 314.722656 150.523438 314.023438 150.523438 313.175781 L 150.523438 312.339844 Z M 200.90625 312.339844 " fill-opacity="1" fill-rule="nonzero"/><path fill="#45424b" d="M 155.902344 311.257812 C 155.722656 311.257812 155.582031 311.113281 155.582031 310.941406 L 155.582031 305.414062 C 155.582031 305.230469 155.730469 305.09375 155.902344 305.09375 C 156.074219 305.09375 156.222656 305.238281 156.222656 305.414062 L 156.222656 310.941406 C 156.230469 311.121094 156.082031 311.257812 155.902344 311.257812 Z M 155.902344 311.257812 " fill-opacity="1" fill-rule="nonzero"/><path fill="#45424b" d="M 162.507812 311.257812 C 162.328125 311.257812 162.191406 311.113281 162.191406 310.941406 L 162.191406 305.414062 C 162.191406 305.230469 162.335938 305.09375 162.507812 305.09375 C 162.683594 305.09375 162.828125 305.238281 162.828125 305.414062 L 162.828125 310.941406 C 162.835938 311.121094 162.691406 311.257812 162.507812 311.257812 Z M 162.507812 311.257812 " fill-opacity="1" fill-rule="nonzero"/><path fill="#45424b" d="M 169.117188 311.257812 C 168.933594 311.257812 168.796875 311.113281 168.796875 310.941406 L 168.796875 305.414062 C 168.796875 305.230469 168.941406 305.09375 169.117188 305.09375 C 169.289062 305.09375 169.433594 305.238281 169.433594 305.414062 L 169.433594 310.941406 C 169.433594 311.121094 169.289062 311.257812 169.117188 311.257812 Z M 169.117188 311.257812 " fill-opacity="1" fill-rule="nonzero"/><path fill="#45424b" d="M 175.714844 311.257812 C 175.53125 311.257812 175.394531 311.113281 175.394531 310.941406 L 175.394531 305.414062 C 175.394531 305.230469 175.539062 305.09375 175.714844 305.09375 C 175.886719 305.09375 176.03125 305.238281 176.03125 305.414062 L 176.03125 310.941406 C 176.042969 311.121094 175.894531 311.257812 175.714844 311.257812 Z M 175.714844 311.257812 " fill-opacity="1" fill-rule="nonzero"/><path fill="#45424b" d="M 182.320312 311.257812 C 182.140625 311.257812 182 311.113281 182 310.941406 L 182 305.414062 C 182 305.230469 182.148438 305.09375 182.320312 305.09375 C 182.492188 305.09375 182.640625 305.238281 182.640625 305.414062 L 182.640625 310.941406 C 182.648438 311.121094 182.5 311.257812 182.320312 311.257812 Z M 182.320312 311.257812 " fill-opacity="1" fill-rule="nonzero"/><path fill="#45424b" d="M 188.925781 311.257812 C 188.746094 311.257812 188.605469 311.113281 188.605469 310.941406 L 188.605469 305.414062 C 188.605469 305.230469 188.753906 305.09375 188.925781 305.09375 C 189.097656 305.09375 189.246094 305.238281 189.246094 305.414062 L 189.246094 310.941406 C 189.246094 311.121094 189.097656 311.257812 188.925781 311.257812 Z M 188.925781 311.257812 " fill-opacity="1" fill-rule="nonzero"/><path fill="#45424b" d="M 195.535156 311.257812 C 195.351562 311.257812 195.214844 311.113281 195.214844 310.941406 L 195.214844 305.414062 C 195.214844 305.230469 195.359375 305.09375 195.535156 305.09375 C 195.707031 305.09375 195.851562 305.238281 195.851562 305.414062 L 195.851562 310.941406 C 195.851562 311.121094 195.707031 311.257812 195.535156 311.257812 Z M 195.535156 311.257812 " fill-opacity="1" fill-rule="nonzero"/><path fill="#f29727" d="M 202.726562 316.277344 L 202.726562 325.707031 C 202.726562 326.5625 202.027344 327.253906 201.164062 327.253906 L 153.898438 327.253906 C 153.042969 327.253906 152.34375 326.554688 152.34375 325.707031 L 152.34375 316.277344 C 152.34375 315.421875 153.042969 314.730469 153.898438 314.730469 L 201.164062 314.730469 C 202.027344 314.722656 202.726562 315.421875 202.726562 316.277344 Z M 202.726562 316.277344 " fill-opacity="1" fill-rule="nonzero"/><path fill="#45424b" d="M 202.726562 324.859375 L 202.726562 325.699219 C 202.726562 326.554688 202.027344 327.246094 201.164062 327.246094 L 153.898438 327.246094 C 153.042969 327.246094 152.34375 326.546875 152.34375 325.699219 L 152.34375 324.859375 Z M 202.726562 324.859375 " fill-opacity="1" fill-rule="nonzero"/><path fill="#45424b" d="M 157.726562 323.789062 C 157.542969 323.789062 157.40625 323.644531 157.40625 323.472656 L 157.40625 317.945312 C 157.40625 317.761719 157.550781 317.625 157.726562 317.625 C 157.898438 317.625 158.042969 317.769531 158.042969 317.945312 L 158.042969 323.472656 C 158.054688 323.644531 157.90625 323.789062 157.726562 323.789062 Z M 157.726562 323.789062 " fill-opacity="1" fill-rule="nonzero"/><path fill="#45424b" d="M 164.332031 323.789062 C 164.148438 323.789062 164.011719 323.644531 164.011719 323.472656 L 164.011719 317.945312 C 164.011719 317.761719 164.160156 317.625 164.332031 317.625 C 164.503906 317.625 164.652344 317.769531 164.652344 317.945312 L 164.652344 323.472656 C 164.652344 323.644531 164.511719 323.789062 164.332031 323.789062 Z M 164.332031 323.789062 " fill-opacity="1" fill-rule="nonzero"/><path fill="#45424b" d="M 170.9375 323.789062 C 170.757812 323.789062 170.617188 323.644531 170.617188 323.472656 L 170.617188 317.945312 C 170.617188 317.761719 170.765625 317.625 170.9375 317.625 C 171.109375 317.625 171.257812 317.769531 171.257812 317.945312 L 171.257812 323.472656 C 171.257812 323.644531 171.109375 323.789062 170.9375 323.789062 Z M 170.9375 323.789062 " fill-opacity="1" fill-rule="nonzero"/><path fill="#45424b" d="M 177.535156 323.789062 C 177.355469 323.789062 177.214844 323.644531 177.214844 323.472656 L 177.214844 317.945312 C 177.214844 317.761719 177.363281 317.625 177.535156 317.625 C 177.707031 317.625 177.855469 317.769531 177.855469 317.945312 L 177.855469 323.472656 C 177.863281 323.644531 177.71875 323.789062 177.535156 323.789062 Z M 177.535156 323.789062 " fill-opacity="1" fill-rule="nonzero"/><path fill="#45424b" d="M 184.140625 323.789062 C 183.960938 323.789062 183.824219 323.644531 183.824219 323.472656 L 183.824219 317.945312 C 183.824219 317.761719 183.96875 317.625 184.140625 317.625 C 184.316406 317.625 184.460938 317.769531 184.460938 317.945312 L 184.460938 323.472656 C 184.460938 323.644531 184.324219 323.789062 184.140625 323.789062 Z M 184.140625 323.789062 " fill-opacity="1" fill-rule="nonzero"/><path fill="#45424b" d="M 190.75 323.789062 C 190.566406 323.789062 190.429688 323.644531 190.429688 323.472656 L 190.429688 317.945312 C 190.429688 317.761719 190.578125 317.625 190.75 317.625 C 190.921875 317.625 191.070312 317.769531 191.070312 317.945312 L 191.070312 323.472656 C 191.070312 323.644531 190.921875 323.789062 190.75 323.789062 Z M 190.75 323.789062 " fill-opacity="1" fill-rule="nonzero"/><path fill="#45424b" d="M 197.347656 323.789062 C 197.164062 323.789062 197.027344 323.644531 197.027344 323.472656 L 197.027344 317.945312 C 197.027344 317.761719 197.175781 317.625 197.347656 317.625 C 197.519531 317.625 197.667969 317.769531 197.667969 317.945312 L 197.667969 323.472656 C 197.675781 323.644531 197.527344 323.789062 197.347656 323.789062 Z M 197.347656 323.789062 " fill-opacity="1" fill-rule="nonzero"/><path fill="#f29727" d="M 210.492188 291.214844 L 210.492188 300.644531 C 210.492188 301.5 211.191406 302.191406 212.054688 302.191406 L 259.320312 302.191406 C 260.171875 302.191406 260.875 301.492188 260.875 300.644531 L 260.875 291.214844 C 260.875 290.359375 260.171875 289.667969 259.320312 289.667969 L 212.054688 289.667969 C 211.183594 289.667969 210.492188 290.359375 210.492188 291.214844 Z M 210.492188 291.214844 " fill-opacity="1" fill-rule="nonzero"/><path fill="#45424b" d="M 210.492188 299.808594 L 210.492188 300.644531 C 210.492188 301.5 211.191406 302.191406 212.054688 302.191406 L 259.320312 302.191406 C 260.171875 302.191406 260.875 301.492188 260.875 300.644531 L 260.875 299.808594 Z M 210.492188 299.808594 " fill-opacity="1" fill-rule="nonzero"/><path fill="#45424b" d="M 255.484375 298.738281 C 255.304688 298.738281 255.164062 298.589844 255.164062 298.417969 L 255.164062 292.890625 C 255.164062 292.710938 255.3125 292.570312 255.484375 292.570312 C 255.65625 292.570312 255.804688 292.71875 255.804688 292.890625 L 255.804688 298.417969 C 255.8125 298.589844 255.664062 298.738281 255.484375 298.738281 Z M 255.484375 298.738281 " fill-opacity="1" fill-rule="nonzero"/><path fill="#45424b" d="M 248.886719 298.738281 C 248.707031 298.738281 248.566406 298.589844 248.566406 298.417969 L 248.566406 292.890625 C 248.566406 292.710938 248.714844 292.570312 248.886719 292.570312 C 249.058594 292.570312 249.207031 292.71875 249.207031 292.890625 L 249.207031 298.417969 C 249.207031 298.589844 249.058594 298.738281 248.886719 298.738281 Z M 248.886719 298.738281 " fill-opacity="1" fill-rule="nonzero"/><path fill="#45424b" d="M 242.28125 298.738281 C 242.097656 298.738281 241.960938 298.589844 241.960938 298.417969 L 241.960938 292.890625 C 241.960938 292.710938 242.105469 292.570312 242.28125 292.570312 C 242.453125 292.570312 242.597656 292.71875 242.597656 292.890625 L 242.597656 298.417969 C 242.597656 298.589844 242.453125 298.738281 242.28125 298.738281 Z M 242.28125 298.738281 " fill-opacity="1" fill-rule="nonzero"/><path fill="#45424b" d="M 235.671875 298.738281 C 235.492188 298.738281 235.355469 298.589844 235.355469 298.417969 L 235.355469 292.890625 C 235.355469 292.710938 235.5 292.570312 235.671875 292.570312 C 235.847656 292.570312 235.992188 292.71875 235.992188 292.890625 L 235.992188 298.417969 C 235.992188 298.589844 235.855469 298.738281 235.671875 298.738281 Z M 235.671875 298.738281 " fill-opacity="1" fill-rule="nonzero"/><path fill="#45424b" d="M 229.066406 298.738281 C 228.886719 298.738281 228.746094 298.589844 228.746094 298.417969 L 228.746094 292.890625 C 228.746094 292.710938 228.894531 292.570312 229.066406 292.570312 C 229.238281 292.570312 229.386719 292.71875 229.386719 292.890625 L 229.386719 298.417969 C 229.394531 298.589844 229.25 298.738281 229.066406 298.738281 Z M 229.066406 298.738281 " fill-opacity="1" fill-rule="nonzero"/><path fill="#45424b" d="M 222.46875 298.738281 C 222.289062 298.738281 222.148438 298.589844 222.148438 298.417969 L 222.148438 292.890625 C 222.148438 292.710938 222.296875 292.570312 222.46875 292.570312 C 222.640625 292.570312 222.789062 292.71875 222.789062 292.890625 L 222.789062 298.417969 C 222.789062 298.589844 222.640625 298.738281 222.46875 298.738281 Z M 222.46875 298.738281 " fill-opacity="1" fill-rule="nonzero"/><path fill="#45424b" d="M 215.863281 298.738281 C 215.679688 298.738281 215.542969 298.589844 215.542969 298.417969 L 215.542969 292.890625 C 215.542969 292.710938 215.691406 292.570312 215.863281 292.570312 C 216.035156 292.570312 216.183594 292.71875 216.183594 292.890625 L 216.183594 298.417969 C 216.183594 298.589844 216.042969 298.738281 215.863281 298.738281 Z M 215.863281 298.738281 " fill-opacity="1" fill-rule="nonzero"/><path fill="#f29727" d="M 202.855469 303.746094 L 202.855469 313.175781 C 202.855469 314.03125 203.554688 314.722656 204.417969 314.722656 L 251.683594 314.722656 C 252.539062 314.722656 253.238281 314.023438 253.238281 313.175781 L 253.238281 303.746094 C 253.238281 302.890625 252.539062 302.199219 251.683594 302.199219 L 204.417969 302.199219 C 203.554688 302.191406 202.855469 302.890625 202.855469 303.746094 Z M 202.855469 303.746094 " fill-opacity="1" fill-rule="nonzero"/><path fill="#45424b" d="M 202.855469 312.339844 L 202.855469 313.175781 C 202.855469 314.03125 203.554688 314.722656 204.417969 314.722656 L 251.683594 314.722656 C 252.539062 314.722656 253.238281 314.023438 253.238281 313.175781 L 253.238281 312.339844 Z M 202.855469 312.339844 " fill-opacity="1" fill-rule="nonzero"/><path fill="#45424b" d="M 247.859375 311.257812 C 247.675781 311.257812 247.539062 311.113281 247.539062 310.941406 L 247.539062 305.414062 C 247.539062 305.230469 247.6875 305.09375 247.859375 305.09375 C 248.03125 305.09375 248.179688 305.238281 248.179688 305.414062 L 248.179688 310.941406 C 248.179688 311.121094 248.039062 311.257812 247.859375 311.257812 Z M 247.859375 311.257812 " fill-opacity="1" fill-rule="nonzero"/><path fill="#45424b" d="M 241.253906 311.257812 C 241.070312 311.257812 240.933594 311.113281 240.933594 310.941406 L 240.933594 305.414062 C 240.933594 305.230469 241.078125 305.09375 241.253906 305.09375 C 241.425781 305.09375 241.570312 305.238281 241.570312 305.414062 L 241.570312 310.941406 C 241.582031 311.121094 241.433594 311.257812 241.253906 311.257812 Z M 241.253906 311.257812 " fill-opacity="1" fill-rule="nonzero"/><path fill="#45424b" d="M 234.65625 311.257812 C 234.472656 311.257812 234.335938 311.113281 234.335938 310.941406 L 234.335938 305.414062 C 234.335938 305.230469 234.480469 305.09375 234.65625 305.09375 C 234.828125 305.09375 234.972656 305.238281 234.972656 305.414062 L 234.972656 310.941406 C 234.972656 311.121094 234.828125 311.257812 234.65625 311.257812 Z M 234.65625 311.257812 " fill-opacity="1" fill-rule="nonzero"/><path fill="#45424b" d="M 228.046875 311.257812 C 227.867188 311.257812 227.726562 311.113281 227.726562 310.941406 L 227.726562 305.414062 C 227.726562 305.230469 227.875 305.09375 228.046875 305.09375 C 228.21875 305.09375 228.367188 305.238281 228.367188 305.414062 L 228.367188 310.941406 C 228.367188 311.121094 228.21875 311.257812 228.046875 311.257812 Z M 228.046875 311.257812 " fill-opacity="1" fill-rule="nonzero"/><path fill="#45424b" d="M 221.441406 311.257812 C 221.261719 311.257812 221.121094 311.113281 221.121094 310.941406 L 221.121094 305.414062 C 221.121094 305.230469 221.269531 305.09375 221.441406 305.09375 C 221.613281 305.09375 221.761719 305.238281 221.761719 305.414062 L 221.761719 310.941406 C 221.769531 311.121094 221.621094 311.257812 221.441406 311.257812 Z M 221.441406 311.257812 " fill-opacity="1" fill-rule="nonzero"/><path fill="#45424b" d="M 214.835938 311.257812 C 214.652344 311.257812 214.515625 311.113281 214.515625 310.941406 L 214.515625 305.414062 C 214.515625 305.230469 214.660156 305.09375 214.835938 305.09375 C 215.007812 305.09375 215.152344 305.238281 215.152344 305.414062 L 215.152344 310.941406 C 215.164062 311.121094 215.015625 311.257812 214.835938 311.257812 Z M 214.835938 311.257812 " fill-opacity="1" fill-rule="nonzero"/><path fill="#45424b" d="M 208.238281 311.257812 C 208.054688 311.257812 207.917969 311.113281 207.917969 310.941406 L 207.917969 305.414062 C 207.917969 305.230469 208.0625 305.09375 208.238281 305.09375 C 208.410156 305.09375 208.554688 305.238281 208.554688 305.414062 L 208.554688 310.941406 C 208.554688 311.121094 208.410156 311.257812 208.238281 311.257812 Z M 208.238281 311.257812 " fill-opacity="1" fill-rule="nonzero"/><path fill="#f29727" d="M 204.453125 316.277344 L 204.453125 325.707031 C 204.453125 326.5625 205.152344 327.253906 206.015625 327.253906 L 253.28125 327.253906 C 254.136719 327.253906 254.835938 326.554688 254.835938 325.707031 L 254.835938 316.277344 C 254.835938 315.421875 254.136719 314.730469 253.28125 314.730469 L 206.015625 314.730469 C 205.152344 314.722656 204.453125 315.421875 204.453125 316.277344 Z M 204.453125 316.277344 " fill-opacity="1" fill-rule="nonzero"/><path fill="#45424b" d="M 204.453125 324.859375 L 204.453125 325.699219 C 204.453125 326.554688 205.152344 327.246094 206.015625 327.246094 L 253.28125 327.246094 C 254.136719 327.246094 254.835938 326.546875 254.835938 325.699219 L 254.835938 324.859375 Z M 204.453125 324.859375 " fill-opacity="1" fill-rule="nonzero"/><path fill="#45424b" d="M 249.457031 323.789062 C 249.273438 323.789062 249.136719 323.644531 249.136719 323.472656 L 249.136719 317.945312 C 249.136719 317.761719 249.285156 317.625 249.457031 317.625 C 249.628906 317.625 249.777344 317.769531 249.777344 317.945312 L 249.777344 323.472656 C 249.777344 323.644531 249.628906 323.789062 249.457031 323.789062 Z M 249.457031 323.789062 " fill-opacity="1" fill-rule="nonzero"/><path fill="#45424b" d="M 242.851562 323.789062 C 242.667969 323.789062 242.53125 323.644531 242.53125 323.472656 L 242.53125 317.945312 C 242.53125 317.761719 242.675781 317.625 242.851562 317.625 C 243.023438 317.625 243.167969 317.769531 243.167969 317.945312 L 243.167969 323.472656 C 243.167969 323.644531 243.03125 323.789062 242.851562 323.789062 Z M 242.851562 323.789062 " fill-opacity="1" fill-rule="nonzero"/><path fill="#45424b" d="M 236.242188 323.789062 C 236.0625 323.789062 235.925781 323.644531 235.925781 323.472656 L 235.925781 317.945312 C 235.925781 317.761719 236.070312 317.625 236.242188 317.625 C 236.417969 317.625 236.5625 317.769531 236.5625 317.945312 L 236.5625 323.472656 C 236.570312 323.644531 236.425781 323.789062 236.242188 323.789062 Z M 236.242188 323.789062 " fill-opacity="1" fill-rule="nonzero"/><path fill="#45424b" d="M 229.644531 323.789062 C 229.464844 323.789062 229.324219 323.644531 229.324219 323.472656 L 229.324219 317.945312 C 229.324219 317.761719 229.472656 317.625 229.644531 317.625 C 229.816406 317.625 229.964844 317.769531 229.964844 317.945312 L 229.964844 323.472656 C 229.964844 323.644531 229.816406 323.789062 229.644531 323.789062 Z M 229.644531 323.789062 " fill-opacity="1" fill-rule="nonzero"/><path fill="#45424b" d="M 223.039062 323.789062 C 222.859375 323.789062 222.71875 323.644531 222.71875 323.472656 L 222.71875 317.945312 C 222.71875 317.761719 222.867188 317.625 223.039062 317.625 C 223.210938 317.625 223.359375 317.769531 223.359375 317.945312 L 223.359375 323.472656 C 223.359375 323.644531 223.210938 323.789062 223.039062 323.789062 Z M 223.039062 323.789062 " fill-opacity="1" fill-rule="nonzero"/><path fill="#45424b" d="M 216.433594 323.789062 C 216.25 323.789062 216.113281 323.644531 216.113281 323.472656 L 216.113281 317.945312 C 216.113281 317.761719 216.257812 317.625 216.433594 317.625 C 216.605469 317.625 216.75 317.769531 216.75 317.945312 L 216.75 323.472656 C 216.761719 323.644531 216.613281 323.789062 216.433594 323.789062 Z M 216.433594 323.789062 " fill-opacity="1" fill-rule="nonzero"/><path fill="#45424b" d="M 209.824219 323.789062 C 209.644531 323.789062 209.507812 323.644531 209.507812 323.472656 L 209.507812 317.945312 C 209.507812 317.761719 209.652344 317.625 209.824219 317.625 C 210 317.625 210.144531 317.769531 210.144531 317.945312 L 210.144531 323.472656 C 210.152344 323.644531 210.007812 323.789062 209.824219 323.789062 Z M 209.824219 323.789062 " fill-opacity="1" fill-rule="nonzero"/><path fill="#f29727" d="M 332.414062 131.371094 L 334.496094 133.453125 L 325.03125 142.917969 L 322.949219 140.835938 Z M 332.414062 131.371094 " fill-opacity="1" fill-rule="nonzero"/><path fill="#f29727" d="M 334.503906 140.839844 L 332.421875 142.925781 L 322.957031 133.457031 L 325.039062 131.375 Z M 334.503906 140.839844 " fill-opacity="1" fill-rule="nonzero"/><path fill="#f2d6bd" d="M 340.8125 90.289062 L 342.238281 91.710938 L 335.75 98.199219 L 334.328125 96.773438 Z M 340.8125 90.289062 " fill-opacity="1" fill-rule="nonzero"/><path fill="#f2d6bd" d="M 342.242188 96.78125 L 340.820312 98.203125 L 334.332031 91.71875 L 335.757812 90.296875 Z M 342.242188 96.78125 " fill-opacity="1" fill-rule="nonzero"/><g clip-path="url(#5216396bc8)"><g clip-path="url(#09600fbe31)"><path fill="#192e3a" d="M 269.488281 204.324219 L 319.128906 204.324219 L 319.128906 253.964844 L 269.488281 253.964844 Z M 269.488281 204.324219 " fill-opacity="1" fill-rule="nonzero"/></g></g><g clip-path="url(#9727aabb15)"><path fill="#f29727" d="M 302.269531 217.183594 L 302.269531 239.671875 C 302.257812 239.679688 302.25 239.6875 302.234375 239.695312 C 300.988281 240.457031 299.703125 241.152344 298.390625 241.785156 L 298.390625 220.347656 L 291.714844 215.902344 L 291.714844 244.382812 C 290.539062 244.738281 289.351562 245.039062 288.152344 245.289062 L 288.152344 228.800781 L 281.480469 224.355469 L 281.480469 246.179688 L 281.289062 246.191406 C 281.070312 246.207031 280.847656 246.207031 280.625 246.210938 L 279.296875 246.238281 C 278.410156 246.242188 277.523438 246.214844 276.644531 246.179688 C 274.882812 246.074219 273.132812 245.871094 271.40625 245.546875 C 270.546875 245.386719 269.691406 245.203125 268.847656 244.988281 C 268 244.761719 267.164062 244.539062 266.339844 244.253906 C 265.097656 243.847656 263.878906 243.375 262.703125 242.828125 C 262.453125 242.710938 262.554688 242.335938 262.828125 242.355469 C 264.109375 242.445312 265.378906 242.527344 266.640625 242.5625 C 268.316406 242.609375 269.980469 242.605469 271.628906 242.527344 C 273.386719 242.445312 275.125 242.300781 276.847656 242.078125 C 277.039062 242.054688 277.128906 241.832031 277.007812 241.683594 C 274.664062 238.675781 273.066406 235.054688 272.519531 231.082031 C 270.628906 217.46875 281.601562 205.265625 295.339844 205.710938 C 304.132812 205.992188 311.703125 211.40625 315.046875 219.117188 C 315.125 219.292969 315.363281 219.324219 315.476562 219.167969 C 316.699219 217.476562 317.847656 215.714844 318.910156 213.875 L 319.515625 212.796875 L 319.820312 212.253906 L 320.109375 211.699219 L 320.179688 211.566406 L 316.273438 210.5 L 323.691406 203.144531 L 326.351562 213.246094 L 322.4375 212.179688 L 322.359375 212.535156 L 322.210938 213.175781 L 322.035156 213.808594 L 321.679688 215.070312 C 320.65625 218.425781 319.160156 221.652344 317.324219 224.699219 C 315.476562 227.734375 313.226562 230.542969 310.695312 233.078125 C 310.128906 233.644531 309.542969 234.191406 308.941406 234.71875 L 308.941406 221.632812 L 302.269531 217.183594 " fill-opacity="1" fill-rule="nonzero"/></g></svg>