<svg xmlns="http://www.w3.org/2000/svg" xmlns:xlink="http://www.w3.org/1999/xlink" width="500" zoomAndPan="magnify" viewBox="0 0 375 374.999991" height="500" preserveAspectRatio="xMidYMid meet" version="1.0"><defs><filter x="0%" y="0%" width="100%" height="100%" id="13eb5ed4fe"><feColorMatrix values="0 0 0 0 1 0 0 0 0 1 0 0 0 0 1 0 0 0 1 0" color-interpolation-filters="sRGB"/></filter><mask id="cc29bbc677"><g filter="url(#13eb5ed4fe)"><rect x="-37.5" width="450" fill="#000000" y="-37.499999" height="449.999989" fill-opacity="0.2"/></g></mask><clipPath id="b600d7c3a0"><path d="M 0.601562 1 L 26 1 L 26 62 L 0.601562 62 Z M 0.601562 1 " clip-rule="nonzero"/></clipPath><clipPath id="2ebc58ef38"><rect x="0" width="27" y="0" height="63"/></clipPath><clipPath id="d28fd8613a"><path d="M 15.136719 318 L 347 318 L 347 322 L 15.136719 322 Z M 15.136719 318 " clip-rule="nonzero"/></clipPath><clipPath id="63685252fa"><path d="M 267.890625 199.417969 L 316.171875 199.417969 L 316.171875 247.703125 L 267.890625 247.703125 Z M 267.890625 199.417969 " clip-rule="nonzero"/></clipPath><clipPath id="a1d779931e"><path d="M 292.03125 199.417969 C 278.699219 199.417969 267.890625 210.226562 267.890625 223.558594 C 267.890625 236.890625 278.699219 247.703125 292.03125 247.703125 C 305.363281 247.703125 316.171875 236.890625 316.171875 223.558594 C 316.171875 210.226562 305.363281 199.417969 292.03125 199.417969 Z M 292.03125 199.417969 " clip-rule="nonzero"/></clipPath><clipPath id="869d8d329e"><path d="M 261.046875 198.253906 L 323.296875 198.253906 L 323.296875 240.320312 L 261.046875 240.320312 Z M 261.046875 198.253906 " clip-rule="nonzero"/></clipPath></defs><path fill="#f2d6bd" d="M 235.886719 257.117188 C 223.09375 259.789062 209.871094 261.074219 196.433594 261.636719 C 162.320312 263.054688 126.472656 260.046875 93.78125 250.050781 C 50.261719 236.746094 32.121094 183.796875 60.308594 147.332031 C 68.523438 136.71875 79.402344 130.5 89.941406 122.640625 C 102.347656 113.382812 113.714844 102.722656 122.457031 89.871094 C 130.09375 78.652344 135.125 65.808594 143.464844 55.066406 C 152.679688 43.195312 166.453125 35.796875 181.1875 33.445312 C 234.070312 25.003906 292.632812 55.519531 324.644531 96.742188 C 359.90625 142.160156 329.828125 203.980469 289.097656 234.109375 C 272.742188 246.207031 254.777344 253.175781 235.886719 257.117188 Z M 235.886719 257.117188 " fill-opacity="1" fill-rule="nonzero"/><path fill="#f2d6bd" d="M 35.730469 186.855469 C 34.40625 186.855469 33.28125 185.835938 33.171875 184.492188 C 30.96875 157.691406 43.980469 135.851562 71.84375 119.597656 C 97.097656 104.867188 114.34375 76.828125 114.519531 76.542969 C 115.257812 75.332031 116.839844 74.9375 118.054688 75.675781 C 119.265625 76.417969 119.652344 77.996094 118.921875 79.214844 C 118.199219 80.40625 100.84375 108.636719 74.445312 124.042969 C 48.441406 139.210938 36.277344 159.402344 38.3125 184.074219 C 38.429688 185.492188 37.371094 186.726562 35.957031 186.84375 C 35.875 186.855469 35.808594 186.855469 35.730469 186.855469 Z M 35.730469 186.855469 " fill-opacity="1" fill-rule="nonzero"/><path fill="#f29727" d="M 114.160156 308.867188 C 114.160156 308.867188 115.175781 316.425781 116.175781 317.566406 C 119.527344 321.421875 127.078125 320.121094 130.824219 317.796875 C 133.191406 316.324219 130.992188 311.242188 130.992188 311.242188 Z M 114.160156 308.867188 " fill-opacity="1" fill-rule="nonzero"/><path fill="#45424b" d="M 126.070312 301.105469 C 126.070312 301.105469 128.40625 306.261719 128.773438 306.808594 C 129.152344 307.355469 135.511719 315.15625 127.0625 316.878906 C 118.609375 318.601562 116.703125 317.390625 114.703125 311.679688 C 113.554688 308.378906 114.804688 301.96875 114.804688 301.96875 C 114.804688 301.96875 115.269531 303.875 118.175781 303.917969 C 123.273438 303.984375 125.507812 302.953125 126.070312 301.105469 Z M 126.070312 301.105469 " fill-opacity="1" fill-rule="nonzero"/><path fill="#ffffff" d="M 125.121094 304.925781 L 118.667969 305.832031 C 118.425781 305.867188 118.207031 305.699219 118.175781 305.457031 C 118.140625 305.210938 118.308594 304.992188 118.550781 304.960938 L 125.003906 304.054688 C 125.246094 304.019531 125.464844 304.1875 125.5 304.429688 C 125.53125 304.675781 125.363281 304.894531 125.121094 304.925781 Z M 125.121094 304.925781 " fill-opacity="1" fill-rule="nonzero"/><path fill="#ffffff" d="M 125.523438 306.675781 L 119.074219 307.582031 C 118.828125 307.613281 118.609375 307.445312 118.578125 307.203125 C 118.542969 306.960938 118.710938 306.742188 118.957031 306.707031 L 125.40625 305.800781 C 125.648438 305.765625 125.867188 305.933594 125.902344 306.179688 C 125.933594 306.414062 125.765625 306.640625 125.523438 306.675781 Z M 125.523438 306.675781 " fill-opacity="1" fill-rule="nonzero"/><path fill="#ffffff" d="M 125.96875 308.722656 L 119.519531 309.628906 C 119.273438 309.664062 119.054688 309.496094 119.023438 309.253906 C 118.988281 309.007812 119.15625 308.789062 119.398438 308.757812 L 125.851562 307.851562 C 126.09375 307.816406 126.3125 307.984375 126.347656 308.226562 C 126.378906 308.472656 126.210938 308.691406 125.96875 308.722656 Z M 125.96875 308.722656 " fill-opacity="1" fill-rule="nonzero"/><path fill="#45424b" d="M 113.746094 221.066406 C 110.21875 206.191406 109.144531 191.035156 109.144531 191.035156 L 95.300781 180.21875 L 65.089844 191.253906 C 64.082031 204.738281 64.84375 265.144531 64.804688 273.453125 C 64.761719 281.761719 64.710938 301.433594 64.710938 301.433594 C 64.710938 301.433594 74.679688 303.648438 78.664062 300.289062 C 78.664062 300.289062 80.667969 285.792969 81.15625 279.015625 C 82.804688 255.898438 87.0625 216.917969 87.0625 216.917969 C 87.0625 216.917969 93.554688 235.410156 99.117188 250.042969 L 112.210938 299.578125 C 124.515625 300.769531 128.011719 297.601562 128.011719 297.601562 C 128.011719 297.601562 116.125 231.078125 113.746094 221.066406 Z M 113.746094 221.066406 " fill-opacity="1" fill-rule="nonzero"/><path fill="#f2d6bd" d="M 87.0625 217.117188 C 86.96875 217.117188 86.886719 217.050781 86.867188 216.957031 L 85.0625 207.71875 C 85.046875 207.609375 85.113281 207.507812 85.214844 207.492188 C 85.324219 207.476562 85.425781 207.542969 85.441406 207.644531 L 87.246094 216.882812 C 87.261719 216.992188 87.195312 217.09375 87.09375 217.109375 C 87.085938 217.117188 87.078125 217.117188 87.0625 217.117188 Z M 87.0625 217.117188 " fill-opacity="1" fill-rule="nonzero"/><path fill="#f2d6bd" d="M 86.164062 212.496094 C 86.136719 212.496094 86.113281 212.488281 86.085938 212.480469 C 85.945312 212.421875 82.660156 211.0625 81.265625 209.910156 C 81.183594 209.84375 81.175781 209.71875 81.242188 209.632812 C 81.308594 209.550781 81.433594 209.542969 81.519531 209.609375 C 82.871094 210.71875 86.207031 212.101562 86.238281 212.121094 C 86.339844 212.160156 86.382812 212.269531 86.347656 212.371094 C 86.3125 212.457031 86.238281 212.496094 86.164062 212.496094 Z M 86.164062 212.496094 " fill-opacity="1" fill-rule="nonzero"/><path fill="#f29727" d="M 48.515625 315.257812 C 48.515625 315.257812 47.726562 319.800781 53.078125 320.347656 C 58.429688 320.894531 62.183594 320.601562 64.945312 320.003906 C 67.710938 319.398438 69.261719 318.535156 72.167969 318.777344 C 75.074219 319.019531 78.050781 320.230469 79.511719 318.753906 C 80.710938 317.542969 79.613281 314.234375 79.613281 314.234375 L 63.59375 314.308594 Z M 48.515625 315.257812 " fill-opacity="1" fill-rule="nonzero"/><path fill="#45424b" d="M 65.457031 305.488281 C 65.457031 305.488281 59.109375 310.015625 55.984375 311.5625 C 52.859375 313.097656 48.800781 312.03125 48.523438 315.257812 C 48.246094 318.484375 57.066406 317.777344 62.234375 317.300781 C 67.398438 316.820312 71.019531 314.804688 73.722656 315.609375 C 76.429688 316.410156 79.433594 315.125 79.628906 314.234375 C 79.820312 313.34375 78.519531 305.496094 77.832031 304.75 C 77.832031 304.75 77.453125 306.296875 72.363281 306.429688 C 67.273438 306.554688 65.457031 305.488281 65.457031 305.488281 Z M 65.457031 305.488281 " fill-opacity="1" fill-rule="nonzero"/><path fill="#ffffff" d="M 59.535156 312.042969 L 59.460938 312.089844 C 59.308594 312.183594 59.125 312.132812 59.03125 311.984375 L 58.066406 310.34375 C 57.984375 310.191406 58.023438 310 58.175781 309.917969 L 58.25 309.867188 C 58.402344 309.773438 58.585938 309.824219 58.679688 309.976562 L 59.644531 311.613281 C 59.738281 311.753906 59.6875 311.949219 59.535156 312.042969 Z M 59.535156 312.042969 " fill-opacity="1" fill-rule="nonzero"/><path fill="#ffffff" d="M 60.980469 311.015625 L 60.90625 311.066406 C 60.753906 311.160156 60.570312 311.109375 60.476562 310.957031 L 59.511719 309.320312 C 59.425781 309.167969 59.46875 308.976562 59.621094 308.890625 L 59.695312 308.839844 C 59.847656 308.75 60.03125 308.800781 60.125 308.949219 L 61.089844 310.589844 C 61.175781 310.738281 61.125 310.933594 60.980469 311.015625 Z M 60.980469 311.015625 " fill-opacity="1" fill-rule="nonzero"/><path fill="#ffffff" d="M 62.660156 309.933594 L 62.585938 309.984375 C 62.433594 310.074219 62.25 310.023438 62.15625 309.875 L 61.191406 308.234375 C 61.105469 308.085938 61.148438 307.890625 61.300781 307.808594 L 61.375 307.757812 C 61.527344 307.664062 61.710938 307.714844 61.804688 307.867188 L 62.769531 309.503906 C 62.855469 309.65625 62.8125 309.847656 62.660156 309.933594 Z M 62.660156 309.933594 " fill-opacity="1" fill-rule="nonzero"/><path fill="#ffffff" d="M 64.324219 308.867188 L 64.25 308.917969 C 64.097656 309.007812 63.914062 308.957031 63.820312 308.808594 L 62.855469 307.167969 C 62.769531 307.019531 62.8125 306.824219 62.964844 306.742188 L 63.039062 306.691406 C 63.191406 306.597656 63.375 306.648438 63.46875 306.800781 L 64.433594 308.4375 C 64.515625 308.582031 64.46875 308.773438 64.324219 308.867188 Z M 64.324219 308.867188 " fill-opacity="1" fill-rule="nonzero"/><path fill="#ffffff" d="M 78.855469 158.691406 C 69.113281 160.21875 52.414062 164.300781 52.414062 164.300781 C 53.070312 154.332031 54.269531 146.433594 55.75 140.195312 C 61.007812 117.96875 71.296875 116.589844 71.296875 116.589844 L 78.914062 120.457031 L 87.742188 124.203125 C 87.742188 124.203125 88.597656 157.160156 78.855469 158.691406 Z M 78.855469 158.691406 " fill-opacity="1" fill-rule="nonzero"/><path fill="#ffffff" d="M 67.917969 160.699219 C 67.917969 160.699219 72.21875 172.757812 63.804688 174.035156 C 60.730469 174.507812 46.105469 162.6875 46.105469 162.6875 L 55.773438 156.582031 Z M 67.917969 160.699219 " fill-opacity="1" fill-rule="nonzero"/><path fill="#f29727" d="M 78.914062 120.457031 C 78.277344 128.789062 76.613281 139.4375 72.296875 140.363281 C 66.9375 141.503906 59.257812 140.679688 55.738281 140.195312 C 61 117.96875 70.230469 116.414062 70.230469 116.414062 Z M 78.914062 120.457031 " fill-opacity="1" fill-rule="nonzero"/><path fill="#45424b" d="M 66.375 141.027344 C 66.375 141.027344 66.367188 141.027344 66.375 141.027344 C 66.304688 141.027344 66.265625 140.976562 66.265625 140.917969 C 66.265625 140.847656 66.675781 134.574219 67.523438 131.179688 C 67.542969 131.121094 67.601562 131.089844 67.652344 131.105469 C 67.710938 131.121094 67.742188 131.179688 67.726562 131.230469 C 66.878906 134.617188 66.472656 140.867188 66.472656 140.933594 C 66.472656 140.976562 66.433594 141.027344 66.375 141.027344 Z M 66.375 141.027344 " fill-opacity="1" fill-rule="nonzero"/><path fill="#ffffff" d="M 74.183594 122.867188 C 74.21875 122.773438 82.507812 131.558594 87.917969 129.789062 C 93.964844 127.796875 96.671875 115.472656 96.671875 115.472656 L 95.714844 103.101562 L 95.707031 102.898438 L 95.6875 102.160156 L 94.496094 102.597656 L 89.75 104.328125 L 87.84375 105.023438 L 82.972656 106.796875 C 82.972656 106.796875 82.886719 109.996094 82.28125 112.59375 C 82.214844 112.871094 82.15625 113.121094 82.089844 113.375 C 81.953125 113.804688 81.753906 114.207031 81.527344 114.542969 C 81.003906 115.355469 80.359375 115.878906 80.359375 115.886719 C 79.132812 118.464844 74.226562 122.867188 74.183594 122.867188 Z M 74.183594 122.867188 " fill-opacity="1" fill-rule="nonzero"/><path fill="#ffffff" d="M 76.023438 99.457031 C 77.554688 106.175781 80.257812 112.902344 86.769531 111.90625 C 91.320312 111.199219 95.707031 104.890625 96.6875 99.101562 C 97.191406 96.113281 97.664062 93.507812 97.652344 91.542969 C 97.644531 89.988281 97.570312 89.015625 97.570312 89.015625 L 96.453125 85.640625 L 95.789062 83.664062 C 95.789062 83.664062 94.328125 82.480469 92.691406 81.144531 C 90.648438 79.472656 87.507812 81.894531 87.457031 81.773438 C 87.371094 81.597656 78.226562 80.320312 75.351562 83.984375 C 75.34375 83.992188 75.335938 84 75.335938 84.007812 C 75.074219 84.34375 74.875 84.679688 74.75 85.027344 C 74.640625 85.3125 74.589844 85.605469 74.589844 85.898438 C 74.589844 86.460938 74.613281 87.308594 74.648438 88.378906 C 74.671875 88.824219 74.6875 89.308594 74.722656 89.832031 C 74.773438 90.703125 74.847656 91.660156 74.949219 92.667969 C 75.152344 94.777344 75.488281 97.128906 76.023438 99.457031 Z M 76.023438 99.457031 " fill-opacity="1" fill-rule="nonzero"/><path fill="#45424b" d="M 76.816406 102.539062 C 78.21875 108.679688 80.828125 112.5 86.835938 111.90625 C 92.582031 111.339844 95.605469 105.203125 96.503906 99.910156 C 96.015625 98.660156 95.511719 95.558594 95.511719 95.558594 C 95.511719 95.558594 94.042969 93.273438 94.058594 93.359375 C 94.253906 94.308594 94.183594 100.792969 91.394531 101.597656 C 88.363281 102.480469 87.28125 103.261719 86.121094 103.246094 C 84.960938 103.226562 84.617188 102.824219 83.601562 103.078125 C 82.578125 103.328125 81.878906 103.867188 80.5 103.632812 C 79.207031 103.421875 77.78125 104.335938 76.816406 102.539062 Z M 76.816406 102.539062 " fill-opacity="1" fill-rule="nonzero"/><path fill="#45424b" d="M 97.957031 91.46875 C 97.957031 91.46875 99.046875 76.753906 90.472656 76.753906 C 90.472656 76.753906 83.792969 73.628906 76.410156 77.886719 C 71.554688 80.683594 73.3125 86.554688 73.800781 88.585938 C 74.101562 89.863281 74.621094 90.921875 74.789062 90.855469 C 75.261719 90.660156 75.3125 89.386719 77.03125 89.78125 C 84.011719 91.375 88.390625 86.144531 90.347656 87.285156 C 92.304688 88.425781 96.511719 99.910156 96.511719 99.910156 C 96.511719 99.910156 96.863281 94.484375 97.957031 91.46875 Z M 97.957031 91.46875 " fill-opacity="1" fill-rule="nonzero"/><path fill="#ffffff" d="M 96.257812 92.746094 C 96.257812 92.746094 100.125 89.972656 100.171875 93.988281 C 100.222656 98.003906 96.496094 99.917969 96.496094 99.917969 Z M 96.257812 92.746094 " fill-opacity="1" fill-rule="nonzero"/><path fill="#45424b" d="M 97.292969 93.988281 C 97.292969 93.988281 100.367188 92.90625 97.417969 97.355469 Z M 97.292969 93.988281 " fill-opacity="1" fill-rule="nonzero"/><path fill="#45424b" d="M 80.195312 97.484375 C 80.28125 97.773438 80.292969 98.039062 80.230469 98.277344 C 80.167969 98.515625 80.054688 98.660156 79.882812 98.707031 C 79.714844 98.757812 79.542969 98.695312 79.363281 98.527344 C 79.183594 98.355469 79.054688 98.125 78.96875 97.835938 C 78.886719 97.546875 78.875 97.28125 78.9375 97.042969 C 78.996094 96.800781 79.113281 96.660156 79.28125 96.609375 C 79.453125 96.5625 79.625 96.621094 79.804688 96.792969 C 79.984375 96.964844 80.113281 97.191406 80.195312 97.484375 Z M 80.195312 97.484375 " fill-opacity="1" fill-rule="nonzero"/><path fill="#45424b" d="M 87.613281 96.265625 C 87.695312 96.554688 87.707031 96.820312 87.648438 97.058594 C 87.585938 97.296875 87.46875 97.441406 87.300781 97.488281 C 87.132812 97.539062 86.957031 97.476562 86.777344 97.308594 C 86.601562 97.136719 86.46875 96.90625 86.386719 96.617188 C 86.304688 96.328125 86.292969 96.0625 86.351562 95.824219 C 86.414062 95.582031 86.527344 95.4375 86.699219 95.390625 C 86.867188 95.34375 87.042969 95.402344 87.21875 95.574219 C 87.398438 95.746094 87.53125 95.972656 87.613281 96.265625 Z M 87.613281 96.265625 " fill-opacity="1" fill-rule="nonzero"/><path fill="#45424b" d="M 80.5 95.566406 C 80.5 95.566406 78.578125 94.316406 77.058594 95.257812 Z M 80.5 95.566406 " fill-opacity="1" fill-rule="nonzero"/><path fill="#45424b" d="M 89.363281 93.417969 C 89.210938 93.410156 86.835938 93.148438 85.535156 94.753906 Z M 89.363281 93.417969 " fill-opacity="1" fill-rule="nonzero"/><path fill="#45424b" d="M 83.289062 100.714844 C 82.820312 100.714844 82.609375 100.496094 82.519531 100.328125 C 82.242188 99.835938 82.542969 99.0625 82.980469 98.726562 C 83.03125 98.683594 83.097656 98.699219 83.140625 98.75 C 83.171875 98.800781 83.164062 98.867188 83.113281 98.910156 C 82.71875 99.210938 82.519531 99.867188 82.710938 100.21875 C 82.894531 100.554688 83.40625 100.582031 84.148438 100.296875 C 84.207031 100.269531 84.273438 100.304688 84.289062 100.363281 C 84.316406 100.421875 84.28125 100.488281 84.222656 100.507812 C 83.835938 100.65625 83.535156 100.714844 83.289062 100.714844 Z M 83.289062 100.714844 " fill-opacity="1" fill-rule="nonzero"/><path fill="#ffffff" d="M 82.324219 106.511719 C 82.324219 106.511719 82.417969 106.671875 82.628906 106.863281 C 82.988281 107.21875 83.695312 107.695312 84.761719 107.570312 C 85.808594 107.445312 86.472656 106.765625 86.816406 106.292969 C 87.003906 106.023438 87.09375 105.832031 87.09375 105.832031 Z M 82.324219 106.511719 " fill-opacity="1" fill-rule="nonzero"/><path fill="#f29727" d="M 115.671875 121.285156 C 109.429688 133.15625 108.363281 172.296875 109.882812 193.003906 C 96.183594 196.234375 76.496094 197.839844 64.828125 194.613281 C 66.515625 172.5 63.804688 136.003906 70.230469 116.414062 C 70.230469 116.414062 77.546875 114.308594 82.351562 114.113281 C 78.300781 119.597656 93.480469 121.085938 96.6875 114.113281 C 96.6875 114.113281 112.160156 117.332031 115.671875 121.285156 Z M 115.671875 121.285156 " fill-opacity="1" fill-rule="nonzero"/><path fill="#45424b" d="M 66.375 141.027344 C 66.375 141.027344 66.367188 141.027344 66.375 141.027344 C 66.304688 141.027344 66.265625 140.976562 66.265625 140.917969 C 66.265625 140.847656 66.675781 134.574219 67.523438 131.179688 C 67.542969 131.121094 67.601562 131.089844 67.652344 131.105469 C 67.710938 131.121094 67.742188 131.179688 67.726562 131.230469 C 66.878906 134.617188 66.472656 140.867188 66.472656 140.933594 C 66.472656 140.976562 66.433594 141.027344 66.375 141.027344 Z M 66.375 141.027344 " fill-opacity="1" fill-rule="nonzero"/><path fill="#ffffff" d="M 135.542969 163.746094 C 137.460938 171.382812 130.808594 174.546875 116.445312 169.191406 C 109.65625 166.660156 104.761719 165.769531 103.164062 164.335938 L 104.046875 156.457031 C 105.238281 156.816406 112.730469 157 119.46875 157.882812 L 113.648438 145.007812 C 115.234375 144.882812 121.339844 143.445312 126.648438 138.523438 C 131.53125 149.171875 133.898438 157.195312 135.542969 163.746094 Z M 135.542969 163.746094 " fill-opacity="1" fill-rule="nonzero"/><path fill="#f29727" d="M 114.839844 120.546875 C 114.839844 120.546875 119.257812 122.757812 123.15625 129.375 C 126.683594 135.371094 130.234375 142.78125 129.503906 143.628906 C 125.011719 148.90625 114.636719 149.527344 114.636719 149.527344 L 109.925781 140.648438 Z M 114.839844 120.546875 " fill-opacity="1" fill-rule="nonzero"/><path fill="#45424b" d="M 132.578125 162 C 132.546875 162 132.511719 161.984375 132.496094 161.957031 C 129.386719 157.664062 119.558594 157.976562 119.46875 157.984375 C 119.410156 157.984375 119.367188 157.941406 119.359375 157.882812 C 119.359375 157.824219 119.398438 157.773438 119.460938 157.773438 C 119.484375 157.773438 121.988281 157.691406 124.851562 158.136719 C 127.507812 158.554688 131.007812 159.539062 132.671875 161.832031 C 132.707031 161.882812 132.695312 161.949219 132.644531 161.984375 C 132.628906 161.992188 132.605469 162 132.578125 162 Z M 132.578125 162 " fill-opacity="1" fill-rule="nonzero"/><path fill="#ffffff" d="M 94.21875 164.761719 C 95.101562 164.183594 96.175781 163.957031 99.828125 164.484375 C 102.03125 164.804688 105.550781 164 106.507812 163.789062 L 106.152344 157.011719 C 104.734375 156.640625 102.425781 155.121094 100.703125 154.304688 C 98.542969 153.289062 96.175781 151.550781 94.359375 152.171875 C 91.277344 153.214844 87.617188 155.035156 88.070312 156.1875 C 88.539062 157.335938 92.167969 156.203125 92.167969 156.203125 C 92.167969 156.203125 90.304688 157.230469 90.539062 158.472656 C 90.773438 159.714844 92.414062 160.125 92.414062 160.125 C 91.53125 161.421875 93.117188 162.621094 93.117188 162.621094 C 92.394531 163.789062 93.511719 165.214844 94.21875 164.761719 Z M 94.21875 164.761719 " fill-opacity="1" fill-rule="nonzero"/><path fill="#45424b" d="M 93.125 162.730469 C 93.09375 162.730469 93.066406 162.714844 93.042969 162.6875 C 93.007812 162.644531 93.007812 162.578125 93.058594 162.539062 C 93.117188 162.496094 94.4375 161.402344 96.511719 161.277344 C 96.511719 161.277344 96.511719 161.277344 96.519531 161.277344 C 96.578125 161.277344 96.621094 161.320312 96.628906 161.378906 C 96.628906 161.4375 96.585938 161.488281 96.527344 161.488281 C 94.527344 161.613281 93.210938 162.6875 93.203125 162.695312 C 93.175781 162.722656 93.152344 162.730469 93.125 162.730469 Z M 93.125 162.730469 " fill-opacity="1" fill-rule="nonzero"/><path fill="#45424b" d="M 92.421875 160.234375 C 92.386719 160.234375 92.363281 160.226562 92.34375 160.203125 C 92.304688 160.160156 92.3125 160.09375 92.355469 160.050781 C 92.421875 159.992188 94.074219 158.546875 96.03125 158.226562 C 96.089844 158.210938 96.140625 158.253906 96.160156 158.3125 C 96.167969 158.371094 96.125 158.421875 96.074219 158.4375 C 94.175781 158.75 92.511719 160.203125 92.496094 160.210938 C 92.472656 160.226562 92.445312 160.234375 92.421875 160.234375 Z M 92.421875 160.234375 " fill-opacity="1" fill-rule="nonzero"/><path fill="#45424b" d="M 92.175781 156.3125 C 92.144531 156.3125 92.101562 156.296875 92.085938 156.261719 C 92.058594 156.210938 92.078125 156.144531 92.125 156.121094 C 92.144531 156.113281 93.847656 155.164062 95.890625 155.164062 C 95.957031 155.164062 96.03125 155.195312 96.023438 155.273438 C 96.023438 155.332031 95.972656 155.378906 95.914062 155.378906 C 95.90625 155.378906 95.890625 155.378906 95.882812 155.378906 C 93.898438 155.378906 92.246094 156.296875 92.226562 156.304688 C 92.210938 156.304688 92.195312 156.3125 92.175781 156.3125 Z M 92.175781 156.3125 " fill-opacity="1" fill-rule="nonzero"/><path fill="#45424b" d="M 100.8125 165.46875 L 71.246094 165.46875 L 71.246094 163.066406 L 98.703125 163.066406 C 99.863281 163.066406 100.804688 164.007812 100.804688 165.167969 L 100.804688 165.46875 Z M 100.8125 165.46875 " fill-opacity="1" fill-rule="nonzero"/><path fill="#45424b" d="M 40.5625 165.46875 L 90.042969 165.46875 L 85.0625 133.515625 L 35.582031 133.515625 Z M 40.5625 165.46875 " fill-opacity="1" fill-rule="nonzero"/><path fill="#ffffff" d="M 65.472656 150.140625 C 65.5625 150.628906 65.5625 151.117188 65.472656 151.601562 C 65.382812 152.085938 65.210938 152.53125 64.953125 152.933594 C 64.699219 153.339844 64.378906 153.675781 63.996094 153.9375 C 63.613281 154.203125 63.195312 154.375 62.746094 154.457031 C 62.292969 154.539062 61.84375 154.527344 61.390625 154.414062 C 60.941406 154.304688 60.523438 154.105469 60.140625 153.816406 C 59.757812 153.527344 59.4375 153.175781 59.183594 152.753906 C 58.925781 152.332031 58.753906 151.878906 58.664062 151.386719 C 58.574219 150.898438 58.574219 150.410156 58.664062 149.925781 C 58.753906 149.441406 58.929688 149 59.183594 148.59375 C 59.441406 148.1875 59.757812 147.855469 60.140625 147.589844 C 60.523438 147.328125 60.941406 147.152344 61.394531 147.070312 C 61.84375 146.988281 62.296875 147.003906 62.746094 147.113281 C 63.199219 147.226562 63.613281 147.425781 63.996094 147.710938 C 64.378906 148 64.699219 148.355469 64.953125 148.773438 C 65.210938 149.195312 65.382812 149.652344 65.472656 150.140625 Z M 65.472656 150.140625 " fill-opacity="1" fill-rule="nonzero"/><path fill="#ffffff" d="M 49.113281 165.445312 C 49.113281 165.445312 49.523438 165.25 49.332031 163.394531 C 49.136719 161.546875 49.710938 159.730469 51.488281 159.933594 C 51.488281 159.933594 53.011719 158.09375 54.597656 159.917969 C 54.597656 159.917969 56.4375 159.085938 57.648438 160.613281 C 57.648438 160.613281 59.167969 159.765625 59.929688 160.890625 C 60.695312 162.015625 61.074219 165.277344 59.941406 166.082031 C 58.796875 166.886719 55.882812 167.332031 53.210938 167.292969 C 50.539062 167.25 49.113281 165.445312 49.113281 165.445312 Z M 49.113281 165.445312 " fill-opacity="1" fill-rule="nonzero"/><path fill="#45424b" d="M 51.488281 165.066406 C 51.472656 165.066406 51.457031 165.058594 51.4375 165.046875 C 51.390625 165.015625 51.371094 164.957031 51.398438 164.90625 C 52.457031 163.089844 51.398438 159.992188 51.390625 159.96875 C 51.371094 159.90625 51.398438 159.847656 51.457031 159.832031 C 51.515625 159.816406 51.574219 159.839844 51.589844 159.898438 C 51.632812 160.035156 52.691406 163.125 51.589844 165.015625 C 51.566406 165.046875 51.523438 165.066406 51.488281 165.066406 Z M 51.488281 165.066406 " fill-opacity="1" fill-rule="nonzero"/><path fill="#45424b" d="M 54.597656 165.226562 C 54.582031 165.226562 54.574219 165.226562 54.554688 165.214844 C 54.503906 165.191406 54.480469 165.132812 54.496094 165.074219 C 55.421875 162.957031 54.496094 159.976562 54.488281 159.941406 C 54.472656 159.882812 54.503906 159.824219 54.554688 159.808594 C 54.613281 159.789062 54.671875 159.824219 54.691406 159.875 C 54.730469 160 55.648438 162.972656 54.691406 165.15625 C 54.679688 165.199219 54.640625 165.226562 54.597656 165.226562 Z M 54.597656 165.226562 " fill-opacity="1" fill-rule="nonzero"/><path fill="#45424b" d="M 57.269531 165.503906 C 57.25 165.503906 57.226562 165.492188 57.210938 165.484375 C 57.160156 165.453125 57.152344 165.382812 57.175781 165.34375 C 58.285156 163.65625 57.546875 160.664062 57.539062 160.640625 C 57.519531 160.578125 57.554688 160.519531 57.613281 160.511719 C 57.671875 160.496094 57.730469 160.53125 57.738281 160.589844 C 57.773438 160.714844 58.511719 163.695312 57.351562 165.460938 C 57.335938 165.484375 57.300781 165.503906 57.269531 165.503906 Z M 57.269531 165.503906 " fill-opacity="1" fill-rule="nonzero"/><path fill="#45424b" d="M 298.3125 231.472656 L 148.714844 231.472656 C 145.910156 231.472656 144.054688 229.035156 144.574219 226.03125 L 170.074219 77.054688 C 170.535156 74.359375 173.089844 71.964844 175.785156 71.6875 L 318.789062 57.339844 C 322.007812 57.023438 324.351562 59.128906 324.003906 62.070312 L 305.140625 225.464844 C 304.753906 228.785156 301.6875 231.472656 298.3125 231.472656 Z M 298.3125 231.472656 " fill-opacity="1" fill-rule="nonzero"/><path fill="#ffffff" d="M 294.355469 227.523438 L 144.757812 227.523438 C 141.953125 227.523438 140.097656 225.089844 140.617188 222.082031 L 166.117188 73.105469 C 166.582031 70.410156 169.132812 68.015625 171.832031 67.738281 L 314.832031 53.394531 C 318.050781 53.074219 320.394531 55.183594 320.050781 58.121094 L 301.183594 221.519531 C 300.804688 224.835938 297.738281 227.523438 294.355469 227.523438 Z M 294.355469 227.523438 " fill-opacity="1" fill-rule="nonzero"/><path fill="#f2d6bd" d="M 292.960938 219.234375 L 148.027344 219.941406 L 170.125 88.957031 L 309.828125 76.785156 Z M 292.960938 219.234375 " fill-opacity="1" fill-rule="nonzero"/><path fill="#f29727" d="M 177.324219 77.382812 C 177.113281 78.640625 175.921875 79.75 174.660156 79.867188 C 173.402344 79.984375 172.5625 79.0625 172.769531 77.8125 C 172.980469 76.558594 174.164062 75.449219 175.425781 75.324219 C 176.675781 75.207031 177.527344 76.121094 177.324219 77.382812 Z M 177.324219 77.382812 " fill-opacity="1" fill-rule="nonzero"/><path fill="#f29727" d="M 193.265625 75.878906 C 193.066406 77.148438 191.855469 78.273438 190.570312 78.390625 C 189.285156 78.507812 188.417969 77.574219 188.621094 76.316406 C 188.824219 75.054688 190.03125 73.929688 191.308594 73.804688 C 192.59375 73.6875 193.46875 74.609375 193.265625 75.878906 Z M 193.265625 75.878906 " fill-opacity="1" fill-rule="nonzero"/><path fill="#f29727" d="M 185.253906 76.632812 C 185.042969 77.894531 183.851562 79.019531 182.574219 79.136719 C 181.304688 79.253906 180.449219 78.332031 180.660156 77.070312 C 180.867188 75.8125 182.0625 74.695312 183.328125 74.578125 C 184.597656 74.449219 185.464844 75.375 185.253906 76.632812 Z M 185.253906 76.632812 " fill-opacity="1" fill-rule="nonzero"/><path fill="#f29727" d="M 267.710938 193.304688 L 176.734375 195.144531 L 179.078125 180.496094 L 269.695312 177.832031 Z M 267.710938 193.304688 " fill-opacity="1" fill-rule="nonzero"/><path fill="#ffffff" d="M 212.171875 182.59375 L 211.542969 188.566406 L 213.820312 188.566406 L 213.652344 190.179688 L 209.34375 190.179688 L 210.140625 182.59375 Z M 212.171875 182.59375 " fill-opacity="1" fill-rule="nonzero"/><path fill="#ffffff" d="M 217.945312 190.253906 C 215.871094 190.253906 214.359375 188.644531 214.59375 186.359375 C 214.835938 184.074219 216.683594 182.476562 218.757812 182.476562 C 220.84375 182.476562 222.335938 184.082031 222.101562 186.359375 C 221.859375 188.644531 220.019531 190.253906 217.945312 190.253906 Z M 218.152344 188.296875 C 219.203125 188.296875 219.917969 187.535156 220.035156 186.367188 C 220.160156 185.175781 219.605469 184.417969 218.558594 184.417969 C 217.5 184.417969 216.792969 185.175781 216.667969 186.367188 C 216.550781 187.535156 217.085938 188.296875 218.152344 188.296875 Z M 218.152344 188.296875 " fill-opacity="1" fill-rule="nonzero"/><path fill="#ffffff" d="M 230.015625 185.089844 L 227.820312 185.089844 C 227.636719 184.695312 227.242188 184.46875 226.679688 184.46875 C 225.65625 184.46875 224.949219 185.207031 224.832031 186.375 C 224.699219 187.675781 225.269531 188.375 226.46875 188.375 C 227.175781 188.375 227.730469 188.03125 228.097656 187.375 L 226.058594 187.375 L 226.21875 185.855469 L 230.015625 185.855469 L 229.796875 187.894531 C 229.242188 189.003906 227.980469 190.230469 226.074219 190.230469 C 223.832031 190.230469 222.523438 188.632812 222.765625 186.367188 C 223 184.105469 224.628906 182.511719 226.871094 182.511719 C 228.730469 182.519531 229.886719 183.511719 230.015625 185.089844 Z M 230.015625 185.089844 " fill-opacity="1" fill-rule="nonzero"/><path fill="#ffffff" d="M 231.273438 182.59375 L 233.308594 182.59375 L 232.507812 190.179688 L 230.476562 190.179688 Z M 231.273438 182.59375 " fill-opacity="1" fill-rule="nonzero"/><path fill="#ffffff" d="M 241.253906 182.59375 L 240.453125 190.179688 L 238.421875 190.179688 L 236.15625 185.9375 L 235.710938 190.179688 L 233.675781 190.179688 L 234.472656 182.59375 L 236.507812 182.59375 L 238.765625 186.886719 L 239.21875 182.59375 Z M 241.253906 182.59375 " fill-opacity="1" fill-rule="nonzero"/><path fill="#ffffff" d="M 250.433594 110.25 C 249.148438 119.699219 240.195312 127.878906 230.535156 128.460938 C 220.984375 129.03125 214.449219 121.941406 215.820312 112.675781 C 217.179688 103.480469 225.863281 95.457031 235.324219 94.695312 C 244.890625 93.929688 251.703125 100.867188 250.433594 110.25 Z M 250.433594 110.25 " fill-opacity="1" fill-rule="nonzero"/><path fill="#45424b" d="M 229.453125 128.804688 C 225.167969 128.804688 221.414062 127.265625 218.792969 124.402344 C 216.003906 121.363281 214.835938 117.179688 215.507812 112.636719 C 216.886719 103.34375 225.753906 95.164062 235.289062 94.398438 C 240.109375 94.011719 244.351562 95.5 247.285156 98.589844 C 250.121094 101.589844 251.339844 105.738281 250.726562 110.292969 C 249.425781 119.890625 240.371094 128.175781 230.542969 128.769531 C 230.183594 128.789062 229.8125 128.804688 229.453125 128.804688 Z M 236.769531 94.945312 C 236.296875 94.945312 235.828125 94.960938 235.339844 95.003906 C 226.074219 95.753906 217.441406 103.699219 216.105469 112.726562 C 215.457031 117.085938 216.574219 121.085938 219.238281 124 C 221.949219 126.964844 225.964844 128.441406 230.511719 128.167969 C 240.058594 127.59375 248.863281 119.539062 250.121094 110.214844 C 250.710938 105.855469 249.550781 101.875 246.839844 99.011719 C 244.34375 96.367188 240.800781 94.945312 236.769531 94.945312 Z M 236.769531 94.945312 " fill-opacity="1" fill-rule="nonzero"/><path fill="#45424b" d="M 239.21875 106.832031 C 238.785156 109.878906 235.886719 112.542969 232.753906 112.753906 C 229.636719 112.972656 227.476562 110.679688 227.921875 107.644531 C 228.367188 104.621094 231.242188 101.984375 234.347656 101.75 C 237.464844 101.515625 239.65625 103.789062 239.21875 106.832031 Z M 239.21875 106.832031 " fill-opacity="1" fill-rule="nonzero"/><path fill="#45424b" d="M 240.882812 120.671875 L 222.261719 121.875 L 222.949219 117.203125 C 223.175781 115.675781 224.613281 114.355469 226.167969 114.246094 L 239.070312 113.359375 C 240.648438 113.25 241.757812 114.40625 241.539062 115.953125 Z M 240.882812 120.671875 " fill-opacity="1" fill-rule="nonzero"/><path fill="#ffffff" d="M 270.644531 164.90625 L 181.691406 168.199219 L 183.625 156.078125 L 272.289062 152.128906 Z M 270.644531 164.90625 " fill-opacity="1" fill-rule="nonzero"/><path fill="#45424b" d="M 214.769531 160.554688 L 213.972656 161.78125 L 212.164062 161.78125 L 213.996094 159.253906 L 212.609375 156.910156 L 214.457031 156.910156 L 215.171875 158.136719 L 215.980469 156.910156 L 217.785156 156.910156 L 215.917969 159.394531 L 217.332031 161.789062 L 215.484375 161.789062 Z M 214.769531 160.554688 " fill-opacity="1" fill-rule="nonzero"/><path fill="#45424b" d="M 220.035156 160.554688 L 219.238281 161.78125 L 217.433594 161.78125 L 219.261719 159.253906 L 217.878906 156.910156 L 219.726562 156.910156 L 220.4375 158.136719 L 221.246094 156.910156 L 223.050781 156.910156 L 221.1875 159.394531 L 222.597656 161.789062 L 220.75 161.789062 Z M 220.035156 160.554688 " fill-opacity="1" fill-rule="nonzero"/><path fill="#45424b" d="M 225.300781 160.554688 L 224.503906 161.78125 L 222.699219 161.78125 L 224.53125 159.253906 L 223.144531 156.910156 L 224.992188 156.910156 L 225.707031 158.136719 L 226.511719 156.910156 L 228.316406 156.910156 L 226.453125 159.394531 L 227.863281 161.789062 L 226.015625 161.789062 Z M 225.300781 160.554688 " fill-opacity="1" fill-rule="nonzero"/><path fill="#45424b" d="M 230.570312 160.554688 L 229.769531 161.78125 L 227.964844 161.78125 L 229.796875 159.253906 L 228.410156 156.910156 L 230.257812 156.910156 L 230.972656 158.136719 L 231.777344 156.910156 L 233.585938 156.910156 L 231.71875 159.394531 L 233.128906 161.789062 L 231.28125 161.789062 Z M 230.570312 160.554688 " fill-opacity="1" fill-rule="nonzero"/><path fill="#45424b" d="M 235.835938 160.554688 L 235.039062 161.78125 L 233.230469 161.78125 L 235.0625 159.253906 L 233.675781 156.910156 L 235.523438 156.910156 L 236.238281 158.136719 L 237.042969 156.910156 L 238.851562 156.910156 L 236.984375 159.394531 L 238.398438 161.789062 L 236.550781 161.789062 Z M 235.835938 160.554688 " fill-opacity="1" fill-rule="nonzero"/><path fill="#45424b" d="M 241.101562 160.554688 L 240.304688 161.78125 L 238.496094 161.78125 L 240.328125 159.253906 L 238.941406 156.910156 L 240.792969 156.910156 L 241.503906 158.136719 L 242.3125 156.910156 L 244.117188 156.910156 L 242.253906 159.394531 L 243.664062 161.789062 L 241.816406 161.789062 Z M 241.101562 160.554688 " fill-opacity="1" fill-rule="nonzero"/><path fill="#ffffff" d="M 273.0625 146.066406 L 184.546875 150.324219 L 186.460938 138.363281 L 274.683594 133.464844 Z M 273.0625 146.066406 " fill-opacity="1" fill-rule="nonzero"/><path fill="#f2d6bd" d="M 250.214844 141.839844 L 207.117188 144.050781 L 207.378906 142.363281 L 250.449219 140.109375 Z M 250.214844 141.839844 " fill-opacity="1" fill-rule="nonzero"/><path fill="#45424b" d="M 316.976562 204.160156 C 317.613281 204.820312 318.21875 205.507812 318.789062 206.230469 C 319.355469 206.949219 319.886719 207.699219 320.378906 208.476562 C 320.871094 209.253906 321.320312 210.054688 321.730469 210.882812 C 322.140625 211.707031 322.507812 212.554688 322.835938 213.417969 C 323.160156 214.285156 323.441406 215.167969 323.675781 216.066406 C 323.914062 216.96875 324.105469 217.878906 324.25 218.800781 C 324.394531 219.722656 324.496094 220.652344 324.546875 221.589844 C 324.601562 222.527344 324.609375 223.46875 324.570312 224.414062 C 324.53125 225.355469 324.445312 226.296875 324.3125 227.238281 C 324.183594 228.179688 324.003906 229.113281 323.78125 230.039062 C 323.558594 230.96875 323.292969 231.886719 322.980469 232.792969 C 322.667969 233.699219 322.3125 234.589844 321.917969 235.464844 C 321.519531 236.34375 321.078125 237.199219 320.601562 238.039062 C 320.121094 238.875 319.601562 239.691406 319.042969 240.484375 C 318.488281 241.273438 317.894531 242.039062 317.265625 242.777344 C 316.636719 243.515625 315.972656 244.222656 315.277344 244.898438 C 314.582031 245.574219 313.859375 246.214844 313.101562 246.824219 C 312.347656 247.433594 311.566406 248.003906 310.761719 248.539062 C 309.953125 249.074219 309.125 249.570312 308.273438 250.027344 C 307.421875 250.480469 306.554688 250.898438 305.664062 251.269531 C 304.777344 251.644531 303.878906 251.972656 302.960938 252.257812 C 302.046875 252.542969 301.125 252.785156 300.191406 252.984375 C 299.257812 253.179688 298.316406 253.332031 297.375 253.4375 C 296.429688 253.542969 295.488281 253.601562 294.542969 253.613281 C 293.597656 253.625 292.660156 253.59375 291.722656 253.515625 C 290.785156 253.433594 289.859375 253.308594 288.941406 253.136719 C 288.023438 252.964844 287.117188 252.75 286.226562 252.488281 C 285.335938 252.226562 284.460938 251.921875 283.601562 251.574219 C 282.746094 251.222656 281.910156 250.832031 281.09375 250.398438 C 280.28125 249.964844 279.492188 249.492188 278.730469 248.980469 C 277.964844 248.464844 277.230469 247.914062 276.527344 247.328125 C 275.824219 246.738281 275.148438 246.113281 274.511719 245.457031 C 273.871094 244.800781 273.265625 244.109375 272.699219 243.386719 C 272.128906 242.667969 271.597656 241.917969 271.105469 241.140625 C 270.613281 240.363281 270.164062 239.5625 269.753906 238.738281 C 269.34375 237.910156 268.976562 237.066406 268.648438 236.199219 C 268.324219 235.332031 268.042969 234.449219 267.808594 233.550781 C 267.570312 232.652344 267.378906 231.738281 267.234375 230.816406 C 267.089844 229.894531 266.988281 228.964844 266.9375 228.027344 C 266.882812 227.089844 266.875 226.148438 266.914062 225.203125 C 266.953125 224.261719 267.039062 223.320312 267.171875 222.378906 C 267.304688 221.4375 267.480469 220.503906 267.703125 219.578125 C 267.925781 218.648438 268.191406 217.734375 268.503906 216.824219 C 268.816406 215.917969 269.171875 215.027344 269.570312 214.152344 C 269.964844 213.273438 270.40625 212.417969 270.882812 211.578125 C 271.363281 210.742188 271.882812 209.925781 272.441406 209.136719 C 272.996094 208.34375 273.589844 207.578125 274.21875 206.839844 C 274.847656 206.105469 275.511719 205.398438 276.207031 204.71875 C 276.902344 204.042969 277.628906 203.402344 278.382812 202.792969 C 279.136719 202.183594 279.917969 201.613281 280.722656 201.078125 C 281.53125 200.542969 282.359375 200.046875 283.210938 199.589844 C 284.0625 199.136719 284.933594 198.722656 285.820312 198.347656 C 286.707031 197.976562 287.609375 197.644531 288.523438 197.359375 C 289.4375 197.074219 290.363281 196.832031 291.296875 196.632812 C 292.230469 196.4375 293.167969 196.285156 294.109375 196.179688 C 295.054688 196.074219 296 196.015625 296.941406 196.003906 C 297.886719 195.992188 298.828125 196.023438 299.761719 196.105469 C 300.699219 196.183594 301.625 196.308594 302.542969 196.480469 C 303.460938 196.652344 304.367188 196.867188 305.257812 197.128906 C 306.152344 197.390625 307.023438 197.695312 307.882812 198.042969 C 308.738281 198.394531 309.574219 198.785156 310.390625 199.21875 C 311.203125 199.652344 311.992188 200.125 312.753906 200.636719 C 313.519531 201.152344 314.253906 201.703125 314.957031 202.289062 C 315.664062 202.878906 316.335938 203.503906 316.976562 204.160156 Z M 316.976562 204.160156 " fill-opacity="1" fill-rule="nonzero"/><path fill="#ffffff" d="M 313.136719 202 C 313.773438 202.660156 314.378906 203.347656 314.949219 204.070312 C 315.515625 204.789062 316.046875 205.539062 316.539062 206.316406 C 317.03125 207.09375 317.480469 207.894531 317.890625 208.722656 C 318.300781 209.546875 318.667969 210.394531 318.996094 211.261719 C 319.320312 212.125 319.601562 213.007812 319.835938 213.910156 C 320.074219 214.808594 320.265625 215.71875 320.410156 216.640625 C 320.554688 217.5625 320.65625 218.492188 320.707031 219.433594 C 320.761719 220.371094 320.769531 221.308594 320.730469 222.253906 C 320.691406 223.195312 320.605469 224.136719 320.472656 225.078125 C 320.34375 226.019531 320.164062 226.953125 319.941406 227.878906 C 319.71875 228.808594 319.453125 229.726562 319.140625 230.632812 C 318.828125 231.539062 318.472656 232.429688 318.078125 233.304688 C 317.679688 234.183594 317.242188 235.039062 316.761719 235.878906 C 316.28125 236.714844 315.761719 237.53125 315.207031 238.324219 C 314.648438 239.113281 314.054688 239.878906 313.425781 240.617188 C 312.796875 241.355469 312.132812 242.0625 311.4375 242.738281 C 310.742188 243.414062 310.019531 244.054688 309.261719 244.664062 C 308.507812 245.273438 307.726562 245.84375 306.921875 246.378906 C 306.113281 246.914062 305.285156 247.410156 304.433594 247.867188 C 303.582031 248.324219 302.714844 248.738281 301.824219 249.109375 C 300.9375 249.484375 300.039062 249.8125 299.121094 250.097656 C 298.207031 250.386719 297.285156 250.625 296.351562 250.824219 C 295.417969 251.019531 294.476562 251.171875 293.535156 251.277344 C 292.589844 251.382812 291.648438 251.441406 290.703125 251.453125 C 289.757812 251.46875 288.820312 251.433594 287.882812 251.355469 C 286.949219 251.273438 286.019531 251.148438 285.101562 250.976562 C 284.183594 250.808594 283.277344 250.589844 282.386719 250.328125 C 281.496094 250.066406 280.621094 249.761719 279.761719 249.414062 C 278.90625 249.0625 278.070312 248.671875 277.253906 248.238281 C 276.441406 247.804688 275.652344 247.332031 274.890625 246.820312 C 274.125 246.304688 273.390625 245.753906 272.6875 245.167969 C 271.984375 244.578125 271.308594 243.957031 270.671875 243.296875 C 270.03125 242.640625 269.425781 241.949219 268.859375 241.230469 C 268.289062 240.507812 267.757812 239.757812 267.265625 238.980469 C 266.773438 238.203125 266.324219 237.402344 265.914062 236.578125 C 265.503906 235.75 265.136719 234.90625 264.8125 234.039062 C 264.484375 233.171875 264.203125 232.289062 263.96875 231.390625 C 263.730469 230.492188 263.539062 229.578125 263.394531 228.65625 C 263.25 227.734375 263.148438 226.804688 263.097656 225.867188 C 263.042969 224.929688 263.035156 223.988281 263.074219 223.046875 C 263.113281 222.101562 263.199219 221.160156 263.332031 220.21875 C 263.464844 219.28125 263.640625 218.347656 263.863281 217.417969 C 264.085938 216.488281 264.351562 215.574219 264.664062 214.667969 C 264.976562 213.761719 265.332031 212.867188 265.730469 211.992188 C 266.125 211.117188 266.566406 210.257812 267.042969 209.417969 C 267.523438 208.582031 268.042969 207.765625 268.601562 206.976562 C 269.15625 206.183594 269.75 205.417969 270.378906 204.679688 C 271.007812 203.945312 271.671875 203.238281 272.367188 202.5625 C 273.0625 201.882812 273.789062 201.242188 274.542969 200.632812 C 275.296875 200.023438 276.078125 199.453125 276.882812 198.917969 C 277.691406 198.382812 278.519531 197.886719 279.371094 197.433594 C 280.222656 196.976562 281.09375 196.5625 281.980469 196.1875 C 282.867188 195.816406 283.769531 195.484375 284.683594 195.199219 C 285.597656 194.914062 286.523438 194.671875 287.457031 194.476562 C 288.390625 194.277344 289.328125 194.128906 290.269531 194.023438 C 291.214844 193.917969 292.160156 193.855469 293.101562 193.84375 C 294.046875 193.832031 294.988281 193.863281 295.921875 193.945312 C 296.859375 194.023438 297.785156 194.148438 298.703125 194.320312 C 299.621094 194.492188 300.527344 194.707031 301.417969 194.96875 C 302.3125 195.230469 303.1875 195.535156 304.042969 195.886719 C 304.898438 196.234375 305.734375 196.625 306.550781 197.058594 C 307.363281 197.492188 308.152344 197.964844 308.914062 198.480469 C 309.679688 198.992188 310.414062 199.542969 311.117188 200.132812 C 311.824219 200.71875 312.496094 201.34375 313.136719 202 Z M 313.136719 202 " fill-opacity="1" fill-rule="nonzero"/><path fill="#45424b" d="M 290.289062 251.933594 C 282.46875 251.933594 275.28125 248.894531 270.054688 243.359375 C 264.8125 237.8125 262.167969 230.449219 262.605469 222.609375 C 263.503906 206.476562 277.363281 193.347656 293.5 193.347656 C 301.320312 193.347656 308.507812 196.386719 313.734375 201.921875 C 318.972656 207.464844 321.621094 214.832031 321.183594 222.667969 C 320.285156 238.804688 306.425781 251.933594 290.289062 251.933594 Z M 293.5 194.3125 C 277.867188 194.3125 264.4375 207.03125 263.570312 222.667969 C 263.152344 230.238281 265.703125 237.351562 270.761719 242.695312 C 275.808594 248.027344 282.746094 250.96875 290.296875 250.96875 C 305.929688 250.96875 319.359375 238.25 320.226562 222.621094 C 320.644531 215.050781 318.09375 207.9375 313.035156 202.59375 C 307.988281 197.253906 301.050781 194.3125 293.5 194.3125 Z M 293.5 194.3125 " fill-opacity="1" fill-rule="nonzero"/><path fill="#f29727" d="M 277.765625 217.191406 L 277.429688 216.496094 L 292.675781 208.59375 L 292.851562 208.691406 L 307.039062 216.496094 L 306.625 217.191406 L 292.625 209.5 Z M 277.765625 217.191406 " fill-opacity="1" fill-rule="nonzero"/><path fill="#f29727" d="M 302.980469 216.839844 L 301.882812 236.664062 L 305.308594 236.664062 L 306.410156 216.839844 Z M 305.863281 218.707031 L 304.964844 234.824219 L 304.492188 234.824219 L 305.390625 218.707031 Z M 304.828125 218.707031 L 303.929688 234.824219 L 303.460938 234.824219 L 304.359375 218.707031 Z M 303.796875 218.707031 L 302.898438 234.824219 L 302.425781 234.824219 L 303.324219 218.707031 Z M 303.796875 218.707031 " fill-opacity="1" fill-rule="nonzero"/><path fill="#f29727" d="M 306.777344 217.824219 L 302.511719 217.824219 L 302.570312 216.839844 L 306.828125 216.839844 Z M 306.777344 217.824219 " fill-opacity="1" fill-rule="nonzero"/><path fill="#f29727" d="M 305.726562 236.6875 L 301.460938 236.6875 L 301.519531 235.714844 L 305.777344 235.714844 Z M 305.726562 236.6875 " fill-opacity="1" fill-rule="nonzero"/><path fill="#f29727" d="M 297.429688 216.839844 L 296.328125 236.664062 L 299.757812 236.664062 L 300.855469 216.839844 Z M 300.320312 218.707031 L 299.421875 234.824219 L 298.949219 234.824219 L 299.847656 218.707031 Z M 299.277344 218.707031 L 298.378906 234.824219 L 297.90625 234.824219 L 298.808594 218.707031 Z M 298.246094 218.707031 L 297.34375 234.824219 L 296.875 234.824219 L 297.773438 218.707031 Z M 298.246094 218.707031 " fill-opacity="1" fill-rule="nonzero"/><path fill="#f29727" d="M 301.226562 217.824219 L 296.960938 217.824219 L 297.019531 216.839844 L 301.277344 216.839844 Z M 301.226562 217.824219 " fill-opacity="1" fill-rule="nonzero"/><path fill="#f29727" d="M 300.175781 236.6875 L 295.910156 236.6875 L 295.96875 235.714844 L 300.226562 235.714844 Z M 300.175781 236.6875 " fill-opacity="1" fill-rule="nonzero"/><path fill="#f29727" d="M 284.34375 216.839844 L 283.242188 236.664062 L 286.667969 236.664062 L 287.769531 216.839844 Z M 287.222656 218.707031 L 286.324219 234.824219 L 285.855469 234.824219 L 286.753906 218.707031 Z M 286.191406 218.707031 L 285.292969 234.824219 L 284.820312 234.824219 L 285.71875 218.707031 Z M 285.15625 218.707031 L 284.257812 234.824219 L 283.789062 234.824219 L 284.6875 218.707031 Z M 285.15625 218.707031 " fill-opacity="1" fill-rule="nonzero"/><path fill="#f29727" d="M 288.132812 217.824219 L 283.871094 217.824219 L 283.921875 216.839844 L 288.191406 216.839844 Z M 288.132812 217.824219 " fill-opacity="1" fill-rule="nonzero"/><path fill="#f29727" d="M 287.082031 236.6875 L 282.824219 236.6875 L 282.871094 235.714844 L 287.140625 235.714844 Z M 287.082031 236.6875 " fill-opacity="1" fill-rule="nonzero"/><path fill="#f29727" d="M 278.789062 216.839844 L 277.691406 236.664062 L 281.117188 236.664062 L 282.21875 216.839844 Z M 280.636719 218.707031 L 279.738281 234.824219 L 279.269531 234.824219 L 280.167969 218.707031 Z M 279.605469 218.707031 L 278.707031 234.824219 L 278.238281 234.824219 L 279.136719 218.707031 Z M 279.605469 218.707031 " fill-opacity="1" fill-rule="nonzero"/><path fill="#f29727" d="M 282.578125 217.824219 L 278.320312 217.824219 L 278.371094 216.839844 L 282.636719 216.839844 Z M 282.578125 217.824219 " fill-opacity="1" fill-rule="nonzero"/><path fill="#f29727" d="M 281.527344 236.6875 L 277.269531 236.6875 L 277.320312 235.714844 L 281.585938 235.714844 Z M 281.527344 236.6875 " fill-opacity="1" fill-rule="nonzero"/><path fill="#f29727" d="M 294.363281 227.148438 L 293.84375 236.527344 C 293.84375 236.605469 293.777344 236.664062 293.699219 236.664062 L 293.203125 236.664062 C 293.261719 236.664062 293.3125 236.613281 293.3125 236.554688 L 293.835938 227.207031 C 293.894531 226.097656 293.042969 225.199219 291.9375 225.199219 C 290.828125 225.199219 289.878906 226.097656 289.8125 227.207031 L 289.289062 236.554688 C 289.289062 236.613281 289.332031 236.664062 289.390625 236.664062 L 288.894531 236.664062 C 288.820312 236.664062 288.769531 236.605469 288.769531 236.527344 L 289.289062 227.148438 C 289.367188 225.753906 290.566406 224.617188 291.960938 224.617188 C 293.355469 224.617188 294.4375 225.753906 294.363281 227.148438 Z M 294.363281 227.148438 " fill-opacity="1" fill-rule="nonzero"/><path fill="#f29727" d="M 292.324219 218.285156 C 290.929688 218.285156 289.726562 219.417969 289.652344 220.8125 L 289.566406 222.34375 C 289.566406 222.417969 289.617188 222.476562 289.695312 222.476562 L 294.488281 222.476562 C 294.566406 222.476562 294.625 222.417969 294.632812 222.34375 L 294.714844 220.8125 C 294.792969 219.417969 293.71875 218.285156 292.324219 218.285156 Z M 292.324219 218.285156 " fill-opacity="1" fill-rule="nonzero"/><path fill="#f29727" d="M 297.042969 223.84375 L 287.382812 223.84375 L 287.398438 223.460938 L 297.066406 223.460938 Z M 297.042969 223.84375 " fill-opacity="1" fill-rule="nonzero"/><path fill="#f29727" d="M 306.988281 217.292969 L 277.386719 217.292969 C 277.152344 217.292969 276.976562 217.109375 276.992188 216.875 L 276.992188 216.847656 C 277.011719 216.613281 277.203125 216.429688 277.4375 216.429688 L 307.039062 216.429688 C 307.273438 216.429688 307.449219 216.613281 307.433594 216.847656 L 307.433594 216.875 C 307.417969 217.109375 307.222656 217.292969 306.988281 217.292969 Z M 306.988281 217.292969 " fill-opacity="1" fill-rule="nonzero"/><path fill="#f29727" d="M 292.28125 214.839844 C 291.777344 214.789062 291.414062 214.503906 291.433594 214.011719 L 292.113281 214.019531 C 292.121094 214.179688 292.1875 214.277344 292.3125 214.320312 L 292.355469 213.707031 C 291.960938 213.597656 291.464844 213.472656 291.507812 212.859375 C 291.542969 212.371094 291.953125 212.085938 292.464844 212.0625 L 292.480469 211.742188 L 292.726562 211.742188 L 292.707031 212.0625 C 293.222656 212.113281 293.53125 212.386719 293.53125 212.875 L 292.84375 212.867188 C 292.835938 212.722656 292.777344 212.632812 292.667969 212.589844 L 292.625 213.195312 C 293.019531 213.3125 293.523438 213.429688 293.488281 214.035156 C 293.464844 214.453125 293.113281 214.824219 292.515625 214.839844 L 292.5 215.160156 L 292.253906 215.160156 Z M 292.390625 213.109375 L 292.421875 212.574219 C 292.28125 212.597656 292.1875 212.683594 292.179688 212.832031 C 292.179688 212.96875 292.265625 213.050781 292.390625 213.109375 Z M 292.589844 213.78125 L 292.558594 214.335938 C 292.707031 214.3125 292.808594 214.210938 292.816406 214.058594 C 292.828125 213.917969 292.734375 213.839844 292.589844 213.78125 Z M 292.589844 213.78125 " fill-opacity="1" fill-rule="nonzero"/><path fill="#45424b" d="M 165.960938 47.078125 C 165.960938 47.078125 156.441406 54.828125 138.390625 54.34375 L 138.390625 84.679688 C 138.390625 84.679688 150.714844 113.230469 165.976562 113.230469 C 181.238281 113.230469 193.527344 84.679688 193.527344 84.679688 L 193.527344 54.34375 C 175.476562 54.828125 165.960938 47.078125 165.960938 47.078125 Z M 165.960938 47.078125 " fill-opacity="1" fill-rule="nonzero"/><path fill="#f29727" d="M 190.980469 56.929688 L 190.980469 84.09375 C 190.117188 85.976562 187.285156 91.878906 183.230469 97.683594 C 179.019531 103.699219 172.613281 110.863281 165.96875 110.863281 L 165.949219 110.863281 C 159.316406 110.855469 152.898438 103.691406 148.691406 97.675781 C 144.625 91.878906 141.785156 85.976562 140.929688 84.085938 L 140.929688 56.921875 C 153.78125 56.578125 162.246094 52.417969 165.949219 50.140625 C 169.664062 52.425781 178.128906 56.585938 190.980469 56.929688 Z M 190.980469 56.929688 " fill-opacity="1" fill-rule="nonzero"/><g mask="url(#cc29bbc677)"><g transform="matrix(1, 0, 0, 1, 165, 49)"><g clip-path="url(#2ebc58ef38)"><g clip-path="url(#b600d7c3a0)"><path fill="#45424b" d="M 25.980469 7.929688 L 25.980469 35.09375 C 25.117188 36.976562 22.285156 42.878906 18.230469 48.683594 C 14.019531 54.699219 7.613281 61.863281 0.96875 61.863281 L 0.949219 61.863281 L 0.949219 1.140625 C 4.664062 3.425781 13.128906 7.585938 25.980469 7.929688 Z M 25.980469 7.929688 " fill-opacity="1" fill-rule="nonzero"/></g></g></g></g><path fill="#ffffff" d="M 157.636719 87 L 153.167969 77.097656 C 152.714844 76.097656 153.160156 74.921875 154.15625 74.476562 C 155.15625 74.03125 156.332031 74.46875 156.777344 75.46875 L 159.484375 81.472656 L 178.777344 70.957031 C 179.734375 70.425781 180.945312 70.789062 181.464844 71.746094 C 181.984375 72.710938 181.632812 73.914062 180.675781 74.433594 Z M 157.636719 87 " fill-opacity="1" fill-rule="nonzero"/><g clip-path="url(#d28fd8613a)"><path fill="#45424b" d="M 15.171875 318.972656 L 346.382812 318.972656 L 346.382812 322.261719 L 15.171875 322.261719 Z M 15.171875 318.972656 " fill-opacity="1" fill-rule="nonzero"/></g><path fill="#f29727" d="M 202.949219 271.738281 L 202.949219 280.914062 C 202.949219 281.742188 202.269531 282.414062 201.429688 282.414062 L 155.460938 282.414062 C 154.628906 282.414062 153.949219 281.734375 153.949219 280.914062 L 153.949219 271.738281 C 153.949219 270.910156 154.628906 270.238281 155.460938 270.238281 L 201.429688 270.238281 C 202.269531 270.238281 202.949219 270.917969 202.949219 271.738281 Z M 202.949219 271.738281 " fill-opacity="1" fill-rule="nonzero"/><path fill="#45424b" d="M 202.949219 280.097656 L 202.949219 280.914062 C 202.949219 281.742188 202.269531 282.414062 201.429688 282.414062 L 155.460938 282.414062 C 154.628906 282.414062 153.949219 281.734375 153.949219 280.914062 L 153.949219 280.097656 Z M 202.949219 280.097656 " fill-opacity="1" fill-rule="nonzero"/><path fill="#45424b" d="M 159.179688 279.054688 C 159.003906 279.054688 158.871094 278.914062 158.871094 278.746094 L 158.871094 273.371094 C 158.871094 273.191406 159.011719 273.058594 159.179688 273.058594 C 159.347656 273.058594 159.492188 273.203125 159.492188 273.371094 L 159.492188 278.746094 C 159.5 278.914062 159.355469 279.054688 159.179688 279.054688 Z M 159.179688 279.054688 " fill-opacity="1" fill-rule="nonzero"/><path fill="#45424b" d="M 165.605469 279.054688 C 165.429688 279.054688 165.296875 278.914062 165.296875 278.746094 L 165.296875 273.371094 C 165.296875 273.191406 165.4375 273.058594 165.605469 273.058594 C 165.773438 273.058594 165.917969 273.203125 165.917969 273.371094 L 165.917969 278.746094 C 165.917969 278.914062 165.78125 279.054688 165.605469 279.054688 Z M 165.605469 279.054688 " fill-opacity="1" fill-rule="nonzero"/><path fill="#45424b" d="M 172.03125 279.054688 C 171.855469 279.054688 171.722656 278.914062 171.722656 278.746094 L 171.722656 273.371094 C 171.722656 273.191406 171.863281 273.058594 172.03125 273.058594 C 172.199219 273.058594 172.34375 273.203125 172.34375 273.371094 L 172.34375 278.746094 C 172.34375 278.914062 172.199219 279.054688 172.03125 279.054688 Z M 172.03125 279.054688 " fill-opacity="1" fill-rule="nonzero"/><path fill="#45424b" d="M 178.449219 279.054688 C 178.273438 279.054688 178.136719 278.914062 178.136719 278.746094 L 178.136719 273.371094 C 178.136719 273.191406 178.28125 273.058594 178.449219 273.058594 C 178.617188 273.058594 178.761719 273.203125 178.761719 273.371094 L 178.761719 278.746094 C 178.769531 278.914062 178.625 279.054688 178.449219 279.054688 Z M 178.449219 279.054688 " fill-opacity="1" fill-rule="nonzero"/><path fill="#45424b" d="M 184.875 279.054688 C 184.699219 279.054688 184.5625 278.914062 184.5625 278.746094 L 184.5625 273.371094 C 184.5625 273.191406 184.707031 273.058594 184.875 273.058594 C 185.042969 273.058594 185.1875 273.203125 185.1875 273.371094 L 185.1875 278.746094 C 185.1875 278.914062 185.050781 279.054688 184.875 279.054688 Z M 184.875 279.054688 " fill-opacity="1" fill-rule="nonzero"/><path fill="#45424b" d="M 191.300781 279.054688 C 191.125 279.054688 190.988281 278.914062 190.988281 278.746094 L 190.988281 273.371094 C 190.988281 273.191406 191.132812 273.058594 191.300781 273.058594 C 191.46875 273.058594 191.613281 273.203125 191.613281 273.371094 L 191.613281 278.746094 C 191.613281 278.914062 191.46875 279.054688 191.300781 279.054688 Z M 191.300781 279.054688 " fill-opacity="1" fill-rule="nonzero"/><path fill="#45424b" d="M 197.71875 279.054688 C 197.542969 279.054688 197.40625 278.914062 197.40625 278.746094 L 197.40625 273.371094 C 197.40625 273.191406 197.550781 273.058594 197.71875 273.058594 C 197.886719 273.058594 198.027344 273.203125 198.027344 273.371094 L 198.027344 278.746094 C 198.039062 278.914062 197.894531 279.054688 197.71875 279.054688 Z M 197.71875 279.054688 " fill-opacity="1" fill-rule="nonzero"/><path fill="#f29727" d="M 197.078125 283.929688 L 197.078125 293.101562 C 197.078125 293.933594 196.398438 294.605469 195.558594 294.605469 L 149.589844 294.605469 C 148.757812 294.605469 148.078125 293.921875 148.078125 293.101562 L 148.078125 283.929688 C 148.078125 283.097656 148.757812 282.425781 149.589844 282.425781 L 195.558594 282.425781 C 196.40625 282.425781 197.078125 283.097656 197.078125 283.929688 Z M 197.078125 283.929688 " fill-opacity="1" fill-rule="nonzero"/><path fill="#45424b" d="M 197.078125 292.285156 L 197.078125 293.101562 C 197.078125 293.933594 196.398438 294.605469 195.558594 294.605469 L 149.589844 294.605469 C 148.757812 294.605469 148.078125 293.921875 148.078125 293.101562 L 148.078125 292.285156 Z M 197.078125 292.285156 " fill-opacity="1" fill-rule="nonzero"/><path fill="#45424b" d="M 153.316406 291.242188 C 153.140625 291.242188 153.007812 291.101562 153.007812 290.933594 L 153.007812 285.558594 C 153.007812 285.382812 153.148438 285.246094 153.316406 285.246094 C 153.484375 285.246094 153.628906 285.390625 153.628906 285.558594 L 153.628906 290.933594 C 153.628906 291.101562 153.484375 291.242188 153.316406 291.242188 Z M 153.316406 291.242188 " fill-opacity="1" fill-rule="nonzero"/><path fill="#45424b" d="M 159.742188 291.242188 C 159.566406 291.242188 159.433594 291.101562 159.433594 290.933594 L 159.433594 285.558594 C 159.433594 285.382812 159.574219 285.246094 159.742188 285.246094 C 159.910156 285.246094 160.054688 285.390625 160.054688 285.558594 L 160.054688 290.933594 C 160.054688 291.101562 159.910156 291.242188 159.742188 291.242188 Z M 159.742188 291.242188 " fill-opacity="1" fill-rule="nonzero"/><path fill="#45424b" d="M 166.160156 291.242188 C 165.984375 291.242188 165.851562 291.101562 165.851562 290.933594 L 165.851562 285.558594 C 165.851562 285.382812 165.992188 285.246094 166.160156 285.246094 C 166.328125 285.246094 166.472656 285.390625 166.472656 285.558594 L 166.472656 290.933594 C 166.480469 291.101562 166.335938 291.242188 166.160156 291.242188 Z M 166.160156 291.242188 " fill-opacity="1" fill-rule="nonzero"/><path fill="#45424b" d="M 172.585938 291.242188 C 172.410156 291.242188 172.277344 291.101562 172.277344 290.933594 L 172.277344 285.558594 C 172.277344 285.382812 172.417969 285.246094 172.585938 285.246094 C 172.753906 285.246094 172.898438 285.390625 172.898438 285.558594 L 172.898438 290.933594 C 172.898438 291.101562 172.761719 291.242188 172.585938 291.242188 Z M 172.585938 291.242188 " fill-opacity="1" fill-rule="nonzero"/><path fill="#45424b" d="M 179.011719 291.242188 C 178.835938 291.242188 178.703125 291.101562 178.703125 290.933594 L 178.703125 285.558594 C 178.703125 285.382812 178.84375 285.246094 179.011719 285.246094 C 179.179688 285.246094 179.324219 285.390625 179.324219 285.558594 L 179.324219 290.933594 C 179.324219 291.101562 179.179688 291.242188 179.011719 291.242188 Z M 179.011719 291.242188 " fill-opacity="1" fill-rule="nonzero"/><path fill="#45424b" d="M 185.429688 291.242188 C 185.253906 291.242188 185.117188 291.101562 185.117188 290.933594 L 185.117188 285.558594 C 185.117188 285.382812 185.261719 285.246094 185.429688 285.246094 C 185.597656 285.246094 185.738281 285.390625 185.738281 285.558594 L 185.738281 290.933594 C 185.75 291.101562 185.605469 291.242188 185.429688 291.242188 Z M 185.429688 291.242188 " fill-opacity="1" fill-rule="nonzero"/><path fill="#45424b" d="M 191.855469 291.242188 C 191.679688 291.242188 191.542969 291.101562 191.542969 290.933594 L 191.542969 285.558594 C 191.542969 285.382812 191.6875 285.246094 191.855469 285.246094 C 192.023438 285.246094 192.164062 285.390625 192.164062 285.558594 L 192.164062 290.933594 C 192.164062 291.101562 192.03125 291.242188 191.855469 291.242188 Z M 191.855469 291.242188 " fill-opacity="1" fill-rule="nonzero"/><path fill="#f29727" d="M 201.179688 296.117188 L 201.179688 305.289062 C 201.179688 306.121094 200.5 306.792969 199.660156 306.792969 L 153.6875 306.792969 C 152.855469 306.792969 152.175781 306.109375 152.175781 305.289062 L 152.175781 296.117188 C 152.175781 295.285156 152.855469 294.613281 153.6875 294.613281 L 199.660156 294.613281 C 200.5 294.605469 201.179688 295.285156 201.179688 296.117188 Z M 201.179688 296.117188 " fill-opacity="1" fill-rule="nonzero"/><path fill="#45424b" d="M 201.179688 304.472656 L 201.179688 305.289062 C 201.179688 306.121094 200.5 306.792969 199.660156 306.792969 L 153.6875 306.792969 C 152.855469 306.792969 152.175781 306.109375 152.175781 305.289062 L 152.175781 304.472656 Z M 201.179688 304.472656 " fill-opacity="1" fill-rule="nonzero"/><path fill="#45424b" d="M 157.410156 303.421875 C 157.230469 303.421875 157.097656 303.28125 157.097656 303.113281 L 157.097656 297.738281 C 157.097656 297.558594 157.242188 297.425781 157.410156 297.425781 C 157.578125 297.425781 157.71875 297.570312 157.71875 297.738281 L 157.71875 303.113281 C 157.726562 303.289062 157.585938 303.421875 157.410156 303.421875 Z M 157.410156 303.421875 " fill-opacity="1" fill-rule="nonzero"/><path fill="#45424b" d="M 163.835938 303.421875 C 163.65625 303.421875 163.523438 303.28125 163.523438 303.113281 L 163.523438 297.738281 C 163.523438 297.558594 163.667969 297.425781 163.835938 297.425781 C 164.003906 297.425781 164.144531 297.570312 164.144531 297.738281 L 164.144531 303.113281 C 164.152344 303.289062 164.011719 303.421875 163.835938 303.421875 Z M 163.835938 303.421875 " fill-opacity="1" fill-rule="nonzero"/><path fill="#45424b" d="M 170.261719 303.421875 C 170.082031 303.421875 169.949219 303.28125 169.949219 303.113281 L 169.949219 297.738281 C 169.949219 297.558594 170.09375 297.425781 170.261719 297.425781 C 170.429688 297.425781 170.570312 297.570312 170.570312 297.738281 L 170.570312 303.113281 C 170.570312 303.289062 170.429688 303.421875 170.261719 303.421875 Z M 170.261719 303.421875 " fill-opacity="1" fill-rule="nonzero"/><path fill="#45424b" d="M 176.675781 303.421875 C 176.5 303.421875 176.367188 303.28125 176.367188 303.113281 L 176.367188 297.738281 C 176.367188 297.558594 176.507812 297.425781 176.675781 297.425781 C 176.84375 297.425781 176.988281 297.570312 176.988281 297.738281 L 176.988281 303.113281 C 176.996094 303.289062 176.851562 303.421875 176.675781 303.421875 Z M 176.675781 303.421875 " fill-opacity="1" fill-rule="nonzero"/><path fill="#45424b" d="M 183.101562 303.421875 C 182.925781 303.421875 182.792969 303.28125 182.792969 303.113281 L 182.792969 297.738281 C 182.792969 297.558594 182.933594 297.425781 183.101562 297.425781 C 183.269531 297.425781 183.414062 297.570312 183.414062 297.738281 L 183.414062 303.113281 C 183.421875 303.289062 183.277344 303.421875 183.101562 303.421875 Z M 183.101562 303.421875 " fill-opacity="1" fill-rule="nonzero"/><path fill="#45424b" d="M 189.527344 303.421875 C 189.351562 303.421875 189.21875 303.28125 189.21875 303.113281 L 189.21875 297.738281 C 189.21875 297.558594 189.359375 297.425781 189.527344 297.425781 C 189.695312 297.425781 189.839844 297.570312 189.839844 297.738281 L 189.839844 303.113281 C 189.839844 303.289062 189.695312 303.421875 189.527344 303.421875 Z M 189.527344 303.421875 " fill-opacity="1" fill-rule="nonzero"/><path fill="#45424b" d="M 195.953125 303.421875 C 195.777344 303.421875 195.644531 303.28125 195.644531 303.113281 L 195.644531 297.738281 C 195.644531 297.558594 195.785156 297.425781 195.953125 297.425781 C 196.121094 297.425781 196.265625 297.570312 196.265625 297.738281 L 196.265625 303.113281 C 196.265625 303.289062 196.121094 303.421875 195.953125 303.421875 Z M 195.953125 303.421875 " fill-opacity="1" fill-rule="nonzero"/><path fill="#f29727" d="M 202.949219 308.304688 L 202.949219 317.476562 C 202.949219 318.308594 202.269531 318.980469 201.429688 318.980469 L 155.460938 318.980469 C 154.628906 318.980469 153.949219 318.300781 153.949219 317.476562 L 153.949219 308.304688 C 153.949219 307.472656 154.628906 306.800781 155.460938 306.800781 L 201.429688 306.800781 C 202.269531 306.792969 202.949219 307.472656 202.949219 308.304688 Z M 202.949219 308.304688 " fill-opacity="1" fill-rule="nonzero"/><path fill="#45424b" d="M 202.949219 316.652344 L 202.949219 317.46875 C 202.949219 318.300781 202.269531 318.972656 201.429688 318.972656 L 155.460938 318.972656 C 154.628906 318.972656 153.949219 318.289062 153.949219 317.46875 L 153.949219 316.652344 Z M 202.949219 316.652344 " fill-opacity="1" fill-rule="nonzero"/><path fill="#45424b" d="M 159.179688 315.609375 C 159.003906 315.609375 158.871094 315.46875 158.871094 315.300781 L 158.871094 309.925781 C 158.871094 309.75 159.011719 309.613281 159.179688 309.613281 C 159.347656 309.613281 159.492188 309.757812 159.492188 309.925781 L 159.492188 315.300781 C 159.5 315.46875 159.355469 315.609375 159.179688 315.609375 Z M 159.179688 315.609375 " fill-opacity="1" fill-rule="nonzero"/><path fill="#45424b" d="M 165.605469 315.609375 C 165.429688 315.609375 165.296875 315.46875 165.296875 315.300781 L 165.296875 309.925781 C 165.296875 309.75 165.4375 309.613281 165.605469 309.613281 C 165.773438 309.613281 165.917969 309.757812 165.917969 309.925781 L 165.917969 315.300781 C 165.917969 315.46875 165.78125 315.609375 165.605469 315.609375 Z M 165.605469 315.609375 " fill-opacity="1" fill-rule="nonzero"/><path fill="#45424b" d="M 172.03125 315.609375 C 171.855469 315.609375 171.722656 315.46875 171.722656 315.300781 L 171.722656 309.925781 C 171.722656 309.75 171.863281 309.613281 172.03125 309.613281 C 172.199219 309.613281 172.34375 309.757812 172.34375 309.925781 L 172.34375 315.300781 C 172.34375 315.46875 172.199219 315.609375 172.03125 315.609375 Z M 172.03125 315.609375 " fill-opacity="1" fill-rule="nonzero"/><path fill="#45424b" d="M 178.449219 315.609375 C 178.273438 315.609375 178.136719 315.46875 178.136719 315.300781 L 178.136719 309.925781 C 178.136719 309.75 178.28125 309.613281 178.449219 309.613281 C 178.617188 309.613281 178.761719 309.757812 178.761719 309.925781 L 178.761719 315.300781 C 178.769531 315.46875 178.625 315.609375 178.449219 315.609375 Z M 178.449219 315.609375 " fill-opacity="1" fill-rule="nonzero"/><path fill="#45424b" d="M 184.875 315.609375 C 184.699219 315.609375 184.5625 315.46875 184.5625 315.300781 L 184.5625 309.925781 C 184.5625 309.75 184.707031 309.613281 184.875 309.613281 C 185.042969 309.613281 185.1875 309.757812 185.1875 309.925781 L 185.1875 315.300781 C 185.1875 315.46875 185.050781 315.609375 184.875 315.609375 Z M 184.875 315.609375 " fill-opacity="1" fill-rule="nonzero"/><path fill="#45424b" d="M 191.300781 315.609375 C 191.125 315.609375 190.988281 315.46875 190.988281 315.300781 L 190.988281 309.925781 C 190.988281 309.75 191.132812 309.613281 191.300781 309.613281 C 191.46875 309.613281 191.613281 309.757812 191.613281 309.925781 L 191.613281 315.300781 C 191.613281 315.46875 191.46875 315.609375 191.300781 315.609375 Z M 191.300781 315.609375 " fill-opacity="1" fill-rule="nonzero"/><path fill="#45424b" d="M 197.71875 315.609375 C 197.542969 315.609375 197.40625 315.46875 197.40625 315.300781 L 197.40625 309.925781 C 197.40625 309.75 197.550781 309.613281 197.71875 309.613281 C 197.886719 309.613281 198.027344 309.757812 198.027344 309.925781 L 198.027344 315.300781 C 198.039062 315.46875 197.894531 315.609375 197.71875 315.609375 Z M 197.71875 315.609375 " fill-opacity="1" fill-rule="nonzero"/><path fill="#f29727" d="M 210.503906 283.929688 L 210.503906 293.101562 C 210.503906 293.933594 211.183594 294.605469 212.023438 294.605469 L 257.992188 294.605469 C 258.824219 294.605469 259.503906 293.921875 259.503906 293.101562 L 259.503906 283.929688 C 259.503906 283.097656 258.824219 282.425781 257.992188 282.425781 L 212.023438 282.425781 C 211.175781 282.425781 210.503906 283.097656 210.503906 283.929688 Z M 210.503906 283.929688 " fill-opacity="1" fill-rule="nonzero"/><path fill="#45424b" d="M 210.503906 292.285156 L 210.503906 293.101562 C 210.503906 293.933594 211.183594 294.605469 212.023438 294.605469 L 257.992188 294.605469 C 258.824219 294.605469 259.503906 293.921875 259.503906 293.101562 L 259.503906 292.285156 Z M 210.503906 292.285156 " fill-opacity="1" fill-rule="nonzero"/><path fill="#45424b" d="M 254.265625 291.242188 C 254.085938 291.242188 253.953125 291.101562 253.953125 290.933594 L 253.953125 285.558594 C 253.953125 285.382812 254.097656 285.246094 254.265625 285.246094 C 254.433594 285.246094 254.574219 285.390625 254.574219 285.558594 L 254.574219 290.933594 C 254.582031 291.101562 254.441406 291.242188 254.265625 291.242188 Z M 254.265625 291.242188 " fill-opacity="1" fill-rule="nonzero"/><path fill="#45424b" d="M 247.847656 291.242188 C 247.671875 291.242188 247.535156 291.101562 247.535156 290.933594 L 247.535156 285.558594 C 247.535156 285.382812 247.679688 285.246094 247.847656 285.246094 C 248.015625 285.246094 248.15625 285.390625 248.15625 285.558594 L 248.15625 290.933594 C 248.15625 291.101562 248.015625 291.242188 247.847656 291.242188 Z M 247.847656 291.242188 " fill-opacity="1" fill-rule="nonzero"/><path fill="#45424b" d="M 241.421875 291.242188 C 241.246094 291.242188 241.109375 291.101562 241.109375 290.933594 L 241.109375 285.558594 C 241.109375 285.382812 241.253906 285.246094 241.421875 285.246094 C 241.589844 285.246094 241.730469 285.390625 241.730469 285.558594 L 241.730469 290.933594 C 241.730469 291.101562 241.589844 291.242188 241.421875 291.242188 Z M 241.421875 291.242188 " fill-opacity="1" fill-rule="nonzero"/><path fill="#45424b" d="M 234.996094 291.242188 C 234.820312 291.242188 234.683594 291.101562 234.683594 290.933594 L 234.683594 285.558594 C 234.683594 285.382812 234.828125 285.246094 234.996094 285.246094 C 235.164062 285.246094 235.304688 285.390625 235.304688 285.558594 L 235.304688 290.933594 C 235.304688 291.101562 235.171875 291.242188 234.996094 291.242188 Z M 234.996094 291.242188 " fill-opacity="1" fill-rule="nonzero"/><path fill="#45424b" d="M 228.570312 291.242188 C 228.394531 291.242188 228.257812 291.101562 228.257812 290.933594 L 228.257812 285.558594 C 228.257812 285.382812 228.402344 285.246094 228.570312 285.246094 C 228.738281 285.246094 228.878906 285.390625 228.878906 285.558594 L 228.878906 290.933594 C 228.890625 291.101562 228.746094 291.242188 228.570312 291.242188 Z M 228.570312 291.242188 " fill-opacity="1" fill-rule="nonzero"/><path fill="#45424b" d="M 222.152344 291.242188 C 221.976562 291.242188 221.839844 291.101562 221.839844 290.933594 L 221.839844 285.558594 C 221.839844 285.382812 221.984375 285.246094 222.152344 285.246094 C 222.320312 285.246094 222.464844 285.390625 222.464844 285.558594 L 222.464844 290.933594 C 222.464844 291.101562 222.320312 291.242188 222.152344 291.242188 Z M 222.152344 291.242188 " fill-opacity="1" fill-rule="nonzero"/><path fill="#45424b" d="M 215.726562 291.242188 C 215.550781 291.242188 215.414062 291.101562 215.414062 290.933594 L 215.414062 285.558594 C 215.414062 285.382812 215.558594 285.246094 215.726562 285.246094 C 215.894531 285.246094 216.039062 285.390625 216.039062 285.558594 L 216.039062 290.933594 C 216.039062 291.101562 215.902344 291.242188 215.726562 291.242188 Z M 215.726562 291.242188 " fill-opacity="1" fill-rule="nonzero"/><path fill="#f29727" d="M 203.078125 296.117188 L 203.078125 305.289062 C 203.078125 306.121094 203.757812 306.792969 204.597656 306.792969 L 250.566406 306.792969 C 251.398438 306.792969 252.078125 306.109375 252.078125 305.289062 L 252.078125 296.117188 C 252.078125 295.285156 251.398438 294.613281 250.566406 294.613281 L 204.597656 294.613281 C 203.757812 294.605469 203.078125 295.285156 203.078125 296.117188 Z M 203.078125 296.117188 " fill-opacity="1" fill-rule="nonzero"/><path fill="#45424b" d="M 203.078125 304.472656 L 203.078125 305.289062 C 203.078125 306.121094 203.757812 306.792969 204.597656 306.792969 L 250.566406 306.792969 C 251.398438 306.792969 252.078125 306.109375 252.078125 305.289062 L 252.078125 304.472656 Z M 203.078125 304.472656 " fill-opacity="1" fill-rule="nonzero"/><path fill="#45424b" d="M 246.847656 303.421875 C 246.671875 303.421875 246.535156 303.28125 246.535156 303.113281 L 246.535156 297.738281 C 246.535156 297.558594 246.679688 297.425781 246.847656 297.425781 C 247.015625 297.425781 247.15625 297.570312 247.15625 297.738281 L 247.15625 303.113281 C 247.15625 303.289062 247.023438 303.421875 246.847656 303.421875 Z M 246.847656 303.421875 " fill-opacity="1" fill-rule="nonzero"/><path fill="#45424b" d="M 240.421875 303.421875 C 240.246094 303.421875 240.109375 303.28125 240.109375 303.113281 L 240.109375 297.738281 C 240.109375 297.558594 240.253906 297.425781 240.421875 297.425781 C 240.589844 297.425781 240.730469 297.570312 240.730469 297.738281 L 240.730469 303.113281 C 240.742188 303.289062 240.597656 303.421875 240.421875 303.421875 Z M 240.421875 303.421875 " fill-opacity="1" fill-rule="nonzero"/><path fill="#45424b" d="M 234.003906 303.421875 C 233.828125 303.421875 233.695312 303.28125 233.695312 303.113281 L 233.695312 297.738281 C 233.695312 297.558594 233.835938 297.425781 234.003906 297.425781 C 234.171875 297.425781 234.316406 297.570312 234.316406 297.738281 L 234.316406 303.113281 C 234.316406 303.289062 234.171875 303.421875 234.003906 303.421875 Z M 234.003906 303.421875 " fill-opacity="1" fill-rule="nonzero"/><path fill="#45424b" d="M 227.578125 303.421875 C 227.402344 303.421875 227.269531 303.28125 227.269531 303.113281 L 227.269531 297.738281 C 227.269531 297.558594 227.410156 297.425781 227.578125 297.425781 C 227.746094 297.425781 227.890625 297.570312 227.890625 297.738281 L 227.890625 303.113281 C 227.890625 303.289062 227.746094 303.421875 227.578125 303.421875 Z M 227.578125 303.421875 " fill-opacity="1" fill-rule="nonzero"/><path fill="#45424b" d="M 221.152344 303.421875 C 220.976562 303.421875 220.84375 303.28125 220.84375 303.113281 L 220.84375 297.738281 C 220.84375 297.558594 220.984375 297.425781 221.152344 297.425781 C 221.320312 297.425781 221.464844 297.570312 221.464844 297.738281 L 221.464844 303.113281 C 221.472656 303.289062 221.328125 303.421875 221.152344 303.421875 Z M 221.152344 303.421875 " fill-opacity="1" fill-rule="nonzero"/><path fill="#45424b" d="M 214.726562 303.421875 C 214.550781 303.421875 214.417969 303.28125 214.417969 303.113281 L 214.417969 297.738281 C 214.417969 297.558594 214.558594 297.425781 214.726562 297.425781 C 214.894531 297.425781 215.039062 297.570312 215.039062 297.738281 L 215.039062 303.113281 C 215.046875 303.289062 214.902344 303.421875 214.726562 303.421875 Z M 214.726562 303.421875 " fill-opacity="1" fill-rule="nonzero"/><path fill="#45424b" d="M 208.308594 303.421875 C 208.132812 303.421875 208 303.28125 208 303.113281 L 208 297.738281 C 208 297.558594 208.140625 297.425781 208.308594 297.425781 C 208.476562 297.425781 208.621094 297.570312 208.621094 297.738281 L 208.621094 303.113281 C 208.621094 303.289062 208.476562 303.421875 208.308594 303.421875 Z M 208.308594 303.421875 " fill-opacity="1" fill-rule="nonzero"/><path fill="#f29727" d="M 204.632812 308.304688 L 204.632812 317.476562 C 204.632812 318.308594 205.3125 318.980469 206.152344 318.980469 L 252.121094 318.980469 C 252.953125 318.980469 253.632812 318.300781 253.632812 317.476562 L 253.632812 308.304688 C 253.632812 307.472656 252.953125 306.800781 252.121094 306.800781 L 206.152344 306.800781 C 205.3125 306.792969 204.632812 307.472656 204.632812 308.304688 Z M 204.632812 308.304688 " fill-opacity="1" fill-rule="nonzero"/><path fill="#45424b" d="M 204.632812 316.652344 L 204.632812 317.46875 C 204.632812 318.300781 205.3125 318.972656 206.152344 318.972656 L 252.121094 318.972656 C 252.953125 318.972656 253.632812 318.289062 253.632812 317.46875 L 253.632812 316.652344 Z M 204.632812 316.652344 " fill-opacity="1" fill-rule="nonzero"/><path fill="#45424b" d="M 248.402344 315.609375 C 248.226562 315.609375 248.089844 315.46875 248.089844 315.300781 L 248.089844 309.925781 C 248.089844 309.75 248.234375 309.613281 248.402344 309.613281 C 248.570312 309.613281 248.710938 309.757812 248.710938 309.925781 L 248.710938 315.300781 C 248.710938 315.46875 248.570312 315.609375 248.402344 315.609375 Z M 248.402344 315.609375 " fill-opacity="1" fill-rule="nonzero"/><path fill="#45424b" d="M 241.976562 315.609375 C 241.800781 315.609375 241.664062 315.46875 241.664062 315.300781 L 241.664062 309.925781 C 241.664062 309.75 241.808594 309.613281 241.976562 309.613281 C 242.144531 309.613281 242.285156 309.757812 242.285156 309.925781 L 242.285156 315.300781 C 242.285156 315.46875 242.152344 315.609375 241.976562 315.609375 Z M 241.976562 315.609375 " fill-opacity="1" fill-rule="nonzero"/><path fill="#45424b" d="M 235.550781 315.609375 C 235.375 315.609375 235.238281 315.46875 235.238281 315.300781 L 235.238281 309.925781 C 235.238281 309.75 235.382812 309.613281 235.550781 309.613281 C 235.71875 309.613281 235.859375 309.757812 235.859375 309.925781 L 235.859375 315.300781 C 235.867188 315.46875 235.726562 315.609375 235.550781 315.609375 Z M 235.550781 315.609375 " fill-opacity="1" fill-rule="nonzero"/><path fill="#45424b" d="M 229.132812 315.609375 C 228.957031 315.609375 228.820312 315.46875 228.820312 315.300781 L 228.820312 309.925781 C 228.820312 309.75 228.964844 309.613281 229.132812 309.613281 C 229.300781 309.613281 229.441406 309.757812 229.441406 309.925781 L 229.441406 315.300781 C 229.441406 315.46875 229.300781 315.609375 229.132812 315.609375 Z M 229.132812 315.609375 " fill-opacity="1" fill-rule="nonzero"/><path fill="#45424b" d="M 222.707031 315.609375 C 222.53125 315.609375 222.394531 315.46875 222.394531 315.300781 L 222.394531 309.925781 C 222.394531 309.75 222.539062 309.613281 222.707031 309.613281 C 222.875 309.613281 223.015625 309.757812 223.015625 309.925781 L 223.015625 315.300781 C 223.015625 315.46875 222.875 315.609375 222.707031 315.609375 Z M 222.707031 315.609375 " fill-opacity="1" fill-rule="nonzero"/><path fill="#45424b" d="M 216.28125 315.609375 C 216.105469 315.609375 215.96875 315.46875 215.96875 315.300781 L 215.96875 309.925781 C 215.96875 309.75 216.113281 309.613281 216.28125 309.613281 C 216.449219 309.613281 216.59375 309.757812 216.59375 309.925781 L 216.59375 315.300781 C 216.601562 315.46875 216.457031 315.609375 216.28125 315.609375 Z M 216.28125 315.609375 " fill-opacity="1" fill-rule="nonzero"/><path fill="#45424b" d="M 209.855469 315.609375 C 209.679688 315.609375 209.542969 315.46875 209.542969 315.300781 L 209.542969 309.925781 C 209.542969 309.75 209.6875 309.613281 209.855469 309.613281 C 210.023438 309.613281 210.167969 309.757812 210.167969 309.925781 L 210.167969 315.300781 C 210.175781 315.46875 210.03125 315.609375 209.855469 315.609375 Z M 209.855469 315.609375 " fill-opacity="1" fill-rule="nonzero"/><path fill="#f29727" d="M 329.089844 128.460938 L 331.113281 130.484375 L 321.90625 139.691406 L 319.882812 137.664062 Z M 329.089844 128.460938 " fill-opacity="1" fill-rule="nonzero"/><path fill="#f29727" d="M 331.121094 137.671875 L 329.097656 139.695312 L 319.890625 130.492188 L 321.914062 128.464844 Z M 331.121094 137.671875 " fill-opacity="1" fill-rule="nonzero"/><path fill="#f2d6bd" d="M 337.257812 88.503906 L 338.640625 89.886719 L 332.332031 96.195312 L 330.949219 94.808594 Z M 337.257812 88.503906 " fill-opacity="1" fill-rule="nonzero"/><path fill="#f2d6bd" d="M 338.644531 94.816406 L 337.261719 96.199219 L 330.953125 89.894531 L 332.339844 88.507812 Z M 338.644531 94.816406 " fill-opacity="1" fill-rule="nonzero"/><g clip-path="url(#63685252fa)"><g clip-path="url(#a1d779931e)"><path fill="#192e3a" d="M 267.890625 199.417969 L 316.171875 199.417969 L 316.171875 247.703125 L 267.890625 247.703125 Z M 267.890625 199.417969 " fill-opacity="1" fill-rule="nonzero"/></g></g><g clip-path="url(#869d8d329e)"><path fill="#f29727" d="M 299.773438 211.925781 L 299.773438 233.800781 C 299.761719 233.808594 299.753906 233.8125 299.742188 233.820312 C 298.527344 234.5625 297.277344 235.238281 296 235.851562 L 296 215.003906 L 289.507812 210.679688 L 289.507812 238.378906 C 288.363281 238.726562 287.207031 239.019531 286.039062 239.261719 L 286.039062 223.226562 L 279.554688 218.898438 L 279.554688 240.128906 L 279.367188 240.140625 C 279.152344 240.152344 278.9375 240.15625 278.71875 240.160156 L 277.429688 240.1875 C 276.566406 240.1875 275.707031 240.164062 274.847656 240.125 C 273.136719 240.027344 271.433594 239.828125 269.753906 239.515625 C 268.917969 239.355469 268.085938 239.175781 267.265625 238.96875 C 266.441406 238.75 265.628906 238.53125 264.824219 238.253906 C 263.617188 237.859375 262.433594 237.398438 261.289062 236.867188 C 261.046875 236.753906 261.144531 236.390625 261.410156 236.410156 C 262.65625 236.496094 263.890625 236.574219 265.117188 236.609375 C 266.75 236.652344 268.367188 236.652344 269.972656 236.574219 C 271.679688 236.496094 273.371094 236.355469 275.046875 236.140625 C 275.234375 236.117188 275.320312 235.898438 275.203125 235.753906 C 272.921875 232.832031 271.371094 229.308594 270.835938 225.441406 C 268.996094 212.203125 279.671875 200.335938 293.03125 200.765625 C 301.585938 201.039062 308.949219 206.304688 312.203125 213.804688 C 312.277344 213.980469 312.507812 214.007812 312.617188 213.855469 C 313.808594 212.210938 314.925781 210.496094 315.960938 208.707031 L 316.550781 207.65625 L 316.84375 207.128906 L 317.125 206.589844 L 317.191406 206.460938 L 313.390625 205.425781 L 320.609375 198.269531 L 323.199219 208.097656 L 319.390625 207.058594 L 319.3125 207.40625 L 319.171875 208.027344 L 319 208.640625 L 318.652344 209.871094 C 317.65625 213.132812 316.203125 216.273438 314.417969 219.234375 C 312.617188 222.1875 310.429688 224.917969 307.96875 227.382812 C 307.417969 227.933594 306.847656 228.46875 306.265625 228.984375 L 306.265625 216.253906 L 299.773438 211.925781 " fill-opacity="1" fill-rule="nonzero"/></g></svg>