<svg xmlns="http://www.w3.org/2000/svg" xmlns:xlink="http://www.w3.org/1999/xlink" width="500" zoomAndPan="magnify" viewBox="0 0 375 374.999991" height="500" preserveAspectRatio="xMidYMid meet" version="1.0"><defs><clipPath id="1efdebf3a9"><path d="M 99 99 L 337.410156 99 L 337.410156 279 L 99 279 Z M 99 99 " clip-rule="nonzero"/></clipPath><clipPath id="951f11a505"><path d="M 42 246 L 80 246 L 80 306.90625 L 42 306.90625 Z M 42 246 " clip-rule="nonzero"/></clipPath><clipPath id="38c6db32dc"><path d="M 150.871094 163 L 272.410156 163 L 272.410156 246.582031 L 150.871094 246.582031 Z M 150.871094 163 " clip-rule="nonzero"/></clipPath><clipPath id="e52459d806"><path d="M 194 105.214844 L 229 105.214844 L 229 135 L 194 135 Z M 194 105.214844 " clip-rule="nonzero"/></clipPath><clipPath id="fb2ff05aea"><path d="M 150.871094 231 L 156 231 L 156 237 L 150.871094 237 Z M 150.871094 231 " clip-rule="nonzero"/></clipPath></defs><path fill="#f29727" d="M 318.175781 170.996094 C 318.175781 173.429688 318.105469 175.859375 317.960938 178.289062 C 317.820312 180.71875 317.605469 183.140625 317.324219 185.558594 C 317.042969 187.972656 316.6875 190.378906 316.265625 192.773438 C 315.84375 195.171875 315.351562 197.550781 314.789062 199.917969 C 314.226562 202.285156 313.597656 204.636719 312.898438 206.964844 C 312.199219 209.296875 311.433594 211.605469 310.601562 213.890625 C 309.769531 216.175781 308.871094 218.433594 307.90625 220.667969 C 306.941406 222.902344 305.914062 225.105469 304.820312 227.28125 C 303.730469 229.453125 302.574219 231.59375 301.355469 233.699219 C 300.140625 235.808594 298.863281 237.875 297.523438 239.90625 C 296.1875 241.941406 294.792969 243.933594 293.339844 245.882812 C 291.886719 247.832031 290.375 249.742188 288.8125 251.605469 C 287.246094 253.464844 285.628906 255.28125 283.960938 257.050781 C 282.289062 258.820312 280.570312 260.539062 278.800781 262.207031 C 277.027344 263.878906 275.210938 265.492188 273.347656 267.054688 C 271.484375 268.617188 269.574219 270.125 267.625 271.578125 C 265.671875 273.03125 263.679688 274.425781 261.644531 275.761719 C 259.613281 277.097656 257.542969 278.371094 255.433594 279.585938 C 253.328125 280.804688 251.1875 281.957031 249.011719 283.046875 C 246.835938 284.136719 244.632812 285.164062 242.398438 286.125 C 240.164062 287.089844 237.902344 287.984375 235.617188 288.816406 C 233.332031 289.648438 231.023438 290.410156 228.691406 291.109375 C 226.359375 291.804688 224.011719 292.433594 221.644531 292.992188 C 219.277344 293.550781 216.894531 294.042969 214.496094 294.464844 C 212.101562 294.886719 209.695312 295.238281 207.277344 295.519531 C 204.863281 295.800781 202.441406 296.007812 200.011719 296.148438 C 197.582031 296.289062 195.152344 296.359375 192.71875 296.359375 C 190.285156 296.355469 187.855469 296.285156 185.425781 296.140625 C 182.996094 296 180.574219 295.785156 178.160156 295.5 C 175.742188 295.21875 173.335938 294.863281 170.941406 294.4375 C 168.546875 294.015625 166.164062 293.523438 163.796875 292.960938 C 161.429688 292.398438 159.082031 291.765625 156.753906 291.066406 C 154.421875 290.367188 152.113281 289.601562 149.828125 288.765625 C 147.542969 287.933594 145.285156 287.035156 143.050781 286.070312 C 140.816406 285.105469 138.613281 284.074219 136.441406 282.980469 C 134.269531 281.886719 132.128906 280.734375 130.023438 279.515625 C 127.917969 278.296875 125.847656 277.019531 123.816406 275.679688 C 121.785156 274.34375 119.792969 272.945312 117.84375 271.492188 C 115.890625 270.039062 113.984375 268.527344 112.125 266.960938 C 110.261719 265.398438 108.445312 263.78125 106.675781 262.109375 C 104.910156 260.4375 103.191406 258.71875 101.523438 256.945312 C 99.855469 255.175781 98.238281 253.355469 96.675781 251.492188 C 95.113281 249.628906 93.609375 247.71875 92.15625 245.765625 C 90.707031 243.8125 89.3125 241.820312 87.976562 239.785156 C 86.640625 237.753906 85.367188 235.683594 84.152344 233.574219 C 82.9375 231.464844 81.785156 229.324219 80.695312 227.148438 C 79.605469 224.976562 78.582031 222.769531 77.617188 220.535156 C 76.65625 218.300781 75.761719 216.039062 74.929688 213.753906 C 74.101562 211.464844 73.339844 209.15625 72.640625 206.828125 C 71.945312 204.496094 71.320312 202.144531 70.761719 199.777344 C 70.203125 197.410156 69.710938 195.027344 69.292969 192.632812 C 68.871094 190.234375 68.523438 187.828125 68.242188 185.414062 C 67.960938 182.996094 67.75 180.574219 67.613281 178.144531 C 67.472656 175.714844 67.40625 173.285156 67.40625 170.851562 C 67.410156 168.417969 67.484375 165.988281 67.625 163.558594 C 67.769531 161.132812 67.984375 158.710938 68.269531 156.292969 C 68.554688 153.875 68.910156 151.472656 69.335938 149.074219 C 69.757812 146.679688 70.253906 144.300781 70.816406 141.933594 C 71.378906 139.566406 72.011719 137.21875 72.710938 134.886719 C 73.414062 132.558594 74.179688 130.25 75.015625 127.964844 C 75.847656 125.679688 76.75 123.421875 77.714844 121.1875 C 78.679688 118.957031 79.710938 116.753906 80.804688 114.578125 C 81.898438 112.40625 83.054688 110.269531 84.273438 108.160156 C 85.492188 106.054688 86.773438 103.988281 88.113281 101.957031 C 89.449219 99.925781 90.847656 97.9375 92.300781 95.984375 C 93.757812 94.035156 95.269531 92.128906 96.832031 90.269531 C 98.398438 88.40625 100.019531 86.59375 101.691406 84.824219 C 103.363281 83.054688 105.082031 81.339844 106.855469 79.671875 C 108.625 78.003906 110.445312 76.390625 112.308594 74.828125 C 114.175781 73.265625 116.085938 71.761719 118.039062 70.308594 C 119.992188 68.859375 121.984375 67.46875 124.019531 66.132812 C 126.054688 64.796875 128.125 63.523438 130.234375 62.3125 C 132.339844 61.097656 134.484375 59.945312 136.660156 58.855469 C 138.835938 57.765625 141.039062 56.742188 143.273438 55.78125 C 145.507812 54.820312 147.769531 53.925781 150.058594 53.097656 C 152.34375 52.265625 154.652344 51.503906 156.984375 50.8125 C 159.316406 50.117188 161.667969 49.488281 164.035156 48.933594 C 166.402344 48.375 168.785156 47.886719 171.179688 47.464844 C 173.578125 47.046875 175.984375 46.699219 178.402344 46.417969 C 180.816406 46.140625 183.242188 45.929688 185.667969 45.792969 C 188.097656 45.652344 190.527344 45.585938 192.960938 45.589844 C 195.394531 45.59375 197.824219 45.667969 200.253906 45.8125 C 202.683594 45.957031 205.105469 46.171875 207.519531 46.457031 C 209.9375 46.742188 212.34375 47.097656 214.738281 47.523438 C 217.132812 47.949219 219.511719 48.445312 221.878906 49.011719 C 224.246094 49.574219 226.59375 50.207031 228.925781 50.910156 C 231.253906 51.609375 233.5625 52.378906 235.847656 53.214844 C 238.128906 54.050781 240.390625 54.949219 242.621094 55.917969 C 244.855469 56.882812 247.054688 57.914062 249.230469 59.007812 C 251.402344 60.105469 253.539062 61.261719 255.644531 62.480469 C 257.75 63.699219 259.816406 64.980469 261.847656 66.320312 C 263.878906 67.660156 265.867188 69.058594 267.816406 70.515625 C 269.765625 71.96875 271.671875 73.480469 273.535156 75.046875 C 275.394531 76.613281 277.210938 78.234375 278.976562 79.90625 C 280.742188 81.578125 282.460938 83.300781 284.125 85.074219 C 285.792969 86.84375 287.40625 88.664062 288.96875 90.53125 C 291.304688 93.324219 293.515625 96.214844 295.601562 99.199219 C 297.6875 102.1875 299.636719 105.257812 301.453125 108.414062 C 303.269531 111.570312 304.949219 114.800781 306.484375 118.105469 C 308.019531 121.40625 309.410156 124.769531 310.652344 128.195312 C 311.894531 131.617188 312.984375 135.089844 313.925781 138.609375 C 314.867188 142.125 315.652344 145.679688 316.28125 149.265625 C 316.914062 152.855469 317.386719 156.460938 317.703125 160.089844 C 318.019531 163.71875 318.175781 167.355469 318.175781 170.996094 Z M 318.175781 170.996094 " fill-opacity="1" fill-rule="nonzero"/><g clip-path="url(#1efdebf3a9)"><path fill="#45424b" d="M 337.425781 116.929688 L 337.425781 260.75 C 337.425781 271.5625 326.042969 279.867188 313.324219 278.335938 L 117.125 254.671875 C 106.738281 253.441406 99.015625 245.925781 99.015625 237.089844 L 99.015625 116.929688 C 99.015625 107.09375 108.464844 99.164062 120.125 99.164062 L 316.320312 99.164062 C 327.976562 99.164062 337.425781 107.117188 337.425781 116.929688 Z M 337.425781 116.929688 " fill-opacity="1" fill-rule="nonzero"/></g><path fill="#45424b" d="M 122.921875 241.210938 L 122.921875 286.792969 C 122.921875 287.417969 123.003906 288.035156 123.167969 288.636719 C 123.328125 289.242188 123.570312 289.8125 123.886719 290.355469 C 124.203125 290.894531 124.582031 291.382812 125.03125 291.824219 C 125.476562 292.261719 125.972656 292.636719 126.515625 292.941406 C 127.0625 293.25 127.640625 293.480469 128.246094 293.632812 C 128.851562 293.785156 129.46875 293.855469 130.09375 293.847656 C 130.71875 293.835938 131.332031 293.746094 131.933594 293.570312 C 132.535156 293.398438 133.105469 293.148438 133.640625 292.824219 L 192.75 256.871094 Z M 122.921875 241.210938 " fill-opacity="1" fill-rule="nonzero"/><path fill="#192e3a" d="M 130.179688 274.667969 L 61.839844 279.933594 C 60.929688 280.003906 60.070312 280.246094 59.261719 280.660156 C 58.449219 281.074219 57.746094 281.625 57.15625 282.320312 L 51.132812 289.335938 C 50.945312 289.554688 50.746094 289.757812 50.535156 289.953125 C 50.324219 290.144531 50.105469 290.320312 49.871094 290.488281 C 49.636719 290.652344 49.394531 290.800781 49.140625 290.933594 C 48.890625 291.070312 48.632812 291.1875 48.363281 291.289062 C 48.097656 291.390625 47.824219 291.476562 47.546875 291.546875 C 47.269531 291.613281 46.992188 291.664062 46.707031 291.699219 C 46.421875 291.730469 46.140625 291.746094 45.851562 291.746094 C 45.566406 291.742188 45.285156 291.722656 45 291.683594 C 44.71875 291.648438 44.4375 291.59375 44.160156 291.519531 C 43.886719 291.449219 43.613281 291.359375 43.351562 291.253906 C 43.085938 291.144531 42.828125 291.023438 42.578125 290.886719 C 42.328125 290.746094 42.085938 290.59375 41.855469 290.425781 C 41.625 290.257812 41.40625 290.078125 41.199219 289.878906 C 40.988281 289.683594 40.792969 289.476562 40.613281 289.257812 C 40.429688 289.039062 40.261719 288.808594 40.109375 288.566406 C 39.953125 288.328125 39.816406 288.078125 39.695312 287.820312 L 34.898438 277.757812 L 30.789062 269.121094 C 30.664062 268.859375 30.554688 268.589844 30.464844 268.3125 C 30.375 268.039062 30.300781 267.757812 30.246094 267.472656 C 30.191406 267.1875 30.15625 266.898438 30.136719 266.609375 C 30.117188 266.316406 30.117188 266.027344 30.136719 265.738281 C 30.15625 265.445312 30.191406 265.160156 30.246094 264.875 C 30.300781 264.589844 30.375 264.308594 30.464844 264.03125 C 30.554688 263.753906 30.664062 263.484375 30.789062 263.222656 C 30.910156 262.960938 31.050781 262.707031 31.210938 262.460938 C 31.367188 262.214844 31.539062 261.980469 31.722656 261.757812 C 31.910156 261.535156 32.109375 261.324219 32.324219 261.128906 C 32.535156 260.929688 32.761719 260.746094 32.996094 260.578125 C 33.234375 260.40625 33.480469 260.253906 33.734375 260.117188 C 33.992188 259.976562 34.253906 259.855469 34.527344 259.75 C 34.796875 259.644531 35.074219 259.558594 35.355469 259.488281 C 35.636719 259.417969 35.921875 259.367188 36.210938 259.335938 C 36.5 259.300781 36.789062 259.285156 37.082031 259.289062 L 44.929688 259.386719 C 45.933594 259.398438 46.894531 259.199219 47.808594 258.792969 C 48.726562 258.386719 49.515625 257.804688 50.179688 257.050781 L 83.984375 218.6875 L 96.492188 204.457031 C 96.679688 204.246094 96.878906 204.042969 97.089844 203.855469 C 97.304688 203.667969 97.527344 203.496094 97.757812 203.332031 C 97.992188 203.171875 98.234375 203.027344 98.488281 202.898438 C 98.738281 202.765625 98.996094 202.652344 99.261719 202.554688 C 99.527344 202.457031 99.800781 202.375 100.074219 202.308594 C 100.351562 202.242188 100.628906 202.195312 100.914062 202.164062 C 101.195312 202.132812 101.476562 202.121094 101.761719 202.125 C 102.042969 202.128906 102.324219 202.152344 102.605469 202.191406 C 102.886719 202.230469 103.164062 202.285156 103.4375 202.359375 C 103.710938 202.433594 103.980469 202.523438 104.242188 202.628906 C 104.503906 202.734375 104.761719 202.859375 105.007812 202.996094 C 105.253906 203.132812 105.492188 203.285156 105.722656 203.453125 C 105.949219 203.621094 106.167969 203.800781 106.375 203.996094 C 106.582031 204.191406 106.773438 204.398438 106.957031 204.617188 C 107.136719 204.832031 107.304688 205.0625 107.457031 205.300781 C 107.609375 205.539062 107.746094 205.789062 107.867188 206.042969 L 126 244.148438 L 135.863281 264.863281 C 135.984375 265.113281 136.085938 265.371094 136.171875 265.636719 C 136.261719 265.898438 136.332031 266.167969 136.386719 266.4375 C 136.441406 266.710938 136.480469 266.984375 136.503906 267.261719 C 136.523438 267.539062 136.53125 267.816406 136.519531 268.09375 C 136.507812 268.371094 136.476562 268.644531 136.433594 268.921875 C 136.386719 269.195312 136.328125 269.464844 136.25 269.730469 C 136.171875 269.996094 136.078125 270.257812 135.96875 270.515625 C 135.859375 270.769531 135.734375 271.015625 135.59375 271.257812 C 135.457031 271.496094 135.300781 271.726562 135.136719 271.949219 C 134.96875 272.171875 134.789062 272.382812 134.59375 272.582031 C 134.402344 272.78125 134.199219 272.96875 133.984375 273.144531 C 133.769531 273.320312 133.542969 273.480469 133.308594 273.628906 C 133.074219 273.777344 132.828125 273.910156 132.578125 274.027344 C 132.328125 274.148438 132.070312 274.25 131.804688 274.335938 C 131.542969 274.425781 131.273438 274.496094 131.003906 274.550781 C 130.730469 274.605469 130.457031 274.644531 130.179688 274.667969 Z M 130.179688 274.667969 " fill-opacity="1" fill-rule="nonzero"/><path fill="#f29727" d="M 130.179688 274.667969 L 61.839844 279.933594 C 60.929688 280.003906 60.070312 280.246094 59.261719 280.660156 C 58.449219 281.074219 57.746094 281.625 57.15625 282.320312 L 51.132812 289.335938 C 50.945312 289.554688 50.746094 289.757812 50.535156 289.953125 C 50.324219 290.144531 50.105469 290.320312 49.871094 290.488281 C 49.636719 290.652344 49.394531 290.800781 49.140625 290.933594 C 48.890625 291.070312 48.632812 291.1875 48.363281 291.289062 C 48.097656 291.390625 47.824219 291.476562 47.546875 291.546875 C 47.269531 291.613281 46.992188 291.664062 46.707031 291.699219 C 46.421875 291.730469 46.140625 291.746094 45.851562 291.746094 C 45.566406 291.742188 45.285156 291.722656 45 291.683594 C 44.71875 291.648438 44.4375 291.59375 44.160156 291.519531 C 43.886719 291.449219 43.613281 291.359375 43.351562 291.253906 C 43.085938 291.144531 42.828125 291.023438 42.578125 290.886719 C 42.328125 290.746094 42.085938 290.59375 41.855469 290.425781 C 41.625 290.257812 41.40625 290.078125 41.199219 289.878906 C 40.988281 289.683594 40.792969 289.476562 40.613281 289.257812 C 40.429688 289.039062 40.261719 288.808594 40.109375 288.566406 C 39.953125 288.328125 39.816406 288.078125 39.695312 287.820312 L 34.898438 277.757812 L 56.078125 270.300781 L 125.992188 244.132812 L 135.859375 264.84375 C 135.976562 265.097656 136.082031 265.351562 136.171875 265.617188 C 136.257812 265.878906 136.332031 266.148438 136.386719 266.421875 C 136.441406 266.695312 136.480469 266.96875 136.503906 267.246094 C 136.527344 267.523438 136.53125 267.800781 136.519531 268.078125 C 136.511719 268.355469 136.480469 268.632812 136.4375 268.90625 C 136.394531 269.183594 136.332031 269.453125 136.253906 269.71875 C 136.175781 269.988281 136.082031 270.25 135.976562 270.503906 C 135.867188 270.761719 135.742188 271.007812 135.601562 271.25 C 135.460938 271.488281 135.308594 271.722656 135.140625 271.945312 C 134.976562 272.164062 134.796875 272.378906 134.601562 272.578125 C 134.410156 272.777344 134.203125 272.964844 133.988281 273.140625 C 133.773438 273.316406 133.546875 273.480469 133.3125 273.628906 C 133.078125 273.777344 132.832031 273.910156 132.582031 274.027344 C 132.332031 274.148438 132.074219 274.25 131.808594 274.335938 C 131.546875 274.425781 131.277344 274.496094 131.003906 274.550781 C 130.730469 274.605469 130.457031 274.644531 130.179688 274.667969 Z M 130.179688 274.667969 " fill-opacity="1" fill-rule="nonzero"/><g clip-path="url(#951f11a505)"><path fill="#ffffff" d="M 75.242188 306.277344 C 75.710938 306.054688 76.152344 305.789062 76.570312 305.480469 C 76.984375 305.171875 77.367188 304.824219 77.710938 304.4375 C 78.058594 304.054688 78.367188 303.640625 78.628906 303.195312 C 78.894531 302.75 79.113281 302.285156 79.289062 301.796875 C 79.460938 301.308594 79.585938 300.808594 79.660156 300.292969 C 79.734375 299.78125 79.757812 299.265625 79.730469 298.75 C 79.703125 298.230469 79.628906 297.722656 79.5 297.21875 C 79.371094 296.71875 79.199219 296.234375 78.972656 295.765625 L 67.394531 271.445312 L 56.699219 249.019531 C 55.570312 246.640625 51.464844 246.234375 47.53125 248.101562 C 43.632812 249.945312 41.328125 253.386719 42.460938 255.777344 L 64.734375 302.558594 C 64.957031 303.027344 65.222656 303.46875 65.53125 303.882812 C 65.839844 304.296875 66.1875 304.679688 66.574219 305.023438 C 66.957031 305.371094 67.371094 305.679688 67.816406 305.941406 C 68.261719 306.207031 68.726562 306.425781 69.214844 306.601562 C 69.703125 306.773438 70.203125 306.898438 70.714844 306.972656 C 71.230469 307.046875 71.742188 307.070312 72.261719 307.042969 C 72.777344 307.015625 73.289062 306.941406 73.789062 306.8125 C 74.292969 306.6875 74.777344 306.511719 75.242188 306.289062 Z M 75.242188 306.277344 " fill-opacity="1" fill-rule="nonzero"/></g><path fill="#ffffff" d="M 101.410156 244.714844 C 102.882812 248.003906 104.546875 251.195312 106.398438 254.285156 C 115.003906 268.550781 125.816406 276.957031 132.773438 273.835938 C 141.167969 270.0625 140.761719 250.90625 131.8125 231.050781 C 122.863281 211.199219 108.851562 198.164062 100.46875 201.9375 C 93.511719 205.058594 92.613281 218.746094 97.578125 234.636719 C 98.65625 238.070312 99.933594 241.429688 101.410156 244.714844 Z M 101.410156 244.714844 " fill-opacity="1" fill-rule="nonzero"/><path fill="#f29727" d="M 101.410156 244.714844 C 102.882812 248.003906 104.546875 251.195312 106.398438 254.285156 L 119.921875 245.871094 L 112.839844 230.117188 L 97.578125 234.636719 C 98.65625 238.070312 99.933594 241.429688 101.410156 244.714844 Z M 101.410156 244.714844 " fill-opacity="1" fill-rule="nonzero"/><path fill="#f29727" d="M 119.632812 236.503906 C 119.867188 237.019531 120.074219 237.539062 120.261719 238.0625 C 120.445312 238.589844 120.605469 239.105469 120.742188 239.621094 C 120.875 240.132812 120.976562 240.628906 121.054688 241.113281 C 121.128906 241.59375 121.175781 242.050781 121.1875 242.484375 C 121.203125 242.914062 121.1875 243.3125 121.140625 243.679688 C 121.09375 244.046875 121.015625 244.371094 120.910156 244.65625 C 120.804688 244.941406 120.667969 245.179688 120.507812 245.375 C 120.347656 245.570312 120.160156 245.714844 119.949219 245.808594 C 119.738281 245.902344 119.503906 245.945312 119.253906 245.9375 C 119 245.933594 118.730469 245.875 118.449219 245.761719 C 118.164062 245.652344 117.871094 245.496094 117.566406 245.285156 C 117.261719 245.078125 116.953125 244.828125 116.636719 244.527344 C 116.324219 244.230469 116.011719 243.894531 115.703125 243.515625 C 115.390625 243.140625 115.089844 242.734375 114.792969 242.292969 C 114.5 241.851562 114.21875 241.386719 113.949219 240.898438 C 113.679688 240.414062 113.429688 239.910156 113.199219 239.394531 C 112.964844 238.878906 112.757812 238.359375 112.570312 237.832031 C 112.382812 237.308594 112.222656 236.789062 112.089844 236.277344 C 111.957031 235.761719 111.851562 235.265625 111.777344 234.785156 C 111.703125 234.300781 111.65625 233.84375 111.640625 233.414062 C 111.628906 232.980469 111.644531 232.582031 111.691406 232.214844 C 111.738281 231.851562 111.8125 231.527344 111.921875 231.242188 C 112.027344 230.953125 112.160156 230.714844 112.324219 230.523438 C 112.484375 230.328125 112.671875 230.183594 112.882812 230.089844 C 113.09375 229.992188 113.328125 229.949219 113.578125 229.957031 C 113.832031 229.964844 114.097656 230.023438 114.382812 230.132812 C 114.667969 230.242188 114.960938 230.402344 115.265625 230.609375 C 115.570312 230.816406 115.878906 231.070312 116.191406 231.367188 C 116.507812 231.664062 116.820312 232.003906 117.128906 232.378906 C 117.4375 232.753906 117.742188 233.164062 118.035156 233.605469 C 118.332031 234.042969 118.613281 234.507812 118.882812 234.996094 C 119.152344 235.484375 119.402344 235.984375 119.632812 236.503906 Z M 119.632812 236.503906 " fill-opacity="1" fill-rule="nonzero"/><path fill="#192e3a" d="M 131.785156 231.039062 C 122.859375 211.1875 108.820312 198.152344 100.4375 201.925781 C 93.480469 205.054688 92.582031 218.734375 97.546875 234.625 C 99.730469 241.519531 102.675781 248.078125 106.378906 254.292969 C 114.984375 268.558594 125.796875 276.964844 132.753906 273.835938 C 141.136719 270.050781 140.707031 250.890625 131.785156 231.039062 Z M 130.226562 266.074219 C 125.164062 268.347656 116.941406 261.464844 110.222656 250.042969 C 107.316406 245.074219 104.96875 239.851562 103.179688 234.378906 C 99.097656 221.773438 99.410156 211.023438 104.476562 208.777344 C 110.585938 206.023438 121.304688 216.628906 128.445312 232.449219 C 135.585938 248.269531 136.34375 263.34375 130.226562 266.09375 Z M 130.226562 266.074219 " fill-opacity="1" fill-rule="nonzero"/><path fill="#ffffff" d="M 144.832031 266.46875 L 162.816406 279.175781 L 159.976562 285.660156 Z M 144.832031 266.46875 " fill-opacity="1" fill-rule="nonzero"/><path fill="#ffffff" d="M 144.628906 262.03125 L 173.515625 264.113281 L 172.269531 275.085938 Z M 144.628906 262.03125 " fill-opacity="1" fill-rule="nonzero"/><path fill="#ffffff" d="M 117.71875 197.15625 L 123.644531 175.945312 L 117.351562 172.707031 Z M 117.71875 197.15625 " fill-opacity="1" fill-rule="nonzero"/><path fill="#ffffff" d="M 120.363281 200.726562 L 141.453125 180.875 L 133.558594 173.148438 Z M 120.363281 200.726562 " fill-opacity="1" fill-rule="nonzero"/><path fill="#f29727" d="M 270.097656 166.042969 L 270.097656 243.90625 L 153.304688 243.90625 L 153.304688 166.042969 L 172.769531 166.042969 L 172.769531 195.242188 L 182.503906 185.507812 L 192.234375 195.242188 L 192.234375 166.042969 Z M 270.097656 166.042969 " fill-opacity="1" fill-rule="nonzero"/><path fill="#f45151" d="M 192.234375 166.042969 L 192.234375 195.242188 L 182.503906 185.507812 L 172.769531 195.242188 L 172.769531 166.042969 Z M 192.234375 166.042969 " fill-opacity="1" fill-rule="nonzero"/><path fill="#f2f2f2" d="M 240.898438 122.246094 L 240.898438 146.578125 C 240.898438 149.253906 238.710938 151.445312 236.03125 151.445312 L 216.566406 151.445312 L 211.699219 156.3125 L 206.835938 151.445312 L 187.367188 151.445312 C 184.691406 151.445312 182.503906 149.253906 182.503906 146.578125 L 182.503906 122.246094 C 182.503906 119.570312 184.691406 117.378906 187.367188 117.378906 L 202.503906 117.378906 C 202.164062 118.257812 201.96875 119.230469 201.96875 120.25 C 201.96875 124.632812 200.214844 128.863281 197.101562 131.980469 L 226.300781 131.980469 C 223.183594 128.863281 221.433594 124.632812 221.433594 120.25 C 221.433594 119.230469 221.238281 118.257812 220.898438 117.378906 L 236.03125 117.378906 C 238.710938 117.378906 240.898438 119.570312 240.898438 122.246094 Z M 240.898438 122.246094 " fill-opacity="1" fill-rule="nonzero"/><path fill="#f29727" d="M 216.566406 112.515625 C 216.566406 112.707031 216.566406 112.902344 216.519531 113.050781 C 215.644531 112.707031 214.71875 112.515625 213.695312 112.515625 L 209.707031 112.515625 C 208.683594 112.515625 207.757812 112.707031 206.882812 113.050781 C 206.835938 112.902344 206.835938 112.707031 206.835938 112.515625 C 206.835938 109.835938 209.023438 107.648438 211.699219 107.648438 C 214.378906 107.648438 216.566406 109.835938 216.566406 112.515625 Z M 216.566406 112.515625 " fill-opacity="1" fill-rule="nonzero"/><path fill="#192e3a" d="M 226.300781 131.980469 L 197.101562 131.980469 C 200.214844 128.863281 201.96875 124.632812 201.96875 120.25 C 201.96875 119.230469 202.164062 118.257812 202.503906 117.378906 C 203.332031 115.386719 204.886719 113.828125 206.882812 113.050781 C 207.757812 112.707031 208.683594 112.515625 209.707031 112.515625 L 213.695312 112.515625 C 214.71875 112.515625 215.644531 112.707031 216.519531 113.050781 C 218.515625 113.828125 220.070312 115.386719 220.898438 117.378906 C 221.238281 118.257812 221.433594 119.230469 221.433594 120.25 C 221.433594 124.632812 223.183594 128.863281 226.300781 131.980469 Z M 226.300781 131.980469 " fill-opacity="1" fill-rule="nonzero"/><g clip-path="url(#38c6db32dc)"><path fill="#f2d6bd" d="M 272.53125 166.042969 C 272.53125 164.699219 271.441406 163.609375 270.097656 163.609375 L 153.304688 163.609375 C 151.960938 163.609375 150.871094 164.699219 150.871094 166.042969 L 150.871094 224.441406 C 150.871094 225.785156 151.960938 226.875 153.304688 226.875 C 154.648438 226.875 155.738281 225.785156 155.738281 224.441406 L 155.738281 168.476562 L 170.335938 168.476562 L 170.335938 195.242188 C 170.335938 196.226562 170.929688 197.113281 171.839844 197.492188 C 172.738281 197.859375 173.792969 197.660156 174.492188 196.960938 L 182.503906 188.949219 L 190.515625 196.960938 C 190.980469 197.429688 191.601562 197.675781 192.234375 197.675781 C 192.550781 197.675781 192.867188 197.613281 193.167969 197.492188 C 194.074219 197.113281 194.667969 196.226562 194.667969 195.242188 L 194.667969 168.476562 L 209.269531 168.476562 L 209.269531 241.472656 L 153.304688 241.472656 C 151.960938 241.472656 150.871094 242.5625 150.871094 243.90625 C 150.871094 245.25 151.960938 246.339844 153.304688 246.339844 L 270.097656 246.339844 C 271.441406 246.339844 272.53125 245.25 272.53125 243.90625 Z M 189.800781 189.367188 L 184.222656 183.789062 C 183.273438 182.839844 181.734375 182.839844 180.78125 183.789062 L 175.203125 189.367188 L 175.203125 168.476562 L 189.800781 168.476562 Z M 267.664062 241.472656 L 214.132812 241.472656 L 214.132812 168.476562 L 267.664062 168.476562 Z M 267.664062 241.472656 " fill-opacity="1" fill-rule="nonzero"/></g><path fill="#f2d6bd" d="M 172.769531 236.605469 C 174.113281 236.605469 175.203125 235.519531 175.203125 234.171875 C 175.203125 232.828125 174.113281 231.738281 172.769531 231.738281 L 163.039062 231.738281 C 161.691406 231.738281 160.605469 232.828125 160.605469 234.171875 C 160.605469 235.519531 161.691406 236.605469 163.039062 236.605469 Z M 172.769531 236.605469 " fill-opacity="1" fill-rule="nonzero"/><path fill="#f2d6bd" d="M 187.367188 119.8125 L 192.234375 119.8125 C 193.582031 119.8125 194.667969 118.726562 194.667969 117.378906 C 194.667969 116.035156 193.582031 114.949219 192.234375 114.949219 L 187.367188 114.949219 C 183.34375 114.949219 180.070312 118.222656 180.070312 122.246094 L 180.070312 146.578125 C 180.070312 150.605469 183.34375 153.878906 187.367188 153.878906 L 205.828125 153.878906 L 209.980469 158.03125 C 210.457031 158.507812 211.078125 158.746094 211.699219 158.746094 C 212.324219 158.746094 212.945312 158.507812 213.421875 158.03125 L 217.574219 153.878906 L 236.03125 153.878906 C 240.058594 153.878906 243.332031 150.605469 243.332031 146.578125 L 243.332031 122.246094 C 243.332031 118.222656 240.058594 114.949219 236.03125 114.949219 L 231.167969 114.949219 C 229.820312 114.949219 228.734375 116.035156 228.734375 117.378906 C 228.734375 118.726562 229.820312 119.8125 231.167969 119.8125 L 236.03125 119.8125 C 237.371094 119.8125 238.464844 120.90625 238.464844 122.246094 L 238.464844 146.578125 C 238.464844 147.921875 237.371094 149.011719 236.03125 149.011719 L 216.566406 149.011719 C 215.921875 149.011719 215.304688 149.269531 214.847656 149.726562 L 211.699219 152.871094 L 208.554688 149.726562 C 208.097656 149.269531 207.480469 149.011719 206.835938 149.011719 L 187.367188 149.011719 C 186.027344 149.011719 184.9375 147.921875 184.9375 146.578125 L 184.9375 122.246094 C 184.9375 120.90625 186.027344 119.8125 187.367188 119.8125 Z M 187.367188 119.8125 " fill-opacity="1" fill-rule="nonzero"/><g clip-path="url(#e52459d806)"><path fill="#f2d6bd" d="M 228.546875 132.910156 C 228.921875 132 228.714844 130.953125 228.019531 130.257812 C 225.339844 127.582031 223.867188 124.023438 223.867188 120.230469 C 223.867188 116.535156 221.863281 113.328125 218.902344 111.554688 C 218.425781 107.984375 215.398438 105.214844 211.699219 105.214844 C 208.003906 105.214844 204.972656 107.984375 204.5 111.554688 C 201.539062 113.328125 199.535156 116.535156 199.535156 120.230469 C 199.535156 124.023438 198.0625 127.582031 195.382812 130.257812 C 194.6875 130.953125 194.480469 132 194.855469 132.910156 C 195.230469 133.820312 196.117188 134.414062 197.101562 134.414062 L 226.300781 134.414062 C 227.285156 134.414062 228.171875 133.820312 228.546875 132.910156 Z M 201.976562 129.546875 C 203.558594 126.734375 204.402344 123.550781 204.402344 120.230469 C 204.402344 118.144531 205.644531 116.375 207.40625 115.515625 C 207.496094 115.496094 207.585938 115.503906 207.675781 115.472656 C 207.808594 115.429688 207.902344 115.34375 208.023438 115.285156 C 208.554688 115.105469 209.097656 114.949219 209.6875 114.949219 L 213.714844 114.949219 C 216.628906 114.949219 219 117.320312 219 120.230469 C 219 123.550781 219.839844 126.734375 221.425781 129.546875 Z M 201.976562 129.546875 " fill-opacity="1" fill-rule="nonzero"/></g><path fill="#f2d6bd" d="M 206.835938 139.28125 C 205.488281 139.28125 204.402344 140.367188 204.402344 141.710938 C 204.402344 143.058594 205.488281 144.144531 206.835938 144.144531 L 216.566406 144.144531 C 217.914062 144.144531 219 143.058594 219 141.710938 C 219 140.367188 217.914062 139.28125 216.566406 139.28125 Z M 206.835938 139.28125 " fill-opacity="1" fill-rule="nonzero"/><g clip-path="url(#fb2ff05aea)"><path fill="#f2d6bd" d="M 155.738281 234.171875 C 155.738281 234.496094 155.675781 234.804688 155.550781 235.105469 C 155.429688 235.402344 155.253906 235.664062 155.023438 235.894531 C 154.796875 236.121094 154.535156 236.296875 154.234375 236.421875 C 153.9375 236.542969 153.628906 236.605469 153.304688 236.605469 C 152.980469 236.605469 152.671875 236.542969 152.375 236.421875 C 152.074219 236.296875 151.8125 236.121094 151.585938 235.894531 C 151.355469 235.664062 151.179688 235.402344 151.054688 235.105469 C 150.933594 234.804688 150.871094 234.496094 150.871094 234.171875 C 150.871094 233.851562 150.933594 233.539062 151.054688 233.242188 C 151.179688 232.945312 151.355469 232.679688 151.585938 232.453125 C 151.8125 232.226562 152.074219 232.050781 152.375 231.925781 C 152.671875 231.800781 152.980469 231.738281 153.304688 231.738281 C 153.628906 231.738281 153.9375 231.800781 154.234375 231.925781 C 154.535156 232.050781 154.796875 232.226562 155.023438 232.453125 C 155.253906 232.679688 155.429688 232.945312 155.550781 233.242188 C 155.675781 233.539062 155.738281 233.851562 155.738281 234.171875 Z M 155.738281 234.171875 " fill-opacity="1" fill-rule="nonzero"/></g></svg>