<svg xmlns="http://www.w3.org/2000/svg" xmlns:xlink="http://www.w3.org/1999/xlink" width="500" zoomAndPan="magnify" viewBox="0 0 375 374.999991" height="500" preserveAspectRatio="xMidYMid meet" version="1.0"><defs><g/><clipPath id="0e7651d89b"><path d="M 120.707031 115.601562 L 253.796875 115.601562 L 253.796875 248.691406 L 120.707031 248.691406 Z M 120.707031 115.601562 " clip-rule="nonzero"/></clipPath><clipPath id="080e82ea7b"><path d="M 187.253906 115.601562 C 150.5 115.601562 120.707031 145.394531 120.707031 182.144531 C 120.707031 218.898438 150.5 248.691406 187.253906 248.691406 C 224.003906 248.691406 253.796875 218.898438 253.796875 182.144531 C 253.796875 145.394531 224.003906 115.601562 187.253906 115.601562 Z M 187.253906 115.601562 " clip-rule="nonzero"/></clipPath><clipPath id="4dfaaf3685"><path d="M 102 112.390625 L 273.429688 112.390625 L 273.429688 228 L 102 228 Z M 102 112.390625 " clip-rule="nonzero"/></clipPath></defs><g fill="#ffffff" fill-opacity="1"><g transform="translate(120.924964, 267.980109)"><g><path d="M 4.75 -14.328125 L 4.75 0 L 1.265625 0 L 1.265625 -14.328125 Z M 4.75 -14.328125 "/></g></g></g><g fill="#ffffff" fill-opacity="1"><g transform="translate(126.940218, 267.980109)"><g><path d="M 8.203125 -11.515625 C 9.535156 -11.515625 10.597656 -11.082031 11.390625 -10.21875 C 12.191406 -9.351562 12.59375 -8.164062 12.59375 -6.65625 L 12.59375 0 L 9.125 0 L 9.125 -6.1875 C 9.125 -6.945312 8.925781 -7.535156 8.53125 -7.953125 C 8.132812 -8.378906 7.601562 -8.59375 6.9375 -8.59375 C 6.269531 -8.59375 5.738281 -8.378906 5.34375 -7.953125 C 4.945312 -7.535156 4.75 -6.945312 4.75 -6.1875 L 4.75 0 L 1.265625 0 L 1.265625 -11.390625 L 4.75 -11.390625 L 4.75 -9.875 C 5.101562 -10.375 5.578125 -10.769531 6.171875 -11.0625 C 6.773438 -11.363281 7.453125 -11.515625 8.203125 -11.515625 Z M 8.203125 -11.515625 "/></g></g></g><g fill="#ffffff" fill-opacity="1"><g transform="translate(140.683541, 267.980109)"><g><path d="M 6.390625 -3.265625 L 8.859375 -11.390625 L 12.5625 -11.390625 L 8.53125 0 L 4.21875 0 L 0.1875 -11.390625 L 3.921875 -11.390625 Z M 6.390625 -3.265625 "/></g></g></g><g fill="#ffffff" fill-opacity="1"><g transform="translate(153.448109, 267.980109)"><g><path d="M 12 -5.875 C 12 -5.550781 11.976562 -5.210938 11.9375 -4.859375 L 4.046875 -4.859375 C 4.097656 -4.148438 4.320312 -3.609375 4.71875 -3.234375 C 5.125 -2.859375 5.617188 -2.671875 6.203125 -2.671875 C 7.078125 -2.671875 7.679688 -3.039062 8.015625 -3.78125 L 11.734375 -3.78125 C 11.546875 -3.03125 11.203125 -2.351562 10.703125 -1.75 C 10.203125 -1.15625 9.578125 -0.6875 8.828125 -0.34375 C 8.085938 -0.0078125 7.253906 0.15625 6.328125 0.15625 C 5.210938 0.15625 4.21875 -0.078125 3.34375 -0.546875 C 2.476562 -1.023438 1.800781 -1.707031 1.3125 -2.59375 C 0.820312 -3.476562 0.578125 -4.507812 0.578125 -5.6875 C 0.578125 -6.875 0.816406 -7.910156 1.296875 -8.796875 C 1.773438 -9.679688 2.445312 -10.359375 3.3125 -10.828125 C 4.1875 -11.304688 5.191406 -11.546875 6.328125 -11.546875 C 7.429688 -11.546875 8.410156 -11.3125 9.265625 -10.84375 C 10.117188 -10.382812 10.785156 -9.726562 11.265625 -8.875 C 11.753906 -8.019531 12 -7.019531 12 -5.875 Z M 8.421875 -6.796875 C 8.421875 -7.390625 8.21875 -7.863281 7.8125 -8.21875 C 7.40625 -8.570312 6.894531 -8.75 6.28125 -8.75 C 5.695312 -8.75 5.203125 -8.578125 4.796875 -8.234375 C 4.398438 -7.898438 4.15625 -7.421875 4.0625 -6.796875 Z M 8.421875 -6.796875 "/></g></g></g><g fill="#ffffff" fill-opacity="1"><g transform="translate(166.008777, 267.980109)"><g><path d="M 8.203125 -11.515625 C 9.535156 -11.515625 10.597656 -11.082031 11.390625 -10.21875 C 12.191406 -9.351562 12.59375 -8.164062 12.59375 -6.65625 L 12.59375 0 L 9.125 0 L 9.125 -6.1875 C 9.125 -6.945312 8.925781 -7.535156 8.53125 -7.953125 C 8.132812 -8.378906 7.601562 -8.59375 6.9375 -8.59375 C 6.269531 -8.59375 5.738281 -8.378906 5.34375 -7.953125 C 4.945312 -7.535156 4.75 -6.945312 4.75 -6.1875 L 4.75 0 L 1.265625 0 L 1.265625 -11.390625 L 4.75 -11.390625 L 4.75 -9.875 C 5.101562 -10.375 5.578125 -10.769531 6.171875 -11.0625 C 6.773438 -11.363281 7.453125 -11.515625 8.203125 -11.515625 Z M 8.203125 -11.515625 "/></g></g></g><g fill="#ffffff" fill-opacity="1"><g transform="translate(179.7521, 267.980109)"><g><path d="M 7.609375 -2.953125 L 7.609375 0 L 5.84375 0 C 4.570312 0 3.582031 -0.304688 2.875 -0.921875 C 2.164062 -1.546875 1.8125 -2.554688 1.8125 -3.953125 L 1.8125 -8.484375 L 0.421875 -8.484375 L 0.421875 -11.390625 L 1.8125 -11.390625 L 1.8125 -14.15625 L 5.3125 -14.15625 L 5.3125 -11.390625 L 7.59375 -11.390625 L 7.59375 -8.484375 L 5.3125 -8.484375 L 5.3125 -3.921875 C 5.3125 -3.578125 5.390625 -3.328125 5.546875 -3.171875 C 5.710938 -3.023438 5.984375 -2.953125 6.359375 -2.953125 Z M 7.609375 -2.953125 "/></g></g></g><g fill="#ffffff" fill-opacity="1"><g transform="translate(188.030721, 267.980109)"><g><path d="M 0.578125 -5.71875 C 0.578125 -6.882812 0.796875 -7.910156 1.234375 -8.796875 C 1.671875 -9.679688 2.269531 -10.359375 3.03125 -10.828125 C 3.800781 -11.304688 4.65625 -11.546875 5.59375 -11.546875 C 6.394531 -11.546875 7.097656 -11.382812 7.703125 -11.0625 C 8.304688 -10.738281 8.769531 -10.3125 9.09375 -9.78125 L 9.09375 -11.390625 L 12.59375 -11.390625 L 12.59375 0 L 9.09375 0 L 9.09375 -1.609375 C 8.757812 -1.078125 8.289062 -0.648438 7.6875 -0.328125 C 7.082031 -0.00390625 6.378906 0.15625 5.578125 0.15625 C 4.648438 0.15625 3.800781 -0.0820312 3.03125 -0.5625 C 2.269531 -1.039062 1.671875 -1.722656 1.234375 -2.609375 C 0.796875 -3.503906 0.578125 -4.539062 0.578125 -5.71875 Z M 9.09375 -5.6875 C 9.09375 -6.5625 8.851562 -7.25 8.375 -7.75 C 7.894531 -8.257812 7.304688 -8.515625 6.609375 -8.515625 C 5.921875 -8.515625 5.332031 -8.265625 4.84375 -7.765625 C 4.363281 -7.265625 4.125 -6.582031 4.125 -5.71875 C 4.125 -4.84375 4.363281 -4.148438 4.84375 -3.640625 C 5.332031 -3.128906 5.921875 -2.875 6.609375 -2.875 C 7.304688 -2.875 7.894531 -3.125 8.375 -3.625 C 8.851562 -4.132812 9.09375 -4.820312 9.09375 -5.6875 Z M 9.09375 -5.6875 "/></g></g></g><g fill="#ffffff" fill-opacity="1"><g transform="translate(201.876, 267.980109)"><g><path d="M 4.75 -9.484375 C 5.15625 -10.109375 5.664062 -10.601562 6.28125 -10.96875 C 6.894531 -11.332031 7.578125 -11.515625 8.328125 -11.515625 L 8.328125 -7.8125 L 7.359375 -7.8125 C 6.492188 -7.8125 5.84375 -7.625 5.40625 -7.25 C 4.96875 -6.875 4.75 -6.21875 4.75 -5.28125 L 4.75 0 L 1.265625 0 L 1.265625 -11.390625 L 4.75 -11.390625 Z M 4.75 -9.484375 "/></g></g></g><g fill="#ffffff" fill-opacity="1"><g transform="translate(210.603218, 267.980109)"><g><path d="M 3.015625 -12.5625 C 2.410156 -12.5625 1.910156 -12.742188 1.515625 -13.109375 C 1.128906 -13.472656 0.9375 -13.921875 0.9375 -14.453125 C 0.9375 -14.992188 1.128906 -15.441406 1.515625 -15.796875 C 1.910156 -16.160156 2.410156 -16.34375 3.015625 -16.34375 C 3.617188 -16.34375 4.113281 -16.160156 4.5 -15.796875 C 4.882812 -15.441406 5.078125 -14.992188 5.078125 -14.453125 C 5.078125 -13.921875 4.882812 -13.472656 4.5 -13.109375 C 4.113281 -12.742188 3.617188 -12.5625 3.015625 -12.5625 Z M 4.75 -11.390625 L 4.75 0 L 1.265625 0 L 1.265625 -11.390625 Z M 4.75 -11.390625 "/></g></g></g><g fill="#ffffff" fill-opacity="1"><g transform="translate(216.618472, 267.980109)"><g><path d="M 6.453125 0.15625 C 5.335938 0.15625 4.332031 -0.078125 3.4375 -0.546875 C 2.550781 -1.023438 1.851562 -1.707031 1.34375 -2.59375 C 0.832031 -3.476562 0.578125 -4.507812 0.578125 -5.6875 C 0.578125 -6.863281 0.832031 -7.894531 1.34375 -8.78125 C 1.863281 -9.675781 2.570312 -10.359375 3.46875 -10.828125 C 4.363281 -11.304688 5.367188 -11.546875 6.484375 -11.546875 C 7.597656 -11.546875 8.601562 -11.304688 9.5 -10.828125 C 10.40625 -10.359375 11.113281 -9.675781 11.625 -8.78125 C 12.144531 -7.894531 12.40625 -6.863281 12.40625 -5.6875 C 12.40625 -4.519531 12.140625 -3.488281 11.609375 -2.59375 C 11.085938 -1.707031 10.375 -1.023438 9.46875 -0.546875 C 8.570312 -0.078125 7.566406 0.15625 6.453125 0.15625 Z M 6.453125 -2.859375 C 7.117188 -2.859375 7.6875 -3.101562 8.15625 -3.59375 C 8.625 -4.082031 8.859375 -4.78125 8.859375 -5.6875 C 8.859375 -6.601562 8.628906 -7.304688 8.171875 -7.796875 C 7.710938 -8.285156 7.148438 -8.53125 6.484375 -8.53125 C 5.804688 -8.53125 5.242188 -8.285156 4.796875 -7.796875 C 4.347656 -7.316406 4.125 -6.613281 4.125 -5.6875 C 4.125 -4.78125 4.34375 -4.082031 4.78125 -3.59375 C 5.226562 -3.101562 5.785156 -2.859375 6.453125 -2.859375 Z M 6.453125 -2.859375 "/></g></g></g><g fill="#ffffff" fill-opacity="1"><g transform="translate(229.607344, 267.980109)"><g><path d="M 12.1875 -9.71875 C 12.1875 -8.882812 11.992188 -8.125 11.609375 -7.4375 C 11.234375 -6.75 10.648438 -6.191406 9.859375 -5.765625 C 9.066406 -5.347656 8.085938 -5.140625 6.921875 -5.140625 L 4.75 -5.140625 L 4.75 0 L 1.265625 0 L 1.265625 -14.328125 L 6.921875 -14.328125 C 8.054688 -14.328125 9.019531 -14.128906 9.8125 -13.734375 C 10.601562 -13.335938 11.195312 -12.789062 11.59375 -12.09375 C 11.988281 -11.40625 12.1875 -10.613281 12.1875 -9.71875 Z M 6.65625 -7.921875 C 7.320312 -7.921875 7.816406 -8.078125 8.140625 -8.390625 C 8.460938 -8.703125 8.625 -9.144531 8.625 -9.71875 C 8.625 -10.289062 8.460938 -10.734375 8.140625 -11.046875 C 7.816406 -11.359375 7.320312 -11.515625 6.65625 -11.515625 L 4.75 -11.515625 L 4.75 -7.921875 Z M 6.65625 -7.921875 "/></g></g></g><g fill="#ffffff" fill-opacity="1"><g transform="translate(242.331136, 267.980109)"><g><path d="M 4.75 -9.484375 C 5.15625 -10.109375 5.664062 -10.601562 6.28125 -10.96875 C 6.894531 -11.332031 7.578125 -11.515625 8.328125 -11.515625 L 8.328125 -7.8125 L 7.359375 -7.8125 C 6.492188 -7.8125 5.84375 -7.625 5.40625 -7.25 C 4.96875 -6.875 4.75 -6.21875 4.75 -5.28125 L 4.75 0 L 1.265625 0 L 1.265625 -11.390625 L 4.75 -11.390625 Z M 4.75 -9.484375 "/></g></g></g><g fill="#ffffff" fill-opacity="1"><g transform="translate(251.058354, 267.980109)"><g><path d="M 6.453125 0.15625 C 5.335938 0.15625 4.332031 -0.078125 3.4375 -0.546875 C 2.550781 -1.023438 1.851562 -1.707031 1.34375 -2.59375 C 0.832031 -3.476562 0.578125 -4.507812 0.578125 -5.6875 C 0.578125 -6.863281 0.832031 -7.894531 1.34375 -8.78125 C 1.863281 -9.675781 2.570312 -10.359375 3.46875 -10.828125 C 4.363281 -11.304688 5.367188 -11.546875 6.484375 -11.546875 C 7.597656 -11.546875 8.601562 -11.304688 9.5 -10.828125 C 10.40625 -10.359375 11.113281 -9.675781 11.625 -8.78125 C 12.144531 -7.894531 12.40625 -6.863281 12.40625 -5.6875 C 12.40625 -4.519531 12.140625 -3.488281 11.609375 -2.59375 C 11.085938 -1.707031 10.375 -1.023438 9.46875 -0.546875 C 8.570312 -0.078125 7.566406 0.15625 6.453125 0.15625 Z M 6.453125 -2.859375 C 7.117188 -2.859375 7.6875 -3.101562 8.15625 -3.59375 C 8.625 -4.082031 8.859375 -4.78125 8.859375 -5.6875 C 8.859375 -6.601562 8.628906 -7.304688 8.171875 -7.796875 C 7.710938 -8.285156 7.148438 -8.53125 6.484375 -8.53125 C 5.804688 -8.53125 5.242188 -8.285156 4.796875 -7.796875 C 4.347656 -7.316406 4.125 -6.613281 4.125 -5.6875 C 4.125 -4.78125 4.34375 -4.082031 4.78125 -3.59375 C 5.226562 -3.101562 5.785156 -2.859375 6.453125 -2.859375 Z M 6.453125 -2.859375 "/></g></g></g><g clip-path="url(#0e7651d89b)"><g clip-path="url(#080e82ea7b)"><path fill="#242526" d="M 120.707031 115.601562 L 253.796875 115.601562 L 253.796875 248.691406 L 120.707031 248.691406 Z M 120.707031 115.601562 " fill-opacity="1" fill-rule="nonzero"/></g></g><g clip-path="url(#4dfaaf3685)"><path fill="#f2d6bd" d="M 208.597656 150.082031 L 208.597656 210.371094 C 208.5625 210.394531 208.539062 210.410156 208.503906 210.429688 C 205.164062 212.46875 201.71875 214.335938 198.191406 216.027344 L 198.191406 158.5625 L 180.300781 146.644531 L 180.300781 222.996094 C 177.144531 223.949219 173.957031 224.761719 170.742188 225.429688 L 170.742188 181.222656 L 152.859375 169.300781 L 152.859375 227.820312 L 152.347656 227.851562 C 151.753906 227.882812 151.160156 227.890625 150.5625 227.902344 L 147.003906 227.976562 C 144.628906 227.984375 142.253906 227.910156 139.890625 227.8125 C 135.167969 227.535156 130.476562 226.984375 125.851562 226.125 C 123.542969 225.6875 121.253906 225.191406 118.984375 224.617188 C 116.722656 224.015625 114.472656 223.414062 112.265625 222.652344 C 108.9375 221.566406 105.675781 220.296875 102.519531 218.828125 C 101.851562 218.515625 102.121094 217.511719 102.851562 217.5625 C 106.289062 217.808594 109.691406 218.019531 113.070312 218.113281 C 117.570312 218.238281 122.027344 218.230469 126.449219 218.019531 C 131.160156 217.808594 135.824219 217.417969 140.441406 216.824219 C 140.949219 216.757812 141.1875 216.160156 140.871094 215.757812 C 134.585938 207.699219 130.304688 197.988281 128.828125 187.335938 C 123.761719 150.84375 153.183594 118.128906 190.015625 119.320312 C 213.585938 120.074219 233.882812 134.585938 242.855469 155.261719 C 243.058594 155.738281 243.695312 155.816406 244 155.402344 C 247.28125 150.863281 250.355469 146.140625 253.207031 141.210938 L 254.835938 138.3125 L 255.648438 136.855469 L 256.417969 135.375 L 256.605469 135.015625 L 246.132812 132.160156 L 266.023438 112.433594 L 273.160156 139.523438 L 262.667969 136.667969 L 262.457031 137.617188 L 262.058594 139.332031 L 261.589844 141.023438 L 260.636719 144.414062 C 257.886719 153.402344 253.875 162.0625 248.960938 170.226562 C 244 178.367188 237.972656 185.894531 231.183594 192.6875 C 229.664062 194.203125 228.09375 195.671875 226.484375 197.09375 L 226.484375 162.003906 L 208.597656 150.082031 " fill-opacity="1" fill-rule="nonzero"/></g></svg>