<svg xmlns="http://www.w3.org/2000/svg" xmlns:xlink="http://www.w3.org/1999/xlink" width="500" zoomAndPan="magnify" viewBox="0 0 375 374.999991" height="500" preserveAspectRatio="xMidYMid meet" version="1.0"><defs><filter x="0%" y="0%" width="100%" height="100%" id="484e68a53a"><feColorMatrix values="0 0 0 0 1 0 0 0 0 1 0 0 0 0 1 0 0 0 1 0" color-interpolation-filters="sRGB"/></filter><mask id="184c8e43c9"><g filter="url(#484e68a53a)"><rect x="-37.5" width="450" fill="#000000" y="-37.499999" height="449.999989" fill-opacity="0.27"/></g></mask><clipPath id="c3f89d6753"><path d="M 0.398438 0.578125 L 343 0.578125 L 343 336.960938 L 0.398438 336.960938 Z M 0.398438 0.578125 " clip-rule="nonzero"/></clipPath><clipPath id="f053d704fb"><rect x="0" width="343" y="0" height="337"/></clipPath><clipPath id="fbe863b278"><path d="M 56 77.097656 L 303 77.097656 L 303 231 L 56 231 Z M 56 77.097656 " clip-rule="nonzero"/></clipPath><clipPath id="61bbdee6fa"><path d="M 144 310 L 194 310 L 194 352.347656 L 144 352.347656 Z M 144 310 " clip-rule="nonzero"/></clipPath><clipPath id="f475127df2"><path d="M 193 310 L 208 310 L 208 352.347656 L 193 352.347656 Z M 193 310 " clip-rule="nonzero"/></clipPath><clipPath id="91988389e1"><path d="M 199 310 L 249 310 L 249 352.347656 L 199 352.347656 Z M 199 310 " clip-rule="nonzero"/></clipPath><clipPath id="8414fc4266"><path d="M 248 310 L 263 310 L 263 352.347656 L 248 352.347656 Z M 248 310 " clip-rule="nonzero"/></clipPath><clipPath id="2acfe4648c"><path d="M 253 310 L 303 310 L 303 352.347656 L 253 352.347656 Z M 253 310 " clip-rule="nonzero"/></clipPath><clipPath id="39f309e515"><path d="M 302 310 L 316.648438 310 L 316.648438 352.347656 L 302 352.347656 Z M 302 310 " clip-rule="nonzero"/></clipPath><clipPath id="65a35b67f0"><path d="M 83 335 L 117 335 L 117 352.347656 L 83 352.347656 Z M 83 335 " clip-rule="nonzero"/></clipPath><clipPath id="2a79c73541"><path d="M 47 335 L 81 335 L 81 352.347656 L 47 352.347656 Z M 47 335 " clip-rule="nonzero"/></clipPath></defs><g mask="url(#184c8e43c9)"><g transform="matrix(1, 0, 0, 1, 32, 12)"><g clip-path="url(#f053d704fb)"><g clip-path="url(#c3f89d6753)"><path fill="#312f3a" d="M 135.335938 327.023438 C 92.164062 316.496094 24.546875 278.058594 8.015625 235.03125 C -3.503906 207.121094 0.101562 165.644531 6.601562 136.253906 C 15.222656 96.261719 46.875 50.335938 79.941406 27.726562 C 110.890625 6.601562 146.851562 0.59375 182.816406 0.59375 C 265.484375 0.59375 313.667969 81.285156 337.410156 155.894531 C 361.148438 232.769531 300.738281 312.679688 232.414062 331.542969 C 200.761719 340.589844 166.210938 336.066406 135.335938 327.023438 " fill-opacity="1" fill-rule="nonzero"/></g></g></g></g><path fill="#253036" d="M 168.003906 206.90625 L 198.359375 206.90625 L 198.359375 351.570312 L 168.003906 351.570312 Z M 168.003906 206.90625 " fill-opacity="1" fill-rule="nonzero"/><g clip-path="url(#fbe863b278)"><path fill="#253036" d="M 56.925781 84.847656 C 56.925781 80.566406 60.394531 77.097656 64.675781 77.097656 L 294.585938 77.097656 C 298.867188 77.097656 302.335938 80.566406 302.335938 84.847656 L 302.335938 222.40625 C 302.335938 226.6875 298.867188 230.15625 294.585938 230.15625 L 64.675781 230.15625 C 60.394531 230.15625 56.925781 226.6875 56.925781 222.40625 Z M 56.925781 84.847656 " fill-opacity="1" fill-rule="nonzero"/></g><path fill="#f2d6bd" d="M 63.382812 85.492188 C 63.382812 84.421875 64.25 83.554688 65.320312 83.554688 L 293.941406 83.554688 C 295.011719 83.554688 295.878906 84.421875 295.878906 85.492188 L 295.878906 221.117188 C 295.878906 222.1875 295.011719 223.054688 293.941406 223.054688 L 65.320312 223.054688 C 64.25 223.054688 63.382812 222.1875 63.382812 221.117188 Z M 63.382812 85.492188 " fill-opacity="1" fill-rule="nonzero"/><path fill="#f29727" d="M 153.152344 105.398438 C 153.152344 104.328125 154.019531 103.460938 155.089844 103.460938 L 179.210938 103.460938 C 180.28125 103.460938 181.148438 104.328125 181.148438 105.398438 L 181.148438 129.523438 C 181.148438 130.59375 180.28125 131.460938 179.210938 131.460938 L 155.089844 131.460938 C 154.019531 131.460938 153.152344 130.59375 153.152344 129.523438 Z M 153.152344 105.398438 " fill-opacity="1" fill-rule="nonzero"/><path fill="#f2f2f2" d="M 158.824219 116.574219 C 159.332031 116.070312 160.148438 116.070312 160.652344 116.574219 L 164.6875 120.609375 L 175.328125 109.96875 C 175.835938 109.464844 176.652344 109.464844 177.15625 109.96875 C 177.660156 110.472656 177.660156 111.292969 177.15625 111.796875 L 164.6875 124.261719 L 158.824219 118.402344 C 158.320312 117.894531 158.320312 117.078125 158.824219 116.574219 Z M 158.824219 116.574219 " fill-opacity="1" fill-rule="evenodd"/><path fill="#f29727" d="M 153.152344 144.148438 C 153.152344 143.078125 154.019531 142.210938 155.089844 142.210938 L 179.210938 142.210938 C 180.28125 142.210938 181.148438 143.078125 181.148438 144.148438 L 181.148438 168.273438 C 181.148438 169.34375 180.28125 170.210938 179.210938 170.210938 L 155.089844 170.210938 C 154.019531 170.210938 153.152344 169.34375 153.152344 168.273438 Z M 153.152344 144.148438 " fill-opacity="1" fill-rule="nonzero"/><path fill="#f2f2f2" d="M 158.824219 155.324219 C 159.332031 154.820312 160.148438 154.820312 160.652344 155.324219 L 164.6875 159.359375 L 175.328125 148.71875 C 175.835938 148.214844 176.652344 148.214844 177.15625 148.71875 C 177.660156 149.222656 177.660156 150.039062 177.15625 150.546875 L 164.6875 163.011719 L 158.824219 157.148438 C 158.320312 156.644531 158.320312 155.828125 158.824219 155.324219 Z M 158.824219 155.324219 " fill-opacity="1" fill-rule="evenodd"/><path fill="#f29727" d="M 153.152344 182.898438 C 153.152344 181.828125 154.019531 180.960938 155.089844 180.960938 L 179.210938 180.960938 C 180.28125 180.960938 181.148438 181.828125 181.148438 182.898438 L 181.148438 207.019531 C 181.148438 208.089844 180.28125 208.957031 179.210938 208.957031 L 155.089844 208.957031 C 154.019531 208.957031 153.152344 208.089844 153.152344 207.019531 Z M 153.152344 182.898438 " fill-opacity="1" fill-rule="nonzero"/><path fill="#f2f2f2" d="M 158.824219 194.074219 C 159.332031 193.570312 160.148438 193.570312 160.652344 194.074219 L 164.6875 198.109375 L 175.328125 187.46875 C 175.835938 186.964844 176.652344 186.964844 177.15625 187.46875 C 177.660156 187.972656 177.660156 188.789062 177.15625 189.292969 L 164.6875 201.761719 L 158.824219 195.898438 C 158.320312 195.394531 158.320312 194.578125 158.824219 194.074219 Z M 158.824219 194.074219 " fill-opacity="1" fill-rule="evenodd"/><path fill="#253036" d="M 189.316406 105.511719 C 189.316406 104.441406 190.183594 103.574219 191.253906 103.574219 L 266.171875 103.574219 C 267.242188 103.574219 268.109375 104.441406 268.109375 105.511719 C 268.109375 106.582031 267.242188 107.449219 266.171875 107.449219 L 191.253906 107.449219 C 190.183594 107.449219 189.316406 106.582031 189.316406 105.511719 Z M 189.316406 105.511719 " fill-opacity="1" fill-rule="nonzero"/><path fill="#253036" d="M 189.316406 144.261719 C 189.316406 143.191406 190.183594 142.324219 191.253906 142.324219 L 266.171875 142.324219 C 267.242188 142.324219 268.109375 143.191406 268.109375 144.261719 C 268.109375 145.332031 267.242188 146.199219 266.171875 146.199219 L 191.253906 146.199219 C 190.183594 146.199219 189.316406 145.332031 189.316406 144.261719 Z M 189.316406 144.261719 " fill-opacity="1" fill-rule="nonzero"/><path fill="#253036" d="M 189.316406 183.011719 C 189.316406 181.941406 190.183594 181.074219 191.253906 181.074219 L 266.171875 181.074219 C 267.242188 181.074219 268.109375 181.941406 268.109375 183.011719 C 268.109375 184.082031 267.242188 184.949219 266.171875 184.949219 L 191.253906 184.949219 C 190.183594 184.949219 189.316406 184.082031 189.316406 183.011719 Z M 189.316406 183.011719 " fill-opacity="1" fill-rule="nonzero"/><path fill="#253036" d="M 189.316406 116.167969 C 189.316406 114.921875 190.328125 113.910156 191.578125 113.910156 L 243.890625 113.910156 C 245.136719 113.910156 246.148438 114.921875 246.148438 116.167969 C 246.148438 117.417969 245.136719 118.429688 243.890625 118.429688 L 191.578125 118.429688 C 190.328125 118.429688 189.316406 117.417969 189.316406 116.167969 Z M 189.316406 116.167969 " fill-opacity="1" fill-rule="nonzero"/><path fill="#253036" d="M 189.316406 154.917969 C 189.316406 153.671875 190.328125 152.660156 191.578125 152.660156 L 243.890625 152.660156 C 245.136719 152.660156 246.148438 153.671875 246.148438 154.917969 C 246.148438 156.167969 245.136719 157.179688 243.890625 157.179688 L 191.578125 157.179688 C 190.328125 157.179688 189.316406 156.167969 189.316406 154.917969 Z M 189.316406 154.917969 " fill-opacity="1" fill-rule="nonzero"/><path fill="#253036" d="M 189.316406 193.667969 C 189.316406 192.417969 190.328125 191.40625 191.578125 191.40625 L 243.890625 191.40625 C 245.136719 191.40625 246.148438 192.417969 246.148438 193.667969 C 246.148438 194.917969 245.136719 195.929688 243.890625 195.929688 L 191.578125 195.929688 C 190.328125 195.929688 189.316406 194.917969 189.316406 193.667969 Z M 189.316406 193.667969 " fill-opacity="1" fill-rule="nonzero"/><g clip-path="url(#61bbdee6fa)"><path fill="#f2d6bd" d="M 144.753906 310.886719 L 193.867188 310.886719 L 193.867188 352.21875 L 144.753906 352.21875 Z M 144.753906 310.886719 " fill-opacity="1" fill-rule="nonzero"/></g><path fill="#f2f2f2" d="M 165.664062 310.886719 L 173.445312 310.886719 L 173.445312 331.792969 L 169.554688 329.363281 L 165.664062 331.792969 Z M 165.664062 310.886719 " fill-opacity="1" fill-rule="nonzero"/><g clip-path="url(#f475127df2)"><path fill="#f29727" d="M 207.96875 310.886719 L 193.867188 310.886719 L 193.867188 352.21875 L 207.96875 352.21875 Z M 207.96875 310.886719 " fill-opacity="1" fill-rule="nonzero"/></g><path fill="#f2f2f2" d="M 176.847656 347.113281 C 176.847656 346.441406 177.394531 345.894531 178.066406 345.894531 L 187.304688 345.894531 C 187.976562 345.894531 188.519531 346.441406 188.519531 347.113281 C 188.519531 347.78125 187.976562 348.328125 187.304688 348.328125 L 178.066406 348.328125 C 177.394531 348.328125 176.847656 347.78125 176.847656 347.113281 Z M 176.847656 347.113281 " fill-opacity="1" fill-rule="nonzero"/><g clip-path="url(#91988389e1)"><path fill="#f2d6bd" d="M 199.21875 310.886719 L 248.332031 310.886719 L 248.332031 352.21875 L 199.21875 352.21875 Z M 199.21875 310.886719 " fill-opacity="1" fill-rule="nonzero"/></g><path fill="#f2f2f2" d="M 220.128906 310.886719 L 227.90625 310.886719 L 227.90625 331.792969 L 224.019531 329.363281 L 220.128906 331.792969 Z M 220.128906 310.886719 " fill-opacity="1" fill-rule="nonzero"/><g clip-path="url(#8414fc4266)"><path fill="#f29727" d="M 262.433594 310.886719 L 248.332031 310.886719 L 248.332031 352.21875 L 262.433594 352.21875 Z M 262.433594 310.886719 " fill-opacity="1" fill-rule="nonzero"/></g><path fill="#f2f2f2" d="M 231.3125 347.113281 C 231.3125 346.441406 231.855469 345.894531 232.527344 345.894531 L 241.765625 345.894531 C 242.4375 345.894531 242.980469 346.441406 242.980469 347.113281 C 242.980469 347.78125 242.4375 348.328125 241.765625 348.328125 L 232.527344 348.328125 C 231.855469 348.328125 231.3125 347.78125 231.3125 347.113281 Z M 231.3125 347.113281 " fill-opacity="1" fill-rule="nonzero"/><g clip-path="url(#2acfe4648c)"><path fill="#f2d6bd" d="M 253.679688 310.886719 L 302.792969 310.886719 L 302.792969 352.21875 L 253.679688 352.21875 Z M 253.679688 310.886719 " fill-opacity="1" fill-rule="nonzero"/></g><path fill="#f2f2f2" d="M 274.589844 310.886719 L 282.367188 310.886719 L 282.367188 331.792969 L 278.480469 329.363281 L 274.589844 331.792969 Z M 274.589844 310.886719 " fill-opacity="1" fill-rule="nonzero"/><g clip-path="url(#39f309e515)"><path fill="#f29727" d="M 316.894531 310.886719 L 302.792969 310.886719 L 302.792969 352.21875 L 316.894531 352.21875 Z M 316.894531 310.886719 " fill-opacity="1" fill-rule="nonzero"/></g><path fill="#f2f2f2" d="M 285.773438 347.113281 C 285.773438 346.441406 286.316406 345.894531 286.988281 345.894531 L 296.226562 345.894531 C 296.898438 345.894531 297.441406 346.441406 297.441406 347.113281 C 297.441406 347.78125 296.898438 348.328125 296.226562 348.328125 L 286.988281 348.328125 C 286.316406 348.328125 285.773438 347.78125 285.773438 347.113281 Z M 285.773438 347.113281 " fill-opacity="1" fill-rule="nonzero"/><path fill="#f2d6bd" d="M 168.097656 269.550781 L 217.210938 269.550781 L 217.210938 310.886719 L 168.097656 310.886719 Z M 168.097656 269.550781 " fill-opacity="1" fill-rule="nonzero"/><path fill="#f2f2f2" d="M 189.007812 269.550781 L 196.789062 269.550781 L 196.789062 290.460938 L 192.898438 288.03125 L 189.007812 290.460938 Z M 189.007812 269.550781 " fill-opacity="1" fill-rule="nonzero"/><path fill="#f29727" d="M 231.3125 269.550781 L 217.210938 269.550781 L 217.210938 310.886719 L 231.3125 310.886719 Z M 231.3125 269.550781 " fill-opacity="1" fill-rule="nonzero"/><path fill="#f2f2f2" d="M 200.191406 305.777344 C 200.191406 305.109375 200.734375 304.5625 201.40625 304.5625 L 210.644531 304.5625 C 211.316406 304.5625 211.863281 305.109375 211.863281 305.777344 C 211.863281 306.449219 211.316406 306.996094 210.644531 306.996094 L 201.40625 306.996094 C 200.734375 306.996094 200.191406 306.449219 200.191406 305.777344 Z M 200.191406 305.777344 " fill-opacity="1" fill-rule="nonzero"/><path fill="#f2d6bd" d="M 199.742188 228.21875 L 248.855469 228.21875 L 248.855469 269.550781 L 199.742188 269.550781 Z M 199.742188 228.21875 " fill-opacity="1" fill-rule="nonzero"/><path fill="#f2f2f2" d="M 220.652344 228.21875 L 228.433594 228.21875 L 228.433594 249.128906 L 224.542969 246.699219 L 220.652344 249.128906 Z M 220.652344 228.21875 " fill-opacity="1" fill-rule="nonzero"/><path fill="#f29727" d="M 262.957031 228.21875 L 248.855469 228.21875 L 248.855469 269.550781 L 262.957031 269.550781 Z M 262.957031 228.21875 " fill-opacity="1" fill-rule="nonzero"/><path fill="#f2f2f2" d="M 231.835938 264.445312 C 231.835938 263.773438 232.382812 263.230469 233.050781 263.230469 L 242.292969 263.230469 C 242.960938 263.230469 243.507812 263.773438 243.507812 264.445312 C 243.507812 265.117188 242.960938 265.664062 242.292969 265.664062 L 233.050781 265.664062 C 232.382812 265.664062 231.835938 265.117188 231.835938 264.445312 Z M 231.835938 264.445312 " fill-opacity="1" fill-rule="nonzero"/><path fill="#f2d6bd" d="M 225.476562 269.550781 L 274.589844 269.550781 L 274.589844 310.886719 L 225.476562 310.886719 Z M 225.476562 269.550781 " fill-opacity="1" fill-rule="nonzero"/><path fill="#f2f2f2" d="M 246.386719 269.550781 L 254.164062 269.550781 L 254.164062 290.460938 L 250.277344 288.03125 L 246.386719 290.460938 Z M 246.386719 269.550781 " fill-opacity="1" fill-rule="nonzero"/><path fill="#f29727" d="M 288.691406 269.550781 L 274.589844 269.550781 L 274.589844 310.886719 L 288.691406 310.886719 Z M 288.691406 269.550781 " fill-opacity="1" fill-rule="nonzero"/><path fill="#f2f2f2" d="M 257.570312 305.777344 C 257.570312 305.109375 258.113281 304.5625 258.785156 304.5625 L 268.023438 304.5625 C 268.695312 304.5625 269.238281 305.109375 269.238281 305.777344 C 269.238281 306.449219 268.695312 306.996094 268.023438 306.996094 L 258.785156 306.996094 C 258.113281 306.996094 257.570312 306.449219 257.570312 305.777344 Z M 257.570312 305.777344 " fill-opacity="1" fill-rule="nonzero"/><path fill="#ffffff" d="M 83.742188 343.675781 C 85.457031 342.03125 85.613281 328.625 85.589844 328.324219 L 97.773438 327.515625 C 97.792969 327.820312 97.1875 339.121094 101.5625 340.644531 C 98.210938 345.027344 86.9375 344.265625 83.742188 343.675781 Z M 83.742188 343.675781 " fill-opacity="1" fill-rule="nonzero"/><g clip-path="url(#65a35b67f0)"><path fill="#f2d6bd" d="M 96.203125 335.964844 C 93.984375 336.90625 94.839844 338.027344 92.90625 339.972656 C 89.238281 343.660156 86.921875 336.855469 84.421875 339.054688 C 82.863281 340.425781 83.234375 347.503906 83.863281 351.035156 C 89.898438 351.882812 101.472656 352.628906 109.335938 352.511719 C 111.699219 352.476562 114.492188 352.542969 115.972656 350.707031 C 118.179688 347.972656 111.242188 343.976562 106.628906 341.996094 C 105.84375 341.4375 105.085938 340.867188 104.386719 340.332031 L 104.1875 340.179688 C 103.722656 339.820312 103.265625 339.453125 102.824219 339.097656 C 102.148438 338.550781 101.5 338.019531 100.878906 337.546875 C 99.136719 336.226562 97.597656 335.375 96.203125 335.964844 Z M 96.203125 335.964844 " fill-opacity="1" fill-rule="nonzero"/></g><path fill="#253036" d="M 98.292969 336.339844 C 97.566406 336.054688 96.925781 336.011719 96.328125 336.261719 C 95.800781 336.484375 95.480469 336.710938 95.253906 336.941406 C 95.03125 337.167969 94.886719 337.421875 94.738281 337.730469 C 94.699219 337.8125 94.660156 337.898438 94.621094 337.988281 C 94.351562 338.578125 94.015625 339.3125 93.136719 340.199219 C 92.167969 341.175781 91.242188 341.492188 90.351562 341.394531 C 89.488281 341.300781 88.714844 340.816406 88.039062 340.335938 C 87.871094 340.214844 87.71875 340.101562 87.570312 339.992188 C 87.398438 339.863281 87.230469 339.738281 87.050781 339.613281 C 86.734375 339.390625 86.4375 339.207031 86.15625 339.085938 C 85.875 338.964844 85.625 338.910156 85.386719 338.933594 C 85.152344 338.957031 84.902344 339.058594 84.632812 339.296875 C 84.5 339.414062 84.296875 339.402344 84.179688 339.269531 C 84.058594 339.132812 84.074219 338.929688 84.207031 338.8125 C 84.5625 338.5 84.933594 338.332031 85.320312 338.292969 C 85.703125 338.253906 86.066406 338.34375 86.414062 338.492188 C 86.757812 338.640625 87.09375 338.855469 87.421875 339.085938 C 87.59375 339.207031 87.78125 339.34375 87.96875 339.484375 C 88.121094 339.597656 88.273438 339.707031 88.414062 339.808594 C 89.085938 340.289062 89.738281 340.679688 90.421875 340.753906 C 91.074219 340.824219 91.8125 340.613281 92.679688 339.742188 C 93.472656 338.941406 93.765625 338.304688 94.03125 337.722656 C 94.074219 337.632812 94.113281 337.542969 94.15625 337.453125 C 94.316406 337.121094 94.492188 336.792969 94.792969 336.488281 C 95.09375 336.183594 95.492188 335.914062 96.078125 335.667969 C 96.875 335.328125 97.703125 335.414062 98.527344 335.738281 C 99.347656 336.058594 100.199219 336.625 101.074219 337.289062 C 101.601562 337.691406 102.148438 338.132812 102.710938 338.589844 C 102.816406 338.675781 102.921875 338.757812 103.027344 338.84375 C 103.46875 339.203125 103.921875 339.566406 104.386719 339.921875 L 104.585938 340.078125 C 105.273438 340.605469 106.015625 341.164062 106.789062 341.714844 C 109.101562 342.707031 112 344.210938 114.058594 345.816406 C 115.085938 346.617188 115.933594 347.46875 116.378906 348.324219 C 116.605469 348.75 116.730469 349.195312 116.71875 349.640625 C 116.703125 350.089844 116.542969 350.519531 116.226562 350.910156 C 116.113281 351.050781 115.910156 351.070312 115.769531 350.960938 C 115.632812 350.847656 115.609375 350.644531 115.722656 350.503906 C 115.957031 350.214844 116.0625 349.917969 116.074219 349.621094 C 116.082031 349.3125 115.996094 348.980469 115.808594 348.621094 C 115.425781 347.894531 114.664062 347.109375 113.660156 346.324219 C 111.683594 344.78125 108.875 343.320312 106.597656 342.335938 C 106 342.480469 105.128906 342.746094 104.34375 343.105469 C 103.925781 343.296875 103.546875 343.507812 103.246094 343.734375 C 102.941406 343.964844 102.742188 344.1875 102.660156 344.398438 C 102.59375 344.5625 102.402344 344.640625 102.238281 344.574219 C 102.074219 344.507812 101.992188 344.320312 102.0625 344.15625 C 102.210938 343.789062 102.507812 343.480469 102.855469 343.21875 C 103.207031 342.953125 103.632812 342.71875 104.074219 342.519531 C 104.679688 342.242188 105.332031 342.015625 105.882812 341.859375 C 105.359375 341.476562 104.855469 341.09375 104.375 340.730469 C 104.191406 340.835938 103.96875 340.9375 103.738281 341.039062 C 103.660156 341.074219 103.582031 341.109375 103.5 341.144531 C 103.214844 341.269531 102.914062 341.402344 102.609375 341.554688 C 102.21875 341.75 101.84375 341.964844 101.535156 342.210938 C 101.222656 342.460938 100.996094 342.726562 100.878906 343.015625 C 100.8125 343.179688 100.625 343.261719 100.460938 343.191406 C 100.292969 343.125 100.214844 342.9375 100.28125 342.773438 C 100.453125 342.34375 100.769531 341.996094 101.128906 341.707031 C 101.492188 341.417969 101.910156 341.179688 102.320312 340.976562 C 102.640625 340.816406 102.960938 340.675781 103.246094 340.550781 C 103.328125 340.515625 103.402344 340.480469 103.476562 340.449219 C 103.601562 340.394531 103.714844 340.34375 103.8125 340.296875 C 103.453125 340.015625 103.101562 339.734375 102.757812 339.460938 C 102.71875 339.472656 102.675781 339.484375 102.632812 339.496094 C 102.574219 339.515625 102.507812 339.53125 102.441406 339.550781 L 102.417969 339.558594 C 102.339844 339.582031 102.253906 339.605469 102.164062 339.628906 C 101.808594 339.734375 101.375 339.867188 100.9375 340.039062 C 100.5 340.207031 100.074219 340.410156 99.722656 340.652344 C 99.371094 340.894531 99.128906 341.15625 99.015625 341.429688 C 98.949219 341.597656 98.757812 341.675781 98.59375 341.609375 C 98.429688 341.542969 98.351562 341.351562 98.417969 341.1875 C 98.59375 340.746094 98.953125 340.398438 99.355469 340.121094 C 99.761719 339.839844 100.242188 339.617188 100.703125 339.433594 C 101.167969 339.253906 101.621094 339.113281 101.984375 339.007812 C 102.042969 338.992188 102.09375 338.976562 102.148438 338.964844 C 101.691406 338.59375 101.253906 338.242188 100.828125 337.914062 C 100.808594 337.921875 100.789062 337.925781 100.769531 337.933594 C 100.425781 338.066406 99.816406 338.300781 99.164062 338.621094 C 98.746094 338.828125 98.324219 339.066406 97.972656 339.320312 C 97.613281 339.578125 97.351562 339.835938 97.222656 340.082031 C 97.136719 340.238281 96.941406 340.296875 96.78125 340.210938 C 96.625 340.125 96.566406 339.929688 96.652344 339.773438 C 96.851562 339.402344 97.207031 339.074219 97.59375 338.796875 C 97.984375 338.511719 98.441406 338.257812 98.878906 338.042969 C 99.371094 337.800781 99.859375 337.597656 100.214844 337.457031 C 99.53125 336.964844 98.894531 336.574219 98.292969 336.339844 Z M 84.90625 346.503906 C 84.929688 346.328125 85.089844 346.203125 85.269531 346.222656 C 88.769531 346.667969 94.054688 347.207031 99.347656 347.5 C 104.644531 347.792969 109.929688 347.839844 113.445312 347.308594 C 113.621094 347.28125 113.785156 347.402344 113.8125 347.578125 C 113.835938 347.753906 113.714844 347.921875 113.539062 347.945312 C 109.953125 348.488281 104.613281 348.4375 99.3125 348.144531 C 94 347.851562 88.699219 347.308594 85.1875 346.863281 C 85.011719 346.84375 84.886719 346.679688 84.90625 346.503906 Z M 84.90625 346.503906 " fill-opacity="1" fill-rule="evenodd"/><path fill="#ffffff" d="M 47.574219 343.675781 C 49.292969 342.03125 49.445312 328.625 49.421875 328.320312 L 61.605469 327.515625 C 61.625 327.820312 61.019531 339.121094 65.398438 340.644531 C 62.042969 345.027344 50.769531 344.265625 47.574219 343.675781 Z M 47.574219 343.675781 " fill-opacity="1" fill-rule="nonzero"/><g clip-path="url(#2a79c73541)"><path fill="#f2d6bd" d="M 60.035156 335.964844 C 57.816406 336.90625 58.675781 338.027344 56.742188 339.972656 C 53.070312 343.660156 50.753906 336.855469 48.253906 339.054688 C 46.695312 340.425781 47.066406 347.503906 47.695312 351.035156 C 53.730469 351.882812 65.304688 352.628906 73.167969 352.511719 C 75.53125 352.476562 78.324219 352.542969 79.808594 350.707031 C 82.011719 347.972656 75.074219 343.976562 70.460938 341.996094 C 69.675781 341.4375 68.917969 340.867188 68.222656 340.332031 L 68.023438 340.179688 C 67.554688 339.820312 67.097656 339.453125 66.65625 339.097656 C 65.980469 338.550781 65.332031 338.019531 64.710938 337.546875 C 62.96875 336.226562 61.433594 335.375 60.035156 335.964844 Z M 60.035156 335.964844 " fill-opacity="1" fill-rule="nonzero"/></g><path fill="#253036" d="M 62.125 336.339844 C 61.402344 336.054688 60.757812 336.011719 60.164062 336.261719 C 59.636719 336.484375 59.3125 336.710938 59.089844 336.941406 C 58.863281 337.167969 58.71875 337.421875 58.574219 337.730469 C 58.535156 337.8125 58.496094 337.898438 58.453125 337.988281 C 58.183594 338.578125 57.851562 339.3125 56.96875 340.199219 C 56 341.175781 55.074219 341.492188 54.183594 341.394531 C 53.320312 341.300781 52.546875 340.816406 51.871094 340.335938 C 51.703125 340.214844 51.550781 340.101562 51.402344 339.992188 C 51.230469 339.863281 51.0625 339.738281 50.882812 339.613281 C 50.566406 339.390625 50.273438 339.207031 49.988281 339.085938 C 49.710938 338.964844 49.457031 338.910156 49.21875 338.933594 C 48.984375 338.957031 48.738281 339.058594 48.46875 339.296875 C 48.332031 339.414062 48.128906 339.402344 48.011719 339.269531 C 47.894531 339.132812 47.90625 338.929688 48.039062 338.8125 C 48.394531 338.5 48.765625 338.332031 49.152344 338.292969 C 49.535156 338.253906 49.902344 338.34375 50.246094 338.492188 C 50.589844 338.640625 50.929688 338.855469 51.253906 339.085938 C 51.425781 339.207031 51.617188 339.34375 51.800781 339.484375 C 51.953125 339.597656 52.105469 339.707031 52.246094 339.808594 C 52.917969 340.289062 53.570312 340.679688 54.253906 340.753906 C 54.90625 340.824219 55.648438 340.613281 56.511719 339.742188 C 57.308594 338.941406 57.601562 338.304688 57.863281 337.722656 C 57.90625 337.632812 57.949219 337.542969 57.988281 337.453125 C 58.148438 337.121094 58.328125 336.792969 58.625 336.488281 C 58.925781 336.183594 59.328125 335.914062 59.910156 335.667969 C 60.710938 335.328125 61.535156 335.414062 62.363281 335.738281 C 63.183594 336.058594 64.03125 336.625 64.90625 337.289062 C 65.433594 337.691406 65.980469 338.132812 66.542969 338.589844 C 66.648438 338.675781 66.753906 338.757812 66.859375 338.84375 C 67.300781 339.203125 67.753906 339.566406 68.21875 339.921875 L 68.417969 340.078125 C 69.105469 340.605469 69.851562 341.164062 70.621094 341.714844 C 72.933594 342.707031 75.832031 344.210938 77.890625 345.816406 C 78.917969 346.617188 79.769531 347.46875 80.210938 348.324219 C 80.4375 348.75 80.566406 349.195312 80.550781 349.640625 C 80.535156 350.089844 80.375 350.519531 80.058594 350.910156 C 79.945312 351.050781 79.742188 351.070312 79.605469 350.960938 C 79.464844 350.847656 79.445312 350.644531 79.554688 350.503906 C 79.792969 350.214844 79.894531 349.917969 79.90625 349.621094 C 79.914062 349.3125 79.828125 348.980469 79.640625 348.621094 C 79.261719 347.894531 78.5 347.109375 77.492188 346.324219 C 75.515625 344.78125 72.710938 343.320312 70.433594 342.335938 C 69.832031 342.480469 68.960938 342.746094 68.175781 343.105469 C 67.761719 343.296875 67.378906 343.507812 67.078125 343.734375 C 66.773438 343.964844 66.578125 344.1875 66.492188 344.398438 C 66.425781 344.5625 66.238281 344.640625 66.070312 344.574219 C 65.90625 344.507812 65.828125 344.320312 65.894531 344.15625 C 66.042969 343.789062 66.34375 343.480469 66.691406 343.21875 C 67.039062 342.953125 67.46875 342.71875 67.90625 342.519531 C 68.511719 342.242188 69.164062 342.015625 69.714844 341.859375 C 69.195312 341.476562 68.6875 341.09375 68.207031 340.730469 C 68.023438 340.835938 67.800781 340.9375 67.570312 341.039062 C 67.496094 341.074219 67.414062 341.109375 67.332031 341.144531 C 67.050781 341.269531 66.746094 341.402344 66.441406 341.554688 C 66.050781 341.75 65.675781 341.964844 65.367188 342.210938 C 65.058594 342.460938 64.832031 342.726562 64.714844 343.015625 C 64.648438 343.179688 64.457031 343.261719 64.292969 343.191406 C 64.128906 343.125 64.046875 342.9375 64.113281 342.773438 C 64.289062 342.34375 64.605469 341.996094 64.964844 341.707031 C 65.324219 341.417969 65.746094 341.179688 66.152344 340.976562 C 66.472656 340.816406 66.796875 340.675781 67.082031 340.550781 C 67.160156 340.515625 67.238281 340.480469 67.308594 340.449219 C 67.4375 340.394531 67.546875 340.34375 67.644531 340.296875 C 67.285156 340.015625 66.933594 339.734375 66.59375 339.460938 C 66.550781 339.472656 66.507812 339.484375 66.464844 339.496094 C 66.40625 339.515625 66.34375 339.53125 66.273438 339.550781 L 66.25 339.558594 C 66.171875 339.582031 66.089844 339.605469 66 339.628906 C 65.640625 339.734375 65.207031 339.867188 64.773438 340.039062 C 64.335938 340.207031 63.90625 340.410156 63.558594 340.652344 C 63.203125 340.894531 62.960938 341.15625 62.847656 341.429688 C 62.78125 341.597656 62.59375 341.675781 62.429688 341.609375 C 62.261719 341.542969 62.183594 341.351562 62.25 341.1875 C 62.429688 340.746094 62.789062 340.398438 63.191406 340.121094 C 63.597656 339.839844 64.074219 339.617188 64.535156 339.433594 C 65 339.253906 65.457031 339.113281 65.820312 339.007812 C 65.875 338.992188 65.929688 338.976562 65.980469 338.964844 C 65.527344 338.59375 65.085938 338.242188 64.660156 337.914062 C 64.644531 337.921875 64.625 337.925781 64.605469 337.933594 C 64.261719 338.066406 63.648438 338.300781 62.996094 338.621094 C 62.578125 338.828125 62.15625 339.066406 61.804688 339.320312 C 61.449219 339.578125 61.1875 339.835938 61.054688 340.082031 C 60.96875 340.238281 60.773438 340.296875 60.617188 340.210938 C 60.460938 340.125 60.402344 339.929688 60.484375 339.773438 C 60.6875 339.402344 61.039062 339.074219 61.425781 338.796875 C 61.820312 338.511719 62.273438 338.257812 62.710938 338.042969 C 63.203125 337.800781 63.691406 337.597656 64.050781 337.457031 C 63.363281 336.964844 62.726562 336.574219 62.125 336.339844 Z M 48.742188 346.503906 C 48.761719 346.328125 48.925781 346.203125 49.101562 346.222656 C 52.601562 346.667969 57.886719 347.207031 63.179688 347.5 C 68.480469 347.792969 73.761719 347.839844 77.277344 347.308594 C 77.453125 347.28125 77.617188 347.402344 77.644531 347.578125 C 77.671875 347.753906 77.550781 347.921875 77.375 347.945312 C 73.789062 348.488281 68.445312 348.4375 63.144531 348.144531 C 57.832031 347.851562 52.535156 347.308594 49.019531 346.863281 C 48.84375 346.84375 48.71875 346.679688 48.742188 346.503906 Z M 48.742188 346.503906 " fill-opacity="1" fill-rule="evenodd"/><path fill="#253036" d="M 53.621094 242.425781 C 52.328125 233.902344 56.3125 223.804688 58.464844 219.824219 C 65.890625 222.945312 84.683594 227.316406 97.859375 219.824219 C 100.550781 237.261719 103.421875 274.316406 103.421875 280.207031 C 103.421875 294.738281 101.164062 305.394531 97.933594 331.550781 C 92.765625 333.8125 88.355469 333.273438 84.695312 331.550781 C 85.984375 300.550781 84.046875 295.707031 86.953125 282.144531 C 85.875 276.960938 81.128906 257.570312 77.90625 244.242188 L 70.808594 281.5 L 62.089844 332.84375 C 56.148438 334.652344 51.21875 333.058594 48.851562 331.550781 C 50.464844 298.292969 47.558594 299.582031 52.050781 280.207031 C 53.359375 263.0625 54.351562 247.261719 53.621094 242.425781 Z M 53.621094 242.425781 " fill-opacity="1" fill-rule="nonzero"/><path fill="#f2f2f2" d="M 84.851562 234.777344 C 84.976562 234.90625 84.972656 235.109375 84.84375 235.234375 L 78.855469 240.972656 L 78.222656 244.304688 C 78.191406 244.480469 78.019531 244.59375 77.84375 244.5625 C 77.671875 244.527344 77.554688 244.359375 77.589844 244.183594 L 78.261719 240.652344 L 84.398438 234.765625 C 84.523438 234.644531 84.730469 234.648438 84.851562 234.777344 Z M 84.851562 234.777344 " fill-opacity="1" fill-rule="evenodd"/><path fill="#ffffff" d="M 81.445312 150.28125 C 86.453125 149.199219 87.976562 140.988281 88.113281 137.019531 C 88.511719 138.78125 91.648438 147.515625 98.117188 148.65625 C 97.988281 149.648438 97.867188 151.484375 98.058594 152.953125 C 98.199219 154.019531 98.308594 155.21875 97.652344 156.066406 C 93.515625 161.433594 85.292969 154.671875 81.445312 150.28125 Z M 81.445312 150.28125 " fill-opacity="1" fill-rule="nonzero"/><path fill="#ffffff" d="M 91.269531 131.097656 C 99.101562 131.472656 102.511719 126.3125 103.316406 123.484375 C 104.972656 124.246094 108.242188 126.675781 108.0625 130.300781 C 107.835938 134.835938 107.667969 148.386719 99.953125 148.769531 C 99.3125 148.800781 98.703125 148.757812 98.117188 148.65625 C 91.648438 147.515625 88.511719 138.78125 88.113281 137.019531 C 84.542969 134.601562 84.832031 130.449219 86.503906 129.234375 C 87.84375 128.261719 90.238281 130.070312 91.269531 131.097656 Z M 91.269531 131.097656 " fill-opacity="1" fill-rule="nonzero"/><path fill="#253036" d="M 99.59375 143.183594 C 99.4375 143.265625 99.375 143.460938 99.457031 143.617188 C 99.878906 144.445312 100.675781 144.671875 101.347656 144.648438 C 101.683594 144.636719 102.007812 144.566406 102.269531 144.464844 C 102.398438 144.414062 102.519531 144.355469 102.621094 144.289062 C 102.71875 144.226562 102.820312 144.144531 102.886719 144.042969 C 102.988281 143.894531 102.953125 143.695312 102.804688 143.59375 C 102.65625 143.492188 102.457031 143.53125 102.355469 143.675781 C 102.355469 143.675781 102.351562 143.683594 102.335938 143.695312 C 102.320312 143.710938 102.300781 143.726562 102.273438 143.746094 C 102.214844 143.78125 102.132812 143.824219 102.035156 143.863281 C 101.835938 143.9375 101.585938 143.996094 101.328125 144.003906 C 100.804688 144.023438 100.300781 143.851562 100.03125 143.324219 C 99.949219 143.164062 99.753906 143.101562 99.59375 143.183594 Z M 99.59375 143.183594 " fill-opacity="1" fill-rule="evenodd"/><path fill="#253036" d="M 88.546875 132.433594 C 88.175781 131.949219 87.707031 131.585938 87.402344 131.40625 L 87.726562 130.851562 C 88.097656 131.066406 88.628906 131.480469 89.058594 132.039062 C 89.488281 132.597656 89.828125 133.332031 89.753906 134.167969 L 89.109375 134.113281 C 89.167969 133.492188 88.914062 132.914062 88.546875 132.433594 Z M 91.109375 142.894531 C 92.738281 145.414062 95.074219 147.792969 98.175781 148.339844 L 98.0625 148.972656 C 94.695312 148.382812 92.230469 145.820312 90.570312 143.246094 C 88.90625 140.664062 88.003906 138.003906 87.796875 137.089844 L 88.425781 136.945312 C 88.621094 137.792969 89.488281 140.382812 91.109375 142.894531 Z M 91.109375 142.894531 " fill-opacity="1" fill-rule="evenodd"/><path fill="#253036" d="M 91.269531 131.097656 C 99.101562 131.472656 102.511719 126.3125 103.316406 123.484375 C 104.972656 124.246094 108.242188 126.675781 108.0625 130.300781 C 107.839844 134.835938 107.667969 148.386719 99.953125 148.769531 C 99.3125 148.800781 98.703125 148.757812 98.117188 148.65625 C 97.984375 149.6875 97.855469 151.628906 98.085938 153.125 C 100.515625 157.179688 103.015625 162.3125 104.070312 164.605469 C 104.546875 165.648438 104.796875 166.414062 105.359375 168.804688 L 111.109375 162.898438 C 113.566406 159.484375 112.199219 155.925781 110.328125 152.632812 C 108.394531 149.242188 110.988281 147.675781 112.605469 144.476562 C 114.222656 141.277344 112.375 138.144531 111.152344 135.730469 C 109.929688 133.3125 110.832031 130.742188 111.324219 124.523438 C 111.714844 119.550781 104.417969 116.148438 100.722656 115.066406 C 96.5 113.945312 87.210938 113.71875 83.859375 121.777344 C 81.207031 128.394531 83.539062 129.398438 78.074219 130.242188 C 71.367188 131.28125 76.890625 137.710938 72.183594 140.171875 C 69.414062 141.792969 65.726562 148.332031 70.808594 154.273438 L 81.445312 150.28125 C 86.453125 149.199219 87.976562 140.988281 88.113281 137.019531 C 84.542969 134.601562 84.832031 130.449219 86.503906 129.234375 C 87.84375 128.261719 90.242188 130.070312 91.269531 131.097656 Z M 91.269531 131.097656 " fill-opacity="1" fill-rule="nonzero"/><path fill="#253036" d="M 97.042969 131.714844 C 96.414062 132.402344 95.917969 133.433594 95.726562 134.644531 C 95.535156 135.855469 95.6875 136.988281 96.070312 137.835938 C 96.457031 138.6875 97.054688 139.21875 97.746094 139.328125 C 98.433594 139.4375 99.167969 139.117188 99.796875 138.425781 C 100.425781 137.738281 100.917969 136.707031 101.109375 135.496094 C 101.300781 134.285156 101.148438 133.152344 100.765625 132.304688 C 100.378906 131.453125 99.78125 130.921875 99.09375 130.8125 C 98.402344 130.703125 97.671875 131.023438 97.042969 131.714844 Z M 96.5625 131.28125 C 97.285156 130.488281 98.21875 130.019531 99.195312 130.175781 C 100.167969 130.328125 100.914062 131.0625 101.355469 132.039062 C 101.746094 132.90625 101.914062 133.992188 101.804688 135.144531 C 102.003906 135.117188 102.21875 135.105469 102.4375 135.117188 C 102.660156 135.132812 102.90625 135.175781 103.132812 135.277344 C 103.351562 134.296875 103.773438 133.441406 104.320312 132.824219 C 104.933594 132.128906 105.738281 131.707031 106.582031 131.839844 C 107.429688 131.972656 108.0625 132.625 108.433594 133.476562 C 108.804688 134.332031 108.933594 135.433594 108.75 136.582031 C 108.570312 137.730469 108.105469 138.738281 107.488281 139.441406 C 106.875 140.136719 106.070312 140.558594 105.222656 140.425781 C 104.394531 140.292969 103.765625 139.664062 103.394531 138.835938 C 103.039062 138.039062 102.894531 137.027344 103.019531 135.960938 C 102.886719 135.847656 102.675781 135.78125 102.398438 135.761719 C 102.160156 135.75 101.910156 135.773438 101.710938 135.8125 C 101.480469 137.039062 100.957031 138.109375 100.273438 138.859375 C 99.550781 139.652344 98.617188 140.117188 97.644531 139.964844 C 96.671875 139.8125 95.925781 139.078125 95.484375 138.101562 C 95.039062 137.121094 94.878906 135.859375 95.089844 134.542969 C 95.296875 133.226562 95.839844 132.074219 96.5625 131.28125 Z M 104.800781 133.253906 C 104.277344 133.847656 103.859375 134.734375 103.695312 135.78125 C 103.6875 135.820312 103.683594 135.859375 103.675781 135.898438 C 103.535156 136.917969 103.667969 137.867188 103.984375 138.570312 C 104.300781 139.277344 104.785156 139.703125 105.324219 139.785156 C 105.875 139.875 106.476562 139.609375 107.003906 139.011719 C 107.53125 138.417969 107.949219 137.527344 108.113281 136.480469 C 108.277344 135.4375 108.15625 134.460938 107.839844 133.734375 C 107.523438 133.003906 107.035156 132.566406 106.484375 132.476562 C 105.929688 132.390625 105.332031 132.65625 104.800781 133.253906 Z M 104.800781 133.253906 " fill-opacity="1" fill-rule="evenodd"/><path fill="#253036" d="M 100.15625 136.121094 C 100.0625 136.722656 99.660156 137.15625 99.261719 137.09375 C 98.863281 137.027344 98.617188 136.492188 98.710938 135.894531 C 98.804688 135.296875 99.207031 134.863281 99.605469 134.925781 C 100.003906 134.988281 100.25 135.523438 100.15625 136.121094 Z M 100.15625 136.121094 " fill-opacity="1" fill-rule="nonzero"/><path fill="#253036" d="M 106.621094 137.394531 C 106.527344 137.992188 106.125 138.425781 105.726562 138.363281 C 105.328125 138.300781 105.082031 137.761719 105.175781 137.164062 C 105.269531 136.566406 105.671875 136.132812 106.070312 136.195312 C 106.46875 136.257812 106.714844 136.792969 106.621094 137.394531 Z M 106.621094 137.394531 " fill-opacity="1" fill-rule="nonzero"/><path fill="#253036" d="M 95.902344 132.773438 L 91.183594 131.410156 L 91.359375 130.789062 L 96.082031 132.152344 Z M 95.902344 132.773438 " fill-opacity="1" fill-rule="evenodd"/><path fill="#f29727" d="M 82.109375 150.074219 C 94.058594 161.699219 97.214844 156.210938 98.183594 153.628906 C 105.933594 166.542969 109.003906 174.40625 101.414062 181.71875 C 97.28125 200.835938 100.550781 218.964844 101.414062 223.054688 C 95.472656 236.226562 66.96875 227.144531 56.203125 220.792969 C 57.820312 210.460938 65.457031 206.585938 63.199219 180.429688 C 61.648438 174.027344 61.101562 168.257812 62.664062 162.023438 C 64.277344 155.566406 71.453125 152.335938 82.109375 150.074219 Z M 82.109375 150.074219 " fill-opacity="1" fill-rule="nonzero"/><path fill="#253036" d="M 98.015625 153.351562 C 98.167969 153.257812 98.367188 153.308594 98.460938 153.460938 C 102.332031 159.914062 105.070312 165.15625 105.871094 169.71875 C 106.269531 172.007812 106.1875 174.136719 105.507812 176.164062 C 104.835938 178.167969 103.59375 180.050781 101.707031 181.882812 C 97.621094 200.898438 100.871094 218.917969 101.730469 222.988281 C 101.765625 223.160156 101.652344 223.332031 101.480469 223.367188 C 101.304688 223.40625 101.132812 223.292969 101.097656 223.121094 C 100.230469 219.011719 96.949219 200.835938 101.097656 181.652344 L 101.117188 181.554688 L 101.1875 181.488281 C 103.058594 179.6875 104.257812 177.867188 104.894531 175.960938 C 105.53125 174.050781 105.621094 172.035156 105.234375 169.832031 C 104.457031 165.402344 101.785156 160.257812 97.90625 153.792969 C 97.8125 153.640625 97.863281 153.441406 98.015625 153.351562 Z M 98.015625 153.351562 " fill-opacity="1" fill-rule="evenodd"/><path fill="#253036" d="M 101.089844 169.773438 L 102.703125 168.15625 C 104.195312 170.300781 107.019531 174.34375 107.921875 175.5625 L 106.902344 176.554688 Z M 101.089844 169.773438 " fill-opacity="1" fill-rule="nonzero"/><path fill="#ffffff" d="M 116.910156 193.667969 C 115.105469 194.703125 104.558594 195.820312 99.515625 196.25 C 99.59375 194.773438 99.707031 193.261719 99.855469 191.730469 L 115.941406 191.40625 C 115.082031 190.871094 113.425781 189.597656 113.683594 188.824219 C 113.941406 188.050781 115.941406 189.363281 116.910156 190.117188 C 115.835938 188.714844 113.941406 185.855469 114.972656 185.59375 C 116.007812 185.335938 117.773438 187.640625 118.527344 188.824219 C 117.773438 187.425781 116.460938 184.625 117.234375 184.625 C 118.101562 184.625 119.320312 186.964844 119.714844 187.910156 C 119.578125 187.496094 119.371094 186.65625 119.171875 185.273438 C 118.847656 183.011719 121.109375 185.273438 122.078125 187.53125 C 123.046875 189.792969 119.171875 192.375 116.910156 193.667969 Z M 116.910156 193.667969 " fill-opacity="1" fill-rule="nonzero"/><path fill="#ffffff" d="M 101.089844 186.5625 C 80.101562 193.667969 75.902344 198.1875 71.703125 197.542969 C 69.382812 197.1875 67.722656 191.957031 67.035156 188.5 L 75.578125 185.59375 C 86.234375 181.074219 89.464844 182.367188 102.058594 180.105469 C 102.597656 179.03125 103.996094 176.8125 105.285156 176.554688 C 106.578125 176.296875 109.484375 174.722656 110.453125 175.261719 C 115.941406 177.84375 109.097656 186.5625 101.089844 186.5625 Z M 101.089844 186.5625 " fill-opacity="1" fill-rule="nonzero"/><path fill="#253036" d="M 109.160156 197.867188 L 96.570312 191.730469 L 128.214844 162.34375 L 135.964844 176.875 Z M 109.160156 197.867188 " fill-opacity="1" fill-rule="nonzero"/><path fill="#ffffff" d="M 122.078125 187.53125 C 123.046875 189.792969 119.171875 192.375 116.910156 193.667969 L 115.941406 191.40625 C 115.082031 190.871094 113.425781 189.597656 113.683594 188.824219 C 113.941406 188.050781 115.941406 189.363281 116.910156 190.117188 C 115.835938 188.714844 113.941406 185.855469 114.972656 185.59375 C 116.007812 185.335938 117.773438 187.640625 118.527344 188.824219 C 117.773438 187.425781 116.460938 184.625 117.234375 184.625 C 118.101562 184.625 119.320312 186.964844 119.714844 187.910156 C 119.578125 187.496094 119.371094 186.65625 119.171875 185.273438 C 118.847656 183.011719 121.109375 185.273438 122.078125 187.53125 Z M 122.078125 187.53125 " fill-opacity="1" fill-rule="nonzero"/><path fill="#253036" d="M 73.148438 166.269531 C 73.300781 166.175781 73.5 166.222656 73.59375 166.375 C 76.597656 171.253906 78.867188 177.425781 80.164062 183.265625 L 80.210938 183.46875 L 80.042969 183.59375 C 78.453125 184.785156 75.546875 186.117188 72.710938 187.171875 C 69.875 188.230469 67.042969 189.035156 65.59375 189.148438 L 65.335938 189.164062 L 65.261719 188.917969 C 64.3125 185.839844 63.464844 182.953125 62.804688 180.179688 C 62.765625 180.007812 62.871094 179.832031 63.046875 179.792969 C 63.21875 179.75 63.394531 179.859375 63.433594 180.03125 C 64.070312 182.707031 64.882812 185.492188 65.800781 188.476562 C 67.222656 188.304688 69.820312 187.558594 72.484375 186.566406 C 75.210938 185.550781 77.945312 184.300781 79.488281 183.199219 C 78.195312 177.476562 75.964844 171.460938 73.042969 166.710938 C 72.949219 166.5625 73 166.363281 73.148438 166.269531 Z M 73.148438 166.269531 " fill-opacity="1" fill-rule="evenodd"/></svg>