<svg xmlns="http://www.w3.org/2000/svg" xmlns:xlink="http://www.w3.org/1999/xlink" width="500" zoomAndPan="magnify" viewBox="0 0 375 374.999991" height="500" preserveAspectRatio="xMidYMid meet" version="1.0"><defs><clipPath id="c3baaa61ab"><path d="M 196.300781 46.246094 L 260 46.246094 L 260 109.996094 L 196.300781 109.996094 Z M 196.300781 46.246094 " clip-rule="nonzero"/></clipPath></defs><path fill="#253036" d="M 118.46875 35.273438 C 118.46875 31.023438 121.914062 27.578125 126.167969 27.578125 L 280.089844 27.578125 C 284.339844 27.578125 287.785156 31.023438 287.785156 35.273438 L 287.785156 247.5625 C 287.785156 251.8125 284.339844 255.257812 280.089844 255.257812 L 126.167969 255.257812 C 121.914062 255.257812 118.46875 251.8125 118.46875 247.5625 Z M 118.46875 35.273438 " fill-opacity="1" fill-rule="nonzero"/><path fill="#f2d6bd" d="M 124.882812 39.121094 C 124.882812 37.351562 126.320312 35.914062 128.089844 35.914062 L 278.167969 35.914062 C 279.9375 35.914062 281.371094 37.351562 281.371094 39.121094 L 281.371094 239.222656 C 281.371094 240.996094 279.9375 242.429688 278.167969 242.429688 L 128.089844 242.429688 C 126.320312 242.429688 124.882812 240.996094 124.882812 239.222656 Z M 124.882812 39.121094 " fill-opacity="1" fill-rule="nonzero"/><path fill="#f2d6bd" d="M 255.078125 281.925781 C 255.078125 292.34375 246.65625 300.792969 236.265625 300.792969 L 150.109375 300.792969 C 139.71875 300.792969 131.296875 292.34375 131.296875 281.925781 L 131.296875 275.632812 L 155.5625 275.632812 L 155.289062 157.773438 L 255.078125 157.773438 Z M 255.078125 281.925781 " fill-opacity="1" fill-rule="nonzero"/><path fill="#253036" d="M 154.96875 157.453125 L 255.398438 157.453125 L 255.398438 281.925781 C 255.398438 292.523438 246.832031 301.113281 236.265625 301.113281 L 150.109375 301.113281 C 139.542969 301.113281 130.976562 292.523438 130.976562 281.925781 L 130.976562 275.3125 L 155.242188 275.3125 Z M 155.882812 275.3125 L 217.773438 275.3125 L 217.773438 281.925781 C 217.773438 292.167969 226.054688 300.472656 236.265625 300.472656 C 246.476562 300.472656 254.757812 292.167969 254.757812 281.925781 L 254.757812 158.09375 L 155.609375 158.09375 Z M 231.339844 300.472656 C 223.160156 298.292969 217.132812 290.8125 217.132812 281.925781 L 217.132812 275.953125 L 131.617188 275.953125 L 131.617188 281.925781 C 131.617188 292.167969 139.898438 300.472656 150.109375 300.472656 Z M 231.339844 300.472656 " fill-opacity="1" fill-rule="evenodd"/><path fill="#253036" d="M 131.296875 275.3125 L 217.773438 275.3125 L 217.773438 281.925781 C 217.773438 292.167969 226.054688 300.472656 236.265625 300.472656 L 236.265625 301.113281 C 225.695312 301.113281 217.132812 292.523438 217.132812 281.925781 L 217.132812 275.953125 L 131.296875 275.953125 Z M 131.296875 275.3125 " fill-opacity="1" fill-rule="evenodd"/><path fill="#f29727" d="M 138.351562 156.488281 C 138.351562 154.71875 139.789062 153.28125 141.558594 153.28125 L 264.699219 153.28125 C 266.46875 153.28125 267.90625 154.71875 267.90625 156.488281 L 267.90625 158.414062 C 267.90625 160.183594 266.46875 161.621094 264.699219 161.621094 L 141.558594 161.621094 C 139.789062 161.621094 138.351562 160.183594 138.351562 158.414062 Z M 138.351562 156.488281 " fill-opacity="1" fill-rule="nonzero"/><path fill="#f29727" d="M 166.570312 168.675781 L 180.039062 168.675781 L 180.039062 182.144531 L 166.570312 182.144531 Z M 166.570312 168.675781 " fill-opacity="1" fill-rule="nonzero"/><path fill="#f29727" d="M 166.570312 194.328125 L 180.039062 194.328125 L 180.039062 207.796875 L 166.570312 207.796875 Z M 166.570312 194.328125 " fill-opacity="1" fill-rule="nonzero"/><path fill="#f29727" d="M 166.570312 219.984375 L 180.039062 219.984375 L 180.039062 233.453125 L 166.570312 233.453125 Z M 166.570312 219.984375 " fill-opacity="1" fill-rule="nonzero"/><path fill="#f29727" d="M 166.570312 245.636719 L 180.039062 245.636719 L 180.039062 259.105469 L 166.570312 259.105469 Z M 166.570312 245.636719 " fill-opacity="1" fill-rule="nonzero"/><path fill="#f2d6bd" d="M 182.804688 78.84375 L 184.09375 78.597656 L 184.871094 82.675781 L 228.371094 83.832031 C 228.902344 83.84375 229.355469 84.210938 229.484375 84.726562 L 229.886719 86.324219 C 229.929688 86.496094 229.933594 86.675781 229.894531 86.851562 L 226.027344 105.554688 C 225.960938 105.867188 225.769531 106.140625 225.5 106.3125 L 223.324219 107.6875 C 223.132812 107.808594 222.914062 107.871094 222.691406 107.871094 L 189.671875 107.871094 L 191.226562 116.042969 C 191.296875 116.40625 191.613281 116.667969 191.984375 116.667969 L 221.792969 116.667969 C 222.15625 116.667969 222.449219 116.964844 222.449219 117.324219 " fill-opacity="1" fill-rule="evenodd"/><path fill="#253036" d="M 194.347656 125.597656 C 194.347656 128.355469 192.113281 130.589844 189.359375 130.589844 C 186.601562 130.589844 184.367188 128.355469 184.367188 125.597656 C 184.367188 122.84375 186.601562 120.609375 189.359375 120.609375 C 192.113281 120.609375 194.347656 122.84375 194.347656 125.597656 Z M 194.347656 125.597656 " fill-opacity="1" fill-rule="nonzero"/><path fill="#253036" d="M 194.347656 125.597656 C 194.347656 128.355469 192.113281 130.589844 189.359375 130.589844 C 186.601562 130.589844 184.367188 128.355469 184.367188 125.597656 C 184.367188 122.84375 186.601562 120.609375 189.359375 120.609375 C 192.113281 120.609375 194.347656 122.84375 194.347656 125.597656 Z M 194.347656 125.597656 " fill-opacity="1" fill-rule="nonzero"/><path fill="#253036" d="M 226.652344 125.597656 C 226.652344 128.355469 224.417969 130.589844 221.660156 130.589844 C 218.90625 130.589844 216.671875 128.355469 216.671875 125.597656 C 216.671875 122.84375 218.90625 120.609375 221.660156 120.609375 C 224.417969 120.609375 226.652344 122.84375 226.652344 125.597656 Z M 226.652344 125.597656 " fill-opacity="1" fill-rule="nonzero"/><path fill="#f2d6bd" d="M 192.773438 125.597656 C 192.773438 127.484375 191.242188 129.011719 189.359375 129.011719 C 187.472656 129.011719 185.945312 127.484375 185.945312 125.597656 C 185.945312 123.714844 187.472656 122.183594 189.359375 122.183594 C 191.242188 122.183594 192.773438 123.714844 192.773438 125.597656 Z M 192.773438 125.597656 " fill-opacity="1" fill-rule="nonzero"/><path fill="#f2d6bd" d="M 192.773438 125.597656 C 192.773438 127.484375 191.242188 129.011719 189.359375 129.011719 C 187.472656 129.011719 185.945312 127.484375 185.945312 125.597656 C 185.945312 123.714844 187.472656 122.183594 189.359375 122.183594 C 191.242188 122.183594 192.773438 123.714844 192.773438 125.597656 Z M 192.773438 125.597656 " fill-opacity="1" fill-rule="nonzero"/><path fill="#f2d6bd" d="M 225.074219 125.597656 C 225.074219 127.484375 223.546875 129.011719 221.660156 129.011719 C 219.777344 129.011719 218.246094 127.484375 218.246094 125.597656 C 218.246094 123.714844 219.777344 122.183594 221.660156 122.183594 C 223.546875 122.183594 225.074219 123.714844 225.074219 125.597656 Z M 225.074219 125.597656 " fill-opacity="1" fill-rule="nonzero"/><path fill="#f2d6bd" d="M 171.027344 74.273438 C 170.5 74.027344 170.273438 73.402344 170.519531 72.875 L 171.320312 71.15625 C 171.566406 70.628906 172.191406 70.402344 172.714844 70.648438 L 186.59375 77.117188 C 186.722656 77.179688 186.78125 77.335938 186.71875 77.464844 L 185.25 80.613281 C 185.191406 80.746094 185.035156 80.804688 184.902344 80.742188 Z M 171.027344 74.273438 " fill-opacity="1" fill-rule="nonzero"/><path fill="#f2d6bd" d="M 226.554688 91.453125 C 226.773438 90.425781 227.785156 89.769531 228.8125 89.988281 C 229.839844 90.207031 230.496094 91.214844 230.277344 92.242188 L 228.753906 99.421875 C 228.535156 100.449219 227.523438 101.105469 226.496094 100.886719 C 225.46875 100.667969 224.8125 99.65625 225.03125 98.628906 Z M 226.554688 91.453125 " fill-opacity="1" fill-rule="nonzero"/><path fill="#f29727" d="M 185.171875 173.804688 C 185.171875 173.097656 185.746094 172.523438 186.453125 172.523438 L 244.496094 172.523438 C 245.203125 172.523438 245.777344 173.097656 245.777344 173.804688 C 245.777344 174.515625 245.203125 175.089844 244.496094 175.089844 L 186.453125 175.089844 C 185.746094 175.089844 185.171875 174.515625 185.171875 173.804688 Z M 185.171875 182.144531 C 185.171875 181.433594 185.746094 180.859375 186.453125 180.859375 L 231.667969 180.859375 C 232.375 180.859375 232.949219 181.433594 232.949219 182.144531 C 232.949219 182.851562 232.375 183.425781 231.667969 183.425781 L 186.453125 183.425781 C 185.746094 183.425781 185.171875 182.851562 185.171875 182.144531 Z M 185.171875 182.144531 " fill-opacity="1" fill-rule="evenodd"/><path fill="#f29727" d="M 185.171875 199.460938 C 185.171875 198.75 185.746094 198.175781 186.453125 198.175781 L 244.496094 198.175781 C 245.203125 198.175781 245.777344 198.75 245.777344 199.460938 C 245.777344 200.167969 245.203125 200.742188 244.496094 200.742188 L 186.453125 200.742188 C 185.746094 200.742188 185.171875 200.167969 185.171875 199.460938 Z M 185.171875 207.796875 C 185.171875 207.089844 185.746094 206.515625 186.453125 206.515625 L 231.667969 206.515625 C 232.375 206.515625 232.949219 207.089844 232.949219 207.796875 C 232.949219 208.507812 232.375 209.078125 231.667969 209.078125 L 186.453125 209.078125 C 185.746094 209.078125 185.171875 208.507812 185.171875 207.796875 Z M 185.171875 207.796875 " fill-opacity="1" fill-rule="evenodd"/><path fill="#f29727" d="M 185.171875 225.113281 C 185.171875 224.40625 185.746094 223.832031 186.453125 223.832031 L 244.496094 223.832031 C 245.203125 223.832031 245.777344 224.40625 245.777344 225.113281 C 245.777344 225.824219 245.203125 226.394531 244.496094 226.394531 L 186.453125 226.394531 C 185.746094 226.394531 185.171875 225.824219 185.171875 225.113281 Z M 185.171875 233.453125 C 185.171875 232.742188 185.746094 232.167969 186.453125 232.167969 L 231.667969 232.167969 C 232.375 232.167969 232.949219 232.742188 232.949219 233.453125 C 232.949219 234.160156 232.375 234.734375 231.667969 234.734375 L 186.453125 234.734375 C 185.746094 234.734375 185.171875 234.160156 185.171875 233.453125 Z M 185.171875 233.453125 " fill-opacity="1" fill-rule="evenodd"/><path fill="#f29727" d="M 185.171875 250.769531 C 185.171875 250.058594 185.746094 249.484375 186.453125 249.484375 L 244.496094 249.484375 C 245.203125 249.484375 245.777344 250.058594 245.777344 250.769531 C 245.777344 251.476562 245.203125 252.050781 244.496094 252.050781 L 186.453125 252.050781 C 185.746094 252.050781 185.171875 251.476562 185.171875 250.769531 Z M 185.171875 259.105469 C 185.171875 258.398438 185.746094 257.824219 186.453125 257.824219 L 231.667969 257.824219 C 232.375 257.824219 232.949219 258.398438 232.949219 259.105469 C 232.949219 259.8125 232.375 260.386719 231.667969 260.386719 L 186.453125 260.386719 C 185.746094 260.386719 185.171875 259.8125 185.171875 259.105469 Z M 185.171875 259.105469 " fill-opacity="1" fill-rule="evenodd"/><path fill="#f2d6bd" d="M 179.207031 171.425781 C 179.460938 171.671875 179.460938 172.078125 179.214844 172.332031 L 171.832031 179.84375 L 168.6875 176.773438 C 168.433594 176.527344 168.429688 176.121094 168.675781 175.867188 C 168.925781 175.613281 169.332031 175.609375 169.585938 175.859375 L 171.8125 178.03125 L 178.300781 171.433594 C 178.546875 171.179688 178.953125 171.175781 179.207031 171.425781 Z M 179.207031 171.425781 " fill-opacity="1" fill-rule="evenodd"/><path fill="#f2d6bd" d="M 179.207031 197.078125 C 179.460938 197.328125 179.460938 197.734375 179.214844 197.984375 L 171.832031 205.496094 L 168.6875 202.429688 C 168.433594 202.183594 168.429688 201.777344 168.675781 201.523438 C 168.925781 201.269531 169.332031 201.265625 169.585938 201.511719 L 171.8125 203.683594 L 178.300781 197.085938 C 178.546875 196.832031 178.953125 196.832031 179.207031 197.078125 Z M 179.207031 197.078125 " fill-opacity="1" fill-rule="evenodd"/><path fill="#f2d6bd" d="M 179.207031 222.734375 C 179.460938 222.980469 179.460938 223.386719 179.214844 223.640625 L 171.832031 231.148438 L 168.6875 228.082031 C 168.433594 227.835938 168.429688 227.429688 168.675781 227.175781 C 168.925781 226.921875 169.332031 226.917969 169.585938 227.164062 L 171.8125 229.339844 L 178.300781 222.738281 C 178.546875 222.488281 178.953125 222.484375 179.207031 222.734375 Z M 179.207031 222.734375 " fill-opacity="1" fill-rule="evenodd"/><path fill="#f2d6bd" d="M 179.207031 248.386719 C 179.460938 248.632812 179.460938 249.039062 179.214844 249.292969 L 171.832031 256.804688 L 168.6875 253.738281 C 168.433594 253.488281 168.429688 253.082031 168.675781 252.832031 C 168.925781 252.578125 169.332031 252.570312 169.585938 252.820312 L 171.8125 254.992188 L 178.300781 248.394531 C 178.546875 248.140625 178.953125 248.136719 179.207031 248.386719 Z M 179.207031 248.386719 " fill-opacity="1" fill-rule="evenodd"/><path fill="#253036" d="M 133.863281 46.300781 C 133.863281 45.523438 134.492188 44.894531 135.265625 44.894531 L 152.125 44.894531 C 152.902344 44.894531 153.53125 45.523438 153.53125 46.300781 C 153.53125 47.074219 152.902344 47.703125 152.125 47.703125 L 135.265625 47.703125 C 134.492188 47.703125 133.863281 47.074219 133.863281 46.300781 Z M 133.863281 46.300781 " fill-opacity="1" fill-rule="nonzero"/><path fill="#253036" d="M 133.863281 51.917969 C 133.863281 51.144531 134.492188 50.515625 135.265625 50.515625 L 152.125 50.515625 C 152.902344 50.515625 153.53125 51.144531 153.53125 51.917969 C 153.53125 52.695312 152.902344 53.324219 152.125 53.324219 L 135.265625 53.324219 C 134.492188 53.324219 133.863281 52.695312 133.863281 51.917969 Z M 133.863281 51.917969 " fill-opacity="1" fill-rule="nonzero"/><path fill="#253036" d="M 133.863281 57.539062 C 133.863281 56.761719 134.492188 56.132812 135.265625 56.132812 L 146.507812 56.132812 C 147.28125 56.132812 147.910156 56.761719 147.910156 57.539062 C 147.910156 58.3125 147.28125 58.941406 146.507812 58.941406 L 135.265625 58.941406 C 134.492188 58.941406 133.863281 58.3125 133.863281 57.539062 Z M 133.863281 57.539062 " fill-opacity="1" fill-rule="nonzero"/><path fill="#253036" d="M 160.558594 52.617188 C 160.949219 53.007812 160.949219 53.640625 160.558594 54.03125 L 153.53125 61.058594 L 150.011719 57.542969 C 149.621094 57.152344 149.621094 56.519531 150.011719 56.128906 C 150.402344 55.738281 151.035156 55.738281 151.429688 56.128906 L 153.53125 58.230469 L 159.144531 52.617188 C 159.535156 52.226562 160.167969 52.226562 160.558594 52.617188 Z M 160.558594 52.617188 " fill-opacity="1" fill-rule="evenodd"/><path fill="#f29727" d="M 51.59375 82.414062 C 70.511719 94.277344 69.871094 84.980469 70.191406 83.695312 L 76.605469 86.582031 C 78.851562 87.542969 83.660156 90.429688 87.1875 111.914062 C 86.773438 112.414062 85.539062 113.292969 83.453125 113.667969 C 83.082031 115.09375 82.425781 116.359375 81.417969 117.367188 C 75.644531 123.140625 81.097656 142.058594 83.660156 163.542969 C 70.320312 174.832031 49.457031 159.484375 39.730469 154.246094 C 43.453125 149.027344 44.875 129.769531 43.992188 118.460938 C 42.464844 118.773438 40.984375 118.902344 39.730469 118.96875 C 37.589844 111.488281 33.765625 95.5625 35.558594 91.714844 C 37.355469 87.863281 46.996094 83.910156 51.59375 82.414062 Z M 51.59375 82.414062 " fill-opacity="1" fill-rule="nonzero"/><path fill="#fcbfbc" d="M 54.902344 270.980469 C 57.265625 270.359375 62.238281 258.199219 64.671875 255.191406 L 76.292969 260.613281 C 76.160156 260.894531 67.128906 272.886719 70.304688 276.4375 C 65.105469 278.707031 57.480469 273.101562 54.902344 270.980469 Z M 54.902344 270.980469 " fill-opacity="1" fill-rule="nonzero"/><path fill="#192e3a" d="M 69.933594 270.203125 C 67.46875 269.941406 67.679688 271.375 64.972656 272.160156 C 59.839844 273.648438 61.144531 266.375 57.800781 267.105469 C 55.71875 267.5625 52.527344 274.109375 51.332031 277.597656 C 56.332031 281.367188 66.363281 287.804688 73.492188 291.617188 C 75.632812 292.765625 78.113281 294.214844 80.359375 293.304688 C 83.703125 291.945312 79.457031 284.894531 76.296875 280.816406 C 75.871094 279.925781 75.472656 279.035156 75.113281 278.207031 L 75.011719 277.96875 C 74.769531 277.410156 74.542969 276.855469 74.324219 276.3125 C 73.988281 275.484375 73.671875 274.6875 73.347656 273.953125 C 72.441406 271.894531 71.480469 270.367188 69.933594 270.203125 Z M 69.933594 270.203125 " fill-opacity="1" fill-rule="nonzero"/><path fill="#253036" d="M 71.632812 271.574219 C 71.121094 270.953125 70.5625 270.589844 69.898438 270.519531 C 69.3125 270.457031 68.910156 270.5 68.589844 270.59375 C 68.273438 270.6875 68.015625 270.84375 67.730469 271.050781 C 67.65625 271.105469 67.578125 271.160156 67.496094 271.222656 C 66.960938 271.617188 66.292969 272.113281 65.0625 272.46875 C 63.707031 272.859375 62.71875 272.6875 61.972656 272.15625 C 61.246094 271.644531 60.792969 270.828125 60.425781 270.054688 C 60.335938 269.863281 60.253906 269.6875 60.175781 269.515625 C 60.085938 269.3125 59.996094 269.121094 59.898438 268.917969 C 59.722656 268.558594 59.550781 268.246094 59.355469 267.992188 C 59.164062 267.742188 58.960938 267.570312 58.734375 267.46875 C 58.507812 267.375 58.234375 267.339844 57.871094 267.421875 L 57.734375 266.792969 C 58.207031 266.691406 58.621094 266.726562 58.984375 266.882812 C 59.347656 267.035156 59.628906 267.296875 59.863281 267.601562 C 60.097656 267.90625 60.292969 268.265625 60.476562 268.636719 C 60.570312 268.832031 60.667969 269.046875 60.765625 269.265625 C 60.847656 269.441406 60.929688 269.617188 61.003906 269.78125 C 61.371094 270.546875 61.765625 271.226562 62.339844 271.632812 C 62.894531 272.027344 63.671875 272.203125 64.882812 271.851562 C 66 271.527344 66.582031 271.097656 67.109375 270.707031 C 67.195312 270.648438 67.277344 270.585938 67.359375 270.527344 C 67.664062 270.308594 67.988281 270.105469 68.40625 269.980469 C 68.828125 269.855469 69.320312 269.816406 69.964844 269.882812 C 70.847656 269.976562 71.546875 270.460938 72.128906 271.164062 C 72.703125 271.859375 73.183594 272.789062 73.640625 273.824219 C 73.914062 274.445312 74.183594 275.117188 74.464844 275.804688 C 74.515625 275.933594 74.566406 276.0625 74.621094 276.195312 C 74.839844 276.738281 75.066406 277.289062 75.304688 277.839844 L 75.40625 278.078125 M 74.628906 277.894531 C 74.441406 277.460938 74.265625 277.023438 74.089844 276.597656 C 74.046875 276.589844 74 276.578125 73.953125 276.570312 C 73.894531 276.554688 73.824219 276.539062 73.753906 276.523438 L 73.730469 276.515625 C 73.648438 276.496094 73.5625 276.476562 73.46875 276.457031 C 73.09375 276.371094 72.636719 276.273438 72.160156 276.210938 C 71.683594 276.144531 71.195312 276.113281 70.761719 276.15625 C 70.320312 276.199219 69.96875 276.3125 69.730469 276.507812 L 69.328125 276.007812 C 69.703125 275.703125 70.199219 275.566406 70.699219 275.519531 C 71.203125 275.46875 71.742188 275.507812 72.246094 275.574219 C 72.753906 275.640625 73.230469 275.742188 73.609375 275.832031 C 73.675781 275.847656 73.738281 275.859375 73.800781 275.875 C 73.570312 275.304688 73.347656 274.761719 73.125 274.246094 C 73.105469 274.242188 73.082031 274.242188 73.058594 274.238281 C 72.683594 274.183594 72.015625 274.089844 71.269531 274.054688 C 70.789062 274.03125 70.292969 274.03125 69.851562 274.085938 C 69.398438 274.140625 69.035156 274.242188 68.789062 274.398438 L 68.445312 273.859375 C 68.808594 273.625 69.285156 273.507812 69.773438 273.449219 C 70.265625 273.390625 70.800781 273.390625 71.300781 273.414062 C 71.871094 273.441406 72.421875 273.503906 72.8125 273.554688 C 72.441406 272.761719 72.058594 272.085938 71.632812 271.574219 M 74.910156 278.542969 C 74.691406 278.546875 74.4375 278.527344 74.179688 278.507812 C 74.089844 278.5 74.003906 278.488281 73.910156 278.480469 C 73.59375 278.453125 73.253906 278.421875 72.90625 278.40625 C 72.457031 278.386719 72.011719 278.394531 71.609375 278.460938 C 71.207031 278.53125 70.867188 278.65625 70.617188 278.859375 L 70.214844 278.359375 C 70.582031 278.066406 71.035156 277.910156 71.5 277.828125 C 71.96875 277.75 72.464844 277.746094 72.933594 277.765625 C 73.300781 277.78125 73.660156 277.816406 73.980469 277.84375 C 74.066406 277.851562 74.152344 277.859375 74.234375 277.867188 C 74.382812 277.878906 74.515625 277.890625 74.628906 277.894531 M 74.910156 278.542969 C 75.164062 279.121094 75.433594 279.726562 75.71875 280.335938 C 75.136719 280.203125 74.433594 280.078125 73.742188 280.023438 C 73.246094 279.988281 72.746094 279.984375 72.300781 280.046875 C 71.859375 280.109375 71.4375 280.238281 71.125 280.492188 L 71.527344 280.988281 C 71.710938 280.84375 72 280.738281 72.390625 280.683594 C 72.773438 280.628906 73.222656 280.628906 73.691406 280.664062 C 74.578125 280.734375 75.5 280.929688 76.109375 281.097656 C 77.664062 283.117188 79.464844 285.832031 80.472656 288.207031 C 80.984375 289.414062 81.28125 290.5 81.257812 291.347656 C 81.246094 291.765625 81.160156 292.109375 81 292.378906 C 80.839844 292.648438 80.59375 292.863281 80.238281 293.007812 L 80.480469 293.601562 C 80.957031 293.40625 81.3125 293.105469 81.546875 292.710938 C 81.78125 292.320312 81.886719 291.859375 81.898438 291.363281 C 81.925781 290.375 81.585938 289.191406 81.0625 287.957031 C 80.011719 285.488281 78.15625 282.695312 76.574219 280.648438 M 66.664062 282.6875 C 62.035156 279.777344 57.542969 276.652344 54.605469 274.5 L 54.984375 273.984375 C 57.910156 276.128906 62.394531 279.242188 67.003906 282.144531 C 71.621094 285.050781 76.347656 287.722656 79.773438 288.996094 L 79.550781 289.597656 C 76.058594 288.300781 71.285156 285.59375 66.664062 282.6875 Z M 66.664062 282.6875 " fill-opacity="1" fill-rule="evenodd"/><path fill="#fcbfbc" d="M 42.832031 289.695312 C 44.707031 288.132812 44.082031 277.8125 45.019531 274.058594 L 57.84375 274.058594 C 57.84375 274.371094 54.714844 286.253906 59.09375 288.132812 C 55.339844 292.386719 46.0625 290.53125 42.832031 289.695312 Z M 42.832031 289.695312 " fill-opacity="1" fill-rule="nonzero"/><path fill="#192e3a" d="M 56.121094 282.636719 C 53.78125 283.441406 54.578125 284.652344 52.457031 286.507812 C 48.429688 290.027344 46.542969 282.882812 43.820312 284.957031 C 42.125 286.253906 42 293.535156 42.390625 297.199219 C 48.515625 298.503906 60.328125 300.101562 68.398438 300.542969 C 70.824219 300.675781 73.683594 300.945312 75.335938 299.167969 C 77.792969 296.523438 70.964844 291.929688 66.378906 289.566406 C 65.613281 288.941406 64.878906 288.300781 64.199219 287.699219 L 64.007812 287.53125 C 63.554688 287.128906 63.113281 286.71875 62.683594 286.320312 C 62.03125 285.710938 61.40625 285.121094 60.800781 284.59375 C 59.113281 283.113281 57.59375 282.132812 56.121094 282.636719 Z M 56.121094 282.636719 " fill-opacity="1" fill-rule="nonzero"/><path fill="#253036" d="M 58.242188 283.160156 C 57.515625 282.816406 56.859375 282.722656 56.226562 282.941406 C 55.671875 283.132812 55.320312 283.339844 55.074219 283.558594 C 54.824219 283.78125 54.660156 284.03125 54.488281 284.335938 C 54.441406 284.417969 54.394531 284.503906 54.347656 284.589844 C 54.027344 285.175781 53.632812 285.90625 52.667969 286.75 C 51.605469 287.675781 50.636719 287.9375 49.734375 287.773438 C 48.859375 287.613281 48.105469 287.066406 47.445312 286.523438 C 47.28125 286.386719 47.132812 286.261719 46.988281 286.136719 C 46.820312 285.992188 46.660156 285.855469 46.484375 285.714844 C 46.175781 285.460938 45.886719 285.25 45.605469 285.105469 C 45.324219 284.960938 45.066406 284.886719 44.820312 284.894531 C 44.574219 284.902344 44.3125 284.988281 44.015625 285.214844 L 43.625 284.703125 C 44.011719 284.410156 44.402344 284.265625 44.796875 284.253906 C 45.191406 284.242188 45.558594 284.359375 45.898438 284.535156 C 46.242188 284.710938 46.570312 284.957031 46.890625 285.214844 C 47.058594 285.351562 47.238281 285.507812 47.421875 285.660156 C 47.566406 285.789062 47.714844 285.914062 47.851562 286.027344 C 48.507812 286.570312 49.152344 287.015625 49.847656 287.140625 C 50.515625 287.265625 51.292969 287.097656 52.246094 286.265625 C 53.121094 285.5 53.464844 284.863281 53.78125 284.289062 C 53.828125 284.199219 53.878906 284.109375 53.925781 284.019531 C 54.113281 283.691406 54.320312 283.371094 54.648438 283.082031 C 54.972656 282.789062 55.402344 282.542969 56.019531 282.332031 C 56.859375 282.046875 57.695312 282.191406 58.519531 282.582031 C 59.335938 282.96875 60.164062 283.609375 61.015625 284.351562 C 61.527344 284.800781 62.054688 285.292969 62.597656 285.800781 C 62.699219 285.894531 62.800781 285.992188 62.902344 286.085938 C 63.332031 286.484375 63.769531 286.890625 64.21875 287.289062 L 64.414062 287.460938 M 63.632812 287.625 C 63.277344 287.308594 62.933594 286.988281 62.597656 286.675781 C 62.550781 286.6875 62.507812 286.699219 62.457031 286.707031 C 62.398438 286.71875 62.328125 286.734375 62.257812 286.75 L 62.234375 286.753906 C 62.152344 286.773438 62.0625 286.789062 61.96875 286.808594 C 61.597656 286.890625 61.140625 286.996094 60.683594 287.140625 C 60.21875 287.285156 59.765625 287.460938 59.390625 287.683594 C 59.011719 287.90625 58.738281 288.160156 58.605469 288.4375 L 58.027344 288.15625 C 58.242188 287.71875 58.632812 287.386719 59.0625 287.132812 C 59.5 286.875 60.003906 286.679688 60.492188 286.527344 C 60.976562 286.375 61.453125 286.265625 61.835938 286.183594 C 61.902344 286.167969 61.964844 286.15625 62.023438 286.144531 C 61.578125 285.726562 61.148438 285.324219 60.726562 284.953125 C 60.707031 284.960938 60.683594 284.964844 60.664062 284.972656 C 60.300781 285.082031 59.65625 285.28125 58.964844 285.5625 C 58.519531 285.746094 58.070312 285.957031 57.6875 286.191406 C 57.304688 286.429688 57.015625 286.679688 56.859375 286.921875 L 56.320312 286.578125 C 56.550781 286.214844 56.933594 285.90625 57.351562 285.648438 C 57.773438 285.386719 58.257812 285.160156 58.71875 284.96875 C 59.25 284.753906 59.773438 284.578125 60.152344 284.457031 C 59.480469 283.898438 58.847656 283.445312 58.242188 283.160156 M 64.160156 288.09375 C 63.964844 288.1875 63.726562 288.28125 63.480469 288.367188 C 63.398438 288.398438 63.3125 288.429688 63.226562 288.460938 C 62.929688 288.566406 62.609375 288.683594 62.285156 288.816406 C 61.871094 288.988281 61.46875 289.183594 61.132812 289.414062 C 60.796875 289.644531 60.542969 289.902344 60.402344 290.195312 L 59.828125 289.914062 C 60.035156 289.488281 60.378906 289.15625 60.769531 288.886719 C 61.15625 288.617188 61.605469 288.402344 62.039062 288.222656 C 62.378906 288.082031 62.71875 287.960938 63.019531 287.851562 C 63.101562 287.824219 63.183594 287.792969 63.261719 287.765625 C 63.402344 287.714844 63.527344 287.667969 63.632812 287.625 M 64.160156 288.09375 C 64.632812 288.507812 65.132812 288.945312 65.648438 289.378906 C 65.066406 289.503906 64.375 289.6875 63.726562 289.929688 C 63.261719 290.105469 62.808594 290.3125 62.429688 290.558594 C 62.054688 290.800781 61.726562 291.097656 61.550781 291.457031 L 62.128906 291.738281 C 62.230469 291.53125 62.449219 291.3125 62.777344 291.097656 C 63.105469 290.886719 63.511719 290.695312 63.949219 290.53125 C 64.785156 290.21875 65.699219 290.007812 66.324219 289.902344 C 68.589844 291.074219 71.367188 292.777344 73.285156 294.5 C 74.257812 295.378906 74.984375 296.238281 75.324219 297.011719 C 75.492188 297.398438 75.558594 297.746094 75.523438 298.0625 C 75.492188 298.371094 75.363281 298.667969 75.101562 298.949219 L 75.570312 299.386719 C 75.921875 299.007812 76.117188 298.585938 76.164062 298.125 C 76.210938 297.671875 76.109375 297.210938 75.910156 296.757812 C 75.515625 295.855469 74.710938 294.921875 73.710938 294.023438 C 71.71875 292.230469 68.855469 290.484375 66.554688 289.296875 M 58.4375 295.332031 C 53.015625 294.652344 47.621094 293.71875 44.050781 293.011719 L 44.175781 292.382812 C 47.730469 293.085938 53.109375 294.019531 58.515625 294.699219 C 63.929688 295.378906 69.34375 295.804688 72.984375 295.511719 L 73.035156 296.152344 C 69.324219 296.449219 63.851562 296.015625 58.4375 295.332031 Z M 58.4375 295.332031 " fill-opacity="1" fill-rule="evenodd"/><path fill="#253036" d="M 57.863281 277.5 C 59.464844 250.125 62.03125 227.773438 62.53125 219.019531 C 62.785156 214.578125 64.554688 200.308594 66.640625 189.621094 C 70.542969 193.671875 75.191406 211.742188 79.347656 216.515625 C 71.652344 229.925781 69.808594 235.054688 61.070312 260.386719 C 61.800781 262.679688 67.179688 265.480469 72.933594 266.480469 L 73.050781 266.292969 C 78.945312 256.796875 96.621094 228.320312 96.621094 216.515625 C 96.621094 206.195312 86.40625 177.738281 81.296875 164.605469 C 73.289062 167.355469 51.691406 160.015625 43.144531 155.847656 C 40.964844 160.488281 40.085938 171.355469 42.296875 181.804688 L 44.714844 219.019531 C 43.144531 236.335938 43.113281 239.222656 44.074219 277.5 C 48.453125 279.167969 55.359375 279.5 57.863281 277.5 Z M 57.863281 277.5 " fill-opacity="1" fill-rule="nonzero"/><path fill="#f2d6bd" d="M 75.023438 175.730469 C 75.09375 175.894531 75.019531 176.082031 74.859375 176.15625 L 70.039062 178.300781 C 69.554688 179.238281 69.042969 180.75 68.527344 182.671875 C 67.996094 184.660156 67.464844 187.0625 66.953125 189.683594 C 66.921875 189.859375 66.753906 189.972656 66.578125 189.9375 C 66.40625 189.902344 66.289062 189.734375 66.324219 189.5625 C 66.839844 186.929688 67.371094 184.511719 67.910156 182.507812 C 68.445312 180.511719 68.988281 178.898438 69.527344 177.898438 L 69.578125 177.804688 L 74.597656 175.570312 C 74.761719 175.496094 74.949219 175.570312 75.023438 175.730469 Z M 75.023438 175.730469 " fill-opacity="1" fill-rule="evenodd"/><path fill="#fcbfbc" d="M 52.574219 82.886719 C 57.609375 80.933594 57.84375 72.132812 57.328125 67.980469 C 58.035156 69.75 62.742188 78.324219 69.664062 78.445312 C 69.695312 79.523438 69.875 81.515625 70.339844 83.027344 C 70.65625 84.046875 70.945312 85.199219 70.449219 86.140625 C 67.070312 92.558594 57.328125 86.839844 52.574219 82.886719 Z M 52.574219 82.886719 " fill-opacity="1" fill-rule="nonzero"/><path fill="#fcbfbc" d="M 59.640625 61.300781 C 67.851562 60.398438 70.550781 54.464844 70.921875 51.386719 C 72.773438 51.90625 76.574219 53.898438 76.984375 57.703125 C 77.5 62.457031 79.554688 76.589844 71.589844 78.257812 C 70.929688 78.398438 70.289062 78.457031 69.664062 78.445312 C 62.742188 78.324219 58.035156 69.75 57.328125 67.980469 C 53.214844 66.054688 52.832031 61.683594 54.371094 60.140625 C 55.605469 58.910156 58.398438 60.398438 59.640625 61.300781 Z M 59.640625 61.300781 " fill-opacity="1" fill-rule="nonzero"/><path fill="#253036" d="M 57.035156 63.121094 C 56.570312 62.675781 56.023438 62.378906 55.671875 62.242188 L 55.902344 61.640625 C 56.320312 61.804688 56.941406 62.148438 57.480469 62.65625 C 58.015625 63.164062 58.488281 63.867188 58.546875 64.746094 L 57.90625 64.789062 C 57.863281 64.125 57.503906 63.566406 57.035156 63.121094 Z M 61.40625 73.617188 C 63.511719 75.972656 66.339844 78.066406 69.667969 78.125 L 69.65625 78.765625 C 66.0625 78.703125 63.078125 76.449219 60.925781 74.042969 C 58.769531 71.636719 57.398438 69.015625 57.03125 68.097656 L 57.625 67.859375 C 57.964844 68.710938 59.300781 71.265625 61.40625 73.617188 Z M 61.40625 73.617188 " fill-opacity="1" fill-rule="evenodd"/><path fill="#253036" d="M 59.640625 61.300781 C 67.851562 60.398438 70.550781 54.464844 70.921875 51.386719 C 72.773438 51.90625 76.574219 53.898438 76.984375 57.703125 C 77.5 62.457031 79.554688 76.589844 71.589844 78.257812 C 70.929688 78.398438 70.289062 78.457031 69.664062 78.445312 C 69.695312 79.539062 69.882812 82.175781 70.367188 83.695312 C 74.300781 85.574219 78.511719 87.253906 79.988281 89.46875 C 80.984375 91.132812 82.554688 94.277344 82.921875 94.851562 L 85.535156 91.125 C 87.527344 87.167969 85.519531 83.6875 83.023438 80.570312 C 80.457031 77.359375 82.898438 75.304688 84.054688 71.707031 C 85.210938 68.109375 82.769531 65.152344 81.097656 62.839844 C 79.429688 60.527344 79.941406 57.703125 79.429688 51.148438 C 79.015625 45.90625 70.863281 43.566406 66.835938 43.054688 C 62.253906 42.582031 52.546875 43.875 50.390625 52.820312 C 48.71875 60.144531 51.3125 60.804688 45.765625 62.582031 C 38.953125 64.769531 45.765625 70.550781 41.265625 73.890625 C 38.65625 76.03125 34.996094 81.652344 41.265625 86.996094 L 52.574219 82.886719 C 57.609375 80.933594 57.84375 72.132812 57.328125 67.980469 C 53.214844 66.054688 52.832031 61.683594 54.371094 60.144531 C 55.605469 58.910156 58.398438 60.398438 59.640625 61.300781 Z M 59.640625 61.300781 " fill-opacity="1" fill-rule="nonzero"/><path fill="#253036" d="M 65.730469 60.976562 C 65.1875 61.800781 64.84375 62.960938 64.84375 64.253906 C 64.84375 65.550781 65.1875 66.707031 65.730469 67.53125 C 66.277344 68.355469 66.988281 68.816406 67.734375 68.816406 C 68.480469 68.816406 69.195312 68.355469 69.738281 67.53125 C 70.28125 66.707031 70.625 65.550781 70.625 64.253906 C 70.625 62.960938 70.28125 61.800781 69.738281 60.976562 C 69.195312 60.152344 68.480469 59.691406 67.734375 59.691406 C 66.988281 59.691406 66.277344 60.152344 65.730469 60.976562 Z M 65.195312 60.625 C 65.816406 59.683594 66.707031 59.050781 67.734375 59.050781 C 68.765625 59.050781 69.65625 59.683594 70.273438 60.625 C 70.828125 61.464844 71.183594 62.574219 71.253906 63.800781 C 71.460938 63.738281 71.691406 63.683594 71.929688 63.660156 C 72.167969 63.640625 72.4375 63.644531 72.695312 63.71875 C 72.753906 62.65625 73.054688 61.6875 73.523438 60.957031 C 74.046875 60.132812 74.808594 59.566406 75.699219 59.566406 C 76.59375 59.566406 77.355469 60.132812 77.878906 60.957031 C 78.40625 61.78125 78.71875 62.902344 78.71875 64.125 C 78.71875 65.347656 78.40625 66.46875 77.878906 67.296875 C 77.355469 68.117188 76.59375 68.6875 75.699219 68.6875 C 74.824219 68.6875 74.074219 68.140625 73.550781 67.339844 C 73.050781 66.574219 72.734375 65.542969 72.6875 64.410156 C 72.527344 64.308594 72.289062 64.273438 71.992188 64.300781 C 71.730469 64.324219 71.46875 64.398438 71.265625 64.472656 C 71.226562 65.789062 70.863281 66.988281 70.273438 67.882812 C 69.65625 68.824219 68.765625 69.457031 67.734375 69.457031 C 66.707031 69.457031 65.816406 68.824219 65.195312 67.882812 C 64.574219 66.941406 64.203125 65.65625 64.203125 64.253906 C 64.203125 62.851562 64.574219 61.570312 65.195312 60.625 Z M 74.0625 61.300781 C 73.613281 62.007812 73.324219 63.007812 73.324219 64.125 C 73.324219 64.167969 73.324219 64.207031 73.324219 64.25 C 73.34375 65.339844 73.640625 66.304688 74.089844 66.992188 C 74.539062 67.679688 75.113281 68.046875 75.699219 68.046875 C 76.296875 68.046875 76.886719 67.664062 77.339844 66.953125 C 77.789062 66.242188 78.078125 65.246094 78.078125 64.125 C 78.078125 63.007812 77.789062 62.007812 77.339844 61.300781 C 76.886719 60.585938 76.296875 60.207031 75.699219 60.207031 C 75.105469 60.207031 74.515625 60.585938 74.0625 61.300781 Z M 74.0625 61.300781 " fill-opacity="1" fill-rule="evenodd"/><path fill="#253036" d="M 70.175781 63.613281 C 70.175781 64.25 69.832031 64.769531 69.40625 64.769531 C 68.980469 64.769531 68.636719 64.25 68.636719 63.613281 C 68.636719 62.972656 68.980469 62.457031 69.40625 62.457031 C 69.832031 62.457031 70.175781 62.972656 70.175781 63.613281 Z M 70.175781 63.613281 " fill-opacity="1" fill-rule="nonzero"/><path fill="#253036" d="M 77.113281 63.867188 C 77.113281 64.507812 76.769531 65.023438 76.34375 65.023438 C 75.917969 65.023438 75.574219 64.507812 75.574219 63.867188 C 75.574219 63.230469 75.917969 62.710938 76.34375 62.710938 C 76.769531 62.710938 77.113281 63.230469 77.113281 63.867188 Z M 77.113281 63.867188 " fill-opacity="1" fill-rule="nonzero"/><path fill="#253036" d="M 64.738281 62.257812 L 59.601562 61.617188 L 59.679688 60.980469 L 64.820312 61.625 Z M 64.738281 62.257812 " fill-opacity="1" fill-rule="evenodd"/><path fill="#fcbfbc" d="M 74.632812 78.863281 C 76.234375 79.929688 77.492188 80.898438 75.273438 80.789062 C 77.839844 81.949219 77.003906 83.800781 74.953125 83.03125 C 77.519531 83.996094 76.941406 86.625 74.632812 85.597656 C 71.746094 84.316406 73.671875 86.558594 73.351562 87.84375 C 73.027344 89.125 71.785156 89.804688 71.652344 90.429688 C 66.839844 113.199219 65.652344 136.90625 49.621094 130.8125 C 45.828125 129.375 42.730469 124.949219 40.222656 118.941406 C 43.554688 118.722656 48.21875 118.011719 51.226562 114.710938 L 53.777344 119.933594 C 57.863281 106.144531 59.785156 109.03125 65.972656 86.882812 C 65.453125 83.765625 64.515625 81.910156 65.199219 80.46875 C 65.011719 79.828125 65.011719 77.582031 64.371094 76.296875 C 63.730469 75.015625 66.882812 75.65625 66.910156 78.863281 C 68.976562 77.6875 72.160156 77.214844 74.632812 78.863281 Z M 74.632812 78.863281 " fill-opacity="1" fill-rule="nonzero"/><path fill="#253036" d="M 64.605469 76.007812 C 64.609375 76.03125 64.621094 76.082031 64.65625 76.15625 C 65.003906 76.851562 65.171875 77.78125 65.273438 78.582031 C 65.308594 78.867188 65.339844 79.144531 65.367188 79.394531 C 65.378906 79.496094 65.386719 79.597656 65.398438 79.691406 C 65.433594 80.019531 65.46875 80.25 65.503906 80.378906 L 65.539062 80.496094 L 65.488281 80.605469 C 65.195312 81.222656 65.234375 81.957031 65.449219 82.980469 C 65.519531 83.328125 65.613281 83.714844 65.714844 84.132812 C 65.902344 84.914062 66.121094 85.816406 66.289062 86.828125 L 66.300781 86.898438 L 66.285156 86.96875 C 63.183594 98.054688 61.152344 102.886719 59.378906 106.675781 C 59.132812 107.207031 58.890625 107.710938 58.652344 108.214844 C 57.183594 111.289062 55.835938 114.117188 54.085938 120.023438 L 53.472656 119.839844 C 55.234375 113.886719 56.601562 111.019531 58.070312 107.9375 C 58.308594 107.4375 58.550781 106.929688 58.796875 106.40625 C 60.550781 102.660156 62.566406 97.875 65.644531 86.863281 C 65.480469 85.894531 65.28125 85.070312 65.101562 84.328125 C 65 83.898438 64.902344 83.5 64.820312 83.113281 C 64.613281 82.117188 64.523438 81.234375 64.859375 80.4375 C 64.820312 80.253906 64.789062 80.015625 64.761719 79.761719 C 64.75 79.664062 64.738281 79.5625 64.726562 79.453125 C 64.703125 79.207031 64.671875 78.941406 64.636719 78.664062 C 64.535156 77.863281 64.378906 77.03125 64.085938 76.441406 C 63.988281 76.246094 63.933594 76.035156 63.984375 75.832031 C 64.039062 75.609375 64.203125 75.46875 64.390625 75.402344 C 64.5625 75.34375 64.761719 75.347656 64.949219 75.386719 C 65.140625 75.425781 65.34375 75.503906 65.546875 75.617188 C 66.273438 76.027344 67.039062 76.929688 67.199219 78.347656 C 69.332031 77.308594 72.378906 76.976562 74.808594 78.597656 L 74.453125 79.132812 C 72.113281 77.570312 69.066406 78.003906 67.066406 79.140625 L 66.59375 79.414062 L 66.589844 78.867188 C 66.574219 77.378906 65.84375 76.519531 65.230469 76.175781 C 65.078125 76.089844 64.9375 76.039062 64.820312 76.015625 C 64.710938 75.992188 64.640625 76 64.605469 76.007812 Z M 70.140625 80.820312 C 70.691406 80.371094 71.613281 80.144531 73.40625 80.472656 C 73.472656 80.484375 73.597656 80.492188 73.777344 80.496094 C 73.949219 80.496094 74.144531 80.492188 74.34375 80.488281 C 74.460938 80.484375 74.578125 80.480469 74.691406 80.476562 C 74.953125 80.46875 75.183594 80.464844 75.289062 80.46875 L 75.257812 81.109375 C 75.179688 81.105469 74.996094 81.109375 74.761719 81.117188 C 74.640625 81.121094 74.503906 81.125 74.363281 81.128906 C 74.160156 81.132812 73.953125 81.136719 73.769531 81.136719 C 73.589844 81.132812 73.414062 81.125 73.292969 81.105469 C 71.558594 80.789062 70.878906 81.046875 70.546875 81.316406 C 70.371094 81.460938 70.265625 81.625 70.148438 81.8125 C 70.144531 81.824219 70.140625 81.832031 70.132812 81.839844 C 70.03125 82.003906 69.890625 82.234375 69.644531 82.359375 L 69.359375 81.785156 C 69.421875 81.753906 69.476562 81.683594 69.605469 81.476562 L 69.613281 81.464844 C 69.726562 81.28125 69.878906 81.035156 70.140625 80.820312 Z M 71.832031 82.761719 C 72.777344 82.433594 73.953125 82.316406 75.066406 82.734375 L 74.839844 83.332031 C 73.902344 82.980469 72.886719 83.074219 72.042969 83.367188 C 71.625 83.515625 71.253906 83.707031 70.972656 83.90625 C 70.679688 84.113281 70.503906 84.3125 70.429688 84.460938 L 69.855469 84.171875 C 69.996094 83.890625 70.269531 83.621094 70.601562 83.386719 C 70.9375 83.144531 71.359375 82.925781 71.832031 82.761719 Z M 71.832031 82.761719 " fill-opacity="1" fill-rule="evenodd"/><path fill="#253036" d="M 76.402344 91.464844 C 76.539062 91.351562 76.738281 91.371094 76.851562 91.507812 C 78.808594 93.855469 80.910156 97.542969 82.351562 101.488281 C 83.789062 105.429688 84.59375 109.679688 83.902344 113.140625 C 83.867188 113.316406 83.695312 113.429688 83.523438 113.394531 C 83.351562 113.359375 83.238281 113.191406 83.273438 113.015625 C 83.929688 109.726562 83.171875 105.605469 81.75 101.710938 C 80.328125 97.816406 78.261719 94.199219 76.359375 91.917969 C 76.246094 91.78125 76.265625 91.582031 76.402344 91.464844 Z M 48.960938 100.484375 C 49.074219 100.347656 49.277344 100.332031 49.414062 100.449219 C 49.921875 100.886719 50.363281 101.675781 50.75 102.605469 C 51.136719 103.550781 51.488281 104.691406 51.792969 105.878906 C 52.398438 108.253906 52.835938 110.847656 53.050781 112.515625 L 53.0625 112.617188 L 53.015625 112.707031 C 50.101562 118.265625 43.691406 119.078125 39.746094 119.289062 C 39.570312 119.300781 39.417969 119.164062 39.410156 118.988281 C 39.398438 118.8125 39.535156 118.660156 39.710938 118.648438 C 43.652344 118.4375 49.648438 117.628906 52.402344 112.496094 C 52.183594 110.847656 51.757812 108.335938 51.171875 106.039062 C 50.871094 104.867188 50.53125 103.757812 50.15625 102.851562 C 49.777344 101.933594 49.382812 101.265625 48.996094 100.9375 C 48.859375 100.820312 48.84375 100.617188 48.960938 100.484375 Z M 81.644531 117.140625 C 81.769531 117.265625 81.769531 117.46875 81.644531 117.59375 C 80.28125 118.957031 79.550781 121.128906 79.292969 124.023438 C 79.035156 126.910156 79.25 130.460938 79.730469 134.527344 C 80.179688 138.335938 80.859375 142.574219 81.589844 147.121094 C 81.636719 147.421875 81.683594 147.722656 81.734375 148.027344 C 82.515625 152.910156 83.339844 158.128906 83.980469 163.507812 C 84 163.683594 83.875 163.839844 83.699219 163.863281 C 83.523438 163.882812 83.363281 163.757812 83.34375 163.582031 C 82.703125 158.21875 81.882812 153.011719 81.101562 148.128906 C 81.050781 147.824219 81.003906 147.519531 80.953125 147.214844 C 80.226562 142.675781 79.546875 138.421875 79.09375 134.601562 C 78.613281 130.527344 78.390625 126.921875 78.652344 123.96875 C 78.914062 121.019531 79.667969 118.664062 81.191406 117.140625 C 81.316406 117.015625 81.519531 117.015625 81.644531 117.140625 Z M 81.644531 117.140625 " fill-opacity="1" fill-rule="evenodd"/><path fill="#fcbfbc" d="M 66.199219 127.949219 C 79.027344 125.382812 83.195312 124.421875 86.226562 122.496094 C 89.222656 121.578125 87.960938 115.933594 86.664062 112.390625 C 86.035156 112.855469 84.96875 113.394531 83.453125 113.667969 C 83.128906 114.90625 82.59375 116.023438 81.796875 116.957031 C 81.59375 116.984375 81.410156 117.011719 81.273438 117.046875 C 75.179688 117.6875 74.21875 119.933594 63.78125 123.234375 C 62.925781 123.308594 60.804688 122.597656 58.007812 121.535156 C 52.089844 119.292969 51.769531 126.539062 51.769531 128.589844 C 51.769531 129.550781 51.59375 129.550781 52.554688 129.550781 C 52.667969 130.316406 53.53125 130.515625 53.695312 129.230469 C 53.597656 129.996094 53.382812 130.835938 54.65625 130.835938 C 55.296875 130.835938 54.160156 124.101562 58.007812 126.988281 C 61.085938 129.296875 65.238281 128.910156 66.199219 127.949219 Z M 66.199219 127.949219 " fill-opacity="1" fill-rule="nonzero"/><path fill="#253036" d="M 72.007812 71.875 C 71.511719 71.855469 70.941406 71.890625 70.40625 71.953125 C 70.230469 71.972656 70.070312 71.84375 70.050781 71.667969 C 70.03125 71.492188 70.15625 71.335938 70.332031 71.316406 C 70.886719 71.253906 71.492188 71.210938 72.035156 71.234375 C 72.558594 71.253906 73.085938 71.335938 73.433594 71.5625 C 73.578125 71.664062 73.621094 71.859375 73.523438 72.007812 C 73.421875 72.15625 73.222656 72.195312 73.078125 72.097656 C 72.890625 71.976562 72.523438 71.894531 72.007812 71.875 Z M 72.007812 71.875 " fill-opacity="1" fill-rule="evenodd"/><g clip-path="url(#c3baaa61ab)"><path fill="#f29727" d="M 226.796875 71.859375 C 226.796875 71.21875 227.320312 70.691406 227.960938 70.691406 C 228.601562 70.691406 229.125 71.21875 229.125 71.859375 L 229.125 78.558594 L 232.507812 80.789062 C 233.046875 81.140625 233.191406 81.867188 232.839844 82.40625 C 232.492188 82.945312 231.761719 83.089844 231.222656 82.742188 L 227.390625 80.191406 C 227.042969 79.988281 226.796875 79.609375 226.796875 79.1875 Z M 234.589844 71.523438 C 231.09375 68.027344 225.425781 68.027344 221.929688 71.523438 C 218.433594 75.019531 218.433594 80.6875 221.929688 84.183594 C 225.425781 87.679688 231.09375 87.679688 234.589844 84.183594 C 238.085938 80.6875 238.085938 75.019531 234.589844 71.523438 Z M 228.265625 66.570312 C 234.503906 66.570312 239.542969 71.625 239.542969 77.847656 C 239.542969 84.082031 234.488281 89.121094 228.265625 89.121094 C 222.046875 89.121094 216.988281 84.066406 216.988281 77.847656 C 216.976562 71.625 222.03125 66.570312 228.265625 66.570312 Z M 211.933594 74.246094 C 211.804688 74.875 211.175781 75.28125 210.550781 75.136719 C 209.925781 75.003906 209.515625 74.378906 209.660156 73.753906 C 209.835938 72.9375 210.054688 72.222656 210.332031 71.421875 C 210.550781 70.824219 211.207031 70.503906 211.816406 70.722656 C 212.414062 70.941406 212.734375 71.609375 212.515625 72.207031 C 212.296875 72.820312 212.082031 73.578125 211.933594 74.246094 Z M 211.613281 79.332031 C 211.671875 79.972656 211.191406 80.542969 210.550781 80.585938 C 209.910156 80.644531 209.339844 80.164062 209.28125 79.523438 L 209.222656 77.378906 C 209.238281 76.738281 209.761719 76.230469 210.417969 76.242188 C 211.058594 76.257812 211.570312 76.78125 211.554688 77.421875 Z M 213.128906 84.984375 C 213.40625 85.566406 213.160156 86.265625 212.574219 86.53125 C 211.992188 86.804688 211.308594 86.558594 211.03125 85.976562 C 210.667969 85.203125 210.375 84.476562 210.113281 83.628906 C 209.925781 83.019531 210.257812 82.363281 210.871094 82.171875 C 211.484375 81.984375 212.136719 82.320312 212.328125 82.929688 C 212.53125 83.585938 212.824219 84.34375 213.128906 84.984375 Z M 216.304688 89.546875 C 216.757812 89.996094 216.742188 90.738281 216.289062 91.191406 C 215.824219 91.644531 215.097656 91.628906 214.644531 91.164062 C 214.121094 90.625 213.640625 90.070312 213.1875 89.488281 C 212.792969 88.976562 212.894531 88.25 213.390625 87.855469 C 213.902344 87.460938 214.628906 87.5625 215.023438 88.058594 Z M 221.039062 92.941406 C 221.621094 93.214844 221.855469 93.914062 221.578125 94.484375 C 221.300781 95.066406 220.601562 95.300781 220.035156 95.023438 C 219.320312 94.671875 218.695312 94.324219 218.023438 93.902344 C 217.484375 93.550781 217.324219 92.835938 217.675781 92.296875 C 218.023438 91.757812 218.738281 91.597656 219.277344 91.949219 Z M 226.386719 94.46875 C 227.027344 94.542969 227.496094 95.109375 227.421875 95.75 C 227.347656 96.394531 226.765625 96.859375 226.140625 96.785156 C 225.324219 96.699219 224.640625 96.566406 223.824219 96.378906 C 223.195312 96.234375 222.816406 95.605469 222.964844 94.980469 C 223.109375 94.351562 223.734375 93.972656 224.363281 94.121094 Z M 228.265625 58.804688 C 238.785156 58.804688 247.308594 67.328125 247.308594 77.847656 C 247.308594 87.78125 239.644531 96.042969 229.839844 96.828125 C 229.199219 96.875 228.644531 96.40625 228.585938 95.765625 C 228.542969 95.125 229.007812 94.570312 229.652344 94.511719 C 238.261719 93.828125 244.976562 86.574219 244.976562 77.859375 C 244.976562 68.625 237.488281 61.148438 228.265625 61.148438 C 223.574219 61.148438 219.203125 63.101562 216.101562 66.394531 L 217.71875 65.914062 C 218.34375 65.722656 218.984375 66.074219 219.160156 66.699219 C 219.335938 67.328125 219 67.96875 218.375 68.144531 L 213.332031 69.660156 C 212.734375 69.832031 212.125 69.511719 211.90625 68.957031 C 211.847656 68.8125 211.816406 68.652344 211.832031 68.492188 C 211.832031 68.476562 211.832031 68.449219 211.832031 68.433594 L 212.125 63.234375 C 212.167969 62.59375 212.707031 62.097656 213.347656 62.140625 C 213.988281 62.183594 214.484375 62.722656 214.441406 63.363281 L 214.351562 64.851562 C 217.921875 61.046875 222.90625 58.804688 228.265625 58.804688 Z M 204.066406 60.640625 C 203.9375 61.265625 203.308594 61.675781 202.683594 61.542969 C 202.054688 61.414062 201.648438 60.785156 201.792969 60.160156 C 202.246094 58.074219 203.019531 55.378906 204.34375 54.054688 C 209.894531 48.503906 246.652344 48.503906 252.203125 54.054688 C 257.332031 59.183594 257.828125 96.335938 252.203125 101.855469 C 250.730469 103.328125 247.496094 104.128906 245.152344 104.566406 C 244.527344 104.683594 243.914062 104.273438 243.796875 103.648438 C 243.679688 103.023438 244.089844 102.410156 244.730469 102.292969 C 246.492188 101.957031 249.539062 101.257812 250.570312 100.222656 C 255.292969 95.488281 254.8125 59.96875 250.558594 55.714844 C 245.894531 51.066406 210.636719 51.066406 205.988281 55.714844 C 205.074219 56.605469 204.402344 59.09375 204.066406 60.640625 Z M 204.371094 101.855469 C 202.539062 100.078125 201.34375 94.832031 200.746094 88.613281 C 200.105469 81.792969 200.117188 73.503906 200.789062 66.757812 C 200.847656 66.117188 201.414062 65.652344 202.054688 65.722656 C 202.699219 65.78125 203.164062 66.351562 203.105469 66.992188 C 202.449219 73.605469 202.433594 81.722656 203.0625 88.394531 C 203.601562 94.179688 204.589844 98.78125 205.988281 100.179688 C 207.316406 101.507812 211.644531 102.4375 217.148438 102.992188 C 223.515625 103.632812 231.355469 103.664062 237.953125 103.125 C 238.597656 103.066406 239.148438 103.546875 239.207031 104.1875 C 239.265625 104.828125 238.785156 105.394531 238.144531 105.441406 C 231.441406 106.007812 223.457031 105.949219 216.933594 105.308594 C 210.945312 104.710938 206.121094 103.574219 204.371094 101.855469 Z M 198.96875 99.277344 C 199.609375 101.257812 200.496094 103.125 201.78125 104.40625 C 204.402344 107.027344 209.558594 107.988281 213.070312 108.5 C 221.972656 109.796875 234.574219 109.796875 243.476562 108.5 C 246.988281 107.988281 252.144531 107.027344 254.769531 104.40625 C 257.464844 101.710938 258.453125 96.582031 258.976562 92.953125 C 260.261719 84.050781 260.171875 71.492188 258.816406 62.59375 C 258.292969 59.125 257.347656 54.039062 254.769531 51.476562 C 252.101562 48.808594 247.015625 47.804688 243.449219 47.265625 C 238.464844 46.507812 233.265625 46.246094 228.265625 46.246094 C 223.210938 46.246094 218.082031 46.492188 213.085938 47.25 C 209.515625 47.789062 204.429688 48.808594 201.765625 51.460938 C 199.128906 54.097656 198.167969 59.210938 197.628906 62.753906 C 196.300781 71.652344 196.300781 84.214844 197.628906 93.113281 C 197.917969 95.007812 198.3125 97.222656 198.96875 99.277344 Z M 198.96875 99.277344 " fill-opacity="1" fill-rule="nonzero"/></g></svg>