<svg xmlns="http://www.w3.org/2000/svg" xmlns:xlink="http://www.w3.org/1999/xlink" width="500" zoomAndPan="magnify" viewBox="0 0 375 374.999991" height="500" preserveAspectRatio="xMidYMid meet" version="1.0"><defs><filter x="0%" y="0%" width="100%" height="100%" id="dd083ba50e"><feColorMatrix values="0 0 0 0 1 0 0 0 0 1 0 0 0 0 1 0 0 0 1 0" color-interpolation-filters="sRGB"/></filter><mask id="d36679b229"><g filter="url(#dd083ba50e)"><rect x="-37.5" width="450" fill="#000000" y="-37.499999" height="449.999989" fill-opacity="0.5"/></g></mask><clipPath id="b1dad1d6b4"><path d="M 1 0.265625 L 371.398438 0.265625 L 371.398438 86.515625 L 1 86.515625 Z M 1 0.265625 " clip-rule="nonzero"/></clipPath><clipPath id="320aab654d"><rect x="0" width="372" y="0" height="87"/></clipPath><clipPath id="13f2f34936"><path d="M 37.5 91 L 208 91 L 208 136 L 37.5 136 Z M 37.5 91 " clip-rule="nonzero"/></clipPath><clipPath id="0c24daf344"><path d="M 118 164 L 325.5 164 L 325.5 306 L 118 306 Z M 118 164 " clip-rule="nonzero"/></clipPath><clipPath id="b59056306d"><path d="M 37.5 285 L 67 285 L 67 315 L 37.5 315 Z M 37.5 285 " clip-rule="nonzero"/></clipPath></defs><g mask="url(#d36679b229)"><g transform="matrix(1, 0, 0, 1, 3, 251)"><g clip-path="url(#320aab654d)"><g clip-path="url(#b1dad1d6b4)"><path fill="#f2d6bd" d="M 311.191406 0.367188 C 305.523438 0.277344 298.226562 0.609375 287.035156 1.332031 C 283.734375 1.546875 276.503906 1.894531 270.96875 2.109375 C 261.621094 2.472656 248.164062 3.878906 241.347656 5.203125 C 238.976562 5.664062 238.066406 6.46875 238.660156 7.578125 C 239.261719 8.707031 241.539062 9.085938 247.707031 9.089844 C 250.882812 9.089844 253.390625 9.179688 253.28125 9.289062 C 252.847656 9.722656 235.964844 10.542969 185.40625 12.578125 C 149.972656 14.003906 138.386719 14.597656 117.460938 16.070312 C 77.441406 18.890625 63.65625 20.050781 39.835938 22.617188 C 25.898438 24.117188 23.71875 24.289062 24.890625 23.792969 C 25.785156 23.414062 35.230469 21.742188 38.867188 21.320312 C 39.824219 21.207031 43.222656 20.765625 46.417969 20.335938 C 63.164062 18.089844 75.753906 16.550781 79.710938 16.261719 C 86.429688 15.777344 93.730469 14.84375 95.304688 14.269531 C 96.378906 13.878906 97.15625 13.277344 97.53125 12.558594 C 98.199219 11.265625 98.269531 10.015625 97.699219 9.660156 C 97.28125 9.402344 90.40625 10.269531 85.324219 11.21875 C 83.730469 11.519531 80.261719 11.949219 77.621094 12.179688 C 74.984375 12.40625 71.410156 12.835938 69.6875 13.136719 C 67.0625 13.59375 59.980469 14.546875 52.03125 15.507812 C 51.074219 15.625 47.675781 16.222656 44.480469 16.835938 C 41.289062 17.449219 35.539062 18.402344 31.707031 18.957031 C 23.929688 20.078125 14.589844 21.898438 10.285156 23.128906 C 7.757812 23.851562 7.273438 24.152344 5.808594 25.902344 C 4.90625 26.984375 3.582031 28.800781 2.867188 29.941406 L 1.570312 32.015625 L 1.414062 46.007812 C 1.203125 64.617188 1.222656 65.339844 1.929688 68.085938 C 3.328125 73.511719 6.246094 76.738281 12.625 79.902344 C 17.132812 82.140625 22.425781 83.625 27.996094 84.214844 C 30.035156 84.429688 34.144531 84.886719 37.125 85.226562 C 40.105469 85.570312 45.070312 85.984375 48.160156 86.148438 C 54.398438 86.484375 75.101562 86.28125 90.550781 85.734375 C 96.089844 85.539062 109.457031 85.375 120.253906 85.371094 C 135.792969 85.363281 140.761719 85.238281 144.066406 84.765625 C 149.351562 84.015625 150.125 83.707031 149.882812 82.445312 L 149.703125 81.488281 L 168.175781 81.488281 C 186.929688 81.488281 197.019531 81.15625 209.214844 80.128906 C 215.433594 79.605469 230.136719 78.707031 250.253906 77.621094 C 254.621094 77.382812 261.328125 76.945312 265.160156 76.644531 C 268.992188 76.347656 275.003906 75.917969 278.515625 75.691406 C 282.03125 75.464844 291.003906 74.851562 298.453125 74.324219 C 305.90625 73.800781 316.710938 73.105469 322.457031 72.785156 C 334.285156 72.121094 338.5 71.726562 345.6875 70.605469 C 350.722656 69.824219 359.65625 67.742188 362.890625 66.597656 C 366.480469 65.324219 368.328125 63.074219 369.886719 58.066406 C 371.121094 54.105469 371.613281 40.898438 370.808594 33.289062 C 370.078125 26.386719 369.234375 23.566406 366.804688 19.875 C 364.683594 16.648438 362.640625 14.757812 358.464844 12.164062 C 351.796875 8.023438 347.085938 6.292969 336.976562 4.273438 C 333.25 3.527344 328.125 2.484375 325.585938 1.953125 C 320.902344 0.976562 316.859375 0.460938 311.191406 0.367188 Z M 311.191406 0.367188 " fill-opacity="1" fill-rule="nonzero"/></g></g></g></g><path fill="#253036" d="M 191.257812 97.75 L 197.320312 97.75 L 197.320312 113.25 L 191.257812 113.25 Z M 191.257812 97.75 " fill-opacity="1" fill-rule="nonzero"/><path fill="#253036" d="M 308.519531 97.75 L 314.585938 97.75 L 314.585938 113.25 L 308.519531 113.25 Z M 308.519531 97.75 " fill-opacity="1" fill-rule="nonzero"/><path fill="#192e3a" d="M 204.660156 135.050781 L 207.695312 127.898438 L 183.3125 117.550781 L 316.46875 117.550781 L 316.46875 196.140625 L 198.121094 196.140625 L 198.121094 132.273438 Z M 204.660156 135.050781 " fill-opacity="1" fill-rule="nonzero"/><path fill="#f2f2f2" d="M 294.078125 138.566406 L 222.796875 138.566406 L 222.796875 196.140625 L 295.449219 196.140625 L 295.449219 138.566406 Z M 294.078125 138.566406 " fill-opacity="1" fill-rule="nonzero"/><path fill="#f29727" d="M 224.167969 127.601562 L 294.078125 127.601562 L 294.078125 138.566406 L 224.167969 138.566406 Z M 224.167969 127.601562 " fill-opacity="1" fill-rule="nonzero"/><path fill="#f2f2f2" d="M 297.277344 122.574219 L 220.96875 122.574219 L 220.96875 127.601562 L 297.277344 127.601562 Z M 297.277344 122.574219 " fill-opacity="1" fill-rule="nonzero"/><path fill="#f2f2f2" d="M 324.695312 117.550781 L 324.695312 111.152344 L 168.242188 111.152344 L 183.3125 117.550781 Z M 324.695312 117.550781 " fill-opacity="1" fill-rule="nonzero"/><path fill="#192e3a" d="M 174.820312 208.480469 L 198.125 208.480469 L 198.125 132.273438 L 122.648438 100.238281 L 47.335938 132.207031 L 47.335938 208.480469 Z M 174.820312 208.480469 " fill-opacity="1" fill-rule="nonzero"/><path fill="#f2f2f2" d="M 102.625 123.488281 L 94.398438 123.488281 L 94.398438 136.285156 L 102.625 136.285156 Z M 102.625 123.488281 " fill-opacity="1" fill-rule="nonzero"/><path fill="#f2f2f2" d="M 118.617188 123.488281 L 110.390625 123.488281 L 110.390625 136.285156 L 118.617188 136.285156 Z M 118.617188 123.488281 " fill-opacity="1" fill-rule="nonzero"/><path fill="#f2f2f2" d="M 134.609375 123.488281 L 126.382812 123.488281 L 126.382812 136.285156 L 134.609375 136.285156 Z M 134.609375 123.488281 " fill-opacity="1" fill-rule="nonzero"/><path fill="#f2f2f2" d="M 150.601562 123.488281 L 142.378906 123.488281 L 142.378906 136.285156 L 150.601562 136.285156 Z M 150.601562 123.488281 " fill-opacity="1" fill-rule="nonzero"/><path fill="#f2f2f2" d="M 70.636719 160.042969 L 174.820312 160.042969 L 174.820312 208.480469 L 70.636719 208.480469 Z M 70.636719 160.042969 " fill-opacity="1" fill-rule="nonzero"/><path fill="#f29727" d="M 177.105469 143.59375 L 68.355469 143.59375 L 68.355469 160.042969 L 177.105469 160.042969 Z M 177.105469 143.59375 " fill-opacity="1" fill-rule="nonzero"/><path fill="#f29727" d="M 183.042969 88.109375 C 183.042969 86.621094 184.25 85.414062 185.738281 85.414062 L 319.714844 85.414062 C 321.203125 85.414062 322.410156 86.621094 322.410156 88.109375 L 322.410156 100.996094 C 322.410156 102.484375 321.203125 103.691406 319.714844 103.691406 L 185.738281 103.691406 C 184.25 103.691406 183.042969 102.484375 183.042969 100.996094 Z M 183.042969 88.109375 " fill-opacity="1" fill-rule="nonzero"/><g clip-path="url(#13f2f34936)"><path fill="#f2f2f2" d="M 204.660156 135.050781 L 207.695312 127.898438 L 183.3125 117.550781 L 168.242188 111.152344 L 122.648438 91.796875 L 37.601562 127.898438 L 40.636719 135.050781 L 47.335938 132.207031 L 122.648438 100.238281 L 198.125 132.273438 Z M 204.660156 135.050781 " fill-opacity="1" fill-rule="nonzero"/></g><path fill="#253036" d="M 61.957031 143.59375 L 183.042969 143.59375 L 183.042969 140.851562 L 61.957031 140.851562 Z M 61.957031 143.59375 " fill-opacity="1" fill-rule="nonzero"/><path fill="#ffffff" d="M 147.527344 156.929688 C 148.972656 157.636719 152.058594 159.65625 152.84375 162.074219 C 153.824219 165.097656 157.179688 168.367188 156.769531 168.609375 C 156.359375 168.855469 153.5 169.183594 151.535156 164.527344 C 151.753906 166.433594 151.835938 170.296875 150.394531 170.496094 C 149.449219 170.625 149.070312 170.414062 148.875 169.769531 C 147.617188 170.964844 146.496094 171.28125 146.183594 169.445312 C 145.601562 169.878906 144.28125 170.5 143.695312 169.519531 C 143.578125 169.328125 143.488281 169.0625 143.425781 168.757812 C 143.132812 169.609375 142.257812 170.828125 141.078125 168.867188 C 140.519531 167.9375 140.429688 166.628906 140.636719 165.628906 C 140.527344 164.722656 140.472656 162.679688 140.933594 160.84375 C 131.949219 148.765625 128.242188 149.777344 123.472656 140.363281 C 123.472656 138.496094 125.644531 135.527344 126.894531 133.601562 C 135.976562 141.480469 147.527344 156.929688 147.527344 156.929688 Z M 147.527344 156.929688 " fill-opacity="1" fill-rule="nonzero"/><path fill="#f29727" d="M 217.253906 245.296875 L 272.945312 196.882812 L 321.359375 252.574219 L 265.667969 300.988281 Z M 217.253906 245.296875 " fill-opacity="1" fill-rule="nonzero"/><path fill="#253036" d="M 217.253906 245.296875 L 272.945312 196.882812 L 321.359375 252.574219 L 265.667969 300.988281 Z M 265.734375 300.039062 L 320.410156 252.507812 L 272.878906 197.832031 L 218.203125 245.363281 Z M 265.734375 300.039062 " fill-opacity="1" fill-rule="evenodd"/><path fill="#f29727" d="M 266.445312 305.222656 L 234.496094 304.421875 L 229.375 268.46875 C 222.746094 262.265625 190.59375 218.464844 175.34375 197.339844 L 227.847656 257.742188 Z M 266.445312 305.222656 " fill-opacity="1" fill-rule="nonzero"/><path fill="#253036" d="M 238.105469 227.167969 L 255.570312 247.257812 L 258.777344 236.824219 L 269.558594 235.101562 L 252.09375 215.007812 Z M 238.105469 227.167969 " fill-opacity="1" fill-rule="nonzero"/><path fill="#192e3a" d="M 238.695312 269.964844 L 267.941406 244.539062 L 293.367188 273.785156 L 264.121094 299.210938 Z M 238.695312 269.964844 " fill-opacity="1" fill-rule="nonzero"/><path fill="#253036" d="M 238.695312 269.964844 L 267.941406 244.539062 L 293.367188 273.785156 L 264.121094 299.210938 Z M 264.1875 298.257812 L 292.414062 273.71875 L 267.875 245.492188 L 239.648438 270.03125 Z M 264.1875 298.257812 " fill-opacity="1" fill-rule="evenodd"/><path fill="#253036" d="M 249.664062 260.429688 L 258.839844 270.984375 L 260.503906 265.519531 L 266.148438 264.628906 L 256.976562 254.074219 Z M 249.664062 260.429688 " fill-opacity="1" fill-rule="nonzero"/><g clip-path="url(#0c24daf344)"><path fill="#253036" d="M 149.84375 171.5625 L 122.042969 176.160156 C 120.207031 176.464844 118.472656 175.222656 118.167969 173.386719 C 117.863281 171.550781 119.105469 169.816406 120.941406 169.511719 L 149.859375 164.726562 C 151.476562 164.460938 153.113281 165.050781 154.1875 166.285156 L 266.683594 295.742188 L 319.519531 247.257812 C 320.890625 246 323.023438 246.089844 324.28125 247.460938 C 325.539062 248.832031 325.449219 250.964844 324.078125 252.222656 L 266.140625 305.386719 Z M 149.84375 171.5625 " fill-opacity="1" fill-rule="evenodd"/></g><path fill="#253036" d="M 251.527344 291.402344 C 258.855469 299.828125 257.960938 312.601562 249.535156 319.925781 C 241.105469 327.25 228.335938 326.359375 221.011719 317.929688 C 213.6875 309.503906 214.578125 296.734375 223.003906 289.40625 C 231.433594 282.082031 244.203125 282.976562 251.527344 291.402344 Z M 251.527344 291.402344 " fill-opacity="1" fill-rule="nonzero"/><path fill="#f2f2f2" d="M 245.171875 296.929688 C 249.445312 301.84375 248.921875 309.292969 244.007812 313.566406 C 239.089844 317.839844 231.640625 317.320312 227.367188 312.40625 C 223.09375 307.488281 223.617188 300.039062 228.53125 295.765625 C 233.449219 291.492188 240.898438 292.015625 245.171875 296.929688 Z M 245.171875 296.929688 " fill-opacity="1" fill-rule="nonzero"/><path fill="#253036" d="M 239.574219 301.792969 C 241.164062 303.617188 240.96875 306.386719 239.144531 307.972656 C 237.316406 309.558594 234.550781 309.367188 232.964844 307.539062 C 231.375 305.714844 231.570312 302.949219 233.394531 301.359375 C 235.222656 299.773438 237.988281 299.96875 239.574219 301.792969 Z M 239.574219 301.792969 " fill-opacity="1" fill-rule="nonzero"/><path fill="#192e3a" d="M 203.28125 223.0625 L 230.75 199.183594 L 247.769531 218.765625 L 220.304688 242.640625 Z M 203.28125 223.0625 " fill-opacity="1" fill-rule="nonzero"/><path fill="#253036" d="M 202.332031 222.996094 L 230.8125 198.234375 L 248.722656 218.832031 L 220.238281 243.59375 Z M 203.28125 223.0625 L 220.304688 242.644531 L 247.769531 218.765625 L 230.75 199.183594 Z M 203.28125 223.0625 " fill-opacity="1" fill-rule="evenodd"/><path fill="#253036" d="M 213.582031 214.109375 L 224.414062 226.570312 L 224.199219 219.386719 L 230.898438 220.933594 L 220.066406 208.472656 Z M 213.582031 214.109375 " fill-opacity="1" fill-rule="nonzero"/><path fill="#f2f2f2" d="M 167.46875 181.863281 L 188.832031 163.292969 L 205.851562 182.875 L 184.492188 201.445312 Z M 167.46875 181.863281 " fill-opacity="1" fill-rule="nonzero"/><path fill="#253036" d="M 175.605469 174.789062 L 178.660156 172.136719 L 195.679688 191.71875 L 192.628906 194.371094 Z M 175.605469 174.789062 " fill-opacity="1" fill-rule="nonzero"/><path fill="#253036" d="M 176.402344 194.191406 L 173.746094 191.140625 L 196.128906 171.683594 L 198.78125 174.738281 Z M 176.402344 194.191406 " fill-opacity="1" fill-rule="nonzero"/><path fill="#253036" d="M 166.824219 166.238281 L 139.804688 170.699219 C 138.019531 170.992188 136.332031 169.789062 136.039062 168.007812 C 135.742188 166.226562 136.949219 164.542969 138.734375 164.25 L 166.839844 159.609375 C 168.410156 159.347656 170.003906 159.921875 171.046875 161.121094 L 219.257812 216.46875 L 215.132812 221.695312 Z M 166.824219 166.238281 " fill-opacity="1" fill-rule="nonzero"/><path fill="#f29727" d="M 230.492188 199.40625 L 257.960938 175.53125 L 274.980469 195.113281 L 247.515625 218.988281 Z M 230.492188 199.40625 " fill-opacity="1" fill-rule="nonzero"/><path fill="#192e3a" d="M 184.492188 201.445312 L 230.523438 161.429688 L 249.3125 183.046875 L 203.28125 223.0625 Z M 184.492188 201.445312 " fill-opacity="1" fill-rule="nonzero"/><path fill="#253036" d="M 230.453125 162.382812 L 185.441406 201.511719 L 203.347656 222.109375 L 248.363281 182.980469 Z M 184.492188 201.445312 L 203.28125 223.0625 L 249.3125 183.046875 L 230.523438 161.429688 Z M 184.492188 201.445312 " fill-opacity="1" fill-rule="evenodd"/><path fill="#253036" d="M 203.945312 184.53125 L 213.339844 195.339844 L 215.132812 190.210938 L 220.589844 189.039062 L 211.195312 178.230469 Z M 203.945312 184.53125 " fill-opacity="1" fill-rule="nonzero"/><path fill="#253036" d="M 242.445312 189.015625 L 244.734375 187.027344 L 261.757812 206.609375 L 259.46875 208.597656 Z M 242.445312 189.015625 " fill-opacity="1" fill-rule="nonzero"/><path fill="#253036" d="M 240.253906 210.121094 L 238.265625 207.832031 L 265.476562 184.175781 L 267.464844 186.464844 Z M 240.253906 210.121094 " fill-opacity="1" fill-rule="nonzero"/><path fill="#ffffff" d="M 126.480469 313.976562 C 128.386719 312.386719 127.75 299.367188 127.75 299.050781 L 139.816406 299.050781 C 139.816406 299.367188 140.136719 310.164062 144.582031 312.070312 C 140.769531 316.390625 129.761719 314.820312 126.480469 313.976562 Z M 126.480469 313.976562 " fill-opacity="1" fill-rule="nonzero"/><path fill="#192e3a" d="M 139.339844 306.808594 C 136.960938 307.625 137.773438 308.855469 135.617188 310.738281 C 131.53125 314.3125 129.613281 307.058594 126.851562 309.167969 C 125.128906 310.480469 125 317.875 125.398438 321.597656 C 131.617188 322.917969 143.609375 324.539062 151.804688 324.988281 C 154.269531 325.125 157.171875 325.398438 158.847656 323.59375 C 161.34375 320.910156 154.410156 316.242188 149.753906 313.84375 C 148.976562 313.207031 148.230469 312.558594 147.542969 311.949219 L 147.347656 311.777344 C 146.886719 311.367188 146.4375 310.953125 146.003906 310.550781 C 145.339844 309.929688 144.703125 309.328125 144.09375 308.792969 C 142.375 307.292969 140.835938 306.296875 139.339844 306.808594 Z M 139.339844 306.808594 " fill-opacity="1" fill-rule="nonzero"/><path fill="#253036" d="M 141.488281 307.351562 C 140.753906 307 140.089844 306.90625 139.449219 307.125 C 138.886719 307.320312 138.53125 307.53125 138.28125 307.753906 C 138.03125 307.976562 137.863281 308.226562 137.6875 308.539062 C 137.640625 308.621094 137.59375 308.707031 137.546875 308.796875 C 137.222656 309.394531 136.820312 310.132812 135.839844 310.992188 C 134.757812 311.9375 133.773438 312.203125 132.851562 312.035156 C 131.960938 311.875 131.191406 311.316406 130.523438 310.761719 C 130.355469 310.625 130.207031 310.496094 130.058594 310.371094 C 129.890625 310.226562 129.726562 310.085938 129.546875 309.941406 C 129.234375 309.6875 128.941406 309.472656 128.65625 309.324219 C 128.371094 309.175781 128.113281 309.105469 127.863281 309.113281 C 127.617188 309.121094 127.351562 309.207031 127.054688 309.433594 C 126.90625 309.546875 126.695312 309.519531 126.582031 309.371094 C 126.46875 309.222656 126.496094 309.011719 126.644531 308.898438 C 127.039062 308.597656 127.4375 308.449219 127.839844 308.4375 C 128.242188 308.425781 128.617188 308.546875 128.964844 308.726562 C 129.3125 308.90625 129.648438 309.15625 129.972656 309.417969 C 130.140625 309.554688 130.328125 309.714844 130.511719 309.871094 C 130.664062 310 130.8125 310.125 130.953125 310.242188 C 131.617188 310.792969 132.269531 311.246094 132.972656 311.371094 C 133.644531 311.492188 134.433594 311.328125 135.394531 310.484375 C 136.28125 309.710938 136.632812 309.0625 136.953125 308.480469 C 137.003906 308.386719 137.050781 308.296875 137.101562 308.207031 C 137.289062 307.875 137.5 307.546875 137.835938 307.25 C 138.167969 306.953125 138.605469 306.703125 139.230469 306.488281 C 140.085938 306.195312 140.941406 306.34375 141.777344 306.742188 C 142.609375 307.136719 143.453125 307.785156 144.316406 308.539062 C 144.835938 308.996094 145.371094 309.496094 145.921875 310.011719 C 146.027344 310.109375 146.128906 310.207031 146.234375 310.304688 C 146.667969 310.707031 147.113281 311.117188 147.570312 311.523438 L 147.765625 311.699219 C 148.445312 312.296875 149.179688 312.9375 149.941406 313.5625 C 152.273438 314.765625 155.183594 316.539062 157.207031 318.359375 C 158.222656 319.273438 159.042969 320.222656 159.445312 321.140625 C 159.644531 321.605469 159.75 322.074219 159.699219 322.535156 C 159.652344 323.003906 159.453125 323.4375 159.09375 323.824219 C 158.96875 323.960938 158.753906 323.96875 158.617188 323.839844 C 158.484375 323.714844 158.476562 323.5 158.601562 323.363281 C 158.867188 323.078125 158.996094 322.777344 159.03125 322.46875 C 159.0625 322.152344 158.996094 321.800781 158.828125 321.410156 C 158.484375 320.625 157.75 319.753906 156.757812 318.863281 C 154.8125 317.113281 151.996094 315.386719 149.699219 314.195312 C 149.066406 314.304688 148.136719 314.515625 147.292969 314.832031 C 146.847656 315 146.433594 315.195312 146.105469 315.40625 C 145.769531 315.625 145.550781 315.84375 145.449219 316.054688 C 145.367188 316.222656 145.164062 316.292969 144.996094 316.210938 C 144.828125 316.128906 144.761719 315.925781 144.84375 315.761719 C 145.023438 315.390625 145.359375 315.089844 145.738281 314.84375 C 146.121094 314.59375 146.582031 314.378906 147.054688 314.203125 C 147.707031 313.957031 148.402344 313.773438 148.988281 313.648438 C 148.472656 313.210938 147.972656 312.777344 147.5 312.363281 C 147.300781 312.460938 147.0625 312.550781 146.816406 312.640625 C 146.730469 312.667969 146.644531 312.699219 146.558594 312.730469 C 146.253906 312.839844 145.929688 312.957031 145.601562 313.09375 C 145.179688 313.265625 144.773438 313.464844 144.433594 313.699219 C 144.09375 313.933594 143.839844 314.195312 143.695312 314.488281 C 143.613281 314.652344 143.414062 314.722656 143.246094 314.640625 C 143.078125 314.558594 143.007812 314.359375 143.089844 314.191406 C 143.300781 313.757812 143.65625 313.417969 144.050781 313.144531 C 144.449219 312.871094 144.902344 312.652344 145.34375 312.46875 C 145.6875 312.328125 146.035156 312.203125 146.339844 312.09375 C 146.425781 312.0625 146.507812 312.035156 146.585938 312.003906 C 146.71875 311.957031 146.839844 311.910156 146.945312 311.871094 C 146.589844 311.554688 146.246094 311.234375 145.910156 310.921875 C 145.867188 310.933594 145.820312 310.941406 145.777344 310.953125 C 145.714844 310.964844 145.644531 310.980469 145.570312 310.996094 L 145.546875 311 C 145.464844 311.019531 145.375 311.035156 145.28125 311.058594 C 144.902344 311.140625 144.4375 311.246094 143.972656 311.390625 C 143.503906 311.535156 143.042969 311.71875 142.664062 311.941406 C 142.28125 312.167969 142.007812 312.425781 141.871094 312.703125 C 141.789062 312.871094 141.585938 312.9375 141.417969 312.855469 C 141.253906 312.773438 141.183594 312.574219 141.265625 312.40625 C 141.484375 311.960938 141.882812 311.621094 142.320312 311.363281 C 142.765625 311.101562 143.28125 310.902344 143.773438 310.746094 C 144.265625 310.59375 144.753906 310.480469 145.136719 310.398438 C 145.199219 310.386719 145.253906 310.375 145.308594 310.363281 C 144.863281 309.945312 144.433594 309.542969 144.011719 309.171875 C 143.992188 309.179688 143.972656 309.183594 143.953125 309.191406 C 143.585938 309.304688 142.929688 309.503906 142.230469 309.789062 C 141.777344 309.972656 141.324219 310.1875 140.9375 310.429688 C 140.546875 310.671875 140.257812 310.921875 140.101562 311.164062 C 140 311.324219 139.792969 311.371094 139.636719 311.269531 C 139.476562 311.167969 139.429688 310.960938 139.53125 310.804688 C 139.769531 310.433594 140.160156 310.117188 140.582031 309.855469 C 141.011719 309.589844 141.503906 309.359375 141.972656 309.164062 C 142.503906 308.949219 143.023438 308.773438 143.410156 308.652344 C 142.730469 308.089844 142.097656 307.636719 141.488281 307.351562 Z M 126.816406 316.957031 C 126.851562 316.773438 127.027344 316.65625 127.210938 316.691406 C 130.824219 317.410156 136.285156 318.351562 141.773438 319.042969 C 147.269531 319.734375 152.765625 320.167969 156.460938 319.871094 C 156.648438 319.855469 156.808594 319.996094 156.824219 320.179688 C 156.839844 320.367188 156.703125 320.527344 156.515625 320.542969 C 152.742188 320.84375 147.1875 320.402344 141.6875 319.710938 C 136.179688 319.019531 130.707031 318.070312 127.078125 317.351562 C 126.898438 317.316406 126.777344 317.140625 126.816406 316.957031 Z M 126.816406 316.957031 " fill-opacity="1" fill-rule="evenodd"/><path fill="#ffffff" d="M 108.1875 96.632812 C 113.175781 94.699219 113.402344 85.988281 112.894531 81.875 C 113.59375 83.625 118.253906 92.117188 125.109375 92.238281 C 125.140625 93.34375 125.328125 95.421875 125.828125 96.933594 L 125.835938 96.953125 C 126.140625 97.867188 126.46875 98.859375 126.140625 99.765625 C 123.691406 106.539062 112.925781 100.578125 108.1875 96.632812 Z M 108.1875 96.632812 " fill-opacity="1" fill-rule="nonzero"/><path fill="#ffffff" d="M 115.183594 75.257812 C 123.316406 74.367188 125.988281 68.488281 126.355469 65.441406 C 128.1875 65.957031 131.953125 67.929688 132.359375 71.695312 C 132.867188 76.402344 134.902344 90.398438 127.015625 92.054688 C 126.363281 92.191406 125.726562 92.246094 125.109375 92.238281 C 118.253906 92.117188 113.59375 83.625 112.894531 81.875 C 108.820312 79.964844 108.441406 75.640625 109.96875 74.113281 C 111.1875 72.894531 113.953125 74.367188 115.183594 75.257812 Z M 115.183594 75.257812 " fill-opacity="1" fill-rule="nonzero"/><path fill="#253036" d="M 125.738281 86.355469 C 125.585938 86.464844 125.554688 86.675781 125.664062 86.828125 C 126.234375 87.609375 127.09375 87.714844 127.78125 87.582031 C 128.128906 87.515625 128.449219 87.386719 128.699219 87.238281 C 128.828125 87.164062 128.941406 87.085938 129.035156 87 C 129.125 86.917969 129.214844 86.820312 129.269531 86.703125 C 129.351562 86.535156 129.277344 86.335938 129.113281 86.253906 C 128.941406 86.175781 128.742188 86.246094 128.664062 86.414062 C 128.664062 86.414062 128.660156 86.421875 128.644531 86.4375 C 128.632812 86.453125 128.613281 86.472656 128.585938 86.496094 C 128.53125 86.546875 128.457031 86.601562 128.359375 86.65625 C 128.171875 86.765625 127.921875 86.867188 127.65625 86.917969 C 127.117188 87.023438 126.570312 86.929688 126.207031 86.429688 C 126.097656 86.277344 125.886719 86.246094 125.738281 86.355469 Z M 125.738281 86.355469 " fill-opacity="1" fill-rule="evenodd"/><path fill="#253036" d="M 112.59375 77.078125 C 112.132812 76.640625 111.59375 76.34375 111.246094 76.210938 L 111.488281 75.582031 C 111.90625 75.742188 112.523438 76.085938 113.058594 76.589844 C 113.589844 77.09375 114.0625 77.796875 114.121094 78.671875 L 113.449219 78.71875 C 113.40625 78.066406 113.050781 77.515625 112.59375 77.078125 Z M 116.945312 87.445312 C 119.03125 89.773438 121.828125 91.84375 125.113281 91.902344 L 125.101562 92.574219 C 121.535156 92.511719 118.574219 90.277344 116.441406 87.894531 C 114.304688 85.503906 112.945312 82.910156 112.582031 82 L 113.207031 81.75 C 113.542969 82.589844 114.863281 85.117188 116.945312 87.445312 Z M 116.945312 87.445312 " fill-opacity="1" fill-rule="evenodd"/><path fill="#253036" d="M 115.183594 75.257812 C 123.316406 74.367188 125.988281 68.492188 126.355469 65.441406 C 128.1875 65.957031 131.953125 67.929688 132.359375 71.695312 C 132.867188 76.402344 134.90625 90.398438 127.015625 92.054688 C 126.363281 92.191406 125.726562 92.246094 125.109375 92.238281 C 125.136719 93.320312 125.742188 97.390625 126.222656 98.894531 C 130.117188 100.753906 131.5 104.113281 132.960938 106.308594 C 133.625 107.304688 134.011719 108.65625 134.984375 111.023438 L 140.824219 104.792969 C 142.796875 100.875 140.808594 97.429688 138.339844 94.34375 C 135.792969 91.164062 138.210938 89.128906 139.355469 85.566406 C 140.503906 82.003906 138.085938 79.078125 136.429688 76.785156 C 134.777344 74.496094 135.285156 71.695312 134.777344 65.207031 C 134.371094 60.015625 126.296875 57.703125 122.308594 57.191406 C 117.769531 56.726562 108.160156 58.007812 106.023438 66.863281 C 104.371094 74.113281 106.9375 74.769531 101.441406 76.53125 C 94.699219 78.695312 101.441406 84.417969 96.992188 87.726562 C 94.402344 89.847656 90.78125 95.414062 96.992188 100.703125 L 108.1875 96.632812 C 113.171875 94.699219 113.402344 85.988281 112.894531 81.875 C 108.824219 79.964844 108.441406 75.640625 109.96875 74.113281 C 111.1875 72.894531 113.953125 74.367188 115.183594 75.257812 Z M 115.183594 75.257812 " fill-opacity="1" fill-rule="nonzero"/><path fill="#253036" d="M 121.230469 74.953125 C 120.695312 75.765625 120.355469 76.90625 120.355469 78.183594 C 120.355469 79.464844 120.695312 80.605469 121.230469 81.417969 C 121.769531 82.234375 122.46875 82.683594 123.199219 82.683594 C 123.925781 82.683594 124.628906 82.234375 125.167969 81.417969 C 125.699219 80.605469 126.042969 79.464844 126.042969 78.183594 C 126.042969 76.90625 125.699219 75.765625 125.167969 74.953125 C 124.628906 74.136719 123.925781 73.6875 123.199219 73.6875 C 122.46875 73.6875 121.769531 74.136719 121.230469 74.953125 Z M 120.667969 74.582031 C 121.28125 73.648438 122.171875 73.015625 123.199219 73.015625 C 124.226562 73.015625 125.113281 73.648438 125.730469 74.582031 C 126.273438 75.410156 126.628906 76.503906 126.703125 77.707031 C 126.898438 77.648438 127.125 77.601562 127.351562 77.582031 C 127.582031 77.558594 127.84375 77.5625 128.089844 77.628906 C 128.15625 76.582031 128.453125 75.632812 128.914062 74.910156 C 129.433594 74.089844 130.195312 73.523438 131.085938 73.523438 C 131.980469 73.523438 132.738281 74.089844 133.261719 74.910156 C 133.78125 75.730469 134.097656 76.84375 134.097656 78.058594 C 134.097656 79.273438 133.78125 80.386719 133.261719 81.207031 C 132.738281 82.027344 131.980469 82.59375 131.085938 82.59375 C 130.210938 82.59375 129.460938 82.046875 128.941406 81.253906 C 128.445312 80.492188 128.128906 79.472656 128.085938 78.351562 C 127.929688 78.257812 127.703125 78.222656 127.414062 78.25 C 127.164062 78.273438 126.910156 78.34375 126.710938 78.414062 C 126.675781 79.714844 126.3125 80.902344 125.730469 81.789062 C 125.113281 82.722656 124.226562 83.355469 123.199219 83.355469 C 122.171875 83.355469 121.28125 82.722656 120.667969 81.789062 C 120.050781 80.851562 119.679688 79.578125 119.679688 78.183594 C 119.679688 76.792969 120.050781 75.519531 120.667969 74.582031 Z M 129.480469 75.269531 C 129.039062 75.96875 128.753906 76.953125 128.753906 78.058594 C 128.753906 78.097656 128.753906 78.140625 128.753906 78.179688 C 128.773438 79.257812 129.066406 80.210938 129.507812 80.882812 C 129.949219 81.5625 130.515625 81.921875 131.085938 81.921875 C 131.667969 81.921875 132.246094 81.546875 132.691406 80.847656 C 133.136719 80.148438 133.421875 79.164062 133.421875 78.058594 C 133.421875 76.953125 133.136719 75.96875 132.691406 75.269531 C 132.246094 74.570312 131.667969 74.195312 131.085938 74.195312 C 130.503906 74.195312 129.929688 74.570312 129.480469 75.269531 Z M 129.480469 75.269531 " fill-opacity="1" fill-rule="evenodd"/><path fill="#253036" d="M 125.617188 77.550781 C 125.617188 78.183594 125.273438 78.695312 124.855469 78.695312 C 124.429688 78.695312 124.089844 78.183594 124.089844 77.550781 C 124.089844 76.917969 124.429688 76.402344 124.855469 76.402344 C 125.273438 76.402344 125.617188 76.917969 125.617188 77.550781 Z M 125.617188 77.550781 " fill-opacity="1" fill-rule="nonzero"/><path fill="#253036" d="M 132.488281 77.804688 C 132.488281 78.4375 132.144531 78.949219 131.722656 78.949219 C 131.300781 78.949219 130.960938 78.4375 130.960938 77.804688 C 130.960938 77.171875 131.300781 76.660156 131.722656 76.660156 C 132.144531 76.660156 132.488281 77.171875 132.488281 77.804688 Z M 132.488281 77.804688 " fill-opacity="1" fill-rule="nonzero"/><path fill="#253036" d="M 120.230469 76.230469 L 115.144531 75.59375 L 115.226562 74.925781 L 120.316406 75.5625 Z M 120.230469 76.230469 " fill-opacity="1" fill-rule="evenodd"/><path fill="#ffffff" d="M 57.46875 294.449219 L 62.628906 284.996094 C 58.390625 283.640625 50.847656 282.105469 50.667969 281.792969 C 50.488281 281.480469 48.328125 285.207031 47.269531 287.117188 C 48.535156 296.132812 54.902344 295.84375 57.46875 294.449219 Z M 57.46875 294.449219 " fill-opacity="1" fill-rule="nonzero"/><g clip-path="url(#b59056306d)"><path fill="#192e3a" d="M 57.863281 292.910156 C 55.585938 291.84375 55.316406 293.292969 52.457031 293.148438 C 47.035156 292.878906 50.691406 286.332031 47.242188 285.925781 C 45.089844 285.675781 39.863281 290.90625 37.5625 293.859375 C 39.765625 297.128906 43.484375 302.015625 47.324219 306.695312 C 51.351562 311.605469 52.457031 314.820312 62.242188 314.820312 C 64.953125 314.820312 66.054688 315.148438 66.15625 313.964844 C 66.351562 311.675781 62.878906 306.898438 60.46875 305.203125 C 60.351562 304.207031 60.265625 303.222656 60.195312 302.304688 L 60.171875 302.042969 C 60.125 301.429688 60.089844 300.820312 60.058594 300.230469 C 60.011719 299.320312 59.972656 298.449219 59.902344 297.636719 C 59.710938 295.363281 59.296875 293.578125 57.863281 292.910156 Z M 57.863281 292.910156 " fill-opacity="1" fill-rule="nonzero"/></g><path fill="#253036" d="M 59.035156 294.789062 C 58.746094 294.027344 58.335938 293.5 57.722656 293.214844 C 57.183594 292.960938 56.78125 292.867188 56.445312 292.855469 C 56.113281 292.839844 55.816406 292.902344 55.472656 293.007812 C 55.382812 293.03125 55.289062 293.0625 55.191406 293.09375 C 54.546875 293.296875 53.742188 293.550781 52.441406 293.484375 C 51.007812 293.414062 50.113281 292.921875 49.566406 292.160156 C 49.039062 291.425781 48.871094 290.488281 48.777344 289.625 C 48.75 289.414062 48.730469 289.214844 48.714844 289.023438 C 48.691406 288.800781 48.671875 288.585938 48.644531 288.359375 C 48.597656 287.957031 48.535156 287.601562 48.429688 287.296875 C 48.328125 286.992188 48.191406 286.761719 48.007812 286.59375 C 47.828125 286.429688 47.574219 286.304688 47.203125 286.261719 C 47.019531 286.242188 46.886719 286.074219 46.90625 285.890625 C 46.929688 285.703125 47.097656 285.570312 47.28125 285.59375 C 47.773438 285.652344 48.160156 285.820312 48.460938 286.09375 C 48.757812 286.363281 48.945312 286.707031 49.070312 287.082031 C 49.195312 287.453125 49.261719 287.863281 49.3125 288.277344 C 49.339844 288.496094 49.363281 288.738281 49.386719 288.980469 C 49.40625 289.175781 49.425781 289.371094 49.445312 289.550781 C 49.542969 290.410156 49.695312 291.1875 50.113281 291.765625 C 50.515625 292.324219 51.195312 292.75 52.472656 292.8125 C 53.648438 292.871094 54.351562 292.652344 54.984375 292.453125 C 55.085938 292.417969 55.183594 292.390625 55.28125 292.359375 C 55.648438 292.25 56.027344 292.160156 56.476562 292.179688 C 56.921875 292.199219 57.410156 292.324219 58.007812 292.601562 C 58.828125 292.988281 59.339844 293.6875 59.664062 294.554688 C 59.988281 295.414062 60.144531 296.464844 60.238281 297.609375 C 60.296875 298.296875 60.335938 299.03125 60.375 299.785156 C 60.382812 299.925781 60.386719 300.066406 60.394531 300.210938 C 60.425781 300.804688 60.460938 301.40625 60.507812 302.019531 L 60.527344 302.277344 C 60.597656 303.148438 60.679688 304.074219 60.785156 305.019531 C 62.132812 306.003906 63.691406 307.804688 64.804688 309.609375 C 65.382812 310.539062 65.847656 311.484375 66.105469 312.335938 C 66.359375 313.171875 66.433594 313.992188 66.113281 314.605469 C 66.027344 314.769531 65.824219 314.835938 65.660156 314.75 C 65.496094 314.664062 65.429688 314.460938 65.515625 314.296875 C 65.710938 313.921875 65.703125 313.324219 65.460938 312.53125 C 65.226562 311.753906 64.789062 310.863281 64.230469 309.960938 C 63.113281 308.152344 61.550781 306.375 60.273438 305.480469 C 59.75 305.113281 58.886719 304.585938 58.011719 304.207031 C 57.574219 304.015625 57.144531 303.867188 56.757812 303.792969 C 56.367188 303.71875 56.054688 303.722656 55.835938 303.804688 C 55.660156 303.867188 55.464844 303.777344 55.402344 303.601562 C 55.339844 303.425781 55.429688 303.234375 55.605469 303.167969 C 55.992188 303.03125 56.441406 303.046875 56.886719 303.132812 C 57.335938 303.21875 57.816406 303.386719 58.277344 303.589844 C 58.917969 303.863281 59.546875 304.210938 60.054688 304.53125 C 59.984375 303.859375 59.925781 303.199219 59.875 302.570312 C 59.667969 302.503906 59.429688 302.402344 59.191406 302.296875 C 59.109375 302.257812 59.027344 302.222656 58.941406 302.183594 C 58.648438 302.050781 58.332031 301.910156 58.003906 301.777344 C 57.578125 301.609375 57.148438 301.46875 56.742188 301.402344 C 56.335938 301.335938 55.96875 301.347656 55.664062 301.457031 C 55.488281 301.519531 55.296875 301.429688 55.230469 301.253906 C 55.167969 301.082031 55.257812 300.886719 55.433594 300.824219 C 55.886719 300.660156 56.378906 300.660156 56.851562 300.738281 C 57.328125 300.816406 57.808594 300.976562 58.25 301.152344 C 58.597656 301.289062 58.933594 301.4375 59.226562 301.574219 C 59.3125 301.609375 59.390625 301.644531 59.464844 301.679688 C 59.597656 301.738281 59.714844 301.789062 59.820312 301.832031 C 59.785156 301.359375 59.757812 300.890625 59.734375 300.433594 C 59.695312 300.410156 59.65625 300.386719 59.617188 300.359375 C 59.5625 300.328125 59.503906 300.289062 59.4375 300.25 L 59.417969 300.234375 C 59.34375 300.191406 59.269531 300.140625 59.1875 300.089844 C 58.855469 299.886719 58.449219 299.644531 58.011719 299.421875 C 57.574219 299.203125 57.117188 299.011719 56.6875 298.910156 C 56.253906 298.804688 55.882812 298.800781 55.589844 298.90625 C 55.414062 298.96875 55.222656 298.878906 55.160156 298.703125 C 55.09375 298.527344 55.183594 298.335938 55.359375 298.273438 C 55.828125 298.101562 56.347656 298.136719 56.84375 298.253906 C 57.347656 298.375 57.855469 298.589844 58.316406 298.820312 C 58.78125 299.054688 59.207031 299.308594 59.542969 299.519531 C 59.59375 299.550781 59.644531 299.582031 59.691406 299.609375 C 59.660156 299 59.625 298.414062 59.582031 297.855469 C 59.566406 297.84375 59.546875 297.835938 59.527344 297.828125 C 59.183594 297.652344 58.574219 297.339844 57.871094 297.058594 C 57.417969 296.878906 56.941406 296.714844 56.5 296.621094 C 56.050781 296.523438 55.667969 296.503906 55.382812 296.570312 C 55.203125 296.613281 55.019531 296.503906 54.976562 296.324219 C 54.933594 296.140625 55.046875 295.960938 55.226562 295.917969 C 55.652344 295.8125 56.152344 295.855469 56.640625 295.960938 C 57.136719 296.070312 57.648438 296.246094 58.121094 296.433594 C 58.652344 296.644531 59.148438 296.882812 59.507812 297.0625 C 59.414062 296.1875 59.269531 295.417969 59.035156 294.789062 Z M 41.8125 291.5 C 41.96875 291.398438 42.179688 291.445312 42.28125 291.601562 C 44.15625 294.488281 45.671875 296.980469 46.976562 299.128906 C 47.179688 299.464844 47.378906 299.792969 47.574219 300.113281 C 49.015625 302.480469 50.203125 304.382812 51.375 305.929688 C 52.546875 307.472656 53.699219 308.644531 55.066406 309.550781 C 56.429688 310.460938 58.027344 311.109375 60.097656 311.582031 C 60.277344 311.625 60.390625 311.804688 60.347656 311.988281 C 60.308594 312.167969 60.128906 312.28125 59.945312 312.242188 C 57.816406 311.753906 56.140625 311.074219 54.691406 310.113281 C 53.246094 309.152344 52.042969 307.917969 50.839844 306.335938 C 49.640625 304.757812 48.4375 302.824219 47 300.464844 C 46.804688 300.144531 46.605469 299.816406 46.398438 299.480469 C 45.09375 297.332031 43.585938 294.847656 41.714844 291.96875 C 41.613281 291.8125 41.65625 291.601562 41.8125 291.5 Z M 41.8125 291.5 " fill-opacity="1" fill-rule="evenodd"/><path fill="#f29727" d="M 108.699219 96.199219 C 123.792969 107.25 126.335938 101.8125 125.882812 97.210938 C 131.613281 100.578125 138.015625 102.601562 135.320312 126.863281 C 134.757812 127.335938 134.097656 127.6875 133.375 127.945312 C 133.351562 128.035156 133.324219 128.121094 133.296875 128.210938 C 129.503906 141.015625 129.929688 162.582031 134.644531 170.667969 C 125.480469 183.875 96.519531 175.496094 87.46875 170.667969 C 95.773438 158.929688 97.046875 144.785156 96.601562 133.75 C 95.035156 133.75 93.535156 133.601562 92.1875 133.265625 C 89.492188 118.4375 88.328125 111.699219 92.1875 105.632812 C 96.046875 99.566406 103.757812 97.660156 108.699219 96.199219 Z M 108.699219 96.199219 " fill-opacity="1" fill-rule="nonzero"/><path fill="#253036" d="M 83.425781 197.960938 C 81.40625 177.070312 89.492188 171.679688 90.503906 169.320312 C 98.253906 173.027344 117.191406 178.753906 130.9375 172.015625 C 130.265625 175.386719 138.015625 228.625 139.363281 236.039062 C 140.441406 241.96875 140.039062 284.5625 140.375 300.398438 C 136.667969 302.757812 132.285156 302.757812 127.234375 301.074219 C 120.761719 276.003906 118.472656 243.902344 119.480469 236.039062 C 116.894531 231.898438 112.878906 218.96875 109.46875 206.757812 C 106.640625 218.054688 102.742188 236.160156 101.285156 239.070312 C 99.582031 242.480469 71.207031 277.871094 60.511719 290.628906 C 57.605469 290.089844 53.035156 285.234375 50.066406 281.867188 C 53.839844 269.734375 70.621094 245.699219 78.710938 236.039062 C 78.820312 229.410156 84.828125 212.453125 83.425781 197.960938 Z M 83.425781 197.960938 " fill-opacity="1" fill-rule="nonzero"/><path fill="#f2f2f2" d="M 119.769531 190.375 C 119.867188 190.53125 119.816406 190.738281 119.65625 190.835938 C 116.550781 192.722656 113.949219 195.222656 112.363281 198.121094 C 112.101562 198.605469 111.734375 199.667969 111.292969 201.195312 C 110.851562 202.707031 110.34375 204.644531 109.796875 206.839844 C 109.75 207.019531 109.566406 207.128906 109.386719 207.082031 C 109.207031 207.039062 109.097656 206.855469 109.140625 206.675781 C 109.691406 204.476562 110.199219 202.53125 110.644531 201.007812 C 111.085938 199.492188 111.46875 198.355469 111.773438 197.800781 C 113.425781 194.773438 116.125 192.195312 119.308594 190.261719 C 119.464844 190.164062 119.671875 190.214844 119.769531 190.375 Z M 119.769531 190.375 " fill-opacity="1" fill-rule="evenodd"/><path fill="#ffffff" d="M 131.359375 158.710938 C 118.472656 147.078125 118.132812 145.394531 107.351562 137.308594 L 105.667969 132.355469 C 103.265625 133.078125 100.542969 133.585938 97.917969 133.71875 C 96.683594 133.777344 95.472656 133.757812 94.328125 133.636719 C 94.53125 135.644531 95.089844 137.664062 96.628906 139.464844 C 99.816406 143.203125 109.746094 159.089844 128.480469 166.296875 C 128.816406 168.164062 128.757812 170.058594 128.902344 172.128906 C 129.023438 173.832031 129.691406 175.519531 131.066406 176.53125 C 134.945312 179.382812 138.125 175.871094 139.578125 173.253906 L 137.363281 173.625 C 136.21875 170.8125 136.417969 167.054688 137.796875 165.277344 C 138.699219 164.199219 139.769531 163.988281 140.191406 164.015625 C 140.355469 163.257812 136.238281 163.117188 131.359375 158.710938 Z M 131.359375 158.710938 " fill-opacity="1" fill-rule="nonzero"/><path fill="#253036" d="M 100.8125 113.75 C 100.984375 113.675781 101.183594 113.75 101.257812 113.921875 C 103.113281 118.140625 104.132812 120.941406 104.8125 123.578125 C 105.46875 126.109375 105.804688 128.480469 106.28125 131.796875 C 106.296875 131.933594 106.316406 132.070312 106.335938 132.207031 L 106.378906 132.488281 L 106.105469 132.574219 C 101.761719 133.933594 96.234375 134.621094 92.105469 133.589844 C 91.925781 133.546875 91.816406 133.363281 91.859375 133.183594 C 91.90625 133.003906 92.089844 132.890625 92.269531 132.9375 C 96.144531 133.90625 101.394531 133.296875 105.628906 132.015625 C 105.625 131.980469 105.621094 131.945312 105.613281 131.910156 C 105.140625 128.578125 104.804688 126.238281 104.160156 123.746094 C 103.492188 121.160156 102.492188 118.398438 100.640625 114.195312 C 100.566406 114.023438 100.644531 113.824219 100.8125 113.75 Z M 100.8125 113.75 " fill-opacity="1" fill-rule="evenodd"/></svg>